G04*
G04 #@! TF.GenerationSoftware,Altium Limited,Altium Designer,26.5.1 (12)*
G04*
G04 Layer_Color=32768*
G04 Board_Origin=0|0*
%FSLAX25Y25*%
%MOIN*%
G70*
G04*
G04 #@! TF.SameCoordinates,DA6D55F5-90C8-4E35-923D-660AEAB7C3ED*
G04*
G04*
G04 #@! TF.FilePolarity,Positive*
G04*
G01*
G75*
%ADD11C,0.00600*%
%ADD59C,0.00394*%
%ADD60C,0.00197*%
G36*
X280550Y255450D02*
X267850D01*
Y262150D01*
X280550D01*
Y255450D01*
D02*
G37*
G36*
X301250Y255150D02*
X288150D01*
Y262450D01*
X301250D01*
Y255150D01*
D02*
G37*
G36*
X260000Y244922D02*
X248200D01*
Y262278D01*
X260000D01*
Y244922D01*
D02*
G37*
G36*
X280350Y241650D02*
X267650D01*
Y248350D01*
X280350D01*
Y241650D01*
D02*
G37*
G36*
X301100Y240800D02*
X288000D01*
Y248100D01*
X301100D01*
Y240800D01*
D02*
G37*
G36*
X232750Y232850D02*
X199250D01*
Y265150D01*
X232750D01*
Y232850D01*
D02*
G37*
G36*
X248750Y226322D02*
X243250D01*
Y237678D01*
X248750D01*
Y226322D01*
D02*
G37*
G36*
X218750Y216772D02*
X213250D01*
Y228228D01*
X218750D01*
Y216772D01*
D02*
G37*
G36*
X249337Y215238D02*
X236663D01*
Y221962D01*
X249337D01*
Y215238D01*
D02*
G37*
G36*
X304750Y214772D02*
X297250D01*
Y228228D01*
X304750D01*
Y214772D01*
D02*
G37*
G36*
X194401Y214739D02*
X116810D01*
Y265558D01*
X194401D01*
Y214739D01*
D02*
G37*
G36*
X249028Y203650D02*
X237772D01*
Y209350D01*
X249028D01*
Y203650D01*
D02*
G37*
G36*
X242500Y191650D02*
X238500D01*
Y200350D01*
X242500D01*
Y191650D01*
D02*
G37*
G36*
X268100Y184600D02*
X260400D01*
Y188800D01*
X268100D01*
Y184600D01*
D02*
G37*
G36*
X221100Y161350D02*
X214300D01*
Y174050D01*
X221100D01*
Y161350D01*
D02*
G37*
G36*
X211000Y160900D02*
X198400D01*
Y179500D01*
X211000D01*
Y160900D01*
D02*
G37*
G36*
X272000Y129650D02*
X207000D01*
Y158150D01*
X272000D01*
Y129650D01*
D02*
G37*
G36*
X193917Y114639D02*
X116327D01*
Y165458D01*
X193917D01*
Y114639D01*
D02*
G37*
D11*
X248200Y244922D02*
X260000D01*
X248200D02*
Y262278D01*
X260000D01*
Y244922D02*
Y262278D01*
X288000Y248100D02*
X301100D01*
X288000Y240800D02*
Y248100D01*
Y240800D02*
X301100D01*
Y248100D01*
X267650Y241650D02*
X280350D01*
Y248350D01*
X267650D02*
X280350D01*
X267650Y241650D02*
Y248350D01*
X267850Y255450D02*
X280550D01*
Y262150D01*
X267850D02*
X280550D01*
X267850Y255450D02*
Y262150D01*
X288150Y262450D02*
X301250D01*
X288150Y255150D02*
Y262450D01*
Y255150D02*
X301250D01*
Y262450D01*
X248750Y226322D02*
Y237678D01*
X243250D02*
X248750D01*
X243250Y226322D02*
Y237678D01*
Y226322D02*
X248750D01*
X214300Y174050D02*
X221100D01*
Y161350D02*
Y174050D01*
X214300Y161350D02*
X221100D01*
X214300D02*
Y174050D01*
X198400Y160900D02*
Y179500D01*
Y160900D02*
X211000D01*
Y179500D01*
X198400D02*
X211000D01*
X237772Y209350D02*
X249028D01*
X237772Y203650D02*
Y209350D01*
Y203650D02*
X249028D01*
Y209350D01*
X260400Y184600D02*
X268100D01*
Y188800D01*
X260400D02*
X268100D01*
X260400Y184600D02*
Y188800D01*
X297250Y214772D02*
X304750D01*
X297250D02*
Y228228D01*
X304750D01*
Y214772D02*
Y228228D01*
X213250Y216772D02*
X218750D01*
X213250D02*
Y228228D01*
X218750D01*
Y216772D02*
Y228228D01*
X238500Y191650D02*
Y200350D01*
Y191650D02*
X242500D01*
Y200350D01*
X238500D02*
X242500D01*
X236663Y215238D02*
Y221962D01*
X249337D01*
Y215238D02*
Y221962D01*
X236663Y215238D02*
X249337D01*
X199250Y232850D02*
Y265150D01*
Y232850D02*
X203200D01*
X228800D02*
X232750D01*
Y265150D01*
X228800D02*
X232750D01*
X199250D02*
X203200D01*
Y232850D02*
X228800D01*
X203200Y265150D02*
X228800D01*
X194401Y214739D02*
Y265558D01*
X116810Y214739D02*
X194401D01*
X116810D02*
Y265558D01*
X194401D01*
X116810D02*
X194401D01*
X207000Y129650D02*
X272000D01*
Y158150D01*
X207000D02*
X272000D01*
X207000Y129650D02*
Y158150D01*
X193917Y114639D02*
Y165458D01*
X116327Y114639D02*
X193917D01*
X116327D02*
Y165458D01*
X193917D01*
X116327D02*
X193917D01*
D59*
X299031Y188000D02*
X302969D01*
X301000Y186031D02*
Y189969D01*
X291945Y165953D02*
Y210047D01*
X314386D01*
X314386Y165953D02*
Y210047D01*
X291945Y165953D02*
X314386D01*
D60*
X273840Y159992D02*
X285159D01*
Y209008D01*
X273840D02*
X285159D01*
X273840Y159992D02*
Y209008D01*
M02*
