G04*
G04 #@! TF.GenerationSoftware,Altium Limited,Altium Designer,26.5.1 (12)*
G04*
G04 Layer_Color=8421504*
G04 Board_Origin=0|0*
%FSLAX25Y25*%
%MOIN*%
G70*
G04*
G04 #@! TF.SameCoordinates,DA6D55F5-90C8-4E35-923D-660AEAB7C3ED*
G04*
G04*
G04 #@! TF.FilePolarity,Positive*
G04*
G01*
G75*
%ADD20R,0.05500X0.03378*%
%ADD21C,0.01378*%
%ADD22R,0.10600X0.04900*%
%ADD23R,0.04800X0.04200*%
%ADD24R,0.09800X0.04178*%
%ADD25R,0.03800X0.05300*%
%ADD26R,0.04000X0.04700*%
%ADD27C,0.06000*%
%ADD28R,0.03500X0.03278*%
%ADD29R,0.03959X0.04724*%
%ADD30R,0.23600X0.06100*%
%ADD31R,0.00984X0.02362*%
%ADD32R,0.03378X0.03700*%
%ADD33R,0.02000X0.02400*%
%ADD34R,0.03500X0.03778*%
%ADD35R,0.02362X0.00984*%
G36*
X258063Y184415D02*
Y183234D01*
X257866Y183037D01*
X254520D01*
X254323Y183234D01*
Y184415D01*
X254520Y184612D01*
X257866D01*
X258063Y184415D01*
D02*
G37*
G36*
X253535D02*
Y183234D01*
X253339Y183037D01*
X249992D01*
X249795Y183234D01*
Y184415D01*
X249992Y184612D01*
X253339D01*
X253535Y184415D01*
D02*
G37*
G36*
X251331Y181836D02*
Y181246D01*
X251134Y181049D01*
X248575D01*
X248378Y181246D01*
Y181836D01*
X248575Y182033D01*
X251134D01*
X251331Y181836D01*
D02*
G37*
G36*
X247590D02*
Y181246D01*
X247394Y181049D01*
X244835D01*
X244638Y181246D01*
Y181836D01*
X244835Y182033D01*
X247394D01*
X247590Y181836D01*
D02*
G37*
G36*
X258043Y179848D02*
Y178667D01*
X257846Y178470D01*
X254992D01*
X254795Y178273D01*
Y176462D01*
X254598Y176265D01*
X254008D01*
X253811Y176462D01*
Y178470D01*
X252827D01*
Y176462D01*
X252630Y176265D01*
X252039D01*
X251842Y176462D01*
Y178470D01*
X250858D01*
Y176462D01*
X250661Y176265D01*
X250071D01*
X249874Y176462D01*
Y178470D01*
X249776D01*
Y179848D01*
X249972Y180045D01*
X257846D01*
X258043Y179848D01*
D02*
G37*
D20*
X301000Y217461D02*
D03*
Y225539D02*
D03*
D21*
X254500Y179100D02*
D03*
D22*
X204700Y164350D02*
D03*
Y176050D02*
D03*
D23*
X217700Y164450D02*
D03*
Y170950D02*
D03*
D24*
X254100Y248011D02*
D03*
Y259189D02*
D03*
D25*
X290900Y244450D02*
D03*
X298200D02*
D03*
X291050Y258800D02*
D03*
X298350D02*
D03*
D26*
X277350Y245000D02*
D03*
X270650D02*
D03*
X270850Y258800D02*
D03*
X277550D02*
D03*
D27*
X270000Y225000D02*
D03*
X150000Y190000D02*
D03*
X190000D02*
D03*
D28*
X246000Y235039D02*
D03*
Y228961D02*
D03*
D29*
X239643Y218600D02*
D03*
X246357D02*
D03*
D30*
X216000Y259250D02*
D03*
Y238750D02*
D03*
D31*
X248398Y188509D02*
D03*
X250366D02*
D03*
X254303D02*
D03*
X252335D02*
D03*
D32*
X240461Y206500D02*
D03*
X246339D02*
D03*
D33*
X240500Y198150D02*
D03*
Y193850D02*
D03*
D34*
X216000Y219661D02*
D03*
Y225339D02*
D03*
D35*
X245839Y186659D02*
D03*
Y179572D02*
D03*
X256862Y186659D02*
D03*
M02*
