G04*
G04 #@! TF.GenerationSoftware,Altium Limited,Altium Designer,26.5.1 (12)*
G04*
G04 Layer_Color=2752767*
G04 Board_Origin=0|0*
%FSLAX25Y25*%
%MOIN*%
G70*
G04*
G04 #@! TF.SameCoordinates,DA6D55F5-90C8-4E35-923D-660AEAB7C3ED*
G04*
G04*
G04 #@! TF.FilePolarity,Positive*
G04*
G01*
G75*
%ADD14C,0.00500*%
%ADD61C,0.00667*%
%ADD62C,0.00400*%
D14*
X279500Y162106D02*
X280500Y163106D01*
X281500D01*
X280500Y164106D01*
X281500Y165106D01*
X280500D01*
X279500Y166106D01*
X278500Y165106D01*
X277500D01*
X278500Y164106D01*
X277500Y163106D01*
X278500D01*
X279500Y162106D01*
Y202894D02*
X280500Y203894D01*
X281500D01*
X280500Y204894D01*
X281500Y205894D01*
X280500D01*
X279500Y206894D01*
X278500Y205894D01*
X277500D01*
X278500Y204894D01*
X277500Y203894D01*
X278500D01*
X279500Y202894D01*
X301000Y196000D02*
X299000Y200000D01*
X303000D01*
X301000Y196000D01*
Y176000D02*
X299000Y180000D01*
X303000D01*
X301000Y176000D01*
X179983Y248385D02*
Y252385D01*
X183984D01*
Y248385D01*
X179983D01*
X147700D02*
Y252385D01*
X151700D01*
Y248385D01*
X147700D01*
X179500Y128600D02*
Y132600D01*
X183500D01*
Y128600D01*
X179500D01*
X147216D02*
Y132600D01*
X151216D01*
Y128600D01*
X147216D01*
X179983Y228700D02*
Y232700D01*
X183984D01*
Y228700D01*
X179983D01*
X147700D02*
Y232700D01*
X151700D01*
Y228700D01*
X147700D01*
X105500Y273000D02*
Y277000D01*
X109500D01*
Y273000D01*
X105500D01*
X106300Y273800D02*
Y276200D01*
X108700D01*
Y273800D01*
X106300D01*
X330500Y273000D02*
Y277000D01*
X334500D01*
Y273000D01*
X330500D01*
X331300Y273800D02*
Y276200D01*
X333700D01*
Y273800D01*
X331300D01*
X330500Y105500D02*
Y109500D01*
X334500D01*
Y105500D01*
X330500D01*
X331300Y106300D02*
Y108700D01*
X333700D01*
Y106300D01*
X331300D01*
X301000Y186000D02*
X299000Y190000D01*
X303000D01*
X301000Y186000D01*
X147216Y148285D02*
Y152285D01*
X151216D01*
Y148285D01*
X147216D01*
X179500D02*
Y152285D01*
X183500D01*
Y148285D01*
X179500D01*
X105500Y105500D02*
Y109500D01*
X109500D01*
Y105500D01*
X105500D01*
X106300Y106300D02*
Y108700D01*
X108700D01*
Y106300D01*
X106300D01*
X254100Y246011D02*
X252100Y250011D01*
X256100D01*
X254100Y246011D01*
Y246811D02*
X252900Y249211D01*
X255300D01*
X254100Y246811D01*
X217700Y168950D02*
X215700Y172950D01*
X219700D01*
X217700Y168950D01*
Y169750D02*
X216500Y172150D01*
X218900D01*
X217700Y169750D01*
X204700Y174050D02*
X202700Y178050D01*
X206700D01*
X204700Y174050D01*
Y174850D02*
X203500Y177250D01*
X205900D01*
X204700Y174850D01*
X266100Y184700D02*
X267100Y185700D01*
X268100D01*
X267100Y186700D01*
X268100Y187700D01*
X267100D01*
X266100Y188700D01*
X265100Y187700D01*
X264100D01*
X265100Y186700D01*
X264100Y185700D01*
X265100D01*
X266100Y184700D01*
Y185500D02*
X266700Y186100D01*
X267300D01*
X266700Y186700D01*
X267300Y187300D01*
X266700D01*
X266100Y187900D01*
X265500Y187300D01*
X264900D01*
X265500Y186700D01*
X264900Y186100D01*
X265500D01*
X266100Y185500D01*
X253909Y181824D02*
X254909Y182824D01*
X255909D01*
X254909Y183824D01*
X255909Y184824D01*
X254909D01*
X253909Y185824D01*
X252909Y184824D01*
X251909D01*
X252909Y183824D01*
X251909Y182824D01*
X252909D01*
X253909Y181824D01*
Y182624D02*
X254509Y183224D01*
X255110D01*
X254509Y183824D01*
X255110Y184424D01*
X254509D01*
X253909Y185024D01*
X253309Y184424D01*
X252710D01*
X253309Y183824D01*
X252710Y183224D01*
X253309D01*
X253909Y182624D01*
D61*
X261000Y150600D02*
G03*
X261000Y150600I-2000J0D01*
G01*
Y137200D02*
G03*
X261000Y137200I-2000J0D01*
G01*
X222000D02*
G03*
X222000Y137200I-2000J0D01*
G01*
Y150600D02*
G03*
X222000Y150600I-2000J0D01*
G01*
X251400Y192100D02*
G03*
X251400Y192100I-2000J0D01*
G01*
X248500D02*
G03*
X248500Y192100I-2000J0D01*
G01*
X300200Y244450D02*
G03*
X300200Y244450I-2000J0D01*
G01*
X303000Y225539D02*
G03*
X303000Y225539I-2000J0D01*
G01*
X242461Y206500D02*
G03*
X242461Y206500I-2000J0D01*
G01*
X242500Y198150D02*
G03*
X242500Y198150I-2000J0D01*
G01*
X300350Y258800D02*
G03*
X300350Y258800I-2000J0D01*
G01*
D62*
X250600Y192100D02*
G03*
X250600Y192100I-1200J0D01*
G01*
X247700D02*
G03*
X247700Y192100I-1200J0D01*
G01*
X299400Y244450D02*
G03*
X299400Y244450I-1200J0D01*
G01*
X302200Y225539D02*
G03*
X302200Y225539I-1200J0D01*
G01*
X241661Y206500D02*
G03*
X241661Y206500I-1200J0D01*
G01*
X241700Y198150D02*
G03*
X241700Y198150I-1200J0D01*
G01*
X299550Y258800D02*
G03*
X299550Y258800I-1200J0D01*
G01*
M02*
