G04*
G04 #@! TF.GenerationSoftware,Altium Limited,Altium Designer,26.6.0 (10)*
G04*
G04 Layer_Color=32768*
G04 Board_Origin=0|0*
%FSLAX44Y44*%
%MOMM*%
G71*
G04*
G04 #@! TF.SameCoordinates,5CBCFD7A-D7D9-4FBD-A79A-5820311D6744*
G04*
G04*
G04 #@! TF.FilePolarity,Positive*
G04*
G01*
G75*
%ADD10C,0.1524*%
G36*
X55880Y130810D02*
X64770D01*
Y118110D01*
X55880D01*
Y113030D01*
X20320D01*
Y118110D01*
X11430D01*
Y130810D01*
X20320D01*
Y135890D01*
X55880D01*
Y130810D01*
D02*
G37*
G36*
X82423Y79883D02*
X77597D01*
Y90297D01*
X82423D01*
Y79883D01*
D02*
G37*
G36*
X67651Y20701D02*
X2218D01*
Y106299D01*
X67651D01*
Y20701D01*
D02*
G37*
G36*
X94488Y14224D02*
X78994D01*
Y21336D01*
X94488D01*
Y14224D01*
D02*
G37*
G36*
X155321Y143698D02*
X211913D01*
Y146776D01*
X250267D01*
Y134584D01*
X247188D01*
Y124565D01*
X250329D01*
Y110595D01*
X247188D01*
Y82677D01*
X250317D01*
Y67183D01*
X247188D01*
Y65532D01*
X248666D01*
Y44450D01*
X247188D01*
Y42037D01*
X250444D01*
Y20955D01*
X247188D01*
Y17176D01*
X250267D01*
Y4984D01*
X211913D01*
Y8062D01*
X164846D01*
Y7112D01*
X139900D01*
Y5022D01*
X106880D01*
Y8062D01*
X101900D01*
Y85725D01*
X91059D01*
Y127635D01*
X98679D01*
Y147193D01*
X155321D01*
Y143698D01*
D02*
G37*
D10*
X211913Y4984D02*
X250267D01*
Y17176D01*
X247188D02*
X250267D01*
X247188D02*
Y67183D01*
X250317D01*
Y82677D01*
X247188D02*
X250317D01*
X247188Y110595D02*
X250329D01*
Y124565D01*
X247188D02*
X250329D01*
X247188D02*
Y134584D01*
X250267D01*
Y146776D01*
X211913D02*
X250267D01*
X211913Y143698D02*
Y146776D01*
X130274Y143698D02*
X211913D01*
X130274D02*
Y146735D01*
X106906D02*
X130274D01*
X106906Y143698D02*
Y146735D01*
X101900Y143698D02*
X106906D01*
X101900Y8062D02*
Y143698D01*
Y8062D02*
X106880D01*
Y5022D02*
Y8062D01*
Y5022D02*
X139900D01*
Y8062D01*
X211913D01*
Y4984D02*
Y8062D01*
X247188Y82677D02*
Y110595D01*
X239014Y65532D02*
X248666D01*
Y44450D02*
Y65532D01*
X239014Y44450D02*
X248666D01*
X239014D02*
Y65532D01*
X237744Y20955D02*
X249936D01*
X237744Y42037D02*
X249936D01*
Y20955D02*
X250444D01*
X237236D02*
X237744D01*
X237236D02*
Y42037D01*
X237744D01*
X249936D02*
X250444D01*
Y20955D02*
Y42037D01*
X215900Y26670D02*
Y36168D01*
Y50192D01*
Y59690D01*
X211442D02*
X215900D01*
X192418D02*
X211442D01*
X187960D02*
X192418D01*
X187960Y50192D02*
Y59690D01*
Y36168D02*
Y50192D01*
Y26670D02*
Y36168D01*
Y26670D02*
X192418D01*
X211442D01*
X215900D01*
X164846Y61468D02*
X170561D01*
X164846D02*
Y64262D01*
X124714D02*
X164846D01*
X124714Y61468D02*
Y64262D01*
X118999Y61468D02*
X124714D01*
X118999Y55753D02*
Y61468D01*
X116205Y55753D02*
X118999D01*
X116205Y15621D02*
Y55753D01*
Y15621D02*
X118999D01*
Y9906D02*
Y15621D01*
Y9906D02*
X124714D01*
Y7112D02*
Y9906D01*
Y7112D02*
X164846D01*
Y9906D01*
X170561D01*
Y15621D01*
X173355D01*
Y55753D01*
X170561D02*
X173355D01*
X170561D02*
Y61468D01*
X78994Y14224D02*
X94488D01*
Y21336D01*
X78994D02*
X94488D01*
X78994Y14224D02*
Y21336D01*
X77597Y79883D02*
X82423D01*
X77597D02*
Y90297D01*
X82423D01*
Y79883D02*
Y90297D01*
X67651Y20701D02*
Y106299D01*
X2218Y20701D02*
X67651D01*
X2218D02*
Y106299D01*
X67651D01*
X164839Y72132D02*
X180333D01*
X164839Y65020D02*
Y72132D01*
Y65020D02*
X180333D01*
Y72132D01*
X206118Y63754D02*
Y79248D01*
Y63754D02*
X213230D01*
Y79248D01*
X206118D02*
X213230D01*
X174117Y19177D02*
X178943D01*
Y8763D02*
Y19177D01*
X174117Y8763D02*
X178943D01*
X174117D02*
Y19177D01*
X218313Y41656D02*
X233807D01*
X218313Y34544D02*
Y41656D01*
Y34544D02*
X233807D01*
Y41656D01*
X55880Y118110D02*
X64770D01*
X20320Y113030D02*
X31115D01*
X20320D02*
Y118110D01*
X45085Y113030D02*
X55880D01*
X31115D02*
X45085D01*
Y135890D02*
X55880D01*
Y130810D02*
Y135890D01*
X20320D02*
X31115D01*
X20320Y130810D02*
Y135890D01*
X31115D02*
X45085D01*
X11430Y118110D02*
X20320D01*
X11430D02*
Y130810D01*
X64770Y118110D02*
Y130810D01*
X55880Y113030D02*
Y118110D01*
Y130810D02*
X64770D01*
X11430D02*
X20320D01*
X155321Y127635D02*
X162941D01*
X155321D02*
Y147193D01*
X98679D02*
X155321D01*
X98679Y127635D02*
Y147193D01*
X91059Y127635D02*
X98679D01*
X91059Y85725D02*
Y127635D01*
Y85725D02*
X108458D01*
Y66167D02*
Y85725D01*
Y66167D02*
X145542D01*
Y85725D01*
X162941D01*
Y127635D01*
M02*
