G04*
G04 #@! TF.GenerationSoftware,Altium Limited,Altium Designer,26.6.0 (10)*
G04*
G04 Layer_Color=16711935*
G04 Board_Origin=0|0*
%FSLAX44Y44*%
%MOMM*%
G71*
G04*
G04 #@! TF.SameCoordinates,5CBCFD7A-D7D9-4FBD-A79A-5820311D6744*
G04*
G04*
G04 #@! TF.FilePolarity,Negative*
G04*
G01*
G75*
%ADD31O,1.0160X1.2954*%
%ADD32O,1.6510X1.0160*%
%ADD33C,1.5240*%
%ADD34C,0.4000*%
%ADD35C,0.5000*%
%ADD41R,2.7940X0.8636*%
%ADD42R,1.8288X1.1430*%
%ADD43R,0.7874X1.0414*%
%ADD44R,0.9398X0.8890*%
%ADD45R,1.0922X0.7112*%
D31*
X58380Y38500D02*
D03*
Y88500D02*
D03*
D32*
X31630Y28500D02*
D03*
Y98500D02*
D03*
D33*
X10160Y10160D02*
D03*
Y142240D02*
D03*
D34*
X243840Y25527D02*
D03*
X176530Y5080D02*
D03*
X80010Y92710D02*
D03*
X128270Y3810D02*
D03*
X96520Y17780D02*
D03*
X209552Y62566D02*
D03*
X118390Y66680D02*
D03*
X80010Y50800D02*
D03*
Y74930D02*
D03*
X187960Y25400D02*
D03*
X177800Y52070D02*
D03*
X203200Y17780D02*
D03*
X91440Y38100D02*
D03*
X149987Y138430D02*
D03*
X31630Y73500D02*
D03*
Y53500D02*
D03*
X118110Y10160D02*
D03*
X231090Y11080D02*
D03*
Y140680D02*
D03*
X118590Y138480D02*
D03*
X176530Y30480D02*
D03*
X82550Y17780D02*
D03*
X157480Y66040D02*
D03*
X176777Y68576D02*
D03*
X230251Y38100D02*
D03*
X209674Y75692D02*
D03*
X90170Y66040D02*
D03*
X204430Y31077D02*
D03*
X211493Y43180D02*
D03*
X182880Y30480D02*
D03*
X181610Y45275D02*
D03*
X91440Y52070D02*
D03*
D35*
X135890Y74930D02*
D03*
Y147320D02*
D03*
X43180Y10160D02*
D03*
X144780Y35687D02*
D03*
D41*
X123390Y11880D02*
D03*
D42*
X118590Y138480D02*
D03*
D43*
X243840Y74930D02*
D03*
D44*
X243090Y117580D02*
D03*
D45*
X118390Y22680D02*
D03*
Y33680D02*
D03*
Y44680D02*
D03*
Y55680D02*
D03*
Y66680D02*
D03*
Y77680D02*
D03*
Y88680D02*
D03*
Y99680D02*
D03*
M02*
