G04*
G04 #@! TF.GenerationSoftware,Altium Limited,Altium Designer,26.6.0 (10)*
G04*
G04 Layer_Color=2752767*
G04 Board_Origin=0|0*
%FSLAX44Y44*%
%MOMM*%
G71*
G04*
G04 #@! TF.SameCoordinates,5CBCFD7A-D7D9-4FBD-A79A-5820311D6744*
G04*
G04*
G04 #@! TF.FilePolarity,Positive*
G04*
G01*
G75*
%ADD11C,0.1270*%
%ADD48C,0.1693*%
D11*
X53300Y33420D02*
Y43580D01*
X63460D01*
Y33420D01*
X53300D01*
Y83420D02*
Y93580D01*
X63460D01*
Y83420D01*
X53300D01*
X10160Y5080D02*
X5080Y15240D01*
X15240D01*
X10160Y5080D01*
Y137160D02*
X5080Y147320D01*
X15240D01*
X10160Y137160D01*
X243840Y20447D02*
X246380Y22987D01*
X248920D01*
X246380Y25527D01*
X248920Y28067D01*
X246380D01*
X243840Y30607D01*
X241300Y28067D01*
X238760D01*
X241300Y25527D01*
X238760Y22987D01*
X241300D01*
X243840Y20447D01*
X176530Y0D02*
X179070Y2540D01*
X181610D01*
X179070Y5080D01*
X181610Y7620D01*
X179070D01*
X176530Y10160D01*
X173990Y7620D01*
X171450D01*
X173990Y5080D01*
X171450Y2540D01*
X173990D01*
X176530Y0D01*
X80010Y87630D02*
X82550Y90170D01*
X85090D01*
X82550Y92710D01*
X85090Y95250D01*
X82550D01*
X80010Y97790D01*
X77470Y95250D01*
X74930D01*
X77470Y92710D01*
X74930Y90170D01*
X77470D01*
X80010Y87630D01*
X128270Y-1270D02*
X130810Y1270D01*
X133350D01*
X130810Y3810D01*
X133350Y6350D01*
X130810D01*
X128270Y8890D01*
X125730Y6350D01*
X123190D01*
X125730Y3810D01*
X123190Y1270D01*
X125730D01*
X128270Y-1270D01*
X96520Y12700D02*
X99060Y15240D01*
X101600D01*
X99060Y17780D01*
X101600Y20320D01*
X99060D01*
X96520Y22860D01*
X93980Y20320D01*
X91440D01*
X93980Y17780D01*
X91440Y15240D01*
X93980D01*
X96520Y12700D01*
X133350Y72390D02*
Y69850D01*
X138430D01*
Y72390D01*
X140970D01*
Y77470D01*
X138430D01*
Y80010D01*
X133350D01*
Y77470D01*
X130810D01*
Y72390D01*
X133350D01*
X130810Y142240D02*
X133350Y147320D01*
X130810Y152400D01*
X135890Y149860D01*
X140970Y152400D01*
X138430Y147320D01*
X140970Y142240D01*
X135890Y144780D01*
X130810Y142240D01*
X209552Y57487D02*
X212092Y60026D01*
X214632D01*
X212092Y62566D01*
X214632Y65107D01*
X212092D01*
X209552Y67646D01*
X207012Y65107D01*
X204472D01*
X207012Y62566D01*
X204472Y60026D01*
X207012D01*
X209552Y57487D01*
X118390Y61600D02*
X120930Y64140D01*
X123470D01*
X120930Y66680D01*
X123470Y69220D01*
X120930D01*
X118390Y71760D01*
X115850Y69220D01*
X113310D01*
X115850Y66680D01*
X113310Y64140D01*
X115850D01*
X118390Y61600D01*
X80010Y45720D02*
X82550Y48260D01*
X85090D01*
X82550Y50800D01*
X85090Y53340D01*
X82550D01*
X80010Y55880D01*
X77470Y53340D01*
X74930D01*
X77470Y50800D01*
X74930Y48260D01*
X77470D01*
X80010Y45720D01*
Y69850D02*
X82550Y72390D01*
X85090D01*
X82550Y74930D01*
X85090Y77470D01*
X82550D01*
X80010Y80010D01*
X77470Y77470D01*
X74930D01*
X77470Y74930D01*
X74930Y72390D01*
X77470D01*
X80010Y69850D01*
X40640Y7620D02*
Y5080D01*
X45720D01*
Y7620D01*
X48260D01*
Y12700D01*
X45720D01*
Y15240D01*
X40640D01*
Y12700D01*
X38100D01*
Y7620D01*
X40640D01*
X187960Y20320D02*
X190500Y22860D01*
X193040D01*
X190500Y25400D01*
X193040Y27940D01*
X190500D01*
X187960Y30480D01*
X185420Y27940D01*
X182880D01*
X185420Y25400D01*
X182880Y22860D01*
X185420D01*
X187960Y20320D01*
X177800Y46990D02*
X180340Y49530D01*
X182880D01*
X180340Y52070D01*
X182880Y54610D01*
X180340D01*
X177800Y57150D01*
X175260Y54610D01*
X172720D01*
X175260Y52070D01*
X172720Y49530D01*
X175260D01*
X177800Y46990D01*
X203200Y12700D02*
X205740Y15240D01*
X208280D01*
X205740Y17780D01*
X208280Y20320D01*
X205740D01*
X203200Y22860D01*
X200660Y20320D01*
X198120D01*
X200660Y17780D01*
X198120Y15240D01*
X200660D01*
X203200Y12700D01*
X91440Y33020D02*
X93980Y35560D01*
X96520D01*
X93980Y38100D01*
X96520Y40640D01*
X93980D01*
X91440Y43180D01*
X88900Y40640D01*
X86360D01*
X88900Y38100D01*
X86360Y35560D01*
X88900D01*
X91440Y33020D01*
X139700Y30607D02*
X142240Y35687D01*
X139700Y40767D01*
X144780Y38227D01*
X149860Y40767D01*
X147320Y35687D01*
X149860Y30607D01*
X144780Y33147D01*
X139700Y30607D01*
X149987Y133350D02*
X152527Y135890D01*
X155067D01*
X152527Y138430D01*
X155067Y140970D01*
X152527D01*
X149987Y143510D01*
X147447Y140970D01*
X144907D01*
X147447Y138430D01*
X144907Y135890D01*
X147447D01*
X149987Y133350D01*
X31630Y68420D02*
X34170Y70960D01*
X36710D01*
X34170Y73500D01*
X36710Y76040D01*
X34170D01*
X31630Y78580D01*
X29090Y76040D01*
X26550D01*
X29090Y73500D01*
X26550Y70960D01*
X29090D01*
X31630Y68420D01*
Y48420D02*
X34170Y50960D01*
X36710D01*
X34170Y53500D01*
X36710Y56040D01*
X34170D01*
X31630Y58580D01*
X29090Y56040D01*
X26550D01*
X29090Y53500D01*
X26550Y50960D01*
X29090D01*
X31630Y48420D01*
X118110Y5080D02*
X120650Y7620D01*
X123190D01*
X120650Y10160D01*
X123190Y12700D01*
X120650D01*
X118110Y15240D01*
X115570Y12700D01*
X113030D01*
X115570Y10160D01*
X113030Y7620D01*
X115570D01*
X118110Y5080D01*
X231090Y6000D02*
X233630Y8540D01*
X236170D01*
X233630Y11080D01*
X236170Y13620D01*
X233630D01*
X231090Y16160D01*
X228550Y13620D01*
X226010D01*
X228550Y11080D01*
X226010Y8540D01*
X228550D01*
X231090Y6000D01*
Y135600D02*
X233630Y138140D01*
X236170D01*
X233630Y140680D01*
X236170Y143220D01*
X233630D01*
X231090Y145760D01*
X228550Y143220D01*
X226010D01*
X228550Y140680D01*
X226010Y138140D01*
X228550D01*
X231090Y135600D01*
X118590Y133400D02*
X121130Y135940D01*
X123670D01*
X121130Y138480D01*
X123670Y141020D01*
X121130D01*
X118590Y143560D01*
X116050Y141020D01*
X113510D01*
X116050Y138480D01*
X113510Y135940D01*
X116050D01*
X118590Y133400D01*
X176530Y25400D02*
X179070Y27940D01*
X181610D01*
X179070Y30480D01*
X181610Y33020D01*
X179070D01*
X176530Y35560D01*
X173990Y33020D01*
X171450D01*
X173990Y30480D01*
X171450Y27940D01*
X173990D01*
X176530Y25400D01*
X82550Y12700D02*
X85090Y15240D01*
X87630D01*
X85090Y17780D01*
X87630Y20320D01*
X85090D01*
X82550Y22860D01*
X80010Y20320D01*
X77470D01*
X80010Y17780D01*
X77470Y15240D01*
X80010D01*
X82550Y12700D01*
X157480Y60960D02*
X160020Y63500D01*
X162560D01*
X160020Y66040D01*
X162560Y68580D01*
X160020D01*
X157480Y71120D01*
X154940Y68580D01*
X152400D01*
X154940Y66040D01*
X152400Y63500D01*
X154940D01*
X157480Y60960D01*
X176777Y63496D02*
X179317Y66036D01*
X181857D01*
X179317Y68576D01*
X181857Y71116D01*
X179317D01*
X176777Y73656D01*
X174237Y71116D01*
X171697D01*
X174237Y68576D01*
X171697Y66036D01*
X174237D01*
X176777Y63496D01*
X230251Y33020D02*
X232791Y35560D01*
X235331D01*
X232791Y38100D01*
X235331Y40640D01*
X232791D01*
X230251Y43180D01*
X227711Y40640D01*
X225171D01*
X227711Y38100D01*
X225171Y35560D01*
X227711D01*
X230251Y33020D01*
X209674Y70612D02*
X212214Y73152D01*
X214754D01*
X212214Y75692D01*
X214754Y78232D01*
X212214D01*
X209674Y80772D01*
X207134Y78232D01*
X204594D01*
X207134Y75692D01*
X204594Y73152D01*
X207134D01*
X209674Y70612D01*
X90170Y60960D02*
X92710Y63500D01*
X95250D01*
X92710Y66040D01*
X95250Y68580D01*
X92710D01*
X90170Y71120D01*
X87630Y68580D01*
X85090D01*
X87630Y66040D01*
X85090Y63500D01*
X87630D01*
X90170Y60960D01*
X204430Y25997D02*
X206970Y28537D01*
X209510D01*
X206970Y31077D01*
X209510Y33617D01*
X206970D01*
X204430Y36157D01*
X201890Y33617D01*
X199350D01*
X201890Y31077D01*
X199350Y28537D01*
X201890D01*
X204430Y25997D01*
X211493Y38100D02*
X214033Y40640D01*
X216573D01*
X214033Y43180D01*
X216573Y45720D01*
X214033D01*
X211493Y48260D01*
X208953Y45720D01*
X206413D01*
X208953Y43180D01*
X206413Y40640D01*
X208953D01*
X211493Y38100D01*
X182880Y25400D02*
X185420Y27940D01*
X187960D01*
X185420Y30480D01*
X187960Y33020D01*
X185420D01*
X182880Y35560D01*
X180340Y33020D01*
X177800D01*
X180340Y30480D01*
X177800Y27940D01*
X180340D01*
X182880Y25400D01*
X181610Y40195D02*
X184150Y42735D01*
X186690D01*
X184150Y45275D01*
X186690Y47815D01*
X184150D01*
X181610Y50355D01*
X179070Y47815D01*
X176530D01*
X179070Y45275D01*
X176530Y42735D01*
X179070D01*
X181610Y40195D01*
X91440Y46990D02*
X93980Y49530D01*
X96520D01*
X93980Y52070D01*
X96520Y54610D01*
X93980D01*
X91440Y57150D01*
X88900Y54610D01*
X86360D01*
X88900Y52070D01*
X86360Y49530D01*
X88900D01*
X91440Y46990D01*
D48*
X36710Y28500D02*
G03*
X36710Y28500I-5080J0D01*
G01*
Y98500D02*
G03*
X36710Y98500I-5080J0D01*
G01*
M02*
