G04*
G04 #@! TF.GenerationSoftware,Altium Limited,Altium Designer,26.6.0 (10)*
G04*
G04 Layer_Physical_Order=1*
G04 Layer_Color=255*
G04 Board_Origin=0|0*
%FSLAX44Y44*%
%MOMM*%
G71*
G04*
G04 #@! TF.SameCoordinates,5CBCFD7A-D7D9-4FBD-A79A-5820311D6744*
G04*
G04*
G04 #@! TF.FilePolarity,Positive*
G04*
G01*
G75*
%ADD13R,0.7620X0.5588*%
%ADD14R,0.7112X0.4064*%
%ADD15R,3.2004X1.2446*%
%ADD16R,0.5588X1.2446*%
%ADD17R,0.5080X0.5080*%
%ADD18R,0.2794X0.3048*%
%ADD19R,0.3515X0.5766*%
%ADD20R,0.5766X0.3515*%
%ADD21R,0.5080X0.5080*%
%ADD22R,0.2540X0.7112*%
%ADD23R,0.7112X0.2540*%
%ADD24R,3.8100X1.5240*%
%ADD25R,1.5240X3.8100*%
%ADD26R,1.3462X0.4572*%
%ADD27R,1.4572X0.8874*%
%ADD30R,3.4036X3.4036*%
%ADD31O,1.0160X1.2954*%
%ADD32O,1.6510X1.0160*%
%ADD33C,1.5240*%
%ADD34C,0.4000*%
%ADD35C,0.5000*%
%ADD36R,1.6510X1.4986*%
%ADD37C,0.2540*%
%ADD38C,0.3810*%
%ADD39C,0.5080*%
G36*
X251460Y69070D02*
X250190Y67056D01*
X248920Y67056D01*
X245110D01*
Y61722D01*
X243840D01*
Y60452D01*
X237490D01*
Y56388D01*
X239226D01*
Y51562D01*
X239387Y51173D01*
X239522Y51117D01*
Y44958D01*
X242027D01*
Y40005D01*
X239776D01*
Y34925D01*
X247904D01*
Y40005D01*
X245653D01*
Y44958D01*
X248158D01*
Y51117D01*
X248293Y51173D01*
X248454Y51562D01*
Y54379D01*
X248986Y54533D01*
X251460Y52604D01*
Y2540D01*
X182164D01*
X181315Y3810D01*
X176530D01*
Y6350D01*
X180918D01*
X180467Y7439D01*
Y10033D01*
X176530D01*
Y12573D01*
X180467D01*
Y15367D01*
X178435D01*
Y18669D01*
X178343D01*
Y21872D01*
X183105Y26634D01*
X184004Y26353D01*
X185452Y25389D01*
Y24901D01*
X185834Y23979D01*
X186539Y23274D01*
X187461Y22892D01*
X188299D01*
X188343Y22848D01*
X188931Y22455D01*
X189625Y22317D01*
X192942D01*
X193636Y22455D01*
X194224Y22848D01*
X195712Y24336D01*
X196105Y24924D01*
X196226Y25535D01*
X196341Y25798D01*
X197371Y27686D01*
X199156Y27686D01*
X202164Y27686D01*
Y27686D01*
X206696D01*
X207677Y25553D01*
Y24821D01*
X203144Y20288D01*
X202701D01*
X201779Y19906D01*
X201074Y19201D01*
X200692Y18279D01*
Y17281D01*
X201074Y16359D01*
X201779Y15654D01*
X202701Y15272D01*
X203699D01*
X204621Y15654D01*
X205326Y16359D01*
X205708Y17281D01*
Y17724D01*
X210772Y22788D01*
X211165Y23376D01*
X211303Y24070D01*
Y27686D01*
X211696D01*
Y33882D01*
X216789D01*
Y33020D01*
X220599D01*
Y38100D01*
Y43180D01*
X216789D01*
X216367Y43520D01*
X214884Y45446D01*
Y45914D01*
X214884D01*
Y50446D01*
X213728D01*
Y54013D01*
X209430D01*
Y56553D01*
X213728D01*
Y60706D01*
X214754Y62230D01*
X214754D01*
Y66040D01*
X209674D01*
X204594D01*
Y62230D01*
X204594D01*
X205075Y60867D01*
X204122Y58674D01*
X202164Y58674D01*
X199624Y58674D01*
X197164Y58674D01*
X194624Y58674D01*
X192164D01*
X192164Y51892D01*
X190223Y50446D01*
X188976D01*
Y50033D01*
X184950D01*
X184256Y49895D01*
X183668Y49502D01*
X181949Y47783D01*
X181111D01*
X180189Y47401D01*
X179484Y46696D01*
X179102Y45774D01*
Y44776D01*
X178790Y44449D01*
X177300Y44432D01*
X175149Y46887D01*
X175151Y47025D01*
X175244Y47345D01*
X177461Y49562D01*
X178299D01*
X179221Y49944D01*
X179926Y50649D01*
X180308Y51571D01*
Y52569D01*
X179926Y53491D01*
X179221Y54196D01*
X178299Y54578D01*
X177301D01*
X176379Y54196D01*
X175674Y53491D01*
X172973Y53609D01*
X172847Y53668D01*
Y55245D01*
X166575D01*
X166370Y55245D01*
X166370Y55450D01*
Y58420D01*
X162560D01*
Y60960D01*
X166370D01*
Y63496D01*
X167125D01*
Y68576D01*
Y73656D01*
X163315D01*
Y70594D01*
X163106Y70552D01*
X162308Y70019D01*
X161337Y69048D01*
X160761Y68520D01*
X159003Y68186D01*
X158003Y68538D01*
X157979Y68548D01*
X156981D01*
X156059Y68166D01*
X155354Y67461D01*
X154972Y66539D01*
Y65965D01*
X154748Y65342D01*
X152963Y63754D01*
X149098Y63754D01*
X148082Y63754D01*
X145849Y63754D01*
X145542Y66167D01*
X145542Y66294D01*
Y73660D01*
X127000D01*
X108458D01*
Y66167D01*
X113850D01*
Y65777D01*
X114541Y64108D01*
X115818Y62831D01*
X117120Y62292D01*
Y66680D01*
X119660D01*
Y62292D01*
X120962Y62831D01*
X122239Y64108D01*
X122528Y64806D01*
X125133Y64457D01*
X125222Y63754D01*
X125222Y63627D01*
Y57627D01*
X124894Y55574D01*
X122840Y55245D01*
X120952D01*
X120777Y55280D01*
X97144D01*
X91983Y60441D01*
Y64306D01*
X92296Y64619D01*
X92678Y65541D01*
Y66539D01*
X92296Y67461D01*
X91591Y68166D01*
X90669Y68548D01*
X89671D01*
X88749Y68166D01*
X88044Y67461D01*
X87662Y66539D01*
Y65541D01*
X88044Y64619D01*
X88357Y64306D01*
Y59690D01*
X88495Y58996D01*
X88888Y58408D01*
X90372Y56925D01*
X90019Y54196D01*
X89764Y53941D01*
X89314Y53491D01*
X88932Y52569D01*
Y51571D01*
X89314Y50649D01*
X89973Y49990D01*
X90044Y49632D01*
X90437Y49044D01*
X92376Y47105D01*
X92561Y46070D01*
X92603Y44927D01*
X92462Y44226D01*
X90437Y42201D01*
X90044Y41613D01*
X89907Y40919D01*
Y40113D01*
X89314Y39521D01*
X88932Y38599D01*
Y37601D01*
X89314Y36679D01*
X90019Y35974D01*
X90941Y35592D01*
X91939D01*
X92861Y35974D01*
X93566Y36679D01*
X93948Y37601D01*
Y38599D01*
X93582Y39483D01*
X94085Y40244D01*
X94982Y41494D01*
X105299D01*
X105565Y41142D01*
X106241Y38954D01*
X99579Y32293D01*
X85841D01*
X81823Y36311D01*
Y49066D01*
X82136Y49379D01*
X82518Y50301D01*
Y51299D01*
X82136Y52221D01*
X81431Y52926D01*
X80509Y53308D01*
X79511D01*
X78589Y52926D01*
X78553Y52890D01*
X76013Y53836D01*
Y62769D01*
X75875Y63463D01*
X75482Y64051D01*
X68655Y70878D01*
X68067Y71271D01*
X67373Y71409D01*
X67260D01*
X65742Y73757D01*
X65926Y75207D01*
X70778Y80058D01*
X71451Y81066D01*
X71688Y82255D01*
Y101600D01*
X71451Y102789D01*
X70778Y103798D01*
X63158Y111418D01*
X62149Y112091D01*
X60960Y112328D01*
X26687D01*
X23793Y115222D01*
Y117822D01*
X25486Y119515D01*
X28376Y119515D01*
X29930Y117619D01*
Y115951D01*
X30091Y115562D01*
X30480Y115401D01*
X45720D01*
X46109Y115562D01*
X46270Y115951D01*
Y117619D01*
X47824Y119515D01*
X48810Y119515D01*
X63412D01*
Y121352D01*
X70612D01*
Y109982D01*
X86868D01*
Y135322D01*
X100711D01*
Y131699D01*
X107315D01*
Y145161D01*
X100711D01*
Y141538D01*
X86868D01*
X86868Y149098D01*
X89092Y149860D01*
X121865D01*
X123223Y147320D01*
X123138Y147193D01*
X121666D01*
Y142460D01*
X121353Y142109D01*
X119126Y140973D01*
X119089Y140988D01*
X118091D01*
X117169Y140606D01*
X116464Y139901D01*
X116082Y138979D01*
Y137981D01*
X116464Y137059D01*
X117169Y136354D01*
X118091Y135972D01*
X119089D01*
X119126Y135987D01*
X121353Y134851D01*
X121666Y134500D01*
Y129667D01*
X125730D01*
Y138430D01*
X127000D01*
Y139700D01*
X132334D01*
Y140588D01*
X134620Y142116D01*
Y147320D01*
X135890D01*
Y148590D01*
X141109D01*
X141957Y149860D01*
X251460D01*
Y69070D01*
D02*
G37*
G36*
X70612Y149098D02*
X70612Y147320D01*
Y127568D01*
X63412D01*
Y129405D01*
X48810D01*
X47824Y129405D01*
X46270Y131301D01*
Y132969D01*
X46109Y133358D01*
X45720Y133519D01*
X30480D01*
X30091Y133358D01*
X29930Y132969D01*
Y131301D01*
X28376Y129405D01*
X27390Y129405D01*
X12788D01*
Y119515D01*
X17474D01*
Y114038D01*
X17711Y112849D01*
X18384Y111840D01*
X23203Y107022D01*
X24211Y106349D01*
X25400Y106112D01*
X25993Y103749D01*
X25988Y103572D01*
X24426Y102529D01*
X23191Y100680D01*
X22757Y98500D01*
X23191Y96320D01*
X24426Y94471D01*
X26274Y93236D01*
X28455Y92802D01*
X34805D01*
X36985Y93236D01*
X38834Y94471D01*
X40069Y96320D01*
X40502Y98500D01*
X40069Y100680D01*
X38834Y102529D01*
X38766Y105629D01*
X39152Y106112D01*
X59673D01*
X65472Y100313D01*
Y93912D01*
X62932Y93142D01*
X62409Y93926D01*
X60560Y95161D01*
X58380Y95595D01*
X56200Y95161D01*
X54351Y93926D01*
X53116Y92077D01*
X52682Y89897D01*
Y87103D01*
X53116Y84923D01*
X54351Y83074D01*
X56200Y81839D01*
X56226Y81834D01*
X55976Y79294D01*
X51141D01*
X51141Y73706D01*
X51141Y71166D01*
X51141Y67206D01*
X51141Y64666D01*
X51141Y60706D01*
X51141Y58166D01*
X51141Y54206D01*
X51141Y51666D01*
Y47706D01*
X55976D01*
X56226Y45166D01*
X56200Y45161D01*
X54351Y43926D01*
X53116Y42077D01*
X52682Y39897D01*
Y37103D01*
X53116Y34923D01*
X54351Y33074D01*
X56200Y31839D01*
X58380Y31405D01*
X60560Y31839D01*
X62409Y33074D01*
X63644Y34923D01*
X64077Y37103D01*
Y39897D01*
X63644Y42077D01*
X62409Y43926D01*
X60560Y45161D01*
X60534Y45166D01*
X60784Y47706D01*
X65619Y47706D01*
X67307Y45865D01*
Y9620D01*
X67445Y8926D01*
X67838Y8338D01*
X71290Y4887D01*
X70318Y2540D01*
X62738D01*
Y18288D01*
X23622D01*
Y2540D01*
X17627D01*
X16575Y5080D01*
X16664Y5169D01*
X17734Y7023D01*
X18288Y9090D01*
Y11230D01*
X17734Y13297D01*
X16664Y15151D01*
X15151Y16664D01*
X13297Y17734D01*
X11230Y18288D01*
X9090D01*
X7023Y17734D01*
X5169Y16664D01*
X5080Y16575D01*
X2540Y17627D01*
Y134773D01*
X5080Y135825D01*
X5169Y135736D01*
X7023Y134666D01*
X9090Y134112D01*
X11230D01*
X13297Y134666D01*
X15151Y135736D01*
X16664Y137249D01*
X17734Y139103D01*
X18288Y141170D01*
Y143310D01*
X17734Y145377D01*
X16664Y147231D01*
X16575Y147320D01*
X17627Y149860D01*
X68388D01*
X70612Y149098D01*
D02*
G37*
G36*
X201696Y51892D02*
X203336D01*
X205132Y50096D01*
Y49860D01*
X206306D01*
X208102Y48064D01*
X208102Y45914D01*
X208102D01*
Y45446D01*
X208102D01*
Y42478D01*
X206070D01*
Y39450D01*
X211493D01*
Y36910D01*
X206070D01*
Y36442D01*
X204232Y34468D01*
X201696Y34468D01*
X201696Y34468D01*
X197699Y34468D01*
X196548Y35325D01*
X195973Y36126D01*
X195758Y36619D01*
X195758Y37008D01*
Y40446D01*
X195758Y40446D01*
Y40914D01*
X195758D01*
X195758Y42986D01*
Y45446D01*
X195758D01*
Y45914D01*
X195758D01*
X195758Y49741D01*
X195973Y50234D01*
X196548Y51035D01*
X197699Y51892D01*
X199236Y51892D01*
X201696Y51892D01*
D02*
G37*
G36*
X116713Y34925D02*
X116713Y33874D01*
X116713Y29845D01*
X116713Y28829D01*
X116713Y24765D01*
X116713Y23749D01*
Y22062D01*
X116501Y20868D01*
X116087Y20015D01*
X115619Y19122D01*
X107199Y10703D01*
X97430D01*
X97423Y13240D01*
X99092Y13931D01*
X100369Y15208D01*
X100908Y16510D01*
X96520D01*
Y17780D01*
X95250D01*
Y22860D01*
X92202D01*
Y17780D01*
X89662D01*
Y22860D01*
X85852D01*
Y21124D01*
X85598D01*
X85209Y20963D01*
X85153Y20828D01*
X79502D01*
Y14732D01*
X83434D01*
X85349Y13123D01*
X85352Y13114D01*
X85373Y12898D01*
X83671Y10703D01*
X79491D01*
X76013Y14181D01*
Y34118D01*
X77281Y34527D01*
X78553Y34541D01*
X78728Y34278D01*
X83808Y29198D01*
X84396Y28805D01*
X85090Y28667D01*
X100330D01*
X101024Y28805D01*
X101612Y29198D01*
X108828Y36414D01*
X114790D01*
X116713Y34925D01*
D02*
G37*
%LPC*%
G36*
X140819Y146050D02*
X137160D01*
Y142391D01*
X138745Y143047D01*
X140163Y144465D01*
X140819Y146050D01*
D02*
G37*
G36*
X231589Y143188D02*
X230591D01*
X229669Y142806D01*
X228964Y142101D01*
X228582Y141179D01*
Y140181D01*
X228964Y139259D01*
X229669Y138554D01*
X230591Y138172D01*
X231589D01*
X232511Y138554D01*
X233216Y139259D01*
X233598Y140181D01*
Y141179D01*
X233216Y142101D01*
X232511Y142806D01*
X231589Y143188D01*
D02*
G37*
G36*
X153289Y145161D02*
X146685D01*
Y131699D01*
X153289D01*
Y145161D01*
D02*
G37*
G36*
X132334Y137160D02*
X128270D01*
Y129667D01*
X132334D01*
Y137160D01*
D02*
G37*
G36*
X81280Y97098D02*
Y93980D01*
X84398D01*
X83859Y95282D01*
X82582Y96559D01*
X81280Y97098D01*
D02*
G37*
G36*
X78740D02*
X77438Y96559D01*
X76161Y95282D01*
X75622Y93980D01*
X78740D01*
Y97098D01*
D02*
G37*
G36*
X84398Y91440D02*
X75622D01*
X76073Y90351D01*
Y89027D01*
X80010D01*
X83947D01*
Y90351D01*
X84398Y91440D01*
D02*
G37*
G36*
X145542Y83693D02*
X128270D01*
Y76200D01*
X145542D01*
Y83693D01*
D02*
G37*
G36*
X125730D02*
X108458D01*
Y76200D01*
X125730D01*
Y83693D01*
D02*
G37*
G36*
X83947Y86487D02*
X80010D01*
X76073D01*
Y83693D01*
X78105D01*
Y80391D01*
X78197D01*
Y76664D01*
X77884Y76351D01*
X77502Y75429D01*
Y74431D01*
X77884Y73509D01*
X78589Y72804D01*
X79511Y72422D01*
X80509D01*
X81431Y72804D01*
X82136Y73509D01*
X82518Y74431D01*
Y75429D01*
X82136Y76351D01*
X81823Y76664D01*
Y80391D01*
X81915D01*
Y83693D01*
X83947D01*
Y86487D01*
D02*
G37*
G36*
X212722Y78740D02*
X206626D01*
Y73089D01*
X206491Y73033D01*
X206330Y72644D01*
Y72390D01*
X204594D01*
Y68580D01*
X209674D01*
X214754D01*
Y72390D01*
X213018D01*
Y72644D01*
X212857Y73033D01*
X212722Y73089D01*
Y78740D01*
D02*
G37*
G36*
X173475Y73656D02*
X169665D01*
Y68576D01*
Y63496D01*
X173475D01*
Y65232D01*
X173729D01*
X174118Y65393D01*
X174174Y65528D01*
X179825D01*
Y71624D01*
X174174D01*
X174118Y71759D01*
X173729Y71920D01*
X173475D01*
Y73656D01*
D02*
G37*
G36*
X242570Y67056D02*
X237490D01*
Y62992D01*
X242570D01*
Y67056D01*
D02*
G37*
G36*
X223139Y43180D02*
Y38100D01*
Y33020D01*
X226949D01*
Y34756D01*
X227203D01*
X227592Y34917D01*
X227648Y35052D01*
X233299D01*
Y41148D01*
X227648D01*
X227592Y41283D01*
X227203Y41444D01*
X226949D01*
Y43180D01*
X223139D01*
D02*
G37*
G36*
X247904Y28067D02*
X239776D01*
Y22987D01*
X247904D01*
Y28067D01*
D02*
G37*
G36*
X231589Y13588D02*
X230591D01*
X229669Y13206D01*
X228964Y12501D01*
X228582Y11579D01*
Y10581D01*
X228964Y9659D01*
X229669Y8954D01*
X230591Y8572D01*
X231589D01*
X232511Y8954D01*
X233216Y9659D01*
X233598Y10581D01*
Y11579D01*
X233216Y12501D01*
X232511Y13206D01*
X231589Y13588D01*
D02*
G37*
G36*
X40393Y81501D02*
X22867D01*
Y65499D01*
X40393D01*
Y81501D01*
D02*
G37*
G36*
Y61501D02*
X22867D01*
Y45499D01*
X40393D01*
Y61501D01*
D02*
G37*
G36*
X34805Y34197D02*
X28455D01*
X26274Y33764D01*
X24426Y32529D01*
X23191Y30680D01*
X22757Y28500D01*
X23191Y26320D01*
X24426Y24471D01*
X26274Y23236D01*
X28455Y22803D01*
X34805D01*
X36985Y23236D01*
X38834Y24471D01*
X40069Y26320D01*
X40502Y28500D01*
X40069Y30680D01*
X38834Y32529D01*
X36985Y33764D01*
X34805Y34197D01*
D02*
G37*
G36*
X97790Y22168D02*
Y19050D01*
X100908D01*
X100369Y20352D01*
X99092Y21629D01*
X97790Y22168D01*
D02*
G37*
%LPD*%
D13*
X243840Y61722D02*
D03*
Y48260D02*
D03*
D14*
Y25527D02*
D03*
Y37465D02*
D03*
D15*
X127000Y74930D02*
D03*
D16*
Y138430D02*
D03*
X149987D02*
D03*
X104013D02*
D03*
D17*
X221869Y38100D02*
D03*
X168395Y68576D02*
D03*
X90932Y17780D02*
D03*
X82550D02*
D03*
X176777Y68576D02*
D03*
X230251Y38100D02*
D03*
D18*
X176530Y11303D02*
D03*
X80010Y87757D02*
D03*
Y82423D02*
D03*
X176530Y16637D02*
D03*
D19*
X209430Y55283D02*
D03*
X194430D02*
D03*
X199430D02*
D03*
X204430D02*
D03*
X209430Y31077D02*
D03*
X204430D02*
D03*
X199430D02*
D03*
X194430D02*
D03*
D20*
X211493Y38180D02*
D03*
X192367D02*
D03*
Y43180D02*
D03*
Y48180D02*
D03*
X211493D02*
D03*
Y43180D02*
D03*
D21*
X209674Y67310D02*
D03*
Y75692D02*
D03*
D22*
X162560Y59690D02*
D03*
X132080Y11684D02*
D03*
X152400D02*
D03*
X162560D02*
D03*
X157480D02*
D03*
X147320D02*
D03*
X142240D02*
D03*
X137160D02*
D03*
X127000D02*
D03*
Y59690D02*
D03*
X132080D02*
D03*
X137160D02*
D03*
X142240D02*
D03*
X147320D02*
D03*
X152400D02*
D03*
X157480D02*
D03*
D23*
X120777Y38227D02*
D03*
X168783Y48387D02*
D03*
X120777Y17907D02*
D03*
Y22987D02*
D03*
Y28067D02*
D03*
Y33147D02*
D03*
Y43307D02*
D03*
Y48387D02*
D03*
Y53467D02*
D03*
X168783D02*
D03*
Y43307D02*
D03*
Y38227D02*
D03*
Y33147D02*
D03*
Y28067D02*
D03*
Y22987D02*
D03*
Y17907D02*
D03*
D24*
X43180Y10160D02*
D03*
D25*
X78740Y129540D02*
D03*
D26*
X58380Y50500D02*
D03*
Y57000D02*
D03*
Y63500D02*
D03*
Y70000D02*
D03*
Y76500D02*
D03*
D27*
X20582Y124460D02*
D03*
X55618D02*
D03*
D30*
X144780Y35687D02*
D03*
D31*
X58380Y38500D02*
D03*
Y88500D02*
D03*
D32*
X31630Y28500D02*
D03*
Y98500D02*
D03*
D33*
X10160Y10160D02*
D03*
Y142240D02*
D03*
D34*
X243840Y25527D02*
D03*
X176530Y5080D02*
D03*
X80010Y92710D02*
D03*
X128270Y3810D02*
D03*
X96520Y17780D02*
D03*
X209552Y62566D02*
D03*
X118390Y66680D02*
D03*
X80010Y50800D02*
D03*
Y74930D02*
D03*
X187960Y25400D02*
D03*
X177800Y52070D02*
D03*
X203200Y17780D02*
D03*
X91440Y38100D02*
D03*
X149987Y138430D02*
D03*
X31630Y73500D02*
D03*
Y53500D02*
D03*
X118110Y10160D02*
D03*
X231090Y11080D02*
D03*
Y140680D02*
D03*
X118590Y138480D02*
D03*
X176530Y30480D02*
D03*
X82550Y17780D02*
D03*
X157480Y66040D02*
D03*
X176777Y68576D02*
D03*
X230251Y38100D02*
D03*
X209674Y75692D02*
D03*
X90170Y66040D02*
D03*
X204430Y31077D02*
D03*
X211493Y43180D02*
D03*
X182880Y30480D02*
D03*
X181610Y45275D02*
D03*
X91440Y52070D02*
D03*
D35*
X135890Y74930D02*
D03*
Y147320D02*
D03*
X43180Y10160D02*
D03*
X144780Y35687D02*
D03*
D36*
X31630Y53500D02*
D03*
Y73500D02*
D03*
D37*
X243840Y37465D02*
Y48260D01*
X80010Y87757D02*
Y92710D01*
X211493Y38180D02*
X211533Y38140D01*
X221829D01*
X221869Y38100D01*
X90932Y17780D02*
X96520D01*
X209613Y62627D02*
Y67249D01*
X209430Y55283D02*
X209491Y55344D01*
Y62506D01*
X209613Y62627D01*
Y67249D02*
X209674Y67310D01*
X80010Y35560D02*
Y50800D01*
Y74930D02*
Y82423D01*
X85090Y30480D02*
X100330D01*
X80010Y35560D02*
X85090Y30480D01*
X100330D02*
X108077Y38227D01*
X120777D01*
X96393Y53467D02*
X120777D01*
X90170Y59690D02*
Y66040D01*
Y59690D02*
X96393Y53467D01*
X187960Y25400D02*
X188355D01*
X189625Y24130D02*
X192942D01*
X188355Y25400D02*
X189625Y24130D01*
X194430Y25618D02*
Y31077D01*
X192942Y24130D02*
X194430Y25618D01*
X177405Y52070D02*
X177800D01*
X173722Y48387D02*
X177405Y52070D01*
X168783Y48387D02*
X173722D01*
X209490Y24070D02*
Y31017D01*
X203200Y17780D02*
X209490Y24070D01*
X93658Y48387D02*
X120777D01*
X91719Y50326D02*
X93658Y48387D01*
X91440Y52070D02*
X91719Y51791D01*
Y50326D02*
Y51791D01*
Y40919D02*
X94107Y43307D01*
X91719Y38379D02*
Y40919D01*
X91440Y38100D02*
X91719Y38379D01*
X94107Y43307D02*
X120777D01*
X58380Y38500D02*
Y50500D01*
X182601Y28693D02*
Y30201D01*
X182880Y30480D01*
X176868Y22961D02*
X182601Y28693D01*
X168783Y33147D02*
X173468D01*
X176135Y30480D02*
X176530D01*
X176581Y35560D02*
X188622D01*
X173468Y33147D02*
X176135Y30480D01*
X173914Y38227D02*
X176581Y35560D01*
X74200Y13430D02*
X78740Y8890D01*
X107950D02*
X116967Y17907D01*
X78740Y8890D02*
X107950D01*
X121412Y3810D02*
X127000Y9398D01*
Y11684D01*
X74930Y3810D02*
X121412D01*
X69120Y9620D02*
X74930Y3810D01*
X69120Y9620D02*
Y60665D01*
X116967Y17907D02*
X120777D01*
X74200Y13430D02*
Y62769D01*
X142240Y33147D02*
X144780Y35687D01*
X142240Y11684D02*
Y33147D01*
X157480Y59690D02*
Y66040D01*
X176530Y22623D02*
X176868Y22961D01*
X176530Y16637D02*
Y22623D01*
X188622Y35560D02*
X190754Y37692D01*
X191879D01*
X168783Y43307D02*
X173863D01*
X182005Y45275D02*
X184950Y48220D01*
X181610Y45275D02*
X182005D01*
X173863Y43307D02*
X176181Y40989D01*
X185480D01*
X187184Y42692D01*
X184950Y48220D02*
X192327D01*
X187184Y42692D02*
X191879D01*
X192367Y43180D01*
X171762Y28067D02*
X176868Y22961D01*
X168783Y28067D02*
X171762D01*
X191879Y37692D02*
X192367Y38180D01*
X168783Y38227D02*
X173914D01*
X192327Y48220D02*
X192367Y48180D01*
X209430Y31077D02*
X209490Y31017D01*
X211005Y42692D02*
X211493Y43180D01*
Y48180D01*
X199430Y31077D02*
X204430D01*
X66689Y63096D02*
X69120Y60665D01*
X67373Y69596D02*
X74200Y62769D01*
X58380Y70000D02*
X58784Y69596D01*
X67373D01*
X58784Y63096D02*
X66689D01*
X58380Y63500D02*
X58784Y63096D01*
D38*
X175209Y3810D02*
X176479Y5080D01*
X176530D01*
X148374Y3810D02*
X175209D01*
X176530Y5080D02*
Y11303D01*
X164048Y68279D02*
X168099D01*
X162560Y66791D02*
X164048Y68279D01*
X162560Y59690D02*
Y66791D01*
X168099Y68279D02*
X168395Y68576D01*
X152400Y7836D02*
Y11684D01*
X132080Y7620D02*
Y11684D01*
Y7620D02*
X135890Y3810D01*
X148374D01*
X128270D02*
X135890D01*
X148374D02*
X152400Y7836D01*
D39*
X127254Y138684D02*
Y144344D01*
X127000Y138430D02*
X127254Y138684D01*
Y144344D02*
X130230Y147320D01*
X135890D01*
X85090Y138430D02*
X104013D01*
X78740Y132080D02*
X85090Y138430D01*
X78740Y129540D02*
Y132080D01*
X73660Y124460D02*
X78740Y129540D01*
X55618Y124460D02*
X73660D01*
X20582Y114038D02*
Y124460D01*
Y114038D02*
X25400Y109220D01*
X60960D01*
X68580Y101600D01*
Y82255D02*
Y101600D01*
X62825Y76500D02*
X68580Y82255D01*
X58380Y76500D02*
X62825D01*
M02*
