G04*
G04 #@! TF.GenerationSoftware,Altium Limited,Altium Designer,26.6.0 (10)*
G04*
G04 Layer_Color=8388736*
G04 Board_Origin=0|0*
%FSLAX44Y44*%
%MOMM*%
G71*
G04*
G04 #@! TF.SameCoordinates,5CBCFD7A-D7D9-4FBD-A79A-5820311D6744*
G04*
G04*
G04 #@! TF.FilePolarity,Negative*
G04*
G01*
G75*
%ADD13R,0.7620X0.5588*%
%ADD14R,0.7112X0.4064*%
%ADD15R,3.2004X1.2446*%
%ADD16R,0.5588X1.2446*%
%ADD17R,0.5080X0.5080*%
%ADD18R,0.2794X0.3048*%
%ADD21R,0.5080X0.5080*%
%ADD22R,0.2540X0.7112*%
%ADD23R,0.7112X0.2540*%
%ADD24R,3.8100X1.5240*%
%ADD25R,1.5240X3.8100*%
%ADD26R,1.3462X0.4572*%
%ADD27R,1.4572X0.8874*%
%ADD28R,0.5547X0.7798*%
%ADD29R,0.7798X0.5547*%
%ADD30R,3.4036X3.4036*%
%ADD31O,1.0160X1.2954*%
%ADD32O,1.6510X1.0160*%
%ADD33C,1.5240*%
%ADD34C,0.4000*%
%ADD35C,0.5000*%
G36*
X110998Y83693D02*
Y67183D01*
X143002D01*
Y83693D01*
X110998D01*
D02*
G37*
D13*
X243840Y61722D02*
D03*
Y48260D02*
D03*
D14*
Y25527D02*
D03*
Y37465D02*
D03*
D15*
X127000Y74930D02*
D03*
D16*
Y138430D02*
D03*
X149987D02*
D03*
X104013D02*
D03*
D17*
X221869Y38100D02*
D03*
X168395Y68576D02*
D03*
X90932Y17780D02*
D03*
X82550D02*
D03*
X176777Y68576D02*
D03*
X230251Y38100D02*
D03*
D18*
X176530Y11303D02*
D03*
X80010Y87757D02*
D03*
Y82423D02*
D03*
X176530Y16637D02*
D03*
D21*
X209674Y67310D02*
D03*
Y75692D02*
D03*
D22*
X162560Y59690D02*
D03*
X132080Y11684D02*
D03*
X152400D02*
D03*
X162560D02*
D03*
X157480D02*
D03*
X147320D02*
D03*
X142240D02*
D03*
X137160D02*
D03*
X127000D02*
D03*
Y59690D02*
D03*
X132080D02*
D03*
X137160D02*
D03*
X142240D02*
D03*
X147320D02*
D03*
X152400D02*
D03*
X157480D02*
D03*
D23*
X120777Y38227D02*
D03*
X168783Y48387D02*
D03*
X120777Y17907D02*
D03*
Y22987D02*
D03*
Y28067D02*
D03*
Y33147D02*
D03*
Y43307D02*
D03*
Y48387D02*
D03*
Y53467D02*
D03*
X168783D02*
D03*
Y43307D02*
D03*
Y38227D02*
D03*
Y33147D02*
D03*
Y28067D02*
D03*
Y22987D02*
D03*
Y17907D02*
D03*
D24*
X43180Y10160D02*
D03*
D25*
X78740Y129540D02*
D03*
D26*
X58380Y50500D02*
D03*
Y57000D02*
D03*
Y63500D02*
D03*
Y70000D02*
D03*
Y76500D02*
D03*
D27*
X20582Y124460D02*
D03*
X55618D02*
D03*
D28*
X209430Y55283D02*
D03*
X194430D02*
D03*
X199430D02*
D03*
X204430D02*
D03*
X209430Y31077D02*
D03*
X204430D02*
D03*
X199430D02*
D03*
X194430D02*
D03*
D29*
X211493Y38180D02*
D03*
X192367D02*
D03*
Y43180D02*
D03*
Y48180D02*
D03*
X211493D02*
D03*
Y43180D02*
D03*
D30*
X144780Y35687D02*
D03*
D31*
X58380Y38500D02*
D03*
Y88500D02*
D03*
D32*
X31630Y28500D02*
D03*
Y98500D02*
D03*
D33*
X10160Y10160D02*
D03*
Y142240D02*
D03*
D34*
X243840Y25527D02*
D03*
X176530Y5080D02*
D03*
X80010Y92710D02*
D03*
X128270Y3810D02*
D03*
X96520Y17780D02*
D03*
X209552Y62566D02*
D03*
X118390Y66680D02*
D03*
X80010Y50800D02*
D03*
Y74930D02*
D03*
X187960Y25400D02*
D03*
X177800Y52070D02*
D03*
X203200Y17780D02*
D03*
X91440Y38100D02*
D03*
X149987Y138430D02*
D03*
X31630Y73500D02*
D03*
Y53500D02*
D03*
X118110Y10160D02*
D03*
X231090Y11080D02*
D03*
Y140680D02*
D03*
X118590Y138480D02*
D03*
X176530Y30480D02*
D03*
X82550Y17780D02*
D03*
X157480Y66040D02*
D03*
X176777Y68576D02*
D03*
X230251Y38100D02*
D03*
X209674Y75692D02*
D03*
X90170Y66040D02*
D03*
X204430Y31077D02*
D03*
X211493Y43180D02*
D03*
X182880Y30480D02*
D03*
X181610Y45275D02*
D03*
X91440Y52070D02*
D03*
D35*
X135890Y74930D02*
D03*
Y147320D02*
D03*
X43180Y10160D02*
D03*
X144780Y35687D02*
D03*
M02*
