G04*
G04 #@! TF.GenerationSoftware,Altium Limited,Altium Designer,26.6.0 (10)*
G04*
G04 Layer_Physical_Order=2*
G04 Layer_Color=16711680*
G04 Board_Origin=0|0*
%FSLAX44Y44*%
%MOMM*%
G71*
G04*
G04 #@! TF.SameCoordinates,5CBCFD7A-D7D9-4FBD-A79A-5820311D6744*
G04*
G04*
G04 #@! TF.FilePolarity,Positive*
G04*
G01*
G75*
%ADD31O,1.0160X1.2954*%
%ADD32O,1.6510X1.0160*%
%ADD33C,1.5240*%
%ADD34C,0.4000*%
%ADD35C,0.5000*%
%ADD37C,0.2540*%
%ADD40R,3.3274X0.7112*%
%ADD41R,2.7940X0.8636*%
%ADD42R,1.8288X1.1430*%
%ADD43R,0.7874X1.0414*%
%ADD44R,0.9398X0.8890*%
%ADD45R,1.0922X0.7112*%
G36*
X249438Y149316D02*
X249294Y148612D01*
X247967Y146776D01*
X232360D01*
Y140680D01*
Y134584D01*
X248920D01*
X250267Y134584D01*
X251460Y132538D01*
Y19222D01*
X250267Y17176D01*
X248920Y17176D01*
X232360D01*
Y11080D01*
X231090D01*
Y9810D01*
X211913D01*
Y5080D01*
X211913Y4984D01*
X211681Y2540D01*
X180856D01*
X179038Y4581D01*
X179038Y5579D01*
X178656Y6501D01*
X177951Y7206D01*
X177029Y7588D01*
X176031D01*
X175109Y7206D01*
X174404Y6501D01*
X174022Y5579D01*
X174022Y4581D01*
X172204Y2540D01*
X140040D01*
X139900Y5022D01*
X139900D01*
Y10610D01*
X123390D01*
X106880D01*
Y5623D01*
X102569D01*
X102143Y6049D01*
Y13970D01*
X102005Y14664D01*
X101612Y15252D01*
X99028Y17836D01*
Y18279D01*
X98646Y19201D01*
X97941Y19906D01*
X97019Y20288D01*
X96021D01*
X95099Y19906D01*
X94394Y19201D01*
X94012Y18279D01*
Y17281D01*
X94394Y16359D01*
X95099Y15654D01*
X96021Y15272D01*
X96464D01*
X98517Y13219D01*
Y5298D01*
X98560Y5080D01*
X97584Y3241D01*
X97033Y2540D01*
X17627D01*
X16575Y5080D01*
X16664Y5169D01*
X17734Y7023D01*
X18288Y9090D01*
Y11230D01*
X17734Y13297D01*
X16664Y15151D01*
X15151Y16664D01*
X13297Y17734D01*
X11230Y18288D01*
X9090D01*
X7023Y17734D01*
X5169Y16664D01*
X5080Y16575D01*
X2540Y17627D01*
Y134773D01*
X5080Y135825D01*
X5169Y135736D01*
X7023Y134666D01*
X9090Y134112D01*
X11230D01*
X13297Y134666D01*
X15151Y135736D01*
X16664Y137249D01*
X17734Y139103D01*
X18288Y141170D01*
Y143310D01*
X17734Y145377D01*
X16664Y147231D01*
X16575Y147320D01*
X17627Y149860D01*
X130937D01*
X132882Y147918D01*
Y146722D01*
X133340Y145616D01*
X134186Y144770D01*
X135292Y144312D01*
X136488D01*
X137594Y144770D01*
X138440Y145616D01*
X138898Y146722D01*
Y147918D01*
X140843Y149860D01*
X249125D01*
X249438Y149316D01*
D02*
G37*
%LPC*%
G36*
X229820Y146776D02*
X211913D01*
Y141950D01*
X229820D01*
Y146776D01*
D02*
G37*
G36*
X130274Y146735D02*
X119860D01*
Y139750D01*
X130274D01*
Y146735D01*
D02*
G37*
G36*
X117320D02*
X106906D01*
Y139750D01*
X117320D01*
Y146735D01*
D02*
G37*
G36*
X151257Y142818D02*
Y139700D01*
X154375D01*
X153836Y141002D01*
X152559Y142279D01*
X151257Y142818D01*
D02*
G37*
G36*
X148717D02*
X147415Y142279D01*
X146138Y141002D01*
X145599Y139700D01*
X148717D01*
Y142818D01*
D02*
G37*
G36*
X229820Y139410D02*
X211913D01*
Y134584D01*
X229820D01*
Y139410D01*
D02*
G37*
G36*
X154375Y137160D02*
X151257D01*
Y134042D01*
X152559Y134581D01*
X153836Y135858D01*
X154375Y137160D01*
D02*
G37*
G36*
X148717D02*
X145599D01*
X146138Y135858D01*
X147415Y134581D01*
X148717Y134042D01*
Y137160D01*
D02*
G37*
G36*
X130274Y137210D02*
X119860D01*
Y130225D01*
X130274D01*
Y137210D01*
D02*
G37*
G36*
X117320D02*
X106906D01*
Y130225D01*
X117320D01*
Y137210D01*
D02*
G37*
G36*
X45720Y133519D02*
X30480D01*
X30091Y133358D01*
X29930Y132969D01*
Y115951D01*
X30091Y115562D01*
X30480Y115401D01*
X45720D01*
X46109Y115562D01*
X46270Y115951D01*
Y132969D01*
X46109Y133358D01*
X45720Y133519D01*
D02*
G37*
G36*
X248297Y122533D02*
X237883D01*
Y112627D01*
X248297D01*
Y122533D01*
D02*
G37*
G36*
X34805Y106186D02*
X32900D01*
Y99770D01*
X42323D01*
X42229Y100489D01*
X41461Y102343D01*
X40240Y103935D01*
X38648Y105156D01*
X36794Y105924D01*
X34805Y106186D01*
D02*
G37*
G36*
X30360D02*
X28455D01*
X26466Y105924D01*
X24612Y105156D01*
X23020Y103935D01*
X21799Y102343D01*
X21031Y100489D01*
X20936Y99770D01*
X30360D01*
Y106186D01*
D02*
G37*
G36*
X124359Y103744D02*
X112421D01*
Y95616D01*
X124359D01*
Y103744D01*
D02*
G37*
G36*
X42323Y97230D02*
X32900D01*
Y90814D01*
X34805D01*
X36794Y91076D01*
X38648Y91844D01*
X40240Y93065D01*
X41461Y94657D01*
X42229Y96511D01*
X42323Y97230D01*
D02*
G37*
G36*
X30360D02*
X20936D01*
X21031Y96511D01*
X21799Y94657D01*
X23020Y93065D01*
X24612Y91844D01*
X26466Y91076D01*
X28455Y90814D01*
X30360D01*
Y97230D01*
D02*
G37*
G36*
X80509Y95218D02*
X79511D01*
X78589Y94836D01*
X77884Y94131D01*
X77502Y93209D01*
Y92211D01*
X77884Y91289D01*
X78589Y90584D01*
X79511Y90202D01*
X80509D01*
X81431Y90584D01*
X82136Y91289D01*
X82518Y92211D01*
Y93209D01*
X82136Y94131D01*
X81431Y94836D01*
X80509Y95218D01*
D02*
G37*
G36*
X59650Y97416D02*
Y89770D01*
X66066D01*
Y89897D01*
X65804Y91886D01*
X65036Y93740D01*
X63815Y95332D01*
X62223Y96553D01*
X60369Y97321D01*
X59650Y97416D01*
D02*
G37*
G36*
X57110D02*
X56391Y97321D01*
X54537Y96553D01*
X52945Y95332D01*
X51724Y93740D01*
X50956Y91886D01*
X50694Y89897D01*
Y89770D01*
X57110D01*
Y97416D01*
D02*
G37*
G36*
X124359Y92744D02*
X112421D01*
Y90493D01*
X102650D01*
X101956Y90355D01*
X101368Y89962D01*
X84864Y73458D01*
X83215Y74142D01*
X82518Y74704D01*
Y75429D01*
X82136Y76351D01*
X81431Y77056D01*
X80509Y77438D01*
X79511D01*
X78589Y77056D01*
X77884Y76351D01*
X77502Y75429D01*
Y74431D01*
X77884Y73509D01*
X78197Y73196D01*
Y66040D01*
Y52534D01*
X77884Y52221D01*
X77502Y51299D01*
Y50301D01*
X77884Y49379D01*
X78589Y48674D01*
X79511Y48292D01*
X80509D01*
X81431Y48674D01*
X82136Y49379D01*
X82518Y50301D01*
Y51299D01*
X82136Y52221D01*
X81823Y52534D01*
Y65289D01*
X103401Y86867D01*
X112421D01*
Y84616D01*
X124359D01*
Y92744D01*
D02*
G37*
G36*
X81661Y86275D02*
X78359D01*
X77970Y86114D01*
X77809Y85725D01*
X77809Y85724D01*
X77809Y84455D01*
X77809Y84455D01*
X77970Y84066D01*
X77970Y84066D01*
X78359Y83905D01*
X81661D01*
X82050Y84066D01*
X82211Y84455D01*
X82211Y84455D01*
X82211Y85725D01*
X82211Y85725D01*
X82050Y86114D01*
X82050Y86114D01*
X81661Y86275D01*
X81661Y86275D01*
D02*
G37*
G36*
X66066Y87230D02*
X59650D01*
Y79584D01*
X60369Y79679D01*
X62223Y80447D01*
X63815Y81668D01*
X65036Y83260D01*
X65804Y85114D01*
X66066Y87103D01*
Y87230D01*
D02*
G37*
G36*
X57110D02*
X50694D01*
Y87103D01*
X50956Y85114D01*
X51724Y83260D01*
X52945Y81668D01*
X54537Y80447D01*
X56391Y79679D01*
X57110Y79584D01*
Y87230D01*
D02*
G37*
G36*
X210944Y80080D02*
Y76962D01*
X214062D01*
X213523Y78264D01*
X212245Y79541D01*
X210944Y80080D01*
D02*
G37*
G36*
X208404D02*
X207102Y79541D01*
X205825Y78264D01*
X205286Y76962D01*
X208404D01*
Y80080D01*
D02*
G37*
G36*
X32900Y77888D02*
Y74770D01*
X36018D01*
X35479Y76072D01*
X34202Y77349D01*
X32900Y77888D01*
D02*
G37*
G36*
X30360D02*
X29058Y77349D01*
X27781Y76072D01*
X27242Y74770D01*
X30360D01*
Y77888D01*
D02*
G37*
G36*
X124359Y81744D02*
X112421D01*
Y79493D01*
X101810D01*
X101116Y79355D01*
X100528Y78962D01*
X90114Y68548D01*
X89671D01*
X88749Y68166D01*
X88044Y67461D01*
X87662Y66539D01*
Y65541D01*
X88044Y64619D01*
X88749Y63914D01*
X89671Y63532D01*
X90669D01*
X91591Y63914D01*
X92296Y64619D01*
X92678Y65541D01*
Y65984D01*
X102561Y75867D01*
X112421D01*
Y73616D01*
X124359D01*
Y81744D01*
D02*
G37*
G36*
X136488Y77938D02*
X135292D01*
X134186Y77480D01*
X133340Y76634D01*
X132882Y75528D01*
Y74332D01*
X133340Y73226D01*
X134186Y72380D01*
X135292Y71922D01*
X136488D01*
X137594Y72380D01*
X138440Y73226D01*
X138898Y74332D01*
Y75528D01*
X138440Y76634D01*
X137594Y77480D01*
X136488Y77938D01*
D02*
G37*
G36*
X178047Y72964D02*
Y69846D01*
X181165D01*
X180626Y71148D01*
X179349Y72425D01*
X178047Y72964D01*
D02*
G37*
G36*
X214062Y74422D02*
X205286D01*
X205825Y73120D01*
X206330Y72615D01*
Y70358D01*
X206491Y69969D01*
X206880Y69808D01*
X212468D01*
X212857Y69969D01*
X213018Y70358D01*
Y72615D01*
X213523Y73120D01*
X214062Y74422D01*
D02*
G37*
G36*
X248285Y80645D02*
X239395D01*
Y69215D01*
X248285D01*
Y80645D01*
D02*
G37*
G36*
X36018Y72230D02*
X32900D01*
Y69112D01*
X34202Y69651D01*
X35479Y70928D01*
X36018Y72230D01*
D02*
G37*
G36*
X30360D02*
X27242D01*
X27781Y70928D01*
X29058Y69651D01*
X30360Y69112D01*
Y72230D01*
D02*
G37*
G36*
X158750Y70428D02*
Y67310D01*
X161868D01*
X161329Y68612D01*
X160052Y69889D01*
X158750Y70428D01*
D02*
G37*
G36*
X156210D02*
X154908Y69889D01*
X153631Y68612D01*
X153092Y67310D01*
X156210D01*
Y70428D01*
D02*
G37*
G36*
X181165Y67306D02*
X178047D01*
Y64188D01*
X179349Y64727D01*
X180626Y66004D01*
X181165Y67306D01*
D02*
G37*
G36*
X175507Y72964D02*
X174206Y72425D01*
X173701Y71920D01*
X171443D01*
X171055Y71759D01*
X170894Y71370D01*
Y65782D01*
X171055Y65393D01*
X171443Y65232D01*
X173701D01*
X174206Y64727D01*
X175507Y64188D01*
Y68576D01*
Y72964D01*
D02*
G37*
G36*
X124359Y70744D02*
X112421D01*
Y62616D01*
X124359D01*
Y70744D01*
D02*
G37*
G36*
X161868Y64770D02*
X158750D01*
Y61652D01*
X160052Y62191D01*
X161329Y63468D01*
X161868Y64770D01*
D02*
G37*
G36*
X156210D02*
X153092D01*
X153631Y63468D01*
X154908Y62191D01*
X156210Y61652D01*
Y64770D01*
D02*
G37*
G36*
X210051Y65075D02*
X209053D01*
X208131Y64693D01*
X207426Y63987D01*
X207044Y63065D01*
Y62068D01*
X207426Y61146D01*
X208131Y60440D01*
X209053Y60058D01*
X210051D01*
X210972Y60440D01*
X211678Y61146D01*
X212060Y62068D01*
Y63065D01*
X211678Y63987D01*
X210972Y64693D01*
X210051Y65075D01*
D02*
G37*
G36*
X32900Y57888D02*
Y54770D01*
X36018D01*
X35479Y56072D01*
X34202Y57349D01*
X32900Y57888D01*
D02*
G37*
G36*
X30360D02*
X29058Y57349D01*
X27781Y56072D01*
X27242Y54770D01*
X30360D01*
Y57888D01*
D02*
G37*
G36*
X247904Y58970D02*
X239776D01*
X239387Y58809D01*
X239226Y58420D01*
Y51562D01*
X239387Y51173D01*
X239776Y51012D01*
X247904D01*
X248293Y51173D01*
X248454Y51562D01*
Y58420D01*
X248293Y58809D01*
X247904Y58970D01*
D02*
G37*
G36*
X36018Y52230D02*
X32900D01*
Y49112D01*
X34202Y49651D01*
X35479Y50928D01*
X36018Y52230D01*
D02*
G37*
G36*
X30360D02*
X27242D01*
X27781Y50928D01*
X29058Y49651D01*
X30360Y49112D01*
Y52230D01*
D02*
G37*
G36*
X212763Y47568D02*
Y44450D01*
X215881D01*
X215342Y45752D01*
X214065Y47029D01*
X212763Y47568D01*
D02*
G37*
G36*
X210223D02*
X208921Y47029D01*
X207644Y45752D01*
X207105Y44450D01*
X210223D01*
Y47568D01*
D02*
G37*
G36*
X59650Y47416D02*
Y39770D01*
X66066D01*
Y39897D01*
X65804Y41886D01*
X65036Y43740D01*
X63815Y45332D01*
X62223Y46553D01*
X60369Y47321D01*
X59650Y47416D01*
D02*
G37*
G36*
X57110D02*
X56391Y47321D01*
X54537Y46553D01*
X52945Y45332D01*
X51724Y43740D01*
X50956Y41886D01*
X50694Y39897D01*
Y39770D01*
X57110D01*
Y47416D01*
D02*
G37*
G36*
X231521Y42488D02*
Y39370D01*
X234639D01*
X234100Y40672D01*
X232823Y41949D01*
X231521Y42488D01*
D02*
G37*
G36*
X215881Y41910D02*
X212763D01*
Y38792D01*
X214065Y39331D01*
X215342Y40608D01*
X215881Y41910D01*
D02*
G37*
G36*
X210223D02*
X207105D01*
X207644Y40608D01*
X208921Y39331D01*
X210223Y38792D01*
Y41910D01*
D02*
G37*
G36*
X146050Y40616D02*
Y36957D01*
X149709D01*
X149053Y38542D01*
X147635Y39960D01*
X146050Y40616D01*
D02*
G37*
G36*
X143510D02*
X141925Y39960D01*
X140507Y38542D01*
X139851Y36957D01*
X143510D01*
Y40616D01*
D02*
G37*
G36*
X124359Y59744D02*
X112421D01*
Y57493D01*
X93658D01*
X92964Y57355D01*
X92376Y56962D01*
X90437Y55023D01*
X90044Y54435D01*
X89991Y54168D01*
X89314Y53491D01*
X88932Y52569D01*
Y51571D01*
X89314Y50649D01*
X90019Y49944D01*
X90941Y49562D01*
X91939D01*
X92861Y49944D01*
X93566Y50649D01*
X93948Y51571D01*
Y52569D01*
X96159Y53867D01*
X110595D01*
X111302Y51327D01*
X110389Y50776D01*
X110389Y50389D01*
X110389Y50389D01*
Y45950D01*
X118390D01*
Y43410D01*
X110389D01*
Y38970D01*
X110389Y38970D01*
Y38584D01*
X111302Y38033D01*
X110595Y35493D01*
X95698D01*
X93948Y37601D01*
Y38599D01*
X93566Y39521D01*
X92861Y40226D01*
X91939Y40608D01*
X90941D01*
X90019Y40226D01*
X89314Y39521D01*
X88932Y38599D01*
Y37601D01*
X89314Y36679D01*
X89907Y36087D01*
Y35281D01*
X90044Y34587D01*
X90437Y33999D01*
X92038Y32398D01*
X92626Y32005D01*
X93320Y31867D01*
X112421D01*
Y29616D01*
X124359D01*
X124359Y37357D01*
X126391Y38584D01*
X126391Y38970D01*
X127022Y39702D01*
X130188Y39968D01*
X131029Y39127D01*
Y18738D01*
X124359D01*
Y26744D01*
X112421D01*
Y18738D01*
X106880D01*
Y13150D01*
X123390D01*
X139900D01*
Y18738D01*
X134655D01*
Y39878D01*
X134517Y40572D01*
X134124Y41160D01*
X129322Y45962D01*
X128734Y46355D01*
X128040Y46493D01*
X126391D01*
Y50389D01*
X126391Y50389D01*
Y50776D01*
X124359Y52002D01*
X124359Y53316D01*
Y59744D01*
D02*
G37*
G36*
X234639Y36830D02*
X231521D01*
Y33712D01*
X232823Y34251D01*
X234100Y35528D01*
X234639Y36830D01*
D02*
G37*
G36*
X228981Y42488D02*
X227679Y41949D01*
X227174Y41444D01*
X224917D01*
X224528Y41283D01*
X224367Y40894D01*
Y35306D01*
X224528Y34917D01*
X224917Y34756D01*
X227174D01*
X227679Y34251D01*
X228981Y33712D01*
Y38100D01*
Y42488D01*
D02*
G37*
G36*
X205700Y35465D02*
Y32347D01*
X208818D01*
X208279Y33649D01*
X207002Y34926D01*
X205700Y35465D01*
D02*
G37*
G36*
X203160D02*
X201858Y34926D01*
X200581Y33649D01*
X200042Y32347D01*
X203160D01*
Y35465D01*
D02*
G37*
G36*
X178299Y54578D02*
X177301D01*
X176379Y54196D01*
X175674Y53491D01*
X175292Y52569D01*
Y51571D01*
X175674Y50649D01*
X176379Y49944D01*
X177301Y49562D01*
X178174D01*
X178307Y49555D01*
X178593Y49280D01*
X178609Y49260D01*
X179484Y46696D01*
X179102Y45774D01*
Y44776D01*
X179484Y43854D01*
X180189Y43149D01*
X181067Y42785D01*
Y34082D01*
X178527Y32302D01*
X178195Y32361D01*
X177951Y32606D01*
X177029Y32988D01*
X176031D01*
X175109Y32606D01*
X174404Y31901D01*
X174022Y30979D01*
Y29981D01*
X174404Y29059D01*
X175109Y28354D01*
X176031Y27972D01*
X176474D01*
X187948Y16498D01*
X188536Y16105D01*
X189230Y15967D01*
X201466D01*
X201779Y15654D01*
X202701Y15272D01*
X203699D01*
X204621Y15654D01*
X205326Y16359D01*
X205708Y17281D01*
Y18279D01*
X205326Y19201D01*
X204621Y19906D01*
X203699Y20288D01*
X202701D01*
X201779Y19906D01*
X201466Y19593D01*
X191187D01*
X189191Y21806D01*
X189381Y23274D01*
X189636Y23530D01*
X190086Y23979D01*
X190468Y24901D01*
Y25899D01*
X190086Y26821D01*
X189773Y27134D01*
Y45720D01*
X189635Y46414D01*
X189242Y47002D01*
X182892Y53352D01*
X182304Y53745D01*
X181610Y53883D01*
X179534D01*
X179221Y54196D01*
X178299Y54578D01*
D02*
G37*
G36*
X149709Y34417D02*
X146050D01*
Y30758D01*
X147635Y31414D01*
X149053Y32832D01*
X149709Y34417D01*
D02*
G37*
G36*
X143510D02*
X139851D01*
X140507Y32832D01*
X141925Y31414D01*
X143510Y30758D01*
Y34417D01*
D02*
G37*
G36*
X34805Y36186D02*
X32900D01*
Y29770D01*
X42323D01*
X42229Y30489D01*
X41461Y32343D01*
X40240Y33935D01*
X38648Y35156D01*
X36794Y35924D01*
X34805Y36186D01*
D02*
G37*
G36*
X30360D02*
X28455D01*
X26466Y35924D01*
X24612Y35156D01*
X23020Y33935D01*
X21799Y32343D01*
X21031Y30489D01*
X20936Y29770D01*
X30360D01*
Y36186D01*
D02*
G37*
G36*
X66066Y37230D02*
X59650D01*
Y29584D01*
X60369Y29679D01*
X62223Y30447D01*
X63815Y31668D01*
X65036Y33260D01*
X65804Y35114D01*
X66066Y37103D01*
Y37230D01*
D02*
G37*
G36*
X57110D02*
X50694D01*
Y37103D01*
X50956Y35114D01*
X51724Y33260D01*
X52945Y31668D01*
X54537Y30447D01*
X56391Y29679D01*
X57110Y29584D01*
Y37230D01*
D02*
G37*
G36*
X245110Y29915D02*
Y26797D01*
X248228D01*
X247689Y28099D01*
X246412Y29376D01*
X245110Y29915D01*
D02*
G37*
G36*
X242570D02*
X241268Y29376D01*
X239991Y28099D01*
X239452Y26797D01*
X242570D01*
Y29915D01*
D02*
G37*
G36*
X208818Y29807D02*
X205700D01*
Y26689D01*
X207002Y27228D01*
X208279Y28505D01*
X208818Y29807D01*
D02*
G37*
G36*
X203160D02*
X200042D01*
X200581Y28505D01*
X201858Y27228D01*
X203160Y26689D01*
Y29807D01*
D02*
G37*
G36*
X248228Y24257D02*
X245110D01*
Y21139D01*
X246412Y21678D01*
X247689Y22955D01*
X248228Y24257D01*
D02*
G37*
G36*
X242570D02*
X239452D01*
X239991Y22955D01*
X241268Y21678D01*
X242570Y21139D01*
Y24257D01*
D02*
G37*
G36*
X42323Y27230D02*
X32900D01*
Y20814D01*
X34805D01*
X36794Y21076D01*
X38648Y21844D01*
X40240Y23065D01*
X41461Y24657D01*
X42229Y26511D01*
X42323Y27230D01*
D02*
G37*
G36*
X30360D02*
X20936D01*
X21031Y26511D01*
X21799Y24657D01*
X23020Y23065D01*
X24612Y21844D01*
X26466Y21076D01*
X28455Y20814D01*
X30360D01*
Y27230D01*
D02*
G37*
G36*
X81280Y22168D02*
X79978Y21629D01*
X78701Y20352D01*
X78162Y19050D01*
X81280D01*
Y22168D01*
D02*
G37*
G36*
X83820D02*
Y17780D01*
Y13392D01*
X85122Y13931D01*
X85627Y14436D01*
X87884D01*
X88273Y14597D01*
X88434Y14986D01*
Y20574D01*
X88273Y20963D01*
X87884Y21124D01*
X85627D01*
X85122Y21629D01*
X83820Y22168D01*
D02*
G37*
G36*
X81280Y16510D02*
X78162D01*
X78701Y15208D01*
X79978Y13931D01*
X81280Y13392D01*
Y16510D01*
D02*
G37*
G36*
X178181Y15155D02*
X174879D01*
X174490Y14994D01*
X174329Y14605D01*
X174329Y14605D01*
X174329Y13335D01*
X174329Y13335D01*
X174490Y12946D01*
X174490Y12946D01*
X174879Y12785D01*
X178181D01*
X178570Y12946D01*
X178731Y13335D01*
X178731Y13335D01*
X178731Y14605D01*
X178731Y14605D01*
X178570Y14994D01*
X178570Y14994D01*
X178181Y15155D01*
X178181Y15155D01*
D02*
G37*
G36*
X229820Y17176D02*
X211913D01*
Y12350D01*
X229820D01*
Y17176D01*
D02*
G37*
G36*
X44450Y15089D02*
Y11430D01*
X48109D01*
X47453Y13015D01*
X46035Y14433D01*
X44450Y15089D01*
D02*
G37*
G36*
X41910D02*
X40325Y14433D01*
X38907Y13015D01*
X38251Y11430D01*
X41910D01*
Y15089D01*
D02*
G37*
G36*
X48109Y8890D02*
X44450D01*
Y5231D01*
X46035Y5887D01*
X47453Y7305D01*
X48109Y8890D01*
D02*
G37*
G36*
X41910D02*
X38251D01*
X38907Y7305D01*
X40325Y5887D01*
X41910Y5231D01*
Y8890D01*
D02*
G37*
%LPD*%
D31*
X58380Y38500D02*
D03*
Y88500D02*
D03*
D32*
X31630Y28500D02*
D03*
Y98500D02*
D03*
D33*
X10160Y10160D02*
D03*
Y142240D02*
D03*
D34*
X243840Y25527D02*
D03*
X176530Y5080D02*
D03*
X80010Y92710D02*
D03*
X128270Y3810D02*
D03*
X96520Y17780D02*
D03*
X209552Y62566D02*
D03*
X118390Y66680D02*
D03*
X80010Y50800D02*
D03*
Y74930D02*
D03*
X187960Y25400D02*
D03*
X177800Y52070D02*
D03*
X203200Y17780D02*
D03*
X91440Y38100D02*
D03*
X149987Y138430D02*
D03*
X31630Y73500D02*
D03*
Y53500D02*
D03*
X118110Y10160D02*
D03*
X231090Y11080D02*
D03*
Y140680D02*
D03*
X118590Y138480D02*
D03*
X176530Y30480D02*
D03*
X82550Y17780D02*
D03*
X157480Y66040D02*
D03*
X176777Y68576D02*
D03*
X230251Y38100D02*
D03*
X209674Y75692D02*
D03*
X90170Y66040D02*
D03*
X204430Y31077D02*
D03*
X211493Y43180D02*
D03*
X182880Y30480D02*
D03*
X181610Y45275D02*
D03*
X91440Y52070D02*
D03*
D35*
X135890Y74930D02*
D03*
Y147320D02*
D03*
X43180Y10160D02*
D03*
X144780Y35687D02*
D03*
D37*
X96520Y17780D02*
X100330Y13970D01*
Y5298D02*
Y13970D01*
X101818Y3810D02*
X128270D01*
X100330Y5298D02*
X101818Y3810D01*
X80010Y50800D02*
Y66040D01*
X102650Y88680D01*
X80010Y66040D02*
Y74930D01*
X102650Y88680D02*
X118390D01*
X187960Y25400D02*
Y45720D01*
X181610Y52070D02*
X187960Y45720D01*
X177800Y52070D02*
X181610D01*
X176530Y30480D02*
X189230Y17780D01*
X203200D01*
X91440Y52070D02*
X91719Y52349D01*
X93658Y55680D02*
X118390D01*
X91719Y53741D02*
X93658Y55680D01*
X91719Y52349D02*
Y53741D01*
Y35281D02*
X93320Y33680D01*
X91440Y38100D02*
X91719Y37821D01*
X93320Y33680D02*
X118390D01*
X91719Y35281D02*
Y37821D01*
X90170Y66040D02*
X101810Y77680D01*
X118390D01*
X181610Y44880D02*
Y45275D01*
Y44880D02*
X182880Y43610D01*
Y30480D02*
Y43610D01*
X132842Y11880D02*
Y39878D01*
X128040Y44680D02*
X132842Y39878D01*
X123390Y11880D02*
X132842D01*
X118390Y44680D02*
X128040D01*
D40*
X231090Y11080D02*
D03*
Y140680D02*
D03*
D41*
X123390Y11880D02*
D03*
D42*
X118590Y138480D02*
D03*
D43*
X243840Y74930D02*
D03*
D44*
X243090Y117580D02*
D03*
D45*
X118390Y22680D02*
D03*
Y33680D02*
D03*
Y44680D02*
D03*
Y55680D02*
D03*
Y66680D02*
D03*
Y77680D02*
D03*
Y88680D02*
D03*
Y99680D02*
D03*
M02*
