G04*
G04 #@! TF.GenerationSoftware,Altium Limited,Altium Designer,26.6.0 (10)*
G04*
G04 Layer_Color=65535*
G04 Board_Origin=0|0*
%FSLAX44Y44*%
%MOMM*%
G71*
G04*
G04 #@! TF.SameCoordinates,5CBCFD7A-D7D9-4FBD-A79A-5820311D6744*
G04*
G04*
G04 #@! TF.FilePolarity,Positive*
G04*
G01*
G75*
%ADD10C,0.1524*%
%ADD11C,0.1270*%
%ADD12C,0.0762*%
G36*
X197525Y59690D02*
Y62230D01*
X201335D01*
Y59690D01*
X197525D01*
D02*
G37*
G36*
X171937Y134510D02*
X171387Y134425D01*
Y134439D01*
X171359Y134482D01*
X171345Y134552D01*
X171303Y134637D01*
X171260Y134735D01*
X171218Y134848D01*
X171105Y135116D01*
X170978Y135384D01*
X170852Y135638D01*
X170795Y135750D01*
X170739Y135849D01*
X170682Y135934D01*
X170640Y136004D01*
X170626Y136018D01*
X170598Y136046D01*
X170527Y136089D01*
X170443Y136145D01*
X170302Y136201D01*
X170147Y136244D01*
X169935Y136272D01*
X169681Y136286D01*
X169230D01*
X169174Y136272D01*
X169146D01*
Y136258D01*
Y136244D01*
Y136201D01*
X169132Y136145D01*
Y136060D01*
Y135948D01*
Y135793D01*
Y127687D01*
Y127659D01*
X169146Y127588D01*
X169174Y127504D01*
X169230Y127433D01*
X169244Y127419D01*
X169301Y127405D01*
X169386Y127377D01*
X169498Y127363D01*
X170189D01*
Y126728D01*
X166834D01*
Y127363D01*
X167553D01*
X167638Y127377D01*
X167736Y127391D01*
X167807Y127433D01*
X167821Y127447D01*
X167849Y127504D01*
X167877Y127574D01*
X167891Y127687D01*
Y135863D01*
Y135877D01*
Y135920D01*
Y135990D01*
Y136060D01*
Y136131D01*
Y136201D01*
X167877Y136244D01*
Y136272D01*
X167849D01*
X167835Y136286D01*
X167398D01*
X167271Y136272D01*
X167116Y136258D01*
X166933Y136215D01*
X166763Y136173D01*
X166608Y136103D01*
X166481Y136018D01*
X166467Y136004D01*
X166425Y135962D01*
X166369Y135863D01*
X166326Y135807D01*
X166284Y135722D01*
X166228Y135623D01*
X166171Y135525D01*
X166101Y135384D01*
X166030Y135243D01*
X165960Y135074D01*
X165875Y134876D01*
X165791Y134665D01*
X165692Y134425D01*
X165086Y134510D01*
X165650Y136991D01*
X171444D01*
X171937Y134510D01*
D02*
G37*
G36*
X217809Y136342D02*
X217386D01*
X217315Y136328D01*
X217202Y136286D01*
X217076Y136201D01*
X217047Y136173D01*
X217019Y136145D01*
X216991Y136089D01*
X216949Y136018D01*
X216907Y135934D01*
X216864Y135835D01*
X216822Y135722D01*
X214383Y126728D01*
X213791D01*
X211606Y135652D01*
Y135666D01*
X211592Y135708D01*
X211578Y135779D01*
X211564Y135863D01*
X211507Y136032D01*
X211479Y136117D01*
X211437Y136187D01*
Y136201D01*
X211423Y136215D01*
X211352Y136272D01*
X211254Y136314D01*
X211197Y136342D01*
X210676D01*
Y136991D01*
X213495D01*
Y136342D01*
X213072D01*
X213002Y136328D01*
X212917Y136300D01*
X212847Y136230D01*
X212832Y136215D01*
Y136145D01*
X212818Y136046D01*
X212847Y135905D01*
X214393Y129434D01*
X216047Y135750D01*
Y135764D01*
X216061Y135807D01*
X216075Y135863D01*
X216089Y135934D01*
X216103Y136074D01*
Y136145D01*
X216075Y136201D01*
X216061Y136230D01*
X216004Y136272D01*
X215948Y136300D01*
X215891Y136314D01*
X215821Y136342D01*
X215398D01*
Y136991D01*
X217809D01*
Y136342D01*
D02*
G37*
G36*
X202443Y132903D02*
X201907D01*
X201823Y132889D01*
X201696Y132832D01*
X201625Y132804D01*
X201555Y132748D01*
X201541D01*
X201527Y132719D01*
X201442Y132649D01*
X201343Y132522D01*
X201259Y132353D01*
X199285Y126658D01*
Y126644D01*
X199271Y126615D01*
X199257Y126559D01*
X199229Y126489D01*
X199201Y126404D01*
X199158Y126305D01*
X199074Y126080D01*
X198961Y125840D01*
X198834Y125586D01*
X198679Y125333D01*
X198510Y125121D01*
X198496Y125093D01*
X198425Y125037D01*
X198327Y124952D01*
X198186Y124853D01*
X198002Y124755D01*
X197791Y124670D01*
X197551Y124614D01*
X197283Y124586D01*
X197213D01*
X197128Y124600D01*
X197030Y124614D01*
X196917Y124628D01*
X196790Y124670D01*
X196677Y124712D01*
X196550Y124769D01*
X196536Y124783D01*
X196508Y124797D01*
X196452Y124839D01*
X196395Y124896D01*
X196339Y124980D01*
X196283Y125079D01*
X196254Y125192D01*
X196240Y125318D01*
Y125333D01*
Y125361D01*
X196254Y125417D01*
X196269Y125488D01*
X196325Y125657D01*
X196367Y125741D01*
X196423Y125826D01*
X196438Y125840D01*
X196452Y125854D01*
X196508Y125897D01*
X196565Y125939D01*
X196635Y125967D01*
X196734Y126009D01*
X196846Y126023D01*
X196973Y126038D01*
X197030D01*
X197086Y126023D01*
X197157Y126009D01*
X197227Y125981D01*
X197312Y125939D01*
X197382Y125882D01*
X197439Y125812D01*
Y125798D01*
X197467Y125784D01*
X197537Y125713D01*
X197594Y125671D01*
X197664Y125657D01*
X197749Y125643D01*
X197833Y125657D01*
X197847D01*
X197875Y125671D01*
X197974Y125727D01*
X198087Y125812D01*
X198129Y125882D01*
X198172Y125967D01*
Y125981D01*
X198200Y125995D01*
X198228Y126038D01*
X198256Y126108D01*
X198298Y126193D01*
X198355Y126291D01*
X198411Y126418D01*
X198468Y126559D01*
X198482Y126573D01*
X198496Y126629D01*
X198524Y126714D01*
X198566Y126813D01*
X198609Y126940D01*
X198665Y127081D01*
X198750Y127391D01*
X196762Y132494D01*
Y132508D01*
X196748Y132522D01*
X196720Y132607D01*
X196649Y132691D01*
X196550Y132790D01*
X196522Y132804D01*
X196452Y132846D01*
X196339Y132889D01*
X196212Y132903D01*
X195832D01*
Y133551D01*
X198594D01*
Y132903D01*
X198172D01*
X198115Y132889D01*
X198031Y132860D01*
X197960Y132804D01*
X197946Y132790D01*
X197932Y132733D01*
Y132649D01*
X197946Y132522D01*
X199241Y128811D01*
X200455Y132480D01*
Y132494D01*
X200469Y132508D01*
X200498Y132593D01*
Y132691D01*
X200469Y132748D01*
X200441Y132790D01*
X200427Y132804D01*
X200371Y132846D01*
X200286Y132889D01*
X200187Y132903D01*
X199680D01*
Y133551D01*
X202443D01*
Y132903D01*
D02*
G37*
G36*
X222630Y128166D02*
Y128152D01*
Y128096D01*
X222644Y128025D01*
X222658Y127941D01*
X222686Y127842D01*
X222729Y127743D01*
X222785Y127645D01*
X222869Y127560D01*
X222884Y127546D01*
X222912Y127532D01*
X222968Y127504D01*
X223053Y127461D01*
X223151Y127419D01*
X223278Y127391D01*
X223419Y127377D01*
X223589Y127363D01*
X224321D01*
Y126728D01*
X219754D01*
Y127363D01*
X220529D01*
X220628Y127377D01*
X220727Y127391D01*
X220980Y127447D01*
X221079Y127490D01*
X221178Y127560D01*
X221192Y127574D01*
X221206Y127602D01*
X221248Y127645D01*
X221291Y127715D01*
X221319Y127800D01*
X221361Y127898D01*
X221375Y128025D01*
X221389Y128166D01*
Y135215D01*
Y135229D01*
Y135243D01*
X221375Y135313D01*
X221347Y135398D01*
X221291Y135483D01*
X221276Y135497D01*
X221220Y135539D01*
X221107Y135567D01*
X220966Y135581D01*
X219754D01*
Y136230D01*
X220558D01*
X220670Y136244D01*
X220825Y136258D01*
X220980Y136286D01*
X221164Y136314D01*
X221333Y136371D01*
X221488Y136441D01*
X221502Y136455D01*
X221558Y136483D01*
X221629Y136540D01*
X221728Y136610D01*
X221826Y136709D01*
X221939Y136836D01*
X222052Y136991D01*
X222151Y137160D01*
X222630D01*
Y128166D01*
D02*
G37*
G36*
X189967Y132508D02*
X189981Y132536D01*
X190023Y132593D01*
X190080Y132691D01*
X190165Y132818D01*
X190291Y132945D01*
X190432Y133086D01*
X190587Y133227D01*
X190785Y133354D01*
X190813Y133368D01*
X190883Y133396D01*
X190996Y133453D01*
X191151Y133509D01*
X191320Y133565D01*
X191518Y133622D01*
X191743Y133650D01*
X191969Y133664D01*
X192068D01*
X192138Y133650D01*
X192237D01*
X192335Y133636D01*
X192575Y133594D01*
X192829Y133523D01*
X193083Y133424D01*
X193336Y133283D01*
X193548Y133086D01*
X193576Y133058D01*
X193632Y132987D01*
X193703Y132846D01*
X193801Y132663D01*
X193900Y132437D01*
X193971Y132142D01*
X194027Y131803D01*
X194055Y131423D01*
Y127687D01*
Y127659D01*
X194069Y127588D01*
X194097Y127504D01*
X194140Y127433D01*
X194154Y127419D01*
X194210Y127405D01*
X194295Y127377D01*
X194422Y127363D01*
X194873D01*
Y126728D01*
X192110D01*
Y127363D01*
X192589D01*
X192674Y127377D01*
X192772Y127391D01*
X192843Y127433D01*
X192857Y127447D01*
X192885Y127504D01*
X192913Y127574D01*
X192927Y127687D01*
Y131606D01*
Y131620D01*
Y131634D01*
Y131705D01*
X192913Y131817D01*
X192899Y131958D01*
X192871Y132113D01*
X192815Y132282D01*
X192758Y132437D01*
X192674Y132564D01*
X192660Y132578D01*
X192631Y132621D01*
X192561Y132677D01*
X192491Y132733D01*
X192378Y132790D01*
X192251Y132846D01*
X192096Y132889D01*
X191912Y132903D01*
X191828D01*
X191729Y132889D01*
X191602Y132860D01*
X191461Y132818D01*
X191292Y132762D01*
X191109Y132677D01*
X190912Y132564D01*
X190883Y132550D01*
X190827Y132508D01*
X190728Y132437D01*
X190602Y132325D01*
X190446Y132198D01*
X190291Y132043D01*
X190136Y131874D01*
X189967Y131662D01*
Y127687D01*
Y127659D01*
X189981Y127588D01*
X190009Y127504D01*
X190066Y127433D01*
X190080Y127419D01*
X190136Y127405D01*
X190221Y127377D01*
X190348Y127363D01*
X190785D01*
Y126728D01*
X188022D01*
Y127363D01*
X188515D01*
X188600Y127377D01*
X188698Y127391D01*
X188741Y127405D01*
X188769Y127433D01*
X188783Y127447D01*
X188811Y127504D01*
X188825Y127574D01*
X188839Y127687D01*
Y132705D01*
Y132719D01*
Y132776D01*
X188825Y132818D01*
X188811Y132860D01*
Y132874D01*
X188797Y132889D01*
X188769Y132903D01*
X188092D01*
Y133551D01*
X188825D01*
X188980Y133565D01*
X189149Y133594D01*
X189164D01*
X189192Y133608D01*
X189234Y133622D01*
X189305Y133650D01*
X189460Y133720D01*
X189643Y133847D01*
X189967D01*
Y132508D01*
D02*
G37*
G36*
X237333Y137090D02*
X237432Y137075D01*
X237544Y137061D01*
X237686Y137033D01*
X237840Y136991D01*
X237996Y136934D01*
X238179Y136850D01*
X238348Y136765D01*
X238545Y136652D01*
X238729Y136511D01*
X238912Y136356D01*
X239095Y136173D01*
X239278Y135948D01*
X239448Y135708D01*
X239462Y135694D01*
X239490Y135638D01*
X239532Y135567D01*
X239589Y135454D01*
X239659Y135313D01*
X239729Y135144D01*
X239814Y134933D01*
X239899Y134707D01*
X239969Y134453D01*
X240054Y134157D01*
X240124Y133847D01*
X240195Y133509D01*
X240251Y133142D01*
X240293Y132748D01*
X240322Y132325D01*
X240336Y131888D01*
Y131860D01*
Y131775D01*
Y131648D01*
X240322Y131493D01*
X240308Y131282D01*
X240293Y131042D01*
X240265Y130788D01*
X240223Y130492D01*
X240181Y130196D01*
X240124Y129886D01*
X240054Y129562D01*
X239955Y129237D01*
X239856Y128927D01*
X239744Y128617D01*
X239603Y128321D01*
X239448Y128039D01*
X239433Y128025D01*
X239405Y127983D01*
X239363Y127912D01*
X239293Y127814D01*
X239208Y127715D01*
X239095Y127588D01*
X238982Y127461D01*
X238841Y127334D01*
X238686Y127193D01*
X238517Y127066D01*
X238334Y126940D01*
X238137Y126841D01*
X237925Y126742D01*
X237700Y126672D01*
X237460Y126629D01*
X237206Y126615D01*
X237150D01*
X237079Y126629D01*
X236981Y126644D01*
X236868Y126658D01*
X236727Y126686D01*
X236572Y126728D01*
X236403Y126785D01*
X236234Y126855D01*
X236050Y126954D01*
X235853Y127066D01*
X235670Y127193D01*
X235472Y127363D01*
X235289Y127546D01*
X235106Y127757D01*
X234922Y127997D01*
X234908Y128011D01*
X234880Y128067D01*
X234838Y128138D01*
X234781Y128251D01*
X234711Y128392D01*
X234641Y128575D01*
X234556Y128772D01*
X234471Y129012D01*
X234387Y129266D01*
X234302Y129562D01*
X234232Y129886D01*
X234161Y130224D01*
X234105Y130605D01*
X234062Y131000D01*
X234034Y131437D01*
X234020Y131888D01*
Y131916D01*
Y131986D01*
Y132113D01*
X234034Y132268D01*
X234048Y132466D01*
X234062Y132691D01*
X234091Y132945D01*
X234133Y133227D01*
X234175Y133523D01*
X234232Y133819D01*
X234302Y134129D01*
X234387Y134453D01*
X234485Y134763D01*
X234612Y135074D01*
X234739Y135370D01*
X234894Y135652D01*
X234908Y135666D01*
X234937Y135708D01*
X234979Y135793D01*
X235049Y135877D01*
X235148Y135990D01*
X235247Y136117D01*
X235373Y136244D01*
X235515Y136385D01*
X235670Y136511D01*
X235839Y136638D01*
X236036Y136765D01*
X236234Y136878D01*
X236459Y136977D01*
X236699Y137047D01*
X236938Y137090D01*
X237206Y137104D01*
X237262D01*
X237333Y137090D01*
D02*
G37*
G36*
X184131Y133650D02*
X184230Y133636D01*
X184356Y133622D01*
X184483Y133594D01*
X184624Y133565D01*
X184949Y133467D01*
X185118Y133410D01*
X185287Y133326D01*
X185456Y133227D01*
X185625Y133128D01*
X185794Y133001D01*
X185964Y132860D01*
X185978Y132846D01*
X186006Y132818D01*
X186048Y132776D01*
X186105Y132705D01*
X186161Y132607D01*
X186245Y132494D01*
X186316Y132367D01*
X186401Y132198D01*
X186485Y132015D01*
X186556Y131803D01*
X186640Y131564D01*
X186697Y131310D01*
X186753Y131014D01*
X186795Y130704D01*
X186824Y130365D01*
X186838Y129985D01*
X182115D01*
Y129971D01*
Y129928D01*
Y129858D01*
X182129Y129759D01*
Y129646D01*
X182143Y129519D01*
X182186Y129223D01*
X182256Y128899D01*
X182355Y128561D01*
X182496Y128251D01*
X182580Y128110D01*
X182679Y127983D01*
X182693D01*
X182707Y127955D01*
X182778Y127884D01*
X182904Y127786D01*
X183088Y127673D01*
X183299Y127560D01*
X183553Y127461D01*
X183849Y127391D01*
X184004Y127377D01*
X184173Y127363D01*
X184286D01*
X184413Y127391D01*
X184582Y127419D01*
X184765Y127461D01*
X184963Y127532D01*
X185160Y127630D01*
X185343Y127771D01*
X185371Y127786D01*
X185428Y127842D01*
X185513Y127941D01*
X185625Y128067D01*
X185752Y128223D01*
X185879Y128420D01*
X186006Y128645D01*
X186119Y128899D01*
X186654Y128702D01*
Y128688D01*
X186640Y128659D01*
Y128617D01*
X186612Y128561D01*
X186556Y128420D01*
X186485Y128223D01*
X186372Y127997D01*
X186231Y127757D01*
X186048Y127504D01*
X185823Y127250D01*
X185809D01*
X185794Y127222D01*
X185752Y127193D01*
X185710Y127151D01*
X185639Y127109D01*
X185555Y127052D01*
X185357Y126940D01*
X185104Y126813D01*
X184808Y126714D01*
X184455Y126644D01*
X184258Y126629D01*
X184060Y126615D01*
X183920D01*
X183821Y126629D01*
X183708Y126644D01*
X183567Y126658D01*
X183412Y126686D01*
X183243Y126728D01*
X182876Y126841D01*
X182693Y126911D01*
X182496Y126996D01*
X182298Y127109D01*
X182115Y127236D01*
X181932Y127377D01*
X181763Y127532D01*
X181749Y127546D01*
X181720Y127574D01*
X181678Y127630D01*
X181622Y127701D01*
X181551Y127800D01*
X181481Y127912D01*
X181396Y128053D01*
X181326Y128208D01*
X181241Y128378D01*
X181157Y128575D01*
X181086Y128786D01*
X181015Y129026D01*
X180959Y129266D01*
X180917Y129548D01*
X180889Y129830D01*
X180875Y130140D01*
Y130154D01*
Y130210D01*
Y130281D01*
X180889Y130393D01*
X180903Y130520D01*
X180917Y130675D01*
X180945Y130830D01*
X180987Y131014D01*
X181086Y131423D01*
X181157Y131620D01*
X181241Y131831D01*
X181340Y132043D01*
X181467Y132254D01*
X181593Y132452D01*
X181749Y132649D01*
X181763Y132663D01*
X181791Y132691D01*
X181833Y132748D01*
X181904Y132804D01*
X181988Y132889D01*
X182101Y132973D01*
X182214Y133058D01*
X182355Y133156D01*
X182510Y133255D01*
X182679Y133340D01*
X183046Y133509D01*
X183257Y133565D01*
X183468Y133622D01*
X183694Y133650D01*
X183934Y133664D01*
X184046D01*
X184131Y133650D01*
D02*
G37*
G36*
X176504D02*
X176603Y133636D01*
X176730Y133622D01*
X176857Y133594D01*
X176998Y133565D01*
X177322Y133467D01*
X177491Y133410D01*
X177660Y133326D01*
X177830Y133227D01*
X177999Y133128D01*
X178168Y133001D01*
X178337Y132860D01*
X178351Y132846D01*
X178379Y132818D01*
X178422Y132776D01*
X178478Y132705D01*
X178534Y132607D01*
X178619Y132494D01*
X178689Y132367D01*
X178774Y132198D01*
X178859Y132015D01*
X178929Y131803D01*
X179014Y131564D01*
X179070Y131310D01*
X179126Y131014D01*
X179169Y130704D01*
X179197Y130365D01*
X179211Y129985D01*
X174489D01*
Y129971D01*
Y129928D01*
Y129858D01*
X174503Y129759D01*
Y129646D01*
X174517Y129519D01*
X174559Y129223D01*
X174630Y128899D01*
X174728Y128561D01*
X174869Y128251D01*
X174954Y128110D01*
X175053Y127983D01*
X175067D01*
X175081Y127955D01*
X175151Y127884D01*
X175278Y127786D01*
X175461Y127673D01*
X175673Y127560D01*
X175926Y127461D01*
X176222Y127391D01*
X176378Y127377D01*
X176547Y127363D01*
X176660D01*
X176786Y127391D01*
X176956Y127419D01*
X177139Y127461D01*
X177336Y127532D01*
X177534Y127630D01*
X177717Y127771D01*
X177745Y127786D01*
X177801Y127842D01*
X177886Y127941D01*
X177999Y128067D01*
X178126Y128223D01*
X178253Y128420D01*
X178379Y128645D01*
X178492Y128899D01*
X179028Y128702D01*
Y128688D01*
X179014Y128659D01*
Y128617D01*
X178986Y128561D01*
X178929Y128420D01*
X178859Y128223D01*
X178746Y127997D01*
X178605Y127757D01*
X178422Y127504D01*
X178196Y127250D01*
X178182D01*
X178168Y127222D01*
X178126Y127193D01*
X178083Y127151D01*
X178013Y127109D01*
X177928Y127052D01*
X177731Y126940D01*
X177477Y126813D01*
X177181Y126714D01*
X176829Y126644D01*
X176631Y126629D01*
X176434Y126615D01*
X176293D01*
X176194Y126629D01*
X176082Y126644D01*
X175941Y126658D01*
X175786Y126686D01*
X175616Y126728D01*
X175250Y126841D01*
X175067Y126911D01*
X174869Y126996D01*
X174672Y127109D01*
X174489Y127236D01*
X174305Y127377D01*
X174136Y127532D01*
X174122Y127546D01*
X174094Y127574D01*
X174052Y127630D01*
X173995Y127701D01*
X173925Y127800D01*
X173854Y127912D01*
X173770Y128053D01*
X173699Y128208D01*
X173615Y128378D01*
X173530Y128575D01*
X173459Y128786D01*
X173389Y129026D01*
X173333Y129266D01*
X173290Y129548D01*
X173262Y129830D01*
X173248Y130140D01*
Y130154D01*
Y130210D01*
Y130281D01*
X173262Y130393D01*
X173276Y130520D01*
X173290Y130675D01*
X173319Y130830D01*
X173361Y131014D01*
X173459Y131423D01*
X173530Y131620D01*
X173615Y131831D01*
X173713Y132043D01*
X173840Y132254D01*
X173967Y132452D01*
X174122Y132649D01*
X174136Y132663D01*
X174164Y132691D01*
X174207Y132748D01*
X174277Y132804D01*
X174362Y132889D01*
X174475Y132973D01*
X174587Y133058D01*
X174728Y133156D01*
X174883Y133255D01*
X175053Y133340D01*
X175419Y133509D01*
X175630Y133565D01*
X175842Y133622D01*
X176068Y133650D01*
X176307Y133664D01*
X176420D01*
X176504Y133650D01*
D02*
G37*
G36*
X227860Y128462D02*
X227959Y128448D01*
X228071Y128406D01*
X228184Y128364D01*
X228297Y128293D01*
X228410Y128194D01*
X228424Y128180D01*
X228452Y128152D01*
X228494Y128082D01*
X228551Y128011D01*
X228607Y127912D01*
X228649Y127800D01*
X228678Y127659D01*
X228692Y127518D01*
Y127504D01*
Y127447D01*
X228678Y127377D01*
X228663Y127278D01*
X228621Y127165D01*
X228579Y127052D01*
X228508Y126940D01*
X228410Y126827D01*
X228396Y126813D01*
X228353Y126785D01*
X228297Y126742D01*
X228212Y126700D01*
X228114Y126644D01*
X228001Y126601D01*
X227860Y126573D01*
X227719Y126559D01*
X227648D01*
X227564Y126573D01*
X227479Y126587D01*
X227366Y126629D01*
X227240Y126672D01*
X227127Y126742D01*
X227014Y126827D01*
X227000Y126841D01*
X226972Y126869D01*
X226929Y126940D01*
X226887Y127010D01*
X226831Y127109D01*
X226789Y127236D01*
X226760Y127363D01*
X226746Y127518D01*
Y127532D01*
Y127588D01*
X226760Y127659D01*
X226774Y127757D01*
X226817Y127856D01*
X226859Y127983D01*
X226929Y128096D01*
X227014Y128194D01*
X227028Y128208D01*
X227070Y128237D01*
X227127Y128279D01*
X227211Y128335D01*
X227310Y128392D01*
X227437Y128434D01*
X227564Y128462D01*
X227719Y128476D01*
X227789D01*
X227860Y128462D01*
D02*
G37*
G36*
X70166Y10783D02*
X69762Y10670D01*
Y10679D01*
X69752Y10708D01*
X69733Y10755D01*
X69715Y10811D01*
X69696Y10877D01*
X69668Y10961D01*
X69592Y11149D01*
X69508Y11347D01*
X69405Y11544D01*
X69301Y11723D01*
X69235Y11807D01*
X69179Y11873D01*
X69160Y11892D01*
X69123Y11929D01*
X69047Y11986D01*
X68953Y12052D01*
X68841Y12108D01*
X68709Y12164D01*
X68559Y12202D01*
X68390Y12221D01*
X68371D01*
X68342Y12211D01*
X68305D01*
X68201Y12183D01*
X68070Y12127D01*
X67995Y12089D01*
X67920Y12033D01*
X67835Y11976D01*
X67750Y11901D01*
X67666Y11817D01*
X67581Y11713D01*
X67487Y11591D01*
X67403Y11459D01*
X67393Y11450D01*
X67384Y11422D01*
X67365Y11384D01*
X67327Y11319D01*
X67299Y11234D01*
X67262Y11140D01*
X67215Y11018D01*
X67177Y10886D01*
X67130Y10726D01*
X67093Y10557D01*
X67046Y10360D01*
X67017Y10144D01*
X66989Y9918D01*
X66961Y9664D01*
X66952Y9392D01*
X66942Y9101D01*
Y9091D01*
Y9054D01*
Y8997D01*
X66952Y8922D01*
Y8819D01*
X66961Y8706D01*
X66970Y8584D01*
X66989Y8443D01*
X67008Y8292D01*
X67027Y8133D01*
X67093Y7794D01*
X67177Y7447D01*
X67290Y7089D01*
Y7080D01*
X67309Y7052D01*
X67327Y7005D01*
X67356Y6948D01*
X67393Y6873D01*
X67440Y6798D01*
X67562Y6629D01*
X67722Y6450D01*
X67816Y6375D01*
X67920Y6309D01*
X68032Y6244D01*
X68155Y6197D01*
X68286Y6168D01*
X68427Y6159D01*
X68493D01*
X68568Y6168D01*
X68653Y6178D01*
X68747Y6197D01*
X68850Y6225D01*
X68953Y6262D01*
X69038Y6309D01*
X69047Y6319D01*
X69076Y6338D01*
X69113Y6375D01*
X69160Y6431D01*
X69198Y6497D01*
X69245Y6572D01*
X69282Y6666D01*
X69301Y6779D01*
Y8086D01*
Y8095D01*
Y8114D01*
Y8151D01*
X69292Y8189D01*
X69264Y8283D01*
X69235Y8321D01*
X69207Y8358D01*
X69188Y8377D01*
X69141Y8405D01*
X69057Y8433D01*
X69000Y8452D01*
X68596D01*
Y8884D01*
X70748D01*
Y8452D01*
X70401D01*
X70363Y8443D01*
X70288Y8414D01*
X70213Y8358D01*
X70203Y8339D01*
X70175Y8302D01*
X70138Y8227D01*
X70128Y8123D01*
Y6084D01*
X70119D01*
X70090Y6093D01*
X70053Y6103D01*
X70006Y6112D01*
X69921Y6131D01*
X69884D01*
X69856Y6140D01*
X69846D01*
X69827Y6150D01*
X69790Y6159D01*
X69715D01*
X69677Y6150D01*
X69630Y6140D01*
X69621D01*
X69592Y6131D01*
X69555Y6112D01*
X69517Y6074D01*
X69508Y6065D01*
X69470Y6037D01*
X69423Y5999D01*
X69348Y5952D01*
X69273Y5905D01*
X69179Y5858D01*
X69085Y5811D01*
X68982Y5774D01*
X68972D01*
X68935Y5764D01*
X68878Y5755D01*
X68812Y5736D01*
X68718Y5727D01*
X68625Y5708D01*
X68512Y5699D01*
X68333D01*
X68277Y5708D01*
X68192Y5717D01*
X68089Y5727D01*
X67967Y5755D01*
X67844Y5783D01*
X67703Y5830D01*
X67562Y5886D01*
X67412Y5962D01*
X67262Y6046D01*
X67111Y6150D01*
X66970Y6272D01*
X66829Y6413D01*
X66707Y6572D01*
X66595Y6761D01*
X66585Y6770D01*
X66566Y6808D01*
X66538Y6864D01*
X66510Y6948D01*
X66463Y7052D01*
X66416Y7165D01*
X66369Y7305D01*
X66312Y7456D01*
X66256Y7625D01*
X66209Y7804D01*
X66162Y7992D01*
X66115Y8198D01*
X66087Y8414D01*
X66059Y8640D01*
X66040Y8866D01*
X66031Y9101D01*
Y9119D01*
Y9166D01*
Y9241D01*
X66040Y9345D01*
X66049Y9477D01*
X66068Y9617D01*
X66087Y9787D01*
X66115Y9965D01*
X66143Y10163D01*
X66190Y10360D01*
X66247Y10576D01*
X66312Y10783D01*
X66388Y10999D01*
X66472Y11215D01*
X66576Y11422D01*
X66688Y11629D01*
X66698Y11638D01*
X66717Y11676D01*
X66754Y11723D01*
X66811Y11798D01*
X66876Y11873D01*
X66952Y11967D01*
X67046Y12061D01*
X67149Y12164D01*
X67271Y12258D01*
X67393Y12352D01*
X67534Y12446D01*
X67685Y12521D01*
X67844Y12597D01*
X68023Y12644D01*
X68201Y12681D01*
X68390Y12691D01*
X68436D01*
X68484Y12681D01*
X68559Y12672D01*
X68643Y12662D01*
X68737Y12644D01*
X68841Y12606D01*
X68953Y12568D01*
X68963D01*
X69000Y12550D01*
X69057Y12531D01*
X69113Y12512D01*
X69179Y12493D01*
X69245Y12474D01*
X69292Y12465D01*
X69329Y12456D01*
X69348D01*
X69386Y12465D01*
X69442Y12474D01*
X69508Y12503D01*
X69527Y12512D01*
X69545Y12521D01*
X69583Y12550D01*
X69621Y12568D01*
X69677Y12606D01*
X69733Y12653D01*
X69809Y12700D01*
X70166Y10783D01*
D02*
G37*
G36*
X75955Y12183D02*
X75523D01*
X75476Y12174D01*
X75410Y12164D01*
X75353Y12127D01*
X75344Y12117D01*
X75325Y12089D01*
X75297Y12042D01*
X75288Y11976D01*
Y5774D01*
X74883D01*
X72027Y11379D01*
Y6413D01*
Y6394D01*
X72036Y6347D01*
X72055Y6291D01*
X72083Y6244D01*
X72092Y6234D01*
X72130Y6225D01*
X72186Y6206D01*
X72271Y6197D01*
X72684D01*
Y5774D01*
X70927D01*
Y6197D01*
X71359D01*
X71416Y6206D01*
X71481Y6215D01*
X71528Y6244D01*
X71538Y6253D01*
X71557Y6291D01*
X71575Y6338D01*
X71585Y6413D01*
Y11976D01*
Y11986D01*
Y11995D01*
X71575Y12042D01*
X71566Y12089D01*
X71538Y12136D01*
X71528Y12146D01*
X71500Y12164D01*
X71434Y12174D01*
X71397Y12183D01*
X71002D01*
Y12615D01*
X72299D01*
X74846Y7703D01*
Y11976D01*
Y11986D01*
Y11995D01*
X74837Y12042D01*
X74827Y12089D01*
X74799Y12136D01*
X74790Y12146D01*
X74761Y12164D01*
X74696Y12174D01*
X74658Y12183D01*
X74188D01*
Y12615D01*
X75955D01*
Y12183D01*
D02*
G37*
G36*
X78135Y12606D02*
X78220D01*
X78323Y12587D01*
X78445Y12568D01*
X78586Y12550D01*
X78737Y12512D01*
X78887Y12474D01*
X79047Y12418D01*
X79216Y12352D01*
X79385Y12277D01*
X79554Y12183D01*
X79714Y12070D01*
X79865Y11948D01*
X80015Y11807D01*
X80024Y11798D01*
X80043Y11770D01*
X80081Y11723D01*
X80137Y11657D01*
X80193Y11572D01*
X80250Y11459D01*
X80325Y11337D01*
X80391Y11196D01*
X80456Y11037D01*
X80532Y10849D01*
X80588Y10642D01*
X80654Y10426D01*
X80701Y10181D01*
X80738Y9918D01*
X80757Y9636D01*
X80767Y9336D01*
Y9326D01*
Y9317D01*
Y9288D01*
Y9251D01*
Y9157D01*
X80757Y9035D01*
X80748Y8884D01*
X80729Y8706D01*
X80701Y8518D01*
X80673Y8311D01*
X80635Y8095D01*
X80588Y7869D01*
X80532Y7644D01*
X80456Y7428D01*
X80372Y7212D01*
X80278Y7005D01*
X80165Y6808D01*
X80034Y6638D01*
X80024Y6629D01*
X79996Y6601D01*
X79958Y6563D01*
X79902Y6507D01*
X79827Y6441D01*
X79733Y6366D01*
X79620Y6291D01*
X79498Y6206D01*
X79357Y6121D01*
X79197Y6046D01*
X79019Y5971D01*
X78831Y5905D01*
X78624Y5858D01*
X78398Y5811D01*
X78154Y5783D01*
X77900Y5774D01*
X76124D01*
Y6197D01*
X76528D01*
X76585Y6206D01*
X76650Y6215D01*
X76679Y6225D01*
X76697Y6244D01*
X76707Y6253D01*
X76726Y6291D01*
X76735Y6338D01*
X76744Y6413D01*
Y11976D01*
Y11986D01*
Y11995D01*
X76735Y12042D01*
X76726Y12089D01*
X76697Y12136D01*
X76688Y12146D01*
X76660Y12164D01*
X76594Y12174D01*
X76556Y12183D01*
X76162D01*
Y12615D01*
X78069D01*
X78135Y12606D01*
D02*
G37*
G36*
X210293Y123567D02*
X210406Y123558D01*
X210538Y123539D01*
X210688Y123492D01*
X210838Y123436D01*
X210998Y123351D01*
X211139Y123238D01*
X211158Y123219D01*
X211195Y123182D01*
X211252Y123116D01*
X211327Y123032D01*
X211393Y122937D01*
X211449Y122834D01*
X211487Y122731D01*
X211506Y122627D01*
Y122618D01*
Y122580D01*
X211496Y122533D01*
X211487Y122477D01*
X211449Y122336D01*
X211421Y122270D01*
X211374Y122205D01*
X211365Y122195D01*
X211355Y122186D01*
X211318Y122157D01*
X211280Y122139D01*
X211224Y122111D01*
X211148Y122082D01*
X211064Y122073D01*
X210970Y122064D01*
X210932D01*
X210885Y122073D01*
X210838Y122082D01*
X210716Y122120D01*
X210660Y122148D01*
X210603Y122186D01*
X210594Y122195D01*
X210585Y122205D01*
X210566Y122242D01*
X210547Y122280D01*
X210519Y122327D01*
X210500Y122392D01*
X210491Y122468D01*
X210481Y122552D01*
Y122571D01*
Y122609D01*
X210491Y122665D01*
X210500Y122721D01*
Y122731D01*
X210509Y122768D01*
X210519Y122815D01*
Y122862D01*
Y122872D01*
Y122881D01*
X210509Y122919D01*
X210481Y122975D01*
X210434Y123032D01*
X210415Y123041D01*
X210397Y123060D01*
X210359Y123069D01*
X210312Y123088D01*
X210246Y123097D01*
X210171Y123107D01*
X210021D01*
X209974Y123097D01*
X209927Y123088D01*
X209861Y123078D01*
X209720Y123032D01*
X209551Y122966D01*
X209466Y122919D01*
X209372Y122862D01*
X209288Y122797D01*
X209194Y122721D01*
X209109Y122637D01*
X209025Y122533D01*
Y122524D01*
X209006Y122505D01*
X208987Y122468D01*
X208959Y122421D01*
X208921Y122345D01*
X208883Y122261D01*
X208846Y122148D01*
X208808Y122016D01*
X208771Y121866D01*
X208733Y121688D01*
X208696Y121490D01*
X208658Y121265D01*
X208630Y121011D01*
X208611Y120738D01*
X208602Y120428D01*
X208593Y120112D01*
X208602Y120165D01*
X208630Y120250D01*
X208667Y120353D01*
X208724Y120466D01*
X208808Y120588D01*
X208921Y120710D01*
X209062Y120814D01*
X209072D01*
X209081Y120823D01*
X209137Y120861D01*
X209231Y120898D01*
X209344Y120955D01*
X209485Y121002D01*
X209645Y121048D01*
X209823Y121077D01*
X210002Y121086D01*
X210096D01*
X210162Y121077D01*
X210246Y121067D01*
X210340Y121048D01*
X210444Y121030D01*
X210547Y121002D01*
X210669Y120973D01*
X210782Y120926D01*
X210904Y120870D01*
X211017Y120814D01*
X211130Y120729D01*
X211233Y120644D01*
X211336Y120541D01*
X211421Y120428D01*
X211430Y120419D01*
X211440Y120400D01*
X211459Y120363D01*
X211487Y120316D01*
X211524Y120250D01*
X211562Y120184D01*
X211600Y120099D01*
X211637Y120005D01*
X211675Y119902D01*
X211712Y119789D01*
X211787Y119545D01*
X211835Y119263D01*
X211853Y119122D01*
Y118972D01*
Y118962D01*
Y118915D01*
Y118859D01*
X211844Y118774D01*
X211835Y118671D01*
X211825Y118558D01*
X211806Y118436D01*
X211778Y118295D01*
X211712Y118004D01*
X211665Y117853D01*
X211600Y117703D01*
X211534Y117562D01*
X211459Y117421D01*
X211365Y117299D01*
X211261Y117177D01*
X211252Y117167D01*
X211233Y117148D01*
X211205Y117120D01*
X211158Y117083D01*
X211101Y117036D01*
X211036Y116989D01*
X210951Y116932D01*
X210867Y116885D01*
X210669Y116772D01*
X210434Y116678D01*
X210303Y116641D01*
X210171Y116613D01*
X210030Y116594D01*
X209889Y116585D01*
X209842D01*
X209786Y116594D01*
X209711D01*
X209617Y116613D01*
X209504Y116631D01*
X209391Y116650D01*
X209259Y116688D01*
X209128Y116735D01*
X208987Y116791D01*
X208855Y116857D01*
X208714Y116932D01*
X208573Y117026D01*
X208442Y117139D01*
X208320Y117270D01*
X208207Y117411D01*
X208197Y117421D01*
X208179Y117449D01*
X208151Y117496D01*
X208122Y117562D01*
X208075Y117646D01*
X208028Y117759D01*
X207981Y117881D01*
X207925Y118022D01*
X207868Y118182D01*
X207822Y118351D01*
X207775Y118549D01*
X207728Y118765D01*
X207699Y118990D01*
X207671Y119244D01*
X207652Y119507D01*
X207643Y119789D01*
Y119799D01*
Y119808D01*
Y119836D01*
Y119874D01*
X207652Y119968D01*
Y120090D01*
X207662Y120240D01*
X207681Y120419D01*
X207699Y120607D01*
X207728Y120823D01*
X207765Y121039D01*
X207812Y121274D01*
X207868Y121500D01*
X207934Y121735D01*
X208009Y121969D01*
X208104Y122186D01*
X208207Y122392D01*
X208329Y122590D01*
X208338Y122599D01*
X208357Y122637D01*
X208404Y122684D01*
X208451Y122740D01*
X208526Y122815D01*
X208611Y122900D01*
X208705Y122994D01*
X208818Y123088D01*
X208949Y123173D01*
X209090Y123266D01*
X209241Y123351D01*
X209410Y123426D01*
X209588Y123483D01*
X209776Y123539D01*
X209983Y123567D01*
X210199Y123577D01*
X210256D01*
X210293Y123567D01*
D02*
G37*
G36*
X215753Y124451D02*
X215829Y124422D01*
X215838D01*
X215866Y124404D01*
X215904Y124394D01*
X215951Y124366D01*
X216054Y124310D01*
X216101Y124272D01*
X216148Y124234D01*
X216158Y124216D01*
X216176Y124169D01*
X216195Y124103D01*
X216214Y124018D01*
Y124009D01*
Y124000D01*
X216223Y123943D01*
X216214Y123868D01*
X216195Y123774D01*
X215697Y121612D01*
Y121603D01*
Y121584D01*
X215678Y121537D01*
X215641Y121471D01*
X215613Y121443D01*
X215565Y121424D01*
X215518D01*
X215481Y121434D01*
X215443Y121453D01*
X215396Y121481D01*
X215349Y121528D01*
X215293Y121584D01*
X215133Y123830D01*
Y123840D01*
Y123858D01*
Y123896D01*
X215143Y123943D01*
X215161Y124046D01*
X215199Y124169D01*
Y124178D01*
X215208Y124197D01*
X215255Y124253D01*
X215312Y124328D01*
X215349Y124357D01*
X215396Y124385D01*
X215406Y124394D01*
X215434Y124404D01*
X215481Y124422D01*
X215537Y124441D01*
X215603Y124451D01*
X215678Y124460D01*
X215753Y124451D01*
D02*
G37*
G36*
X180163D02*
X180238Y124422D01*
X180248D01*
X180276Y124404D01*
X180314Y124394D01*
X180361Y124366D01*
X180464Y124310D01*
X180511Y124272D01*
X180558Y124234D01*
X180567Y124216D01*
X180586Y124169D01*
X180605Y124103D01*
X180624Y124018D01*
Y124009D01*
Y124000D01*
X180633Y123943D01*
X180624Y123868D01*
X180605Y123774D01*
X180107Y121612D01*
Y121603D01*
Y121584D01*
X180088Y121537D01*
X180050Y121471D01*
X180022Y121443D01*
X179975Y121424D01*
X179928D01*
X179891Y121434D01*
X179853Y121453D01*
X179806Y121481D01*
X179759Y121528D01*
X179703Y121584D01*
X179543Y123830D01*
Y123840D01*
Y123858D01*
Y123896D01*
X179552Y123943D01*
X179571Y124046D01*
X179609Y124169D01*
Y124178D01*
X179618Y124197D01*
X179665Y124253D01*
X179722Y124328D01*
X179759Y124357D01*
X179806Y124385D01*
X179816Y124394D01*
X179844Y124404D01*
X179891Y124422D01*
X179947Y124441D01*
X180013Y124451D01*
X180088Y124460D01*
X180163Y124451D01*
D02*
G37*
G36*
X214381Y124432D02*
X214457Y124404D01*
X214466D01*
X214485Y124385D01*
X214522Y124366D01*
X214569Y124338D01*
X214654Y124281D01*
X214692Y124244D01*
X214729Y124216D01*
X214739Y124206D01*
X214767Y124169D01*
X214795Y124112D01*
X214814Y124028D01*
Y124018D01*
X214823Y124009D01*
X214832Y123953D01*
X214842Y123877D01*
Y123783D01*
X214447Y121565D01*
Y121556D01*
Y121547D01*
X214428Y121490D01*
X214391Y121434D01*
X214363Y121406D01*
X214315Y121387D01*
X214297D01*
X214231Y121396D01*
X214193Y121415D01*
X214146Y121443D01*
X214099Y121481D01*
X214052Y121537D01*
X213780Y123699D01*
Y123708D01*
Y123736D01*
Y123783D01*
X213789Y123830D01*
X213799Y123962D01*
X213818Y124103D01*
Y124112D01*
X213827Y124131D01*
X213836Y124159D01*
X213855Y124197D01*
X213902Y124281D01*
X213940Y124310D01*
X213977Y124338D01*
X213987Y124347D01*
X214024Y124366D01*
X214081Y124385D01*
X214146Y124413D01*
X214222Y124432D01*
X214306Y124441D01*
X214381Y124432D01*
D02*
G37*
G36*
X178791D02*
X178866Y124404D01*
X178876D01*
X178895Y124385D01*
X178932Y124366D01*
X178979Y124338D01*
X179064Y124281D01*
X179101Y124244D01*
X179139Y124216D01*
X179148Y124206D01*
X179176Y124169D01*
X179205Y124112D01*
X179223Y124028D01*
Y124018D01*
X179233Y124009D01*
X179242Y123953D01*
X179252Y123877D01*
Y123783D01*
X178857Y121565D01*
Y121556D01*
Y121547D01*
X178838Y121490D01*
X178801Y121434D01*
X178772Y121406D01*
X178725Y121387D01*
X178706D01*
X178641Y121396D01*
X178603Y121415D01*
X178556Y121443D01*
X178509Y121481D01*
X178462Y121537D01*
X178190Y123699D01*
Y123708D01*
Y123736D01*
Y123783D01*
X178199Y123830D01*
X178208Y123962D01*
X178227Y124103D01*
Y124112D01*
X178237Y124131D01*
X178246Y124159D01*
X178265Y124197D01*
X178312Y124281D01*
X178349Y124310D01*
X178387Y124338D01*
X178396Y124347D01*
X178434Y124366D01*
X178490Y124385D01*
X178556Y124413D01*
X178631Y124432D01*
X178716Y124441D01*
X178791Y124432D01*
D02*
G37*
G36*
X191441Y120776D02*
X191103D01*
X191046Y120767D01*
X190980Y120757D01*
X190961D01*
X190924Y120738D01*
X190877Y120710D01*
X190839Y120663D01*
X189806Y119159D01*
X190877Y117430D01*
X190886Y117421D01*
X190896Y117402D01*
X190914Y117374D01*
X190952Y117327D01*
X191027Y117242D01*
X191131Y117167D01*
X191140D01*
X191159Y117158D01*
X191215Y117130D01*
X191281Y117092D01*
X191337Y117083D01*
X191591D01*
Y116660D01*
X189674D01*
Y117083D01*
X190031D01*
X190088Y117092D01*
X190135Y117111D01*
X190153Y117120D01*
X190163Y117139D01*
Y117148D01*
Y117186D01*
X190153Y117252D01*
X190116Y117336D01*
X189383Y118596D01*
X188556Y117299D01*
Y117289D01*
Y117280D01*
X188546Y117224D01*
Y117167D01*
X188556Y117120D01*
X188565Y117111D01*
X188584Y117101D01*
X188631Y117092D01*
X188697Y117083D01*
X188913D01*
Y116660D01*
X187193D01*
Y117083D01*
X187541D01*
X187569Y117092D01*
X187606D01*
X187700Y117130D01*
X187757Y117148D01*
X187813Y117186D01*
X187823Y117195D01*
X187841Y117205D01*
X187870Y117233D01*
X187917Y117261D01*
X187954Y117308D01*
X188001Y117365D01*
X188048Y117430D01*
X188095Y117506D01*
X189091Y118972D01*
X188095Y120560D01*
X188086Y120569D01*
X188067Y120597D01*
X188029Y120635D01*
X187973Y120691D01*
X187954Y120701D01*
X187907Y120738D01*
X187823Y120767D01*
X187719Y120776D01*
X187418D01*
Y121208D01*
X189298D01*
Y120776D01*
X189063D01*
X189016Y120767D01*
X188969Y120748D01*
X188932Y120710D01*
Y120701D01*
Y120673D01*
X188941Y120616D01*
X188979Y120541D01*
X189552Y119545D01*
X190163Y120541D01*
Y120550D01*
X190182Y120560D01*
X190210Y120607D01*
X190238Y120673D01*
X190247Y120691D01*
Y120720D01*
Y120729D01*
X190219Y120748D01*
X190191Y120757D01*
X190163Y120767D01*
X190116Y120776D01*
X189712D01*
Y121208D01*
X191441D01*
Y120776D01*
D02*
G37*
G36*
X174628Y117618D02*
Y117609D01*
Y117571D01*
X174637Y117524D01*
X174647Y117468D01*
X174665Y117402D01*
X174694Y117336D01*
X174731Y117270D01*
X174788Y117214D01*
X174797Y117205D01*
X174816Y117195D01*
X174853Y117177D01*
X174910Y117148D01*
X174975Y117120D01*
X175060Y117101D01*
X175154Y117092D01*
X175267Y117083D01*
X175756D01*
Y116660D01*
X172711D01*
Y117083D01*
X173228D01*
X173293Y117092D01*
X173359Y117101D01*
X173528Y117139D01*
X173594Y117167D01*
X173660Y117214D01*
X173669Y117224D01*
X173679Y117242D01*
X173707Y117270D01*
X173735Y117317D01*
X173754Y117374D01*
X173782Y117440D01*
X173791Y117524D01*
X173801Y117618D01*
Y122317D01*
Y122327D01*
Y122336D01*
X173791Y122383D01*
X173773Y122439D01*
X173735Y122496D01*
X173726Y122505D01*
X173688Y122533D01*
X173613Y122552D01*
X173519Y122562D01*
X172711D01*
Y122994D01*
X173246D01*
X173321Y123003D01*
X173425Y123013D01*
X173528Y123032D01*
X173650Y123050D01*
X173763Y123088D01*
X173867Y123135D01*
X173876Y123144D01*
X173913Y123163D01*
X173960Y123201D01*
X174026Y123248D01*
X174092Y123313D01*
X174167Y123398D01*
X174242Y123501D01*
X174308Y123614D01*
X174628D01*
Y117618D01*
D02*
G37*
G36*
X199683Y123567D02*
X199749Y123558D01*
X199824Y123548D01*
X199918Y123530D01*
X200021Y123501D01*
X200125Y123464D01*
X200247Y123407D01*
X200359Y123351D01*
X200491Y123276D01*
X200613Y123182D01*
X200735Y123078D01*
X200858Y122956D01*
X200980Y122806D01*
X201093Y122646D01*
X201102Y122637D01*
X201121Y122599D01*
X201149Y122552D01*
X201187Y122477D01*
X201234Y122383D01*
X201280Y122270D01*
X201337Y122129D01*
X201393Y121979D01*
X201440Y121810D01*
X201497Y121612D01*
X201544Y121406D01*
X201591Y121180D01*
X201628Y120936D01*
X201656Y120673D01*
X201675Y120391D01*
X201685Y120099D01*
Y120080D01*
Y120024D01*
Y119940D01*
X201675Y119836D01*
X201666Y119695D01*
X201656Y119535D01*
X201638Y119366D01*
X201609Y119169D01*
X201581Y118972D01*
X201544Y118765D01*
X201497Y118549D01*
X201431Y118333D01*
X201365Y118126D01*
X201290Y117919D01*
X201196Y117722D01*
X201093Y117534D01*
X201083Y117524D01*
X201064Y117496D01*
X201036Y117449D01*
X200989Y117383D01*
X200933Y117317D01*
X200858Y117233D01*
X200782Y117148D01*
X200688Y117064D01*
X200585Y116970D01*
X200472Y116885D01*
X200350Y116801D01*
X200219Y116735D01*
X200078Y116669D01*
X199927Y116622D01*
X199767Y116594D01*
X199598Y116585D01*
X199561D01*
X199514Y116594D01*
X199448Y116603D01*
X199373Y116613D01*
X199279Y116631D01*
X199175Y116660D01*
X199063Y116697D01*
X198950Y116744D01*
X198828Y116810D01*
X198696Y116885D01*
X198574Y116970D01*
X198442Y117083D01*
X198320Y117205D01*
X198198Y117346D01*
X198076Y117506D01*
X198066Y117515D01*
X198048Y117552D01*
X198019Y117599D01*
X197982Y117675D01*
X197935Y117769D01*
X197888Y117891D01*
X197831Y118022D01*
X197775Y118182D01*
X197719Y118351D01*
X197662Y118549D01*
X197615Y118765D01*
X197568Y118990D01*
X197531Y119244D01*
X197502Y119507D01*
X197484Y119799D01*
X197474Y120099D01*
Y120118D01*
Y120165D01*
Y120250D01*
X197484Y120353D01*
X197493Y120485D01*
X197502Y120635D01*
X197521Y120804D01*
X197549Y120992D01*
X197578Y121189D01*
X197615Y121387D01*
X197662Y121594D01*
X197719Y121810D01*
X197785Y122016D01*
X197869Y122223D01*
X197954Y122421D01*
X198057Y122609D01*
X198066Y122618D01*
X198085Y122646D01*
X198113Y122703D01*
X198160Y122759D01*
X198226Y122834D01*
X198292Y122919D01*
X198377Y123003D01*
X198470Y123097D01*
X198574Y123182D01*
X198687Y123266D01*
X198818Y123351D01*
X198950Y123426D01*
X199100Y123492D01*
X199260Y123539D01*
X199420Y123567D01*
X199598Y123577D01*
X199636D01*
X199683Y123567D01*
D02*
G37*
G36*
X203536Y117816D02*
X203602Y117806D01*
X203677Y117778D01*
X203752Y117750D01*
X203827Y117703D01*
X203903Y117637D01*
X203912Y117628D01*
X203931Y117609D01*
X203959Y117562D01*
X203997Y117515D01*
X204034Y117449D01*
X204062Y117374D01*
X204081Y117280D01*
X204090Y117186D01*
Y117177D01*
Y117139D01*
X204081Y117092D01*
X204072Y117026D01*
X204044Y116951D01*
X204015Y116876D01*
X203968Y116801D01*
X203903Y116725D01*
X203893Y116716D01*
X203865Y116697D01*
X203827Y116669D01*
X203771Y116641D01*
X203705Y116603D01*
X203630Y116575D01*
X203536Y116556D01*
X203442Y116547D01*
X203395D01*
X203339Y116556D01*
X203282Y116566D01*
X203207Y116594D01*
X203123Y116622D01*
X203047Y116669D01*
X202972Y116725D01*
X202963Y116735D01*
X202944Y116754D01*
X202916Y116801D01*
X202888Y116848D01*
X202850Y116913D01*
X202822Y116998D01*
X202803Y117083D01*
X202794Y117186D01*
Y117195D01*
Y117233D01*
X202803Y117280D01*
X202812Y117346D01*
X202841Y117411D01*
X202869Y117496D01*
X202916Y117571D01*
X202972Y117637D01*
X202982Y117646D01*
X203010Y117665D01*
X203047Y117693D01*
X203104Y117731D01*
X203169Y117769D01*
X203254Y117797D01*
X203339Y117816D01*
X203442Y117825D01*
X203489D01*
X203536Y117816D01*
D02*
G37*
G36*
X202192Y105202D02*
X201835Y105089D01*
Y105098D01*
X201816Y105126D01*
X201797Y105173D01*
X201769Y105230D01*
X201741Y105296D01*
X201694Y105371D01*
X201600Y105549D01*
X201497Y105737D01*
X201374Y105925D01*
X201309Y106010D01*
X201243Y106094D01*
X201177Y106160D01*
X201111Y106217D01*
X201093Y106226D01*
X201046Y106264D01*
X200970Y106301D01*
X200867Y106358D01*
X200745Y106405D01*
X200585Y106452D01*
X200416Y106480D01*
X200219Y106489D01*
X200153D01*
X200106Y106480D01*
X200059D01*
X199993Y106470D01*
X199852Y106442D01*
X199692Y106395D01*
X199542Y106329D01*
X199401Y106235D01*
X199345Y106179D01*
X199288Y106113D01*
X199279Y106094D01*
X199251Y106047D01*
X199213Y105972D01*
X199166Y105878D01*
X199119Y105756D01*
X199081Y105625D01*
X199053Y105474D01*
X199044Y105314D01*
Y105296D01*
Y105249D01*
X199053Y105173D01*
X199072Y105089D01*
X199100Y104986D01*
X199138Y104882D01*
X199194Y104779D01*
X199269Y104685D01*
X199279Y104675D01*
X199326Y104638D01*
X199354Y104619D01*
X199401Y104581D01*
X199457Y104553D01*
X199523Y104506D01*
X199608Y104459D01*
X199702Y104403D01*
X199814Y104346D01*
X199937Y104281D01*
X200078Y104205D01*
X200237Y104130D01*
X200416Y104046D01*
X200613Y103961D01*
X200623D01*
X200660Y103942D01*
X200707Y103924D01*
X200773Y103886D01*
X200848Y103848D01*
X200942Y103811D01*
X201149Y103698D01*
X201374Y103557D01*
X201600Y103407D01*
X201816Y103237D01*
X201910Y103144D01*
X201995Y103049D01*
X202004Y103040D01*
X202014Y103031D01*
X202032Y103003D01*
X202061Y102956D01*
X202098Y102908D01*
X202136Y102852D01*
X202211Y102711D01*
X202286Y102533D01*
X202361Y102335D01*
X202408Y102100D01*
X202427Y101978D01*
Y101856D01*
Y101847D01*
Y101828D01*
Y101781D01*
X202418Y101734D01*
X202408Y101668D01*
X202399Y101593D01*
X202361Y101414D01*
X202305Y101208D01*
X202211Y100991D01*
X202155Y100878D01*
X202079Y100766D01*
X202004Y100653D01*
X201910Y100540D01*
X201901Y100531D01*
X201882Y100512D01*
X201854Y100484D01*
X201816Y100456D01*
X201760Y100409D01*
X201694Y100362D01*
X201619Y100305D01*
X201534Y100258D01*
X201431Y100202D01*
X201318Y100146D01*
X201196Y100098D01*
X201064Y100061D01*
X200914Y100023D01*
X200764Y99995D01*
X200595Y99976D01*
X200416Y99967D01*
X200350D01*
X200266Y99976D01*
X200172Y99986D01*
X200049Y99995D01*
X199927Y100023D01*
X199796Y100051D01*
X199674Y100098D01*
X199655Y100108D01*
X199617Y100117D01*
X199561Y100136D01*
X199485Y100164D01*
X199326Y100211D01*
X199241Y100221D01*
X199175Y100230D01*
X199157D01*
X199119Y100221D01*
X199063Y100202D01*
X198987Y100164D01*
X198978D01*
X198969Y100155D01*
X198940Y100136D01*
X198903Y100117D01*
X198846Y100089D01*
X198781Y100051D01*
X198696Y100014D01*
X198593Y99967D01*
X198254Y102025D01*
X198659Y102147D01*
Y102138D01*
X198668Y102100D01*
X198687Y102053D01*
X198715Y101978D01*
X198743Y101903D01*
X198771Y101809D01*
X198865Y101593D01*
X198969Y101358D01*
X199100Y101132D01*
X199166Y101029D01*
X199251Y100935D01*
X199326Y100850D01*
X199410Y100775D01*
X199420D01*
X199429Y100756D01*
X199457Y100747D01*
X199495Y100719D01*
X199589Y100662D01*
X199711Y100606D01*
X199871Y100540D01*
X200049Y100484D01*
X200237Y100446D01*
X200453Y100427D01*
X200510D01*
X200557Y100437D01*
X200660Y100446D01*
X200801Y100474D01*
X200942Y100512D01*
X201093Y100578D01*
X201243Y100662D01*
X201365Y100785D01*
X201374Y100803D01*
X201412Y100850D01*
X201459Y100935D01*
X201525Y101057D01*
X201581Y101208D01*
X201628Y101386D01*
X201666Y101602D01*
X201675Y101856D01*
Y101875D01*
X201666Y101912D01*
X201656Y101978D01*
X201628Y102072D01*
X201591Y102176D01*
X201525Y102288D01*
X201440Y102410D01*
X201327Y102542D01*
X201309Y102561D01*
X201262Y102598D01*
X201177Y102674D01*
X201121Y102720D01*
X201055Y102767D01*
X200980Y102824D01*
X200886Y102880D01*
X200792Y102937D01*
X200688Y103003D01*
X200576Y103078D01*
X200444Y103144D01*
X200312Y103219D01*
X200162Y103294D01*
X200153Y103303D01*
X200115Y103313D01*
X200068Y103331D01*
X200002Y103369D01*
X199918Y103397D01*
X199824Y103444D01*
X199720Y103491D01*
X199608Y103548D01*
X199373Y103670D01*
X199138Y103801D01*
X198922Y103933D01*
X198828Y104008D01*
X198743Y104074D01*
Y104083D01*
X198724Y104093D01*
X198677Y104149D01*
X198612Y104234D01*
X198536Y104356D01*
X198461Y104525D01*
X198395Y104722D01*
X198348Y104957D01*
X198339Y105089D01*
X198330Y105230D01*
Y105239D01*
Y105258D01*
Y105296D01*
X198339Y105333D01*
X198348Y105390D01*
X198358Y105455D01*
X198395Y105606D01*
X198452Y105794D01*
X198546Y105991D01*
X198612Y106094D01*
X198677Y106198D01*
X198752Y106301D01*
X198846Y106405D01*
X198856Y106414D01*
X198875Y106433D01*
X198903Y106452D01*
X198940Y106489D01*
X198997Y106536D01*
X199063Y106583D01*
X199138Y106630D01*
X199222Y106686D01*
X199316Y106734D01*
X199429Y106781D01*
X199551Y106827D01*
X199683Y106875D01*
X199824Y106912D01*
X199974Y106931D01*
X200134Y106950D01*
X200303Y106959D01*
X200369D01*
X200453Y106950D01*
X200548Y106940D01*
X200660Y106922D01*
X200792Y106903D01*
X200923Y106865D01*
X201055Y106818D01*
X201074Y106809D01*
X201111Y106799D01*
X201177Y106781D01*
X201243Y106752D01*
X201412Y106705D01*
X201478Y106696D01*
X201544Y106686D01*
X201562D01*
X201591Y106696D01*
X201647Y106705D01*
X201694Y106724D01*
X201713Y106734D01*
X201732Y106752D01*
X201760Y106771D01*
X201807Y106809D01*
X201854Y106846D01*
X201920Y106903D01*
X202004Y106968D01*
X202192Y105202D01*
D02*
G37*
G36*
X181855D02*
X181498Y105089D01*
Y105098D01*
X181479Y105126D01*
X181460Y105173D01*
X181432Y105230D01*
X181404Y105296D01*
X181357Y105371D01*
X181263Y105549D01*
X181159Y105737D01*
X181037Y105925D01*
X180971Y106010D01*
X180906Y106094D01*
X180840Y106160D01*
X180774Y106217D01*
X180755Y106226D01*
X180708Y106264D01*
X180633Y106301D01*
X180530Y106358D01*
X180408Y106405D01*
X180248Y106452D01*
X180079Y106480D01*
X179881Y106489D01*
X179816D01*
X179769Y106480D01*
X179722D01*
X179656Y106470D01*
X179515Y106442D01*
X179355Y106395D01*
X179205Y106329D01*
X179064Y106235D01*
X179007Y106179D01*
X178951Y106113D01*
X178941Y106094D01*
X178913Y106047D01*
X178876Y105972D01*
X178829Y105878D01*
X178782Y105756D01*
X178744Y105625D01*
X178716Y105474D01*
X178706Y105314D01*
Y105296D01*
Y105249D01*
X178716Y105173D01*
X178735Y105089D01*
X178763Y104986D01*
X178801Y104882D01*
X178857Y104779D01*
X178932Y104685D01*
X178941Y104675D01*
X178988Y104638D01*
X179017Y104619D01*
X179064Y104581D01*
X179120Y104553D01*
X179186Y104506D01*
X179270Y104459D01*
X179364Y104403D01*
X179477Y104346D01*
X179599Y104281D01*
X179740Y104205D01*
X179900Y104130D01*
X180079Y104046D01*
X180276Y103961D01*
X180285D01*
X180323Y103942D01*
X180370Y103924D01*
X180436Y103886D01*
X180511Y103848D01*
X180605Y103811D01*
X180812Y103698D01*
X181037Y103557D01*
X181263Y103407D01*
X181479Y103237D01*
X181573Y103144D01*
X181658Y103049D01*
X181667Y103040D01*
X181676Y103031D01*
X181695Y103003D01*
X181723Y102956D01*
X181761Y102908D01*
X181798Y102852D01*
X181874Y102711D01*
X181949Y102533D01*
X182024Y102335D01*
X182071Y102100D01*
X182090Y101978D01*
Y101856D01*
Y101847D01*
Y101828D01*
Y101781D01*
X182080Y101734D01*
X182071Y101668D01*
X182062Y101593D01*
X182024Y101414D01*
X181968Y101208D01*
X181874Y100991D01*
X181817Y100878D01*
X181742Y100766D01*
X181667Y100653D01*
X181573Y100540D01*
X181563Y100531D01*
X181545Y100512D01*
X181516Y100484D01*
X181479Y100456D01*
X181423Y100409D01*
X181357Y100362D01*
X181282Y100305D01*
X181197Y100258D01*
X181094Y100202D01*
X180981Y100146D01*
X180859Y100098D01*
X180727Y100061D01*
X180577Y100023D01*
X180426Y99995D01*
X180257Y99976D01*
X180079Y99967D01*
X180013D01*
X179928Y99976D01*
X179834Y99986D01*
X179712Y99995D01*
X179590Y100023D01*
X179458Y100051D01*
X179336Y100098D01*
X179317Y100108D01*
X179280Y100117D01*
X179223Y100136D01*
X179148Y100164D01*
X178988Y100211D01*
X178904Y100221D01*
X178838Y100230D01*
X178819D01*
X178782Y100221D01*
X178725Y100202D01*
X178650Y100164D01*
X178641D01*
X178631Y100155D01*
X178603Y100136D01*
X178566Y100117D01*
X178509Y100089D01*
X178443Y100051D01*
X178359Y100014D01*
X178255Y99967D01*
X177917Y102025D01*
X178321Y102147D01*
Y102138D01*
X178331Y102100D01*
X178349Y102053D01*
X178378Y101978D01*
X178406Y101903D01*
X178434Y101809D01*
X178528Y101593D01*
X178631Y101358D01*
X178763Y101132D01*
X178829Y101029D01*
X178913Y100935D01*
X178988Y100850D01*
X179073Y100775D01*
X179082D01*
X179092Y100756D01*
X179120Y100747D01*
X179158Y100719D01*
X179252Y100662D01*
X179374Y100606D01*
X179534Y100540D01*
X179712Y100484D01*
X179900Y100446D01*
X180116Y100427D01*
X180173D01*
X180220Y100437D01*
X180323Y100446D01*
X180464Y100474D01*
X180605Y100512D01*
X180755Y100578D01*
X180906Y100662D01*
X181028Y100785D01*
X181037Y100803D01*
X181075Y100850D01*
X181122Y100935D01*
X181188Y101057D01*
X181244Y101208D01*
X181291Y101386D01*
X181329Y101602D01*
X181338Y101856D01*
Y101875D01*
X181329Y101912D01*
X181319Y101978D01*
X181291Y102072D01*
X181253Y102176D01*
X181188Y102288D01*
X181103Y102410D01*
X180990Y102542D01*
X180971Y102561D01*
X180924Y102598D01*
X180840Y102674D01*
X180784Y102720D01*
X180718Y102767D01*
X180643Y102824D01*
X180548Y102880D01*
X180455Y102937D01*
X180351Y103003D01*
X180238Y103078D01*
X180107Y103144D01*
X179975Y103219D01*
X179825Y103294D01*
X179816Y103303D01*
X179778Y103313D01*
X179731Y103331D01*
X179665Y103369D01*
X179580Y103397D01*
X179487Y103444D01*
X179383Y103491D01*
X179270Y103548D01*
X179035Y103670D01*
X178801Y103801D01*
X178584Y103933D01*
X178490Y104008D01*
X178406Y104074D01*
Y104083D01*
X178387Y104093D01*
X178340Y104149D01*
X178274Y104234D01*
X178199Y104356D01*
X178124Y104525D01*
X178058Y104722D01*
X178011Y104957D01*
X178002Y105089D01*
X177992Y105230D01*
Y105239D01*
Y105258D01*
Y105296D01*
X178002Y105333D01*
X178011Y105390D01*
X178020Y105455D01*
X178058Y105606D01*
X178114Y105794D01*
X178208Y105991D01*
X178274Y106094D01*
X178340Y106198D01*
X178415Y106301D01*
X178509Y106405D01*
X178519Y106414D01*
X178537Y106433D01*
X178566Y106452D01*
X178603Y106489D01*
X178659Y106536D01*
X178725Y106583D01*
X178801Y106630D01*
X178885Y106686D01*
X178979Y106734D01*
X179092Y106781D01*
X179214Y106827D01*
X179346Y106875D01*
X179487Y106912D01*
X179637Y106931D01*
X179797Y106950D01*
X179966Y106959D01*
X180032D01*
X180116Y106950D01*
X180210Y106940D01*
X180323Y106922D01*
X180455Y106903D01*
X180586Y106865D01*
X180718Y106818D01*
X180737Y106809D01*
X180774Y106799D01*
X180840Y106781D01*
X180906Y106752D01*
X181075Y106705D01*
X181141Y106696D01*
X181206Y106686D01*
X181225D01*
X181253Y106696D01*
X181310Y106705D01*
X181357Y106724D01*
X181376Y106734D01*
X181394Y106752D01*
X181423Y106771D01*
X181469Y106809D01*
X181516Y106846D01*
X181582Y106903D01*
X181667Y106968D01*
X181855Y105202D01*
D02*
G37*
G36*
X190774Y106950D02*
X190886Y106940D01*
X191018Y106922D01*
X191168Y106875D01*
X191319Y106818D01*
X191478Y106734D01*
X191619Y106621D01*
X191638Y106602D01*
X191676Y106564D01*
X191732Y106498D01*
X191807Y106414D01*
X191873Y106320D01*
X191929Y106217D01*
X191967Y106113D01*
X191986Y106010D01*
Y106000D01*
Y105963D01*
X191977Y105916D01*
X191967Y105859D01*
X191929Y105718D01*
X191901Y105653D01*
X191854Y105587D01*
X191845Y105577D01*
X191835Y105568D01*
X191798Y105540D01*
X191760Y105521D01*
X191704Y105493D01*
X191629Y105465D01*
X191544Y105455D01*
X191450Y105446D01*
X191413D01*
X191366Y105455D01*
X191319Y105465D01*
X191196Y105502D01*
X191140Y105531D01*
X191084Y105568D01*
X191074Y105577D01*
X191065Y105587D01*
X191046Y105625D01*
X191027Y105662D01*
X190999Y105709D01*
X190980Y105775D01*
X190971Y105850D01*
X190961Y105935D01*
Y105954D01*
Y105991D01*
X190971Y106047D01*
X190980Y106104D01*
Y106113D01*
X190990Y106151D01*
X190999Y106198D01*
Y106245D01*
Y106254D01*
Y106264D01*
X190990Y106301D01*
X190961Y106358D01*
X190914Y106414D01*
X190896Y106423D01*
X190877Y106442D01*
X190839Y106452D01*
X190792Y106470D01*
X190727Y106480D01*
X190651Y106489D01*
X190501D01*
X190454Y106480D01*
X190407Y106470D01*
X190341Y106461D01*
X190200Y106414D01*
X190031Y106348D01*
X189946Y106301D01*
X189853Y106245D01*
X189768Y106179D01*
X189674Y106104D01*
X189589Y106019D01*
X189505Y105916D01*
Y105906D01*
X189486Y105888D01*
X189467Y105850D01*
X189439Y105803D01*
X189401Y105728D01*
X189364Y105643D01*
X189326Y105531D01*
X189289Y105399D01*
X189251Y105249D01*
X189214Y105070D01*
X189176Y104873D01*
X189138Y104647D01*
X189110Y104393D01*
X189091Y104121D01*
X189082Y103811D01*
X189073Y103495D01*
X189082Y103548D01*
X189110Y103632D01*
X189148Y103736D01*
X189204Y103848D01*
X189289Y103970D01*
X189401Y104093D01*
X189542Y104196D01*
X189552D01*
X189561Y104205D01*
X189618Y104243D01*
X189712Y104281D01*
X189824Y104337D01*
X189965Y104384D01*
X190125Y104431D01*
X190304Y104459D01*
X190482Y104469D01*
X190576D01*
X190642Y104459D01*
X190727Y104450D01*
X190821Y104431D01*
X190924Y104412D01*
X191027Y104384D01*
X191150Y104356D01*
X191262Y104309D01*
X191384Y104252D01*
X191497Y104196D01*
X191610Y104111D01*
X191713Y104027D01*
X191817Y103924D01*
X191901Y103811D01*
X191911Y103801D01*
X191920Y103783D01*
X191939Y103745D01*
X191967Y103698D01*
X192005Y103632D01*
X192042Y103566D01*
X192080Y103482D01*
X192118Y103388D01*
X192155Y103284D01*
X192193Y103172D01*
X192268Y102927D01*
X192315Y102645D01*
X192334Y102504D01*
Y102354D01*
Y102345D01*
Y102298D01*
Y102241D01*
X192324Y102157D01*
X192315Y102053D01*
X192305Y101940D01*
X192287Y101818D01*
X192258Y101677D01*
X192193Y101386D01*
X192146Y101236D01*
X192080Y101085D01*
X192014Y100944D01*
X191939Y100803D01*
X191845Y100681D01*
X191742Y100559D01*
X191732Y100550D01*
X191713Y100531D01*
X191685Y100503D01*
X191638Y100465D01*
X191582Y100418D01*
X191516Y100371D01*
X191431Y100315D01*
X191347Y100268D01*
X191150Y100155D01*
X190914Y100061D01*
X190783Y100023D01*
X190651Y99995D01*
X190510Y99976D01*
X190369Y99967D01*
X190322D01*
X190266Y99976D01*
X190191D01*
X190097Y99995D01*
X189984Y100014D01*
X189871Y100033D01*
X189740Y100070D01*
X189608Y100117D01*
X189467Y100174D01*
X189336Y100239D01*
X189195Y100315D01*
X189054Y100409D01*
X188922Y100521D01*
X188800Y100653D01*
X188687Y100794D01*
X188678Y100803D01*
X188659Y100831D01*
X188631Y100878D01*
X188603Y100944D01*
X188556Y101029D01*
X188509Y101142D01*
X188462Y101264D01*
X188405Y101405D01*
X188349Y101565D01*
X188302Y101734D01*
X188255Y101931D01*
X188208Y102147D01*
X188180Y102373D01*
X188151Y102627D01*
X188133Y102890D01*
X188123Y103172D01*
Y103181D01*
Y103190D01*
Y103219D01*
Y103256D01*
X188133Y103350D01*
Y103472D01*
X188142Y103623D01*
X188161Y103801D01*
X188180Y103989D01*
X188208Y104205D01*
X188246Y104422D01*
X188293Y104656D01*
X188349Y104882D01*
X188415Y105117D01*
X188490Y105352D01*
X188584Y105568D01*
X188687Y105775D01*
X188809Y105972D01*
X188819Y105982D01*
X188838Y106019D01*
X188885Y106066D01*
X188932Y106123D01*
X189007Y106198D01*
X189091Y106282D01*
X189185Y106376D01*
X189298Y106470D01*
X189430Y106555D01*
X189571Y106649D01*
X189721Y106734D01*
X189890Y106809D01*
X190069Y106865D01*
X190257Y106922D01*
X190463Y106950D01*
X190680Y106959D01*
X190736D01*
X190774Y106950D01*
D02*
G37*
G36*
X217915Y105230D02*
X217549Y105173D01*
Y105183D01*
X217530Y105211D01*
X217520Y105258D01*
X217492Y105314D01*
X217464Y105380D01*
X217436Y105455D01*
X217360Y105634D01*
X217276Y105813D01*
X217191Y105982D01*
X217154Y106057D01*
X217116Y106123D01*
X217079Y106179D01*
X217050Y106226D01*
X217041Y106235D01*
X217022Y106254D01*
X216975Y106282D01*
X216919Y106320D01*
X216825Y106358D01*
X216721Y106386D01*
X216581Y106405D01*
X216411Y106414D01*
X216111D01*
X216073Y106405D01*
X216054D01*
Y106395D01*
Y106386D01*
Y106358D01*
X216045Y106320D01*
Y106264D01*
Y106188D01*
Y106085D01*
Y100681D01*
Y100662D01*
X216054Y100615D01*
X216073Y100559D01*
X216111Y100512D01*
X216120Y100503D01*
X216158Y100493D01*
X216214Y100474D01*
X216289Y100465D01*
X216750D01*
Y100042D01*
X214513D01*
Y100465D01*
X214992D01*
X215049Y100474D01*
X215114Y100484D01*
X215161Y100512D01*
X215171Y100521D01*
X215190Y100559D01*
X215208Y100606D01*
X215218Y100681D01*
Y106132D01*
Y106141D01*
Y106170D01*
Y106217D01*
Y106264D01*
Y106311D01*
Y106358D01*
X215208Y106386D01*
Y106405D01*
X215190D01*
X215180Y106414D01*
X214889D01*
X214804Y106405D01*
X214701Y106395D01*
X214579Y106367D01*
X214466Y106339D01*
X214363Y106292D01*
X214278Y106235D01*
X214269Y106226D01*
X214240Y106198D01*
X214203Y106132D01*
X214175Y106094D01*
X214146Y106038D01*
X214109Y105972D01*
X214071Y105906D01*
X214024Y105813D01*
X213977Y105718D01*
X213930Y105606D01*
X213874Y105474D01*
X213818Y105333D01*
X213752Y105173D01*
X213348Y105230D01*
X213724Y106884D01*
X217586D01*
X217915Y105230D01*
D02*
G37*
G36*
X212793Y106452D02*
X212445D01*
X212417Y106442D01*
X212370Y106423D01*
X212304Y106386D01*
X212286Y106376D01*
X212248Y106339D01*
X212182Y106273D01*
X212107Y106188D01*
X210923Y103717D01*
X212257Y100869D01*
X212267Y100860D01*
X212276Y100831D01*
X212304Y100785D01*
X212333Y100738D01*
X212408Y100625D01*
X212455Y100578D01*
X212492Y100540D01*
X212502D01*
X212511Y100531D01*
X212568Y100503D01*
X212643Y100474D01*
X212727Y100465D01*
X212943D01*
Y100042D01*
X211064D01*
Y100465D01*
X211346D01*
X211402Y100474D01*
X211459Y100484D01*
X211496Y100512D01*
X211506Y100521D01*
Y100559D01*
X211496Y100606D01*
X211487Y100644D01*
X211459Y100681D01*
X210500Y102918D01*
X209711Y101114D01*
Y101104D01*
X209701Y101085D01*
X209682Y101048D01*
X209664Y101001D01*
X209626Y100897D01*
X209579Y100794D01*
Y100785D01*
X209570Y100775D01*
X209551Y100728D01*
X209532Y100672D01*
X209523Y100653D01*
Y100644D01*
Y100625D01*
X209532Y100587D01*
X209551Y100540D01*
X209579Y100503D01*
X209588Y100493D01*
X209626Y100484D01*
X209682Y100474D01*
X209767Y100465D01*
X209955D01*
Y100042D01*
X208263D01*
Y100465D01*
X208555D01*
X208583Y100474D01*
X208620D01*
X208714Y100503D01*
X208818Y100559D01*
X208827Y100568D01*
X208836Y100578D01*
X208893Y100634D01*
X208959Y100719D01*
X209025Y100831D01*
X210246Y103407D01*
X208930Y106245D01*
X208921Y106264D01*
X208912Y106301D01*
X208874Y106348D01*
X208827Y106395D01*
X208818Y106405D01*
X208780Y106423D01*
X208724Y106442D01*
X208639Y106452D01*
X208385D01*
Y106884D01*
X210180D01*
Y106452D01*
X209936D01*
X209880Y106442D01*
X209814Y106423D01*
X209795Y106405D01*
X209776Y106386D01*
Y106376D01*
Y106329D01*
Y106292D01*
X209786Y106245D01*
X209804Y106188D01*
X209823Y106123D01*
X210669Y104130D01*
X211496Y106038D01*
X211506Y106047D01*
X211515Y106076D01*
X211534Y106123D01*
X211553Y106179D01*
X211581Y106282D01*
X211590Y106329D01*
X211581Y106367D01*
X211571Y106376D01*
X211553Y106414D01*
X211496Y106442D01*
X211449Y106452D01*
X211064D01*
Y106884D01*
X212793D01*
Y106452D01*
D02*
G37*
G36*
X187635D02*
X187362D01*
X187315Y106442D01*
X187249Y106433D01*
X187193Y106395D01*
X187183Y106386D01*
X187165Y106358D01*
X187146Y106311D01*
X187136Y106245D01*
Y100681D01*
Y100662D01*
X187146Y100615D01*
X187165Y100559D01*
X187193Y100512D01*
X187202Y100503D01*
X187240Y100493D01*
X187296Y100474D01*
X187381Y100465D01*
X187635D01*
Y100042D01*
X185764D01*
Y100465D01*
X186084D01*
X186140Y100474D01*
X186206Y100484D01*
X186234Y100493D01*
X186253Y100512D01*
X186262Y100521D01*
X186281Y100559D01*
X186291Y100606D01*
X186300Y100681D01*
Y105192D01*
X185088Y100042D01*
X184693D01*
X183594Y105085D01*
Y100681D01*
Y100662D01*
X183603Y100615D01*
X183622Y100559D01*
X183659Y100512D01*
X183669Y100503D01*
X183706Y100493D01*
X183763Y100474D01*
X183838Y100465D01*
X184063D01*
Y100042D01*
X182691D01*
Y100465D01*
X182936D01*
X182992Y100474D01*
X183058Y100484D01*
X183086Y100493D01*
X183105Y100512D01*
X183114Y100521D01*
X183133Y100559D01*
X183142Y100606D01*
X183152Y100681D01*
Y106245D01*
Y106254D01*
Y106264D01*
X183142Y106311D01*
X183133Y106358D01*
X183105Y106405D01*
X183095Y106414D01*
X183067Y106433D01*
X183001Y106442D01*
X182964Y106452D01*
X182654D01*
Y106884D01*
X183969D01*
X185052Y101887D01*
X186206Y106884D01*
X187635D01*
Y106452D01*
D02*
G37*
G36*
X220941Y106875D02*
X221026D01*
X221110Y106865D01*
X221214Y106846D01*
X221317Y106827D01*
X221552Y106781D01*
X221796Y106705D01*
X222031Y106602D01*
X222135Y106536D01*
X222238Y106461D01*
X222248D01*
X222257Y106442D01*
X222285Y106414D01*
X222323Y106386D01*
X222360Y106339D01*
X222407Y106292D01*
X222454Y106226D01*
X222501Y106151D01*
X222548Y106066D01*
X222595Y105982D01*
X222642Y105878D01*
X222680Y105765D01*
X222717Y105643D01*
X222746Y105521D01*
X222755Y105380D01*
X222764Y105230D01*
Y105220D01*
Y105192D01*
Y105155D01*
X222755Y105098D01*
Y105023D01*
X222736Y104948D01*
X222708Y104760D01*
X222652Y104563D01*
X222567Y104346D01*
X222520Y104243D01*
X222454Y104140D01*
X222388Y104046D01*
X222304Y103952D01*
X222294Y103942D01*
X222285Y103933D01*
X222229Y103876D01*
X222135Y103801D01*
X222022Y103717D01*
X221881Y103632D01*
X221721Y103548D01*
X221543Y103472D01*
X221364Y103435D01*
X222520Y100681D01*
Y100672D01*
X222529Y100662D01*
X222558Y100606D01*
X222605Y100550D01*
X222652Y100503D01*
X222661Y100493D01*
X222699Y100484D01*
X222755Y100474D01*
X222811Y100465D01*
X223150D01*
Y100042D01*
X221890D01*
X220603Y103378D01*
X219889D01*
Y100681D01*
Y100662D01*
X219898Y100615D01*
X219917Y100559D01*
X219945Y100512D01*
X219954Y100503D01*
X219992Y100493D01*
X220048Y100474D01*
X220133Y100465D01*
X220471D01*
Y100042D01*
X218470D01*
Y100465D01*
X218836D01*
X218892Y100474D01*
X218958Y100484D01*
X218986Y100493D01*
X219005Y100512D01*
X219014Y100521D01*
X219033Y100559D01*
X219052Y100606D01*
X219062Y100681D01*
Y106245D01*
Y106254D01*
Y106264D01*
X219052Y106311D01*
X219043Y106358D01*
X219005Y106405D01*
X218996Y106414D01*
X218968Y106433D01*
X218902Y106442D01*
X218864Y106452D01*
X218470D01*
Y106884D01*
X220885D01*
X220941Y106875D01*
D02*
G37*
G36*
X205688D02*
X205773D01*
X205857Y106865D01*
X205961Y106846D01*
X206064Y106827D01*
X206299Y106781D01*
X206543Y106705D01*
X206778Y106602D01*
X206882Y106536D01*
X206985Y106461D01*
X206994D01*
X207004Y106442D01*
X207032Y106414D01*
X207070Y106386D01*
X207107Y106339D01*
X207154Y106292D01*
X207201Y106226D01*
X207248Y106151D01*
X207295Y106066D01*
X207342Y105982D01*
X207389Y105878D01*
X207427Y105765D01*
X207464Y105643D01*
X207493Y105521D01*
X207502Y105380D01*
X207511Y105230D01*
Y105220D01*
Y105192D01*
Y105155D01*
X207502Y105098D01*
Y105023D01*
X207483Y104948D01*
X207455Y104760D01*
X207399Y104563D01*
X207314Y104346D01*
X207267Y104243D01*
X207201Y104140D01*
X207136Y104046D01*
X207051Y103952D01*
X207041Y103942D01*
X207032Y103933D01*
X206976Y103876D01*
X206882Y103801D01*
X206769Y103717D01*
X206628Y103632D01*
X206468Y103548D01*
X206290Y103472D01*
X206111Y103435D01*
X207267Y100681D01*
Y100672D01*
X207276Y100662D01*
X207305Y100606D01*
X207352Y100550D01*
X207399Y100503D01*
X207408Y100493D01*
X207446Y100484D01*
X207502Y100474D01*
X207558Y100465D01*
X207897D01*
Y100042D01*
X206637D01*
X205350Y103378D01*
X204636D01*
Y100681D01*
Y100662D01*
X204645Y100615D01*
X204664Y100559D01*
X204692Y100512D01*
X204701Y100503D01*
X204739Y100493D01*
X204795Y100474D01*
X204880Y100465D01*
X205218D01*
Y100042D01*
X203216D01*
Y100465D01*
X203583D01*
X203639Y100474D01*
X203705Y100484D01*
X203733Y100493D01*
X203752Y100512D01*
X203762Y100521D01*
X203780Y100559D01*
X203799Y100606D01*
X203809Y100681D01*
Y106245D01*
Y106254D01*
Y106264D01*
X203799Y106311D01*
X203790Y106358D01*
X203752Y106405D01*
X203743Y106414D01*
X203715Y106433D01*
X203649Y106442D01*
X203611Y106452D01*
X203216D01*
Y106884D01*
X205632D01*
X205688Y106875D01*
D02*
G37*
G36*
X194946D02*
X195031D01*
X195134Y106856D01*
X195256Y106837D01*
X195397Y106818D01*
X195548Y106781D01*
X195698Y106743D01*
X195858Y106686D01*
X196027Y106621D01*
X196196Y106545D01*
X196365Y106452D01*
X196525Y106339D01*
X196675Y106217D01*
X196826Y106076D01*
X196835Y106066D01*
X196854Y106038D01*
X196892Y105991D01*
X196948Y105925D01*
X197004Y105841D01*
X197061Y105728D01*
X197136Y105606D01*
X197202Y105465D01*
X197268Y105305D01*
X197343Y105117D01*
X197399Y104910D01*
X197465Y104694D01*
X197512Y104450D01*
X197549Y104187D01*
X197568Y103905D01*
X197578Y103604D01*
Y103595D01*
Y103585D01*
Y103557D01*
Y103519D01*
Y103425D01*
X197568Y103303D01*
X197559Y103153D01*
X197540Y102974D01*
X197512Y102786D01*
X197484Y102580D01*
X197446Y102363D01*
X197399Y102138D01*
X197343Y101912D01*
X197268Y101696D01*
X197183Y101480D01*
X197089Y101273D01*
X196976Y101076D01*
X196845Y100907D01*
X196835Y100897D01*
X196807Y100869D01*
X196770Y100831D01*
X196713Y100775D01*
X196638Y100709D01*
X196544Y100634D01*
X196431Y100559D01*
X196309Y100474D01*
X196168Y100390D01*
X196008Y100315D01*
X195830Y100239D01*
X195642Y100174D01*
X195435Y100127D01*
X195209Y100080D01*
X194965Y100051D01*
X194711Y100042D01*
X192935D01*
Y100465D01*
X193339D01*
X193396Y100474D01*
X193461Y100484D01*
X193490Y100493D01*
X193508Y100512D01*
X193518Y100521D01*
X193537Y100559D01*
X193546Y100606D01*
X193555Y100681D01*
Y106245D01*
Y106254D01*
Y106264D01*
X193546Y106311D01*
X193537Y106358D01*
X193508Y106405D01*
X193499Y106414D01*
X193471Y106433D01*
X193405Y106442D01*
X193367Y106452D01*
X192973D01*
Y106884D01*
X194881D01*
X194946Y106875D01*
D02*
G37*
G36*
X174788Y106452D02*
X174393D01*
X174346Y106442D01*
X174280Y106433D01*
X174224Y106395D01*
X174214Y106386D01*
X174195Y106358D01*
X174177Y106311D01*
X174167Y106245D01*
Y100681D01*
Y100662D01*
X174177Y100615D01*
X174195Y100559D01*
X174224Y100512D01*
X174233Y100503D01*
X174271Y100493D01*
X174327Y100474D01*
X174412Y100465D01*
X175511D01*
X175549Y100474D01*
X175643Y100484D01*
X175756Y100503D01*
X175896Y100540D01*
X176038Y100597D01*
X176178Y100672D01*
X176319Y100775D01*
X176338Y100794D01*
X176385Y100831D01*
X176451Y100916D01*
X176536Y101029D01*
X176630Y101170D01*
X176677Y101255D01*
X176723Y101358D01*
X176770Y101461D01*
X176817Y101574D01*
X176864Y101706D01*
X176912Y101837D01*
X177278Y101715D01*
X176902Y100042D01*
X172711D01*
Y100465D01*
X173115D01*
X173171Y100474D01*
X173237Y100484D01*
X173265Y100493D01*
X173284Y100512D01*
X173293Y100521D01*
X173312Y100559D01*
X173331Y100606D01*
X173340Y100681D01*
Y106245D01*
Y106254D01*
Y106264D01*
X173331Y106311D01*
X173321Y106358D01*
X173284Y106405D01*
X173274Y106414D01*
X173246Y106433D01*
X173181Y106442D01*
X173143Y106452D01*
X172758D01*
Y106884D01*
X174788D01*
Y106452D01*
D02*
G37*
G36*
X205331Y98589D02*
X205387Y98580D01*
X205463Y98552D01*
X205538Y98523D01*
X205613Y98476D01*
X205688Y98420D01*
X205698Y98411D01*
X205716Y98382D01*
X205745Y98345D01*
X205782Y98288D01*
X205820Y98223D01*
X205848Y98147D01*
X205867Y98054D01*
X205876Y97959D01*
Y97950D01*
Y97913D01*
X205867Y97865D01*
X205857Y97800D01*
X205829Y97725D01*
X205801Y97649D01*
X205754Y97574D01*
X205688Y97499D01*
X205679Y97490D01*
X205660Y97471D01*
X205613Y97443D01*
X205566Y97405D01*
X205500Y97367D01*
X205416Y97339D01*
X205331Y97320D01*
X205228Y97311D01*
X205181D01*
X205134Y97320D01*
X205068Y97339D01*
X204993Y97358D01*
X204918Y97386D01*
X204842Y97433D01*
X204767Y97499D01*
X204758Y97508D01*
X204739Y97537D01*
X204711Y97574D01*
X204673Y97631D01*
X204636Y97696D01*
X204607Y97772D01*
X204589Y97865D01*
X204579Y97959D01*
Y97969D01*
Y98006D01*
X204589Y98054D01*
X204607Y98119D01*
X204626Y98195D01*
X204654Y98270D01*
X204701Y98345D01*
X204767Y98420D01*
X204777Y98429D01*
X204795Y98448D01*
X204842Y98476D01*
X204889Y98514D01*
X204955Y98542D01*
X205040Y98570D01*
X205124Y98589D01*
X205228Y98599D01*
X205275D01*
X205331Y98589D01*
D02*
G37*
G36*
X192221Y94980D02*
X187691D01*
Y95525D01*
X192221D01*
Y94980D01*
D02*
G37*
G36*
X202465Y98091D02*
X202183D01*
X202136Y98082D01*
X202061Y98054D01*
X201976Y97997D01*
X201957Y97978D01*
X201938Y97959D01*
X201920Y97922D01*
X201891Y97875D01*
X201863Y97818D01*
X201835Y97753D01*
X201807Y97678D01*
X200181Y91682D01*
X199786D01*
X198330Y97631D01*
Y97640D01*
X198320Y97668D01*
X198311Y97715D01*
X198301Y97772D01*
X198264Y97884D01*
X198245Y97941D01*
X198217Y97988D01*
Y97997D01*
X198207Y98006D01*
X198160Y98044D01*
X198095Y98072D01*
X198057Y98091D01*
X197709D01*
Y98523D01*
X199589D01*
Y98091D01*
X199307D01*
X199260Y98082D01*
X199204Y98063D01*
X199157Y98016D01*
X199147Y98006D01*
Y97959D01*
X199138Y97894D01*
X199157Y97800D01*
X200188Y93486D01*
X201290Y97696D01*
Y97706D01*
X201299Y97734D01*
X201309Y97772D01*
X201318Y97818D01*
X201327Y97913D01*
Y97959D01*
X201309Y97997D01*
X201299Y98016D01*
X201262Y98044D01*
X201224Y98063D01*
X201187Y98072D01*
X201140Y98091D01*
X200858D01*
Y98523D01*
X202465D01*
Y98091D01*
D02*
G37*
G36*
X195040Y98589D02*
X195115D01*
X195200Y98570D01*
X195303Y98552D01*
X195407Y98533D01*
X195529Y98495D01*
X195651Y98458D01*
X195783Y98401D01*
X195914Y98335D01*
X196046Y98251D01*
X196177Y98157D01*
X196309Y98054D01*
X196422Y97922D01*
X196535Y97781D01*
X196544Y97772D01*
X196563Y97743D01*
X196591Y97696D01*
X196628Y97631D01*
X196666Y97546D01*
X196713Y97443D01*
X196770Y97330D01*
X196826Y97189D01*
X196873Y97038D01*
X196929Y96860D01*
X196976Y96672D01*
X197023Y96465D01*
X197051Y96240D01*
X197080Y96005D01*
X197098Y95742D01*
X197108Y95469D01*
Y95450D01*
Y95394D01*
Y95309D01*
X197098Y95197D01*
X197089Y95056D01*
X197070Y94886D01*
X197051Y94708D01*
X197023Y94501D01*
X196986Y94294D01*
X196948Y94069D01*
X196892Y93843D01*
X196826Y93608D01*
X196751Y93373D01*
X196657Y93148D01*
X196563Y92922D01*
X196441Y92706D01*
X196431Y92697D01*
X196412Y92659D01*
X196375Y92603D01*
X196318Y92537D01*
X196253Y92452D01*
X196168Y92358D01*
X196074Y92255D01*
X195961Y92161D01*
X195839Y92058D01*
X195698Y91954D01*
X195548Y91860D01*
X195379Y91776D01*
X195200Y91710D01*
X195012Y91653D01*
X194805Y91616D01*
X194589Y91607D01*
X194495D01*
X194401Y91616D01*
X194270Y91635D01*
X194129Y91672D01*
X193969Y91710D01*
X193809Y91776D01*
X193649Y91860D01*
X193631Y91870D01*
X193584Y91907D01*
X193518Y91964D01*
X193452Y92039D01*
X193377Y92142D01*
X193311Y92264D01*
X193264Y92396D01*
X193255Y92471D01*
X193245Y92556D01*
Y92565D01*
Y92584D01*
X193255Y92621D01*
X193264Y92668D01*
X193292Y92791D01*
X193320Y92856D01*
X193358Y92922D01*
X193367Y92932D01*
X193386Y92950D01*
X193414Y92988D01*
X193461Y93026D01*
X193518Y93054D01*
X193593Y93091D01*
X193678Y93110D01*
X193781Y93119D01*
X193828D01*
X193884Y93110D01*
X193941Y93091D01*
X194007Y93063D01*
X194072Y93026D01*
X194129Y92979D01*
X194176Y92903D01*
Y92894D01*
X194194Y92866D01*
X194204Y92819D01*
X194223Y92762D01*
X194241Y92697D01*
X194251Y92621D01*
X194270Y92443D01*
Y92434D01*
Y92424D01*
Y92358D01*
X194279Y92292D01*
X194298Y92217D01*
X194307Y92208D01*
X194317Y92180D01*
X194335Y92142D01*
X194354Y92114D01*
X194373Y92105D01*
X194401Y92095D01*
X194448Y92076D01*
X194505D01*
X194561Y92067D01*
X194664D01*
X194692Y92076D01*
X194739D01*
X194796Y92086D01*
X194852Y92105D01*
X195003Y92161D01*
X195078Y92198D01*
X195162Y92246D01*
X195247Y92311D01*
X195341Y92377D01*
X195426Y92462D01*
X195510Y92565D01*
X195595Y92678D01*
X195670Y92809D01*
X195679Y92819D01*
X195689Y92847D01*
X195707Y92894D01*
X195736Y92950D01*
X195764Y93035D01*
X195802Y93138D01*
X195849Y93251D01*
X195886Y93392D01*
X195933Y93552D01*
X195971Y93730D01*
X196008Y93937D01*
X196055Y94153D01*
X196083Y94398D01*
X196121Y94661D01*
X196140Y94943D01*
X196157Y95223D01*
X196149Y95178D01*
X196140Y95103D01*
X196112Y94999D01*
X196055Y94877D01*
X195980Y94755D01*
X195886Y94623D01*
X195820Y94557D01*
X195745Y94492D01*
X195726Y94482D01*
X195670Y94445D01*
X195585Y94388D01*
X195463Y94332D01*
X195313Y94266D01*
X195134Y94219D01*
X194937Y94181D01*
X194711Y94163D01*
X194636D01*
X194570Y94172D01*
X194505Y94181D01*
X194420Y94191D01*
X194232Y94228D01*
X194025Y94285D01*
X193800Y94379D01*
X193696Y94445D01*
X193584Y94510D01*
X193480Y94586D01*
X193386Y94680D01*
X193377Y94689D01*
X193367Y94708D01*
X193339Y94736D01*
X193311Y94783D01*
X193273Y94830D01*
X193236Y94905D01*
X193189Y94990D01*
X193142Y95084D01*
X193095Y95187D01*
X193048Y95309D01*
X193010Y95450D01*
X192973Y95591D01*
X192945Y95760D01*
X192916Y95939D01*
X192907Y96127D01*
X192897Y96334D01*
Y96343D01*
Y96381D01*
Y96428D01*
X192907Y96493D01*
X192916Y96578D01*
X192926Y96672D01*
X192945Y96775D01*
X192963Y96897D01*
X193029Y97151D01*
X193123Y97414D01*
X193179Y97555D01*
X193255Y97687D01*
X193330Y97818D01*
X193424Y97941D01*
X193433Y97950D01*
X193452Y97969D01*
X193480Y97997D01*
X193527Y98044D01*
X193574Y98091D01*
X193649Y98147D01*
X193724Y98213D01*
X193818Y98270D01*
X193922Y98335D01*
X194035Y98392D01*
X194157Y98448D01*
X194288Y98495D01*
X194439Y98542D01*
X194599Y98570D01*
X194768Y98589D01*
X194946Y98599D01*
X194993D01*
X195040Y98589D01*
D02*
G37*
G36*
X184909D02*
X184984Y98580D01*
X185060Y98570D01*
X185247Y98533D01*
X185454Y98476D01*
X185680Y98382D01*
X185783Y98326D01*
X185896Y98251D01*
X185999Y98176D01*
X186093Y98082D01*
X186103Y98072D01*
X186112Y98063D01*
X186140Y98035D01*
X186168Y97988D01*
X186206Y97941D01*
X186253Y97884D01*
X186347Y97753D01*
X186432Y97593D01*
X186516Y97405D01*
X186573Y97208D01*
X186582Y97095D01*
X186591Y96992D01*
Y96982D01*
Y96963D01*
Y96935D01*
Y96888D01*
X186582Y96832D01*
X186573Y96775D01*
X186554Y96625D01*
X186516Y96456D01*
X186460Y96287D01*
X186375Y96099D01*
X186272Y95930D01*
X186253Y95911D01*
X186215Y95864D01*
X186140Y95789D01*
X186046Y95704D01*
X185915Y95610D01*
X185764Y95516D01*
X185586Y95441D01*
X185379Y95385D01*
X185389D01*
X185417Y95375D01*
X185454Y95356D01*
X185511Y95337D01*
X185586Y95319D01*
X185661Y95281D01*
X185830Y95206D01*
X186028Y95103D01*
X186215Y94971D01*
X186394Y94811D01*
X186469Y94717D01*
X186535Y94623D01*
Y94614D01*
X186554Y94604D01*
X186563Y94567D01*
X186591Y94529D01*
X186638Y94426D01*
X186704Y94294D01*
X186761Y94135D01*
X186817Y93956D01*
X186855Y93768D01*
X186864Y93571D01*
Y93561D01*
Y93533D01*
Y93496D01*
X186855Y93439D01*
X186845Y93373D01*
X186836Y93289D01*
X186817Y93204D01*
X186789Y93110D01*
X186723Y92894D01*
X186676Y92781D01*
X186620Y92659D01*
X186554Y92546D01*
X186479Y92424D01*
X186394Y92311D01*
X186291Y92198D01*
X186281Y92189D01*
X186262Y92170D01*
X186234Y92142D01*
X186187Y92105D01*
X186131Y92058D01*
X186056Y92011D01*
X185971Y91954D01*
X185877Y91907D01*
X185764Y91851D01*
X185652Y91794D01*
X185520Y91747D01*
X185379Y91700D01*
X185219Y91663D01*
X185060Y91635D01*
X184881Y91616D01*
X184693Y91607D01*
X184618D01*
X184571Y91616D01*
X184505D01*
X184430Y91625D01*
X184261Y91653D01*
X184063Y91710D01*
X183847Y91776D01*
X183631Y91879D01*
X183518Y91935D01*
X183415Y92011D01*
X183405Y92020D01*
X183396Y92029D01*
X183368Y92048D01*
X183330Y92086D01*
X183246Y92170D01*
X183152Y92292D01*
X183048Y92434D01*
X182964Y92593D01*
X182926Y92687D01*
X182898Y92781D01*
X182889Y92885D01*
X182879Y92988D01*
Y92997D01*
Y93035D01*
X182889Y93082D01*
X182898Y93148D01*
X182926Y93223D01*
X182954Y93298D01*
X183001Y93383D01*
X183058Y93458D01*
X183067Y93467D01*
X183095Y93486D01*
X183133Y93524D01*
X183180Y93561D01*
X183236Y93599D01*
X183302Y93636D01*
X183377Y93655D01*
X183452Y93665D01*
X183500D01*
X183556Y93655D01*
X183612Y93636D01*
X183678Y93608D01*
X183753Y93571D01*
X183810Y93524D01*
X183866Y93448D01*
X183875Y93439D01*
X183885Y93411D01*
X183904Y93373D01*
X183932Y93326D01*
X183969Y93214D01*
X183979Y93157D01*
X183988Y93101D01*
Y93091D01*
Y93063D01*
Y93026D01*
X183979Y92979D01*
X183951Y92856D01*
X183904Y92744D01*
Y92734D01*
X183894Y92725D01*
X183866Y92668D01*
X183838Y92593D01*
X183828Y92518D01*
Y92509D01*
Y92490D01*
X183838Y92452D01*
X183857Y92415D01*
X183894Y92358D01*
X183932Y92311D01*
X183998Y92255D01*
X184082Y92198D01*
X184092Y92189D01*
X184129Y92180D01*
X184176Y92161D01*
X184251Y92133D01*
X184336Y92105D01*
X184430Y92086D01*
X184543Y92076D01*
X184655Y92067D01*
X184721D01*
X184759Y92076D01*
X184815D01*
X184881Y92086D01*
X185022Y92114D01*
X185182Y92161D01*
X185341Y92227D01*
X185492Y92321D01*
X185623Y92443D01*
X185642Y92462D01*
X185680Y92518D01*
X185699Y92556D01*
X185727Y92603D01*
X185755Y92668D01*
X185793Y92734D01*
X185821Y92809D01*
X185849Y92903D01*
X185877Y92997D01*
X185905Y93110D01*
X185924Y93232D01*
X185943Y93355D01*
X185952Y93496D01*
Y93646D01*
Y93655D01*
Y93674D01*
Y93712D01*
X185943Y93759D01*
Y93815D01*
X185934Y93871D01*
X185905Y94022D01*
X185868Y94191D01*
X185802Y94369D01*
X185717Y94539D01*
X185605Y94698D01*
Y94708D01*
X185586Y94717D01*
X185567Y94736D01*
X185539Y94764D01*
X185492Y94792D01*
X185445Y94830D01*
X185379Y94868D01*
X185304Y94905D01*
X185219Y94943D01*
X185116Y94971D01*
X185003Y95008D01*
X184872Y95037D01*
X184731Y95065D01*
X184571Y95084D01*
X184392Y95103D01*
X184204D01*
Y95563D01*
X184279D01*
X184345Y95572D01*
X184411D01*
X184486Y95582D01*
X184665Y95610D01*
X184862Y95648D01*
X185050Y95704D01*
X185229Y95789D01*
X185313Y95845D01*
X185379Y95901D01*
X185398Y95920D01*
X185436Y95967D01*
X185483Y96042D01*
X185548Y96155D01*
X185614Y96287D01*
X185661Y96456D01*
X185699Y96653D01*
X185717Y96869D01*
Y96879D01*
Y96888D01*
Y96916D01*
Y96954D01*
X185708Y97048D01*
X185680Y97170D01*
X185652Y97311D01*
X185605Y97452D01*
X185539Y97612D01*
X185445Y97753D01*
X185436Y97772D01*
X185398Y97809D01*
X185332Y97875D01*
X185247Y97941D01*
X185125Y98006D01*
X184984Y98072D01*
X184815Y98110D01*
X184618Y98129D01*
X184580D01*
X184524Y98119D01*
X184458Y98110D01*
X184383Y98101D01*
X184298Y98082D01*
X184204Y98044D01*
X184101Y98006D01*
X184092Y97997D01*
X184063Y97988D01*
X184016Y97959D01*
X183969Y97922D01*
X183913Y97865D01*
X183875Y97809D01*
X183838Y97734D01*
X183828Y97649D01*
Y97640D01*
Y97602D01*
Y97555D01*
X183838Y97499D01*
X183857Y97386D01*
X183875Y97330D01*
X183904Y97292D01*
X183913Y97283D01*
X183951Y97236D01*
X183979Y97170D01*
X183988Y97067D01*
Y97057D01*
Y97029D01*
X183979Y96992D01*
Y96935D01*
X183941Y96813D01*
X183922Y96747D01*
X183885Y96691D01*
Y96681D01*
X183866Y96672D01*
X183838Y96644D01*
X183800Y96616D01*
X183753Y96587D01*
X183687Y96569D01*
X183612Y96550D01*
X183528Y96540D01*
X183500D01*
X183462Y96550D01*
X183415Y96559D01*
X183358Y96578D01*
X183302Y96597D01*
X183236Y96634D01*
X183171Y96681D01*
X183161Y96691D01*
X183142Y96710D01*
X183114Y96747D01*
X183086Y96794D01*
X183058Y96869D01*
X183030Y96954D01*
X183011Y97067D01*
X183001Y97189D01*
Y97198D01*
Y97217D01*
Y97245D01*
X183011Y97292D01*
X183020Y97349D01*
X183030Y97405D01*
X183067Y97546D01*
X183133Y97706D01*
X183180Y97790D01*
X183227Y97875D01*
X183293Y97959D01*
X183358Y98044D01*
X183443Y98129D01*
X183537Y98204D01*
X183547Y98213D01*
X183565Y98223D01*
X183594Y98242D01*
X183631Y98270D01*
X183687Y98298D01*
X183744Y98326D01*
X183894Y98401D01*
X184082Y98476D01*
X184289Y98533D01*
X184524Y98580D01*
X184778Y98599D01*
X184853D01*
X184909Y98589D01*
D02*
G37*
G36*
X174741D02*
X174816Y98580D01*
X174891Y98570D01*
X175079Y98533D01*
X175286Y98476D01*
X175511Y98382D01*
X175615Y98326D01*
X175727Y98251D01*
X175831Y98176D01*
X175925Y98082D01*
X175934Y98072D01*
X175944Y98063D01*
X175972Y98035D01*
X176000Y97988D01*
X176038Y97941D01*
X176084Y97884D01*
X176178Y97753D01*
X176263Y97593D01*
X176348Y97405D01*
X176404Y97208D01*
X176413Y97095D01*
X176423Y96992D01*
Y96982D01*
Y96963D01*
Y96935D01*
Y96888D01*
X176413Y96832D01*
X176404Y96775D01*
X176385Y96625D01*
X176348Y96456D01*
X176291Y96287D01*
X176207Y96099D01*
X176103Y95930D01*
X176084Y95911D01*
X176047Y95864D01*
X175972Y95789D01*
X175878Y95704D01*
X175746Y95610D01*
X175596Y95516D01*
X175417Y95441D01*
X175210Y95385D01*
X175220D01*
X175248Y95375D01*
X175286Y95356D01*
X175342Y95337D01*
X175417Y95319D01*
X175492Y95281D01*
X175662Y95206D01*
X175859Y95103D01*
X176047Y94971D01*
X176225Y94811D01*
X176301Y94717D01*
X176366Y94623D01*
Y94614D01*
X176385Y94604D01*
X176395Y94567D01*
X176423Y94529D01*
X176470Y94426D01*
X176536Y94294D01*
X176592Y94135D01*
X176648Y93956D01*
X176686Y93768D01*
X176695Y93571D01*
Y93561D01*
Y93533D01*
Y93496D01*
X176686Y93439D01*
X176677Y93373D01*
X176667Y93289D01*
X176648Y93204D01*
X176620Y93110D01*
X176554Y92894D01*
X176507Y92781D01*
X176451Y92659D01*
X176385Y92546D01*
X176310Y92424D01*
X176225Y92311D01*
X176122Y92198D01*
X176113Y92189D01*
X176094Y92170D01*
X176066Y92142D01*
X176019Y92105D01*
X175962Y92058D01*
X175887Y92011D01*
X175802Y91954D01*
X175709Y91907D01*
X175596Y91851D01*
X175483Y91794D01*
X175351Y91747D01*
X175210Y91700D01*
X175051Y91663D01*
X174891Y91635D01*
X174712Y91616D01*
X174524Y91607D01*
X174449D01*
X174402Y91616D01*
X174336D01*
X174261Y91625D01*
X174092Y91653D01*
X173895Y91710D01*
X173679Y91776D01*
X173462Y91879D01*
X173350Y91935D01*
X173246Y92011D01*
X173237Y92020D01*
X173228Y92029D01*
X173199Y92048D01*
X173162Y92086D01*
X173077Y92170D01*
X172983Y92292D01*
X172880Y92434D01*
X172795Y92593D01*
X172758Y92687D01*
X172729Y92781D01*
X172720Y92885D01*
X172711Y92988D01*
Y92997D01*
Y93035D01*
X172720Y93082D01*
X172729Y93148D01*
X172758Y93223D01*
X172786Y93298D01*
X172833Y93383D01*
X172889Y93458D01*
X172899Y93467D01*
X172927Y93486D01*
X172964Y93524D01*
X173011Y93561D01*
X173068Y93599D01*
X173134Y93636D01*
X173209Y93655D01*
X173284Y93665D01*
X173331D01*
X173387Y93655D01*
X173444Y93636D01*
X173509Y93608D01*
X173585Y93571D01*
X173641Y93524D01*
X173697Y93448D01*
X173707Y93439D01*
X173716Y93411D01*
X173735Y93373D01*
X173763Y93326D01*
X173801Y93214D01*
X173810Y93157D01*
X173820Y93101D01*
Y93091D01*
Y93063D01*
Y93026D01*
X173810Y92979D01*
X173782Y92856D01*
X173735Y92744D01*
Y92734D01*
X173726Y92725D01*
X173697Y92668D01*
X173669Y92593D01*
X173660Y92518D01*
Y92509D01*
Y92490D01*
X173669Y92452D01*
X173688Y92415D01*
X173726Y92358D01*
X173763Y92311D01*
X173829Y92255D01*
X173913Y92198D01*
X173923Y92189D01*
X173960Y92180D01*
X174007Y92161D01*
X174083Y92133D01*
X174167Y92105D01*
X174261Y92086D01*
X174374Y92076D01*
X174487Y92067D01*
X174553D01*
X174590Y92076D01*
X174647D01*
X174712Y92086D01*
X174853Y92114D01*
X175013Y92161D01*
X175173Y92227D01*
X175323Y92321D01*
X175455Y92443D01*
X175474Y92462D01*
X175511Y92518D01*
X175530Y92556D01*
X175558Y92603D01*
X175586Y92668D01*
X175624Y92734D01*
X175652Y92809D01*
X175680Y92903D01*
X175709Y92997D01*
X175737Y93110D01*
X175756Y93232D01*
X175774Y93355D01*
X175784Y93496D01*
Y93646D01*
Y93655D01*
Y93674D01*
Y93712D01*
X175774Y93759D01*
Y93815D01*
X175765Y93871D01*
X175737Y94022D01*
X175699Y94191D01*
X175633Y94369D01*
X175549Y94539D01*
X175436Y94698D01*
Y94708D01*
X175417Y94717D01*
X175398Y94736D01*
X175370Y94764D01*
X175323Y94792D01*
X175276Y94830D01*
X175210Y94868D01*
X175135Y94905D01*
X175051Y94943D01*
X174947Y94971D01*
X174834Y95008D01*
X174703Y95037D01*
X174562Y95065D01*
X174402Y95084D01*
X174224Y95103D01*
X174036D01*
Y95563D01*
X174111D01*
X174177Y95572D01*
X174242D01*
X174318Y95582D01*
X174496Y95610D01*
X174694Y95648D01*
X174881Y95704D01*
X175060Y95789D01*
X175145Y95845D01*
X175210Y95901D01*
X175229Y95920D01*
X175267Y95967D01*
X175314Y96042D01*
X175380Y96155D01*
X175445Y96287D01*
X175492Y96456D01*
X175530Y96653D01*
X175549Y96869D01*
Y96879D01*
Y96888D01*
Y96916D01*
Y96954D01*
X175539Y97048D01*
X175511Y97170D01*
X175483Y97311D01*
X175436Y97452D01*
X175370Y97612D01*
X175276Y97753D01*
X175267Y97772D01*
X175229Y97809D01*
X175163Y97875D01*
X175079Y97941D01*
X174957Y98006D01*
X174816Y98072D01*
X174647Y98110D01*
X174449Y98129D01*
X174412D01*
X174355Y98119D01*
X174289Y98110D01*
X174214Y98101D01*
X174130Y98082D01*
X174036Y98044D01*
X173932Y98006D01*
X173923Y97997D01*
X173895Y97988D01*
X173848Y97959D01*
X173801Y97922D01*
X173744Y97865D01*
X173707Y97809D01*
X173669Y97734D01*
X173660Y97649D01*
Y97640D01*
Y97602D01*
Y97555D01*
X173669Y97499D01*
X173688Y97386D01*
X173707Y97330D01*
X173735Y97292D01*
X173744Y97283D01*
X173782Y97236D01*
X173810Y97170D01*
X173820Y97067D01*
Y97057D01*
Y97029D01*
X173810Y96992D01*
Y96935D01*
X173773Y96813D01*
X173754Y96747D01*
X173716Y96691D01*
Y96681D01*
X173697Y96672D01*
X173669Y96644D01*
X173632Y96616D01*
X173585Y96587D01*
X173519Y96569D01*
X173444Y96550D01*
X173359Y96540D01*
X173331D01*
X173293Y96550D01*
X173246Y96559D01*
X173190Y96578D01*
X173134Y96597D01*
X173068Y96634D01*
X173002Y96681D01*
X172992Y96691D01*
X172974Y96710D01*
X172946Y96747D01*
X172917Y96794D01*
X172889Y96869D01*
X172861Y96954D01*
X172842Y97067D01*
X172833Y97189D01*
Y97198D01*
Y97217D01*
Y97245D01*
X172842Y97292D01*
X172852Y97349D01*
X172861Y97405D01*
X172899Y97546D01*
X172964Y97706D01*
X173011Y97790D01*
X173058Y97875D01*
X173124Y97959D01*
X173190Y98044D01*
X173274Y98129D01*
X173368Y98204D01*
X173378Y98213D01*
X173397Y98223D01*
X173425Y98242D01*
X173462Y98270D01*
X173519Y98298D01*
X173575Y98326D01*
X173726Y98401D01*
X173913Y98476D01*
X174120Y98533D01*
X174355Y98580D01*
X174609Y98599D01*
X174684D01*
X174741Y98589D01*
D02*
G37*
G36*
X209325Y95535D02*
X209335Y95554D01*
X209363Y95591D01*
X209400Y95657D01*
X209457Y95742D01*
X209541Y95826D01*
X209635Y95920D01*
X209739Y96014D01*
X209870Y96099D01*
X209889Y96108D01*
X209936Y96127D01*
X210011Y96165D01*
X210115Y96202D01*
X210227Y96240D01*
X210359Y96277D01*
X210509Y96296D01*
X210660Y96306D01*
X210725D01*
X210772Y96296D01*
X210838D01*
X210904Y96287D01*
X211064Y96258D01*
X211233Y96212D01*
X211402Y96146D01*
X211571Y96052D01*
X211712Y95920D01*
X211731Y95901D01*
X211769Y95854D01*
X211816Y95760D01*
X211882Y95638D01*
X211947Y95488D01*
X211994Y95290D01*
X212032Y95065D01*
X212051Y94811D01*
Y92321D01*
Y92302D01*
X212060Y92255D01*
X212079Y92198D01*
X212107Y92152D01*
X212116Y92142D01*
X212154Y92133D01*
X212210Y92114D01*
X212295Y92105D01*
X212596D01*
Y91682D01*
X210754D01*
Y92105D01*
X211073D01*
X211130Y92114D01*
X211195Y92123D01*
X211242Y92152D01*
X211252Y92161D01*
X211271Y92198D01*
X211289Y92246D01*
X211299Y92321D01*
Y94933D01*
Y94943D01*
Y94952D01*
Y94999D01*
X211289Y95074D01*
X211280Y95168D01*
X211261Y95272D01*
X211224Y95385D01*
X211186Y95488D01*
X211130Y95572D01*
X211120Y95582D01*
X211101Y95610D01*
X211054Y95648D01*
X211007Y95685D01*
X210932Y95723D01*
X210848Y95760D01*
X210744Y95789D01*
X210622Y95798D01*
X210566D01*
X210500Y95789D01*
X210415Y95770D01*
X210321Y95742D01*
X210209Y95704D01*
X210086Y95648D01*
X209955Y95572D01*
X209936Y95563D01*
X209898Y95535D01*
X209833Y95488D01*
X209748Y95413D01*
X209645Y95328D01*
X209541Y95225D01*
X209438Y95112D01*
X209325Y94971D01*
Y92321D01*
Y92302D01*
X209335Y92255D01*
X209353Y92198D01*
X209391Y92152D01*
X209400Y92142D01*
X209438Y92133D01*
X209494Y92114D01*
X209579Y92105D01*
X209870D01*
Y91682D01*
X208028D01*
Y92105D01*
X208357D01*
X208414Y92114D01*
X208479Y92123D01*
X208508Y92133D01*
X208526Y92152D01*
X208536Y92161D01*
X208555Y92198D01*
X208564Y92246D01*
X208573Y92321D01*
Y95666D01*
Y95676D01*
Y95713D01*
X208564Y95742D01*
X208555Y95770D01*
Y95779D01*
X208545Y95789D01*
X208526Y95798D01*
X208075D01*
Y96230D01*
X208564D01*
X208667Y96240D01*
X208780Y96258D01*
X208790D01*
X208808Y96268D01*
X208836Y96277D01*
X208883Y96296D01*
X208987Y96343D01*
X209109Y96428D01*
X209325D01*
Y95535D01*
D02*
G37*
G36*
X205604Y92321D02*
Y92302D01*
X205613Y92255D01*
X205632Y92198D01*
X205669Y92152D01*
X205679Y92142D01*
X205716Y92133D01*
X205773Y92114D01*
X205848Y92105D01*
X206769D01*
Y91682D01*
X203686D01*
Y92105D01*
X204636D01*
X204692Y92114D01*
X204758Y92123D01*
X204786Y92133D01*
X204805Y92152D01*
X204814Y92161D01*
X204833Y92198D01*
X204842Y92246D01*
X204852Y92321D01*
Y95554D01*
Y95563D01*
Y95572D01*
X204842Y95619D01*
X204833Y95676D01*
X204795Y95732D01*
X204786Y95742D01*
X204758Y95770D01*
X204692Y95789D01*
X204607Y95798D01*
X203686D01*
Y96230D01*
X204297D01*
X204382Y96240D01*
X204485D01*
X204589Y96249D01*
X204814Y96277D01*
X204824D01*
X204871Y96287D01*
X204927Y96306D01*
X205002Y96324D01*
X205087Y96362D01*
X205190Y96399D01*
X205294Y96446D01*
X205397Y96503D01*
X205604D01*
Y92321D01*
D02*
G37*
G36*
X178659Y92838D02*
X178725Y92828D01*
X178801Y92800D01*
X178876Y92772D01*
X178951Y92725D01*
X179026Y92659D01*
X179035Y92650D01*
X179054Y92631D01*
X179082Y92584D01*
X179120Y92537D01*
X179158Y92471D01*
X179186Y92396D01*
X179205Y92302D01*
X179214Y92208D01*
Y92198D01*
Y92161D01*
X179205Y92114D01*
X179195Y92048D01*
X179167Y91973D01*
X179139Y91898D01*
X179092Y91823D01*
X179026Y91747D01*
X179017Y91738D01*
X178988Y91719D01*
X178951Y91691D01*
X178895Y91663D01*
X178829Y91625D01*
X178754Y91597D01*
X178659Y91578D01*
X178566Y91569D01*
X178519D01*
X178462Y91578D01*
X178406Y91588D01*
X178331Y91616D01*
X178246Y91644D01*
X178171Y91691D01*
X178096Y91747D01*
X178086Y91757D01*
X178067Y91776D01*
X178039Y91823D01*
X178011Y91870D01*
X177973Y91935D01*
X177945Y92020D01*
X177927Y92105D01*
X177917Y92208D01*
Y92217D01*
Y92255D01*
X177927Y92302D01*
X177936Y92368D01*
X177964Y92434D01*
X177992Y92518D01*
X178039Y92593D01*
X178096Y92659D01*
X178105Y92668D01*
X178133Y92687D01*
X178171Y92715D01*
X178227Y92753D01*
X178293Y92791D01*
X178378Y92819D01*
X178462Y92838D01*
X178566Y92847D01*
X178612D01*
X178659Y92838D01*
D02*
G37*
G36*
X202427Y88434D02*
X202070Y88321D01*
Y88330D01*
X202051Y88358D01*
X202032Y88406D01*
X202004Y88462D01*
X201976Y88528D01*
X201929Y88603D01*
X201835Y88781D01*
X201732Y88969D01*
X201609Y89157D01*
X201544Y89242D01*
X201478Y89326D01*
X201412Y89392D01*
X201346Y89449D01*
X201327Y89458D01*
X201280Y89496D01*
X201205Y89533D01*
X201102Y89590D01*
X200980Y89637D01*
X200820Y89684D01*
X200651Y89712D01*
X200453Y89721D01*
X200388D01*
X200341Y89712D01*
X200294D01*
X200228Y89702D01*
X200087Y89674D01*
X199927Y89627D01*
X199777Y89562D01*
X199636Y89467D01*
X199580Y89411D01*
X199523Y89345D01*
X199514Y89326D01*
X199485Y89279D01*
X199448Y89204D01*
X199401Y89110D01*
X199354Y88988D01*
X199316Y88857D01*
X199288Y88706D01*
X199279Y88546D01*
Y88528D01*
Y88481D01*
X199288Y88406D01*
X199307Y88321D01*
X199335Y88218D01*
X199373Y88114D01*
X199429Y88011D01*
X199504Y87917D01*
X199514Y87907D01*
X199561Y87870D01*
X199589Y87851D01*
X199636Y87813D01*
X199692Y87785D01*
X199758Y87738D01*
X199843Y87691D01*
X199937Y87635D01*
X200049Y87578D01*
X200172Y87513D01*
X200312Y87437D01*
X200472Y87362D01*
X200651Y87278D01*
X200848Y87193D01*
X200858D01*
X200895Y87174D01*
X200942Y87156D01*
X201008Y87118D01*
X201083Y87080D01*
X201177Y87043D01*
X201384Y86930D01*
X201609Y86789D01*
X201835Y86639D01*
X202051Y86469D01*
X202145Y86376D01*
X202230Y86282D01*
X202239Y86272D01*
X202248Y86263D01*
X202267Y86235D01*
X202295Y86188D01*
X202333Y86141D01*
X202371Y86084D01*
X202446Y85943D01*
X202521Y85765D01*
X202596Y85567D01*
X202643Y85332D01*
X202662Y85210D01*
Y85088D01*
Y85079D01*
Y85060D01*
Y85013D01*
X202653Y84966D01*
X202643Y84900D01*
X202634Y84825D01*
X202596Y84646D01*
X202540Y84440D01*
X202446Y84223D01*
X202390Y84111D01*
X202314Y83998D01*
X202239Y83885D01*
X202145Y83772D01*
X202136Y83763D01*
X202117Y83744D01*
X202089Y83716D01*
X202051Y83688D01*
X201995Y83641D01*
X201929Y83594D01*
X201854Y83537D01*
X201769Y83490D01*
X201666Y83434D01*
X201553Y83378D01*
X201431Y83331D01*
X201299Y83293D01*
X201149Y83255D01*
X200999Y83227D01*
X200829Y83208D01*
X200651Y83199D01*
X200585D01*
X200501Y83208D01*
X200406Y83218D01*
X200284Y83227D01*
X200162Y83255D01*
X200031Y83284D01*
X199908Y83331D01*
X199890Y83340D01*
X199852Y83349D01*
X199796Y83368D01*
X199720Y83396D01*
X199561Y83443D01*
X199476Y83453D01*
X199410Y83462D01*
X199391D01*
X199354Y83453D01*
X199298Y83434D01*
X199222Y83396D01*
X199213D01*
X199204Y83387D01*
X199175Y83368D01*
X199138Y83349D01*
X199081Y83321D01*
X199016Y83284D01*
X198931Y83246D01*
X198828Y83199D01*
X198489Y85257D01*
X198893Y85379D01*
Y85370D01*
X198903Y85332D01*
X198922Y85285D01*
X198950Y85210D01*
X198978Y85135D01*
X199006Y85041D01*
X199100Y84825D01*
X199204Y84590D01*
X199335Y84364D01*
X199401Y84261D01*
X199485Y84167D01*
X199561Y84082D01*
X199645Y84007D01*
X199655D01*
X199664Y83989D01*
X199692Y83979D01*
X199730Y83951D01*
X199824Y83895D01*
X199946Y83838D01*
X200106Y83772D01*
X200284Y83716D01*
X200472Y83678D01*
X200688Y83659D01*
X200745D01*
X200792Y83669D01*
X200895Y83678D01*
X201036Y83707D01*
X201177Y83744D01*
X201327Y83810D01*
X201478Y83895D01*
X201600Y84017D01*
X201609Y84035D01*
X201647Y84082D01*
X201694Y84167D01*
X201760Y84289D01*
X201816Y84440D01*
X201863Y84618D01*
X201901Y84834D01*
X201910Y85088D01*
Y85107D01*
X201901Y85144D01*
X201891Y85210D01*
X201863Y85304D01*
X201826Y85408D01*
X201760Y85520D01*
X201675Y85642D01*
X201562Y85774D01*
X201544Y85793D01*
X201497Y85830D01*
X201412Y85906D01*
X201356Y85953D01*
X201290Y86000D01*
X201215Y86056D01*
X201121Y86112D01*
X201027Y86169D01*
X200923Y86235D01*
X200811Y86310D01*
X200679Y86376D01*
X200548Y86451D01*
X200397Y86526D01*
X200388Y86535D01*
X200350Y86545D01*
X200303Y86564D01*
X200237Y86601D01*
X200153Y86629D01*
X200059Y86676D01*
X199955Y86723D01*
X199843Y86780D01*
X199608Y86902D01*
X199373Y87033D01*
X199157Y87165D01*
X199063Y87240D01*
X198978Y87306D01*
Y87315D01*
X198959Y87325D01*
X198912Y87381D01*
X198846Y87466D01*
X198771Y87588D01*
X198696Y87757D01*
X198630Y87954D01*
X198583Y88189D01*
X198574Y88321D01*
X198564Y88462D01*
Y88471D01*
Y88490D01*
Y88528D01*
X198574Y88565D01*
X198583Y88622D01*
X198593Y88687D01*
X198630Y88838D01*
X198687Y89026D01*
X198781Y89223D01*
X198846Y89326D01*
X198912Y89430D01*
X198987Y89533D01*
X199081Y89637D01*
X199091Y89646D01*
X199110Y89665D01*
X199138Y89684D01*
X199175Y89721D01*
X199232Y89768D01*
X199298Y89815D01*
X199373Y89862D01*
X199457Y89919D01*
X199551Y89966D01*
X199664Y90013D01*
X199786Y90060D01*
X199918Y90107D01*
X200059Y90144D01*
X200209Y90163D01*
X200369Y90182D01*
X200538Y90191D01*
X200604D01*
X200688Y90182D01*
X200782Y90172D01*
X200895Y90154D01*
X201027Y90135D01*
X201158Y90097D01*
X201290Y90050D01*
X201309Y90041D01*
X201346Y90031D01*
X201412Y90013D01*
X201478Y89984D01*
X201647Y89937D01*
X201713Y89928D01*
X201779Y89919D01*
X201797D01*
X201826Y89928D01*
X201882Y89937D01*
X201929Y89956D01*
X201948Y89966D01*
X201967Y89984D01*
X201995Y90003D01*
X202042Y90041D01*
X202089Y90078D01*
X202155Y90135D01*
X202239Y90201D01*
X202427Y88434D01*
D02*
G37*
G36*
X180417Y90182D02*
X180473Y90172D01*
X180548Y90144D01*
X180624Y90116D01*
X180699Y90069D01*
X180774Y90013D01*
X180784Y90003D01*
X180802Y89975D01*
X180830Y89937D01*
X180868Y89881D01*
X180906Y89815D01*
X180934Y89740D01*
X180953Y89646D01*
X180962Y89552D01*
Y89543D01*
Y89505D01*
X180953Y89458D01*
X180943Y89392D01*
X180915Y89317D01*
X180887Y89242D01*
X180840Y89167D01*
X180774Y89092D01*
X180765Y89082D01*
X180746Y89063D01*
X180699Y89035D01*
X180652Y88998D01*
X180586Y88960D01*
X180501Y88932D01*
X180417Y88913D01*
X180314Y88904D01*
X180267D01*
X180220Y88913D01*
X180154Y88932D01*
X180079Y88951D01*
X180003Y88979D01*
X179928Y89026D01*
X179853Y89092D01*
X179844Y89101D01*
X179825Y89129D01*
X179797Y89167D01*
X179759Y89223D01*
X179722Y89289D01*
X179693Y89364D01*
X179674Y89458D01*
X179665Y89552D01*
Y89562D01*
Y89599D01*
X179674Y89646D01*
X179693Y89712D01*
X179712Y89787D01*
X179740Y89862D01*
X179787Y89937D01*
X179853Y90013D01*
X179862Y90022D01*
X179881Y90041D01*
X179928Y90069D01*
X179975Y90107D01*
X180041Y90135D01*
X180126Y90163D01*
X180210Y90182D01*
X180314Y90191D01*
X180361D01*
X180417Y90182D01*
D02*
G37*
G36*
X190078Y86639D02*
X190088Y86657D01*
X190097Y86686D01*
X190116Y86723D01*
X190172Y86827D01*
X190238Y86958D01*
X190332Y87109D01*
X190454Y87259D01*
X190595Y87409D01*
X190755Y87550D01*
X190764D01*
X190774Y87569D01*
X190802Y87578D01*
X190839Y87607D01*
X190933Y87663D01*
X191056Y87729D01*
X191196Y87785D01*
X191366Y87842D01*
X191535Y87879D01*
X191723Y87898D01*
X191798D01*
X191873Y87889D01*
X191967Y87870D01*
X192080Y87851D01*
X192193Y87813D01*
X192296Y87757D01*
X192399Y87691D01*
X192409Y87682D01*
X192437Y87654D01*
X192475Y87616D01*
X192522Y87560D01*
X192569Y87494D01*
X192606Y87409D01*
X192634Y87325D01*
X192644Y87221D01*
Y87212D01*
Y87184D01*
X192634Y87137D01*
X192625Y87090D01*
X192597Y86958D01*
X192559Y86892D01*
X192522Y86836D01*
X192512Y86827D01*
X192503Y86817D01*
X192475Y86789D01*
X192428Y86770D01*
X192381Y86742D01*
X192315Y86714D01*
X192240Y86705D01*
X192155Y86695D01*
X192118D01*
X192071Y86705D01*
X192014Y86714D01*
X191958Y86733D01*
X191901Y86761D01*
X191835Y86798D01*
X191789Y86845D01*
X191779Y86855D01*
X191770Y86874D01*
X191751Y86902D01*
X191732Y86949D01*
X191713Y87005D01*
X191704Y87071D01*
X191695Y87146D01*
X191704Y87231D01*
Y87250D01*
Y87278D01*
X191695Y87315D01*
X191685Y87353D01*
Y87362D01*
X191657Y87372D01*
X191610Y87381D01*
X191582Y87390D01*
X191525D01*
X191488Y87381D01*
X191422Y87372D01*
X191347Y87344D01*
X191243Y87296D01*
X191121Y87231D01*
X190980Y87137D01*
X190830Y87015D01*
X190811Y86996D01*
X190755Y86949D01*
X190680Y86864D01*
X190576Y86751D01*
X190463Y86601D01*
X190332Y86432D01*
X190210Y86225D01*
X190078Y85990D01*
Y83913D01*
Y83895D01*
X190088Y83848D01*
X190106Y83791D01*
X190144Y83744D01*
X190153Y83735D01*
X190191Y83725D01*
X190247Y83707D01*
X190332Y83697D01*
X191290D01*
Y83274D01*
X188199D01*
Y83697D01*
X189110D01*
X189167Y83707D01*
X189232Y83716D01*
X189261Y83725D01*
X189279Y83744D01*
X189289Y83753D01*
X189307Y83791D01*
X189317Y83838D01*
X189326Y83913D01*
Y87146D01*
Y87156D01*
Y87165D01*
X189317Y87212D01*
X189307Y87268D01*
X189279Y87325D01*
X189270Y87334D01*
X189242Y87362D01*
X189176Y87381D01*
X189138Y87390D01*
X188246D01*
Y87823D01*
X188762D01*
X188838Y87832D01*
X188922D01*
X189035Y87851D01*
X189148Y87860D01*
X189279Y87879D01*
X189298D01*
X189336Y87889D01*
X189401Y87898D01*
X189486Y87917D01*
X189571Y87936D01*
X189665Y87964D01*
X189759Y87992D01*
X189843Y88020D01*
X190078D01*
Y86639D01*
D02*
G37*
G36*
X185708Y87889D02*
X185774D01*
X185840Y87879D01*
X185999Y87851D01*
X186178Y87804D01*
X186357Y87738D01*
X186535Y87644D01*
X186695Y87522D01*
X186704D01*
X186714Y87503D01*
X186761Y87456D01*
X186826Y87381D01*
X186902Y87287D01*
X186967Y87165D01*
X187033Y87043D01*
X187080Y86902D01*
X187099Y86827D01*
Y86751D01*
Y86742D01*
Y86705D01*
X187090Y86657D01*
X187080Y86601D01*
X187043Y86469D01*
X187014Y86404D01*
X186967Y86347D01*
X186958Y86338D01*
X186949Y86329D01*
X186920Y86310D01*
X186873Y86291D01*
X186826Y86263D01*
X186761Y86244D01*
X186685Y86235D01*
X186601Y86225D01*
X186573D01*
X186535Y86235D01*
X186488Y86244D01*
X186375Y86282D01*
X186328Y86310D01*
X186272Y86347D01*
X186262Y86357D01*
X186253Y86376D01*
X186234Y86404D01*
X186215Y86441D01*
X186168Y86545D01*
X186159Y86601D01*
X186150Y86676D01*
Y86686D01*
Y86695D01*
Y86751D01*
X186159Y86817D01*
X186168Y86864D01*
X186178Y86874D01*
X186187Y86902D01*
X186206Y86939D01*
X186225Y87005D01*
Y87015D01*
X186234Y87024D01*
X186225Y87080D01*
X186215Y87127D01*
X186197Y87174D01*
X186159Y87231D01*
X186103Y87287D01*
X186093Y87296D01*
X186075Y87315D01*
X186028Y87344D01*
X185971Y87381D01*
X185887Y87409D01*
X185783Y87437D01*
X185661Y87456D01*
X185520Y87466D01*
X185473D01*
X185426Y87456D01*
X185332Y87437D01*
X185201Y87400D01*
X185060Y87334D01*
X184909Y87240D01*
X184825Y87184D01*
X184749Y87118D01*
X184674Y87033D01*
X184599Y86939D01*
Y86930D01*
X184580Y86911D01*
X184562Y86883D01*
X184543Y86845D01*
X184515Y86789D01*
X184477Y86723D01*
X184449Y86648D01*
X184411Y86564D01*
X184373Y86469D01*
X184345Y86357D01*
X184308Y86244D01*
X184279Y86112D01*
X184261Y85981D01*
X184242Y85830D01*
X184223Y85511D01*
Y85501D01*
Y85473D01*
Y85436D01*
X184233Y85370D01*
Y85304D01*
X184242Y85220D01*
X184261Y85032D01*
X184298Y84825D01*
X184355Y84599D01*
X184439Y84383D01*
X184543Y84186D01*
Y84176D01*
X184562Y84167D01*
X184608Y84111D01*
X184684Y84035D01*
X184806Y83941D01*
X184956Y83848D01*
X185041Y83810D01*
X185144Y83772D01*
X185247Y83744D01*
X185370Y83716D01*
X185492Y83707D01*
X185633Y83697D01*
X185680D01*
X185717Y83707D01*
X185811Y83716D01*
X185924Y83735D01*
X186056Y83782D01*
X186197Y83838D01*
X186347Y83913D01*
X186479Y84026D01*
X186497Y84045D01*
X186535Y84082D01*
X186601Y84158D01*
X186676Y84252D01*
X186761Y84374D01*
X186845Y84524D01*
X186930Y84684D01*
X187005Y84872D01*
X187372Y84750D01*
Y84740D01*
X187362Y84721D01*
X187353Y84684D01*
X187334Y84637D01*
X187315Y84571D01*
X187296Y84505D01*
X187230Y84346D01*
X187146Y84167D01*
X187043Y83979D01*
X186911Y83791D01*
X186751Y83622D01*
X186742D01*
X186732Y83603D01*
X186704Y83584D01*
X186667Y83556D01*
X186620Y83528D01*
X186563Y83490D01*
X186507Y83453D01*
X186432Y83415D01*
X186253Y83331D01*
X186046Y83265D01*
X185793Y83218D01*
X185661Y83208D01*
X185520Y83199D01*
X185426D01*
X185360Y83208D01*
X185276Y83218D01*
X185182Y83227D01*
X185069Y83246D01*
X184956Y83274D01*
X184702Y83349D01*
X184580Y83396D01*
X184449Y83453D01*
X184317Y83528D01*
X184195Y83612D01*
X184073Y83707D01*
X183960Y83810D01*
X183951Y83819D01*
X183932Y83838D01*
X183904Y83876D01*
X183875Y83923D01*
X183828Y83989D01*
X183781Y84064D01*
X183725Y84158D01*
X183678Y84261D01*
X183622Y84374D01*
X183565Y84505D01*
X183518Y84646D01*
X183481Y84806D01*
X183443Y84966D01*
X183415Y85154D01*
X183396Y85342D01*
X183387Y85548D01*
Y85558D01*
Y85596D01*
Y85642D01*
X183396Y85718D01*
X183405Y85802D01*
X183415Y85906D01*
X183434Y86009D01*
X183462Y86131D01*
X183537Y86404D01*
X183584Y86535D01*
X183640Y86676D01*
X183716Y86817D01*
X183800Y86958D01*
X183894Y87090D01*
X183998Y87221D01*
X184007Y87231D01*
X184026Y87250D01*
X184063Y87287D01*
X184110Y87325D01*
X184167Y87381D01*
X184242Y87437D01*
X184326Y87494D01*
X184430Y87560D01*
X184533Y87626D01*
X184655Y87682D01*
X184787Y87738D01*
X184928Y87795D01*
X185078Y87832D01*
X185247Y87870D01*
X185417Y87889D01*
X185595Y87898D01*
X185661D01*
X185708Y87889D01*
D02*
G37*
G36*
X177701Y89684D02*
X177428D01*
X177381Y89674D01*
X177316Y89665D01*
X177259Y89627D01*
X177250Y89618D01*
X177231Y89590D01*
X177212Y89543D01*
X177203Y89477D01*
Y83913D01*
Y83895D01*
X177212Y83848D01*
X177231Y83791D01*
X177259Y83744D01*
X177269Y83735D01*
X177306Y83725D01*
X177363Y83707D01*
X177447Y83697D01*
X177701D01*
Y83274D01*
X175831D01*
Y83697D01*
X176150D01*
X176207Y83707D01*
X176272Y83716D01*
X176301Y83725D01*
X176319Y83744D01*
X176329Y83753D01*
X176348Y83791D01*
X176357Y83838D01*
X176366Y83913D01*
Y88425D01*
X175154Y83274D01*
X174759D01*
X173660Y88317D01*
Y83913D01*
Y83895D01*
X173669Y83848D01*
X173688Y83791D01*
X173726Y83744D01*
X173735Y83735D01*
X173773Y83725D01*
X173829Y83707D01*
X173904Y83697D01*
X174130D01*
Y83274D01*
X172758D01*
Y83697D01*
X173002D01*
X173058Y83707D01*
X173124Y83716D01*
X173152Y83725D01*
X173171Y83744D01*
X173181Y83753D01*
X173199Y83791D01*
X173209Y83838D01*
X173218Y83913D01*
Y89477D01*
Y89486D01*
Y89496D01*
X173209Y89543D01*
X173199Y89590D01*
X173171Y89637D01*
X173162Y89646D01*
X173134Y89665D01*
X173068Y89674D01*
X173030Y89684D01*
X172720D01*
Y90116D01*
X174036D01*
X175118Y85119D01*
X176272Y90116D01*
X177701D01*
Y89684D01*
D02*
G37*
G36*
X205350Y90107D02*
X205434D01*
X205538Y90088D01*
X205660Y90069D01*
X205801Y90050D01*
X205951Y90013D01*
X206102Y89975D01*
X206262Y89919D01*
X206431Y89853D01*
X206600Y89778D01*
X206769Y89684D01*
X206929Y89571D01*
X207079Y89449D01*
X207229Y89308D01*
X207239Y89298D01*
X207258Y89270D01*
X207295Y89223D01*
X207352Y89157D01*
X207408Y89073D01*
X207464Y88960D01*
X207540Y88838D01*
X207605Y88697D01*
X207671Y88537D01*
X207746Y88349D01*
X207803Y88142D01*
X207868Y87926D01*
X207915Y87682D01*
X207953Y87419D01*
X207972Y87137D01*
X207981Y86836D01*
Y86827D01*
Y86817D01*
Y86789D01*
Y86751D01*
Y86657D01*
X207972Y86535D01*
X207962Y86385D01*
X207944Y86206D01*
X207915Y86018D01*
X207887Y85812D01*
X207850Y85596D01*
X207803Y85370D01*
X207746Y85144D01*
X207671Y84928D01*
X207587Y84712D01*
X207493Y84505D01*
X207380Y84308D01*
X207248Y84139D01*
X207239Y84129D01*
X207211Y84101D01*
X207173Y84064D01*
X207117Y84007D01*
X207041Y83941D01*
X206947Y83866D01*
X206835Y83791D01*
X206713Y83707D01*
X206572Y83622D01*
X206412Y83547D01*
X206233Y83472D01*
X206045Y83406D01*
X205839Y83359D01*
X205613Y83312D01*
X205369Y83284D01*
X205115Y83274D01*
X203339D01*
Y83697D01*
X203743D01*
X203799Y83707D01*
X203865Y83716D01*
X203893Y83725D01*
X203912Y83744D01*
X203921Y83753D01*
X203940Y83791D01*
X203950Y83838D01*
X203959Y83913D01*
Y89477D01*
Y89486D01*
Y89496D01*
X203950Y89543D01*
X203940Y89590D01*
X203912Y89637D01*
X203903Y89646D01*
X203874Y89665D01*
X203809Y89674D01*
X203771Y89684D01*
X203376D01*
Y90116D01*
X205284D01*
X205350Y90107D01*
D02*
G37*
G36*
X180690Y83913D02*
Y83895D01*
X180699Y83848D01*
X180718Y83791D01*
X180755Y83744D01*
X180765Y83735D01*
X180802Y83725D01*
X180859Y83707D01*
X180934Y83697D01*
X181855D01*
Y83274D01*
X178772D01*
Y83697D01*
X179722D01*
X179778Y83707D01*
X179844Y83716D01*
X179872Y83725D01*
X179891Y83744D01*
X179900Y83753D01*
X179919Y83791D01*
X179928Y83838D01*
X179938Y83913D01*
Y87146D01*
Y87156D01*
Y87165D01*
X179928Y87212D01*
X179919Y87268D01*
X179881Y87325D01*
X179872Y87334D01*
X179844Y87362D01*
X179778Y87381D01*
X179693Y87390D01*
X178772D01*
Y87823D01*
X179383D01*
X179468Y87832D01*
X179571D01*
X179674Y87842D01*
X179900Y87870D01*
X179909D01*
X179956Y87879D01*
X180013Y87898D01*
X180088Y87917D01*
X180173Y87954D01*
X180276Y87992D01*
X180379Y88039D01*
X180483Y88095D01*
X180690D01*
Y83913D01*
D02*
G37*
G36*
X195726Y87889D02*
X195811Y87879D01*
X195905Y87860D01*
X196018Y87832D01*
X196130Y87804D01*
X196253Y87766D01*
X196375Y87719D01*
X196506Y87663D01*
X196638Y87588D01*
X196770Y87503D01*
X196892Y87409D01*
X197004Y87296D01*
X197117Y87165D01*
X197127Y87156D01*
X197145Y87127D01*
X197174Y87090D01*
X197211Y87033D01*
X197249Y86968D01*
X197296Y86883D01*
X197352Y86789D01*
X197409Y86686D01*
X197456Y86573D01*
X197512Y86451D01*
X197606Y86178D01*
X197634Y86028D01*
X197662Y85868D01*
X197681Y85708D01*
X197691Y85548D01*
Y85539D01*
Y85501D01*
Y85455D01*
X197681Y85379D01*
X197672Y85295D01*
X197662Y85191D01*
X197644Y85079D01*
X197615Y84956D01*
X197540Y84693D01*
X197493Y84552D01*
X197437Y84411D01*
X197362Y84270D01*
X197277Y84129D01*
X197183Y83998D01*
X197080Y83866D01*
X197070Y83857D01*
X197051Y83838D01*
X197014Y83800D01*
X196967Y83763D01*
X196910Y83716D01*
X196835Y83659D01*
X196760Y83594D01*
X196666Y83537D01*
X196553Y83472D01*
X196441Y83406D01*
X196318Y83349D01*
X196187Y83302D01*
X196046Y83265D01*
X195896Y83227D01*
X195736Y83208D01*
X195567Y83199D01*
X195529D01*
X195473Y83208D01*
X195407D01*
X195332Y83218D01*
X195238Y83237D01*
X195134Y83255D01*
X195021Y83284D01*
X194899Y83321D01*
X194777Y83368D01*
X194655Y83425D01*
X194523Y83490D01*
X194392Y83566D01*
X194270Y83659D01*
X194147Y83763D01*
X194035Y83885D01*
X194025Y83895D01*
X194007Y83913D01*
X193978Y83960D01*
X193941Y84007D01*
X193894Y84073D01*
X193847Y84158D01*
X193790Y84252D01*
X193743Y84355D01*
X193687Y84468D01*
X193631Y84599D01*
X193584Y84731D01*
X193537Y84881D01*
X193499Y85032D01*
X193471Y85201D01*
X193452Y85370D01*
X193443Y85548D01*
Y85558D01*
Y85586D01*
Y85633D01*
X193452Y85699D01*
X193461Y85774D01*
X193471Y85868D01*
X193490Y85971D01*
X193518Y86084D01*
X193584Y86329D01*
X193631Y86469D01*
X193687Y86601D01*
X193753Y86742D01*
X193837Y86883D01*
X193922Y87024D01*
X194025Y87165D01*
X194035Y87174D01*
X194053Y87193D01*
X194091Y87231D01*
X194129Y87278D01*
X194194Y87334D01*
X194260Y87400D01*
X194345Y87466D01*
X194439Y87531D01*
X194542Y87597D01*
X194664Y87663D01*
X194786Y87729D01*
X194928Y87785D01*
X195068Y87832D01*
X195228Y87870D01*
X195397Y87889D01*
X195567Y87898D01*
X195660D01*
X195726Y87889D01*
D02*
G37*
G36*
X60962Y147311D02*
X61018Y147301D01*
X61093Y147273D01*
X61168Y147245D01*
X61244Y147198D01*
X61319Y147141D01*
X61328Y147132D01*
X61347Y147104D01*
X61375Y147066D01*
X61413Y147010D01*
X61451Y146944D01*
X61479Y146869D01*
X61498Y146775D01*
X61507Y146681D01*
Y146671D01*
Y146634D01*
X61498Y146587D01*
X61488Y146521D01*
X61460Y146446D01*
X61432Y146371D01*
X61385Y146296D01*
X61319Y146220D01*
X61309Y146211D01*
X61291Y146192D01*
X61244Y146164D01*
X61197Y146126D01*
X61131Y146089D01*
X61046Y146061D01*
X60962Y146042D01*
X60858Y146032D01*
X60811D01*
X60764Y146042D01*
X60699Y146061D01*
X60623Y146080D01*
X60548Y146108D01*
X60473Y146155D01*
X60398Y146220D01*
X60388Y146230D01*
X60370Y146258D01*
X60342Y146296D01*
X60304Y146352D01*
X60266Y146418D01*
X60238Y146493D01*
X60219Y146587D01*
X60210Y146681D01*
Y146690D01*
Y146728D01*
X60219Y146775D01*
X60238Y146841D01*
X60257Y146916D01*
X60285Y146991D01*
X60332Y147066D01*
X60398Y147141D01*
X60407Y147151D01*
X60426Y147170D01*
X60473Y147198D01*
X60520Y147235D01*
X60586Y147264D01*
X60670Y147292D01*
X60755Y147311D01*
X60858Y147320D01*
X60905D01*
X60962Y147311D01*
D02*
G37*
G36*
X58095Y146812D02*
X57813D01*
X57766Y146803D01*
X57691Y146775D01*
X57607Y146719D01*
X57588Y146700D01*
X57569Y146681D01*
X57550Y146643D01*
X57522Y146596D01*
X57494Y146540D01*
X57466Y146474D01*
X57438Y146399D01*
X55812Y140403D01*
X55417D01*
X53960Y146352D01*
Y146361D01*
X53951Y146390D01*
X53941Y146437D01*
X53932Y146493D01*
X53895Y146606D01*
X53876Y146662D01*
X53847Y146709D01*
Y146719D01*
X53838Y146728D01*
X53791Y146765D01*
X53725Y146794D01*
X53688Y146812D01*
X53340D01*
Y147245D01*
X55220D01*
Y146812D01*
X54938D01*
X54891Y146803D01*
X54834Y146784D01*
X54787Y146737D01*
X54778Y146728D01*
Y146681D01*
X54769Y146615D01*
X54787Y146521D01*
X55818Y142207D01*
X56921Y146418D01*
Y146427D01*
X56930Y146455D01*
X56939Y146493D01*
X56949Y146540D01*
X56958Y146634D01*
Y146681D01*
X56939Y146719D01*
X56930Y146737D01*
X56892Y146765D01*
X56855Y146784D01*
X56817Y146794D01*
X56770Y146812D01*
X56488D01*
Y147245D01*
X58095D01*
Y146812D01*
D02*
G37*
G36*
X64956Y144256D02*
X64965Y144275D01*
X64994Y144313D01*
X65031Y144378D01*
X65087Y144463D01*
X65172Y144548D01*
X65266Y144642D01*
X65369Y144735D01*
X65501Y144820D01*
X65520Y144830D01*
X65567Y144848D01*
X65642Y144886D01*
X65745Y144923D01*
X65858Y144961D01*
X65990Y144999D01*
X66140Y145017D01*
X66290Y145027D01*
X66356D01*
X66403Y145017D01*
X66469D01*
X66535Y145008D01*
X66695Y144980D01*
X66864Y144933D01*
X67033Y144867D01*
X67202Y144773D01*
X67343Y144642D01*
X67362Y144623D01*
X67399Y144576D01*
X67446Y144482D01*
X67512Y144360D01*
X67578Y144209D01*
X67625Y144012D01*
X67663Y143786D01*
X67681Y143533D01*
Y141042D01*
Y141023D01*
X67691Y140976D01*
X67709Y140920D01*
X67738Y140873D01*
X67747Y140864D01*
X67785Y140854D01*
X67841Y140835D01*
X67926Y140826D01*
X68226D01*
Y140403D01*
X66384D01*
Y140826D01*
X66704D01*
X66760Y140835D01*
X66826Y140845D01*
X66873Y140873D01*
X66883Y140882D01*
X66901Y140920D01*
X66920Y140967D01*
X66929Y141042D01*
Y143655D01*
Y143664D01*
Y143674D01*
Y143721D01*
X66920Y143796D01*
X66911Y143890D01*
X66892Y143993D01*
X66854Y144106D01*
X66817Y144209D01*
X66760Y144294D01*
X66751Y144303D01*
X66732Y144331D01*
X66685Y144369D01*
X66638Y144407D01*
X66563Y144444D01*
X66478Y144482D01*
X66375Y144510D01*
X66253Y144519D01*
X66196D01*
X66131Y144510D01*
X66046Y144491D01*
X65952Y144463D01*
X65839Y144425D01*
X65717Y144369D01*
X65586Y144294D01*
X65567Y144284D01*
X65529Y144256D01*
X65463Y144209D01*
X65379Y144134D01*
X65276Y144050D01*
X65172Y143946D01*
X65069Y143833D01*
X64956Y143692D01*
Y141042D01*
Y141023D01*
X64965Y140976D01*
X64984Y140920D01*
X65022Y140873D01*
X65031Y140864D01*
X65069Y140854D01*
X65125Y140835D01*
X65210Y140826D01*
X65501D01*
Y140403D01*
X63659D01*
Y140826D01*
X63988D01*
X64044Y140835D01*
X64110Y140845D01*
X64138Y140854D01*
X64157Y140873D01*
X64166Y140882D01*
X64185Y140920D01*
X64195Y140967D01*
X64204Y141042D01*
Y144388D01*
Y144397D01*
Y144435D01*
X64195Y144463D01*
X64185Y144491D01*
Y144501D01*
X64176Y144510D01*
X64157Y144519D01*
X63706D01*
Y144952D01*
X64195D01*
X64298Y144961D01*
X64411Y144980D01*
X64420D01*
X64439Y144989D01*
X64467Y144999D01*
X64514Y145017D01*
X64618Y145064D01*
X64740Y145149D01*
X64956D01*
Y144256D01*
D02*
G37*
G36*
X61234Y141042D02*
Y141023D01*
X61244Y140976D01*
X61262Y140920D01*
X61300Y140873D01*
X61309Y140864D01*
X61347Y140854D01*
X61403Y140835D01*
X61479Y140826D01*
X62400D01*
Y140403D01*
X59317D01*
Y140826D01*
X60266D01*
X60323Y140835D01*
X60388Y140845D01*
X60417Y140854D01*
X60436Y140873D01*
X60445Y140882D01*
X60464Y140920D01*
X60473Y140967D01*
X60483Y141042D01*
Y144275D01*
Y144284D01*
Y144294D01*
X60473Y144341D01*
X60464Y144397D01*
X60426Y144454D01*
X60417Y144463D01*
X60388Y144491D01*
X60323Y144510D01*
X60238Y144519D01*
X59317D01*
Y144952D01*
X59928D01*
X60013Y144961D01*
X60116D01*
X60219Y144971D01*
X60445Y144999D01*
X60454D01*
X60501Y145008D01*
X60558Y145027D01*
X60633Y145046D01*
X60717Y145083D01*
X60821Y145121D01*
X60924Y145168D01*
X61028Y145224D01*
X61234D01*
Y141042D01*
D02*
G37*
%LPC*%
G36*
X237206Y136342D02*
X237178D01*
X237136Y136328D01*
X237079D01*
X236952Y136286D01*
X236783Y136187D01*
X236685Y136131D01*
X236586Y136046D01*
X236487Y135948D01*
X236374Y135835D01*
X236276Y135694D01*
X236163Y135539D01*
X236064Y135356D01*
X235966Y135144D01*
Y135130D01*
X235937Y135088D01*
X235923Y135017D01*
X235881Y134933D01*
X235839Y134806D01*
X235797Y134665D01*
X235754Y134496D01*
X235712Y134298D01*
X235655Y134073D01*
X235613Y133833D01*
X235571Y133565D01*
X235529Y133269D01*
X235486Y132959D01*
X235472Y132621D01*
X235444Y132268D01*
Y131888D01*
Y131860D01*
Y131789D01*
Y131676D01*
X235458Y131535D01*
Y131352D01*
X235472Y131141D01*
X235486Y130901D01*
X235515Y130647D01*
X235571Y130112D01*
X235670Y129548D01*
X235726Y129280D01*
X235797Y129012D01*
X235881Y128758D01*
X235966Y128533D01*
Y128518D01*
X235994Y128476D01*
X236022Y128420D01*
X236064Y128349D01*
X236163Y128166D01*
X236318Y127955D01*
X236501Y127729D01*
X236713Y127546D01*
X236826Y127475D01*
X236952Y127419D01*
X237079Y127377D01*
X237206Y127363D01*
X237234D01*
X237277Y127377D01*
X237333D01*
X237474Y127419D01*
X237643Y127504D01*
X237742Y127574D01*
X237840Y127645D01*
X237939Y127743D01*
X238052Y127856D01*
X238151Y127997D01*
X238249Y128152D01*
X238348Y128321D01*
X238433Y128533D01*
Y128547D01*
X238447Y128589D01*
X238475Y128659D01*
X238503Y128744D01*
X238545Y128871D01*
X238588Y129012D01*
X238630Y129195D01*
X238672Y129393D01*
X238715Y129618D01*
X238757Y129872D01*
X238799Y130140D01*
X238841Y130436D01*
X238870Y130774D01*
X238898Y131112D01*
X238912Y131493D01*
Y131888D01*
Y131916D01*
Y131986D01*
Y132085D01*
Y132226D01*
X238898Y132409D01*
X238884Y132607D01*
X238870Y132832D01*
X238855Y133072D01*
X238799Y133594D01*
X238729Y134143D01*
X238616Y134665D01*
X238545Y134919D01*
X238475Y135144D01*
Y135158D01*
X238461Y135201D01*
X238433Y135257D01*
X238390Y135327D01*
X238292Y135525D01*
X238151Y135750D01*
X237967Y135962D01*
X237756Y136159D01*
X237629Y136230D01*
X237502Y136286D01*
X237361Y136328D01*
X237206Y136342D01*
D02*
G37*
G36*
X184075Y132959D02*
X183863D01*
X183807Y132945D01*
X183652Y132931D01*
X183468Y132874D01*
X183271Y132804D01*
X183046Y132691D01*
X182834Y132522D01*
X182721Y132423D01*
X182623Y132311D01*
Y132296D01*
X182594Y132282D01*
X182580Y132240D01*
X182538Y132198D01*
X182467Y132057D01*
X182369Y131860D01*
X182270Y131620D01*
X182200Y131324D01*
X182143Y131000D01*
X182115Y130633D01*
X185541D01*
Y130647D01*
Y130675D01*
Y130732D01*
Y130816D01*
Y130901D01*
Y131014D01*
X185513Y131253D01*
X185470Y131521D01*
X185386Y131817D01*
X185287Y132085D01*
X185132Y132339D01*
Y132353D01*
X185118Y132367D01*
X185047Y132437D01*
X184949Y132536D01*
X184808Y132649D01*
X184638Y132762D01*
X184441Y132860D01*
X184201Y132931D01*
X184075Y132959D01*
D02*
G37*
G36*
X176448D02*
X176237D01*
X176180Y132945D01*
X176025Y132931D01*
X175842Y132874D01*
X175645Y132804D01*
X175419Y132691D01*
X175208Y132522D01*
X175095Y132423D01*
X174996Y132311D01*
Y132296D01*
X174968Y132282D01*
X174954Y132240D01*
X174911Y132198D01*
X174841Y132057D01*
X174742Y131860D01*
X174644Y131620D01*
X174573Y131324D01*
X174517Y131000D01*
X174489Y130633D01*
X177914D01*
Y130647D01*
Y130675D01*
Y130732D01*
Y130816D01*
Y130901D01*
Y131014D01*
X177886Y131253D01*
X177844Y131521D01*
X177759Y131817D01*
X177660Y132085D01*
X177505Y132339D01*
Y132353D01*
X177491Y132367D01*
X177421Y132437D01*
X177322Y132536D01*
X177181Y132649D01*
X177012Y132762D01*
X176815Y132860D01*
X176575Y132931D01*
X176448Y132959D01*
D02*
G37*
G36*
X78013Y12183D02*
X77929D01*
X77881Y12174D01*
X77759Y12164D01*
X77712Y12146D01*
X77665Y12127D01*
X77646Y12117D01*
X77618Y12089D01*
X77590Y12042D01*
X77571Y11976D01*
Y6413D01*
Y6394D01*
X77581Y6356D01*
X77609Y6300D01*
X77656Y6253D01*
X77675Y6244D01*
X77722Y6225D01*
X77797Y6206D01*
X77900Y6197D01*
X77976D01*
X78032Y6206D01*
X78107Y6215D01*
X78182Y6225D01*
X78276Y6244D01*
X78370Y6272D01*
X78586Y6347D01*
X78699Y6394D01*
X78812Y6450D01*
X78934Y6525D01*
X79047Y6610D01*
X79160Y6704D01*
X79263Y6808D01*
X79272Y6817D01*
X79291Y6836D01*
X79310Y6873D01*
X79348Y6930D01*
X79395Y7005D01*
X79441Y7099D01*
X79489Y7212D01*
X79545Y7343D01*
X79592Y7503D01*
X79639Y7681D01*
X79686Y7879D01*
X79733Y8104D01*
X79770Y8349D01*
X79789Y8621D01*
X79808Y8922D01*
X79818Y9251D01*
Y9260D01*
Y9270D01*
Y9326D01*
Y9411D01*
X79808Y9514D01*
X79799Y9646D01*
X79789Y9805D01*
X79780Y9975D01*
X79761Y10153D01*
X79705Y10529D01*
X79620Y10905D01*
X79564Y11084D01*
X79498Y11253D01*
X79423Y11403D01*
X79338Y11535D01*
X79329Y11544D01*
X79319Y11563D01*
X79291Y11591D01*
X79254Y11638D01*
X79197Y11685D01*
X79141Y11741D01*
X79075Y11798D01*
X78990Y11864D01*
X78906Y11920D01*
X78802Y11976D01*
X78699Y12033D01*
X78577Y12080D01*
X78445Y12127D01*
X78314Y12155D01*
X78163Y12174D01*
X78013Y12183D01*
D02*
G37*
G36*
X209964Y120503D02*
X209898D01*
X209823Y120494D01*
X209720Y120475D01*
X209607Y120447D01*
X209485Y120400D01*
X209353Y120344D01*
X209222Y120268D01*
X209203Y120259D01*
X209165Y120222D01*
X209100Y120156D01*
X209015Y120071D01*
X208912Y119949D01*
X208808Y119799D01*
X208705Y119611D01*
X208649Y119498D01*
X208592Y119385D01*
Y119376D01*
Y119338D01*
Y119282D01*
X208602Y119197D01*
Y119103D01*
X208611Y119000D01*
X208620Y118878D01*
X208639Y118746D01*
X208686Y118464D01*
X208752Y118173D01*
X208846Y117900D01*
X208912Y117769D01*
X208978Y117646D01*
X208987Y117637D01*
X208996Y117618D01*
X209015Y117590D01*
X209043Y117552D01*
X209128Y117458D01*
X209241Y117346D01*
X209372Y117233D01*
X209523Y117139D01*
X209607Y117101D01*
X209701Y117073D01*
X209795Y117054D01*
X209889Y117045D01*
X209936D01*
X209974Y117054D01*
X210068Y117064D01*
X210190Y117092D01*
X210321Y117139D01*
X210453Y117214D01*
X210585Y117308D01*
X210697Y117440D01*
Y117449D01*
X210707Y117458D01*
X210725Y117487D01*
X210744Y117515D01*
X210763Y117562D01*
X210791Y117628D01*
X210819Y117693D01*
X210848Y117778D01*
X210867Y117872D01*
X210895Y117985D01*
X210923Y118116D01*
X210942Y118257D01*
X210961Y118408D01*
X210979Y118577D01*
X210989Y118765D01*
Y118972D01*
Y118981D01*
Y119009D01*
Y119047D01*
Y119094D01*
X210979Y119159D01*
X210970Y119225D01*
X210951Y119395D01*
X210914Y119573D01*
X210857Y119761D01*
X210782Y119949D01*
X210679Y120109D01*
X210669Y120127D01*
X210622Y120175D01*
X210566Y120231D01*
X210481Y120306D01*
X210368Y120381D01*
X210246Y120438D01*
X210115Y120485D01*
X209964Y120503D01*
D02*
G37*
G36*
X199598Y123069D02*
X199580D01*
X199551Y123060D01*
X199514D01*
X199429Y123032D01*
X199316Y122966D01*
X199251Y122928D01*
X199185Y122872D01*
X199119Y122806D01*
X199044Y122731D01*
X198978Y122637D01*
X198903Y122533D01*
X198837Y122411D01*
X198771Y122270D01*
Y122261D01*
X198752Y122233D01*
X198743Y122186D01*
X198715Y122129D01*
X198687Y122045D01*
X198659Y121951D01*
X198630Y121838D01*
X198602Y121706D01*
X198564Y121556D01*
X198536Y121396D01*
X198508Y121218D01*
X198480Y121020D01*
X198452Y120814D01*
X198442Y120588D01*
X198424Y120353D01*
Y120099D01*
Y120080D01*
Y120034D01*
Y119958D01*
X198433Y119864D01*
Y119742D01*
X198442Y119601D01*
X198452Y119441D01*
X198470Y119272D01*
X198508Y118915D01*
X198574Y118539D01*
X198612Y118361D01*
X198659Y118182D01*
X198715Y118013D01*
X198771Y117863D01*
Y117853D01*
X198790Y117825D01*
X198809Y117787D01*
X198837Y117740D01*
X198903Y117618D01*
X199006Y117477D01*
X199128Y117327D01*
X199269Y117205D01*
X199345Y117158D01*
X199429Y117120D01*
X199514Y117092D01*
X199598Y117083D01*
X199617D01*
X199645Y117092D01*
X199683D01*
X199777Y117120D01*
X199890Y117177D01*
X199955Y117224D01*
X200021Y117270D01*
X200087Y117336D01*
X200162Y117411D01*
X200228Y117506D01*
X200294Y117609D01*
X200359Y117722D01*
X200416Y117863D01*
Y117872D01*
X200425Y117900D01*
X200444Y117947D01*
X200463Y118004D01*
X200491Y118088D01*
X200519Y118182D01*
X200548Y118304D01*
X200576Y118436D01*
X200604Y118586D01*
X200632Y118755D01*
X200660Y118934D01*
X200688Y119131D01*
X200707Y119357D01*
X200726Y119582D01*
X200735Y119836D01*
Y120099D01*
Y120118D01*
Y120165D01*
Y120231D01*
Y120325D01*
X200726Y120447D01*
X200717Y120579D01*
X200707Y120729D01*
X200698Y120889D01*
X200660Y121236D01*
X200613Y121603D01*
X200538Y121951D01*
X200491Y122120D01*
X200444Y122270D01*
Y122280D01*
X200435Y122308D01*
X200416Y122345D01*
X200388Y122392D01*
X200322Y122524D01*
X200228Y122674D01*
X200106Y122815D01*
X199965Y122947D01*
X199880Y122994D01*
X199796Y123032D01*
X199702Y123060D01*
X199598Y123069D01*
D02*
G37*
G36*
X190445Y103886D02*
X190379D01*
X190304Y103876D01*
X190200Y103858D01*
X190088Y103829D01*
X189965Y103783D01*
X189834Y103726D01*
X189702Y103651D01*
X189683Y103642D01*
X189646Y103604D01*
X189580Y103538D01*
X189495Y103454D01*
X189392Y103331D01*
X189289Y103181D01*
X189185Y102993D01*
X189129Y102880D01*
X189072Y102767D01*
Y102758D01*
Y102720D01*
Y102664D01*
X189082Y102580D01*
Y102486D01*
X189091Y102382D01*
X189101Y102260D01*
X189119Y102128D01*
X189167Y101847D01*
X189232Y101555D01*
X189326Y101283D01*
X189392Y101151D01*
X189458Y101029D01*
X189467Y101019D01*
X189477Y101001D01*
X189495Y100972D01*
X189524Y100935D01*
X189608Y100841D01*
X189721Y100728D01*
X189853Y100615D01*
X190003Y100521D01*
X190088Y100484D01*
X190182Y100456D01*
X190275Y100437D01*
X190369Y100427D01*
X190416D01*
X190454Y100437D01*
X190548Y100446D01*
X190670Y100474D01*
X190802Y100521D01*
X190933Y100597D01*
X191065Y100691D01*
X191178Y100822D01*
Y100831D01*
X191187Y100841D01*
X191206Y100869D01*
X191225Y100897D01*
X191243Y100944D01*
X191272Y101010D01*
X191300Y101076D01*
X191328Y101160D01*
X191347Y101255D01*
X191375Y101367D01*
X191403Y101499D01*
X191422Y101640D01*
X191441Y101790D01*
X191460Y101959D01*
X191469Y102147D01*
Y102354D01*
Y102363D01*
Y102392D01*
Y102429D01*
Y102476D01*
X191460Y102542D01*
X191450Y102608D01*
X191431Y102777D01*
X191394Y102956D01*
X191337Y103144D01*
X191262Y103331D01*
X191159Y103491D01*
X191150Y103510D01*
X191103Y103557D01*
X191046Y103613D01*
X190961Y103688D01*
X190849Y103764D01*
X190727Y103820D01*
X190595Y103867D01*
X190445Y103886D01*
D02*
G37*
G36*
X220556Y106452D02*
X220114D01*
X220067Y106442D01*
X220001Y106433D01*
X219945Y106395D01*
X219936Y106386D01*
X219917Y106358D01*
X219898Y106311D01*
X219889Y106245D01*
Y103811D01*
X220697D01*
X220734Y103820D01*
X220828Y103829D01*
X220951Y103848D01*
X221091Y103886D01*
X221242Y103942D01*
X221392Y104027D01*
X221533Y104130D01*
X221552Y104149D01*
X221590Y104196D01*
X221646Y104271D01*
X221712Y104384D01*
X221778Y104525D01*
X221834Y104704D01*
X221871Y104910D01*
X221890Y105155D01*
Y105164D01*
Y105183D01*
Y105211D01*
Y105258D01*
X221871Y105371D01*
X221853Y105512D01*
X221815Y105662D01*
X221759Y105822D01*
X221674Y105972D01*
X221571Y106113D01*
X221552Y106132D01*
X221514Y106170D01*
X221430Y106217D01*
X221327Y106282D01*
X221185Y106348D01*
X221007Y106395D01*
X220800Y106433D01*
X220556Y106452D01*
D02*
G37*
G36*
X205303D02*
X204861D01*
X204814Y106442D01*
X204748Y106433D01*
X204692Y106395D01*
X204683Y106386D01*
X204664Y106358D01*
X204645Y106311D01*
X204636Y106245D01*
Y103811D01*
X205444D01*
X205481Y103820D01*
X205575Y103829D01*
X205698Y103848D01*
X205839Y103886D01*
X205989Y103942D01*
X206139Y104027D01*
X206280Y104130D01*
X206299Y104149D01*
X206337Y104196D01*
X206393Y104271D01*
X206459Y104384D01*
X206525Y104525D01*
X206581Y104704D01*
X206619Y104910D01*
X206637Y105155D01*
Y105164D01*
Y105183D01*
Y105211D01*
Y105258D01*
X206619Y105371D01*
X206600Y105512D01*
X206562Y105662D01*
X206506Y105822D01*
X206421Y105972D01*
X206318Y106113D01*
X206299Y106132D01*
X206262Y106170D01*
X206177Y106217D01*
X206073Y106282D01*
X205933Y106348D01*
X205754Y106395D01*
X205547Y106433D01*
X205303Y106452D01*
D02*
G37*
G36*
X194824D02*
X194739D01*
X194692Y106442D01*
X194570Y106433D01*
X194523Y106414D01*
X194476Y106395D01*
X194458Y106386D01*
X194429Y106358D01*
X194401Y106311D01*
X194382Y106245D01*
Y100681D01*
Y100662D01*
X194392Y100625D01*
X194420Y100568D01*
X194467Y100521D01*
X194486Y100512D01*
X194533Y100493D01*
X194608Y100474D01*
X194711Y100465D01*
X194786D01*
X194843Y100474D01*
X194918Y100484D01*
X194993Y100493D01*
X195087Y100512D01*
X195181Y100540D01*
X195397Y100615D01*
X195510Y100662D01*
X195623Y100719D01*
X195745Y100794D01*
X195858Y100878D01*
X195971Y100972D01*
X196074Y101076D01*
X196083Y101085D01*
X196102Y101104D01*
X196121Y101142D01*
X196159Y101198D01*
X196206Y101273D01*
X196253Y101367D01*
X196300Y101480D01*
X196356Y101612D01*
X196403Y101771D01*
X196450Y101950D01*
X196497Y102147D01*
X196544Y102373D01*
X196581Y102617D01*
X196600Y102890D01*
X196619Y103190D01*
X196628Y103519D01*
Y103529D01*
Y103538D01*
Y103595D01*
Y103679D01*
X196619Y103783D01*
X196610Y103914D01*
X196600Y104074D01*
X196591Y104243D01*
X196572Y104422D01*
X196516Y104797D01*
X196431Y105173D01*
X196375Y105352D01*
X196309Y105521D01*
X196234Y105672D01*
X196149Y105803D01*
X196140Y105813D01*
X196130Y105831D01*
X196102Y105859D01*
X196065Y105906D01*
X196008Y105954D01*
X195952Y106010D01*
X195886Y106066D01*
X195802Y106132D01*
X195717Y106188D01*
X195613Y106245D01*
X195510Y106301D01*
X195388Y106348D01*
X195256Y106395D01*
X195125Y106423D01*
X194974Y106442D01*
X194824Y106452D01*
D02*
G37*
G36*
X194946Y98129D02*
X194890D01*
X194852Y98119D01*
X194739Y98101D01*
X194608Y98072D01*
X194467Y98006D01*
X194317Y97922D01*
X194241Y97865D01*
X194176Y97800D01*
X194110Y97725D01*
X194053Y97640D01*
Y97631D01*
X194044Y97621D01*
X194025Y97593D01*
X194007Y97555D01*
X193988Y97499D01*
X193960Y97443D01*
X193931Y97377D01*
X193913Y97302D01*
X193856Y97114D01*
X193809Y96897D01*
X193771Y96653D01*
X193762Y96371D01*
Y96362D01*
Y96334D01*
Y96296D01*
X193771Y96240D01*
Y96165D01*
X193781Y96089D01*
X193800Y95901D01*
X193837Y95704D01*
X193894Y95497D01*
X193960Y95300D01*
X194007Y95206D01*
X194063Y95121D01*
X194082Y95103D01*
X194119Y95056D01*
X194185Y94990D01*
X194279Y94915D01*
X194382Y94839D01*
X194514Y94774D01*
X194664Y94727D01*
X194739Y94717D01*
X194824Y94708D01*
X194881D01*
X194918Y94717D01*
X195012Y94736D01*
X195144Y94774D01*
X195285Y94830D01*
X195444Y94924D01*
X195520Y94990D01*
X195604Y95056D01*
X195679Y95131D01*
X195755Y95225D01*
X195764Y95234D01*
X195773Y95244D01*
X195792Y95272D01*
X195820Y95309D01*
X195886Y95413D01*
X195961Y95535D01*
X196027Y95685D01*
X196093Y95845D01*
X196140Y96005D01*
X196159Y96089D01*
Y96174D01*
Y96183D01*
Y96212D01*
Y96258D01*
Y96324D01*
X196149Y96399D01*
X196140Y96484D01*
X196130Y96587D01*
X196121Y96691D01*
X196083Y96916D01*
X196036Y97161D01*
X195961Y97386D01*
X195867Y97602D01*
Y97612D01*
X195858Y97621D01*
X195811Y97687D01*
X195745Y97772D01*
X195651Y97865D01*
X195520Y97959D01*
X195360Y98044D01*
X195172Y98110D01*
X195059Y98119D01*
X194946Y98129D01*
D02*
G37*
G36*
X205228Y89684D02*
X205143D01*
X205096Y89674D01*
X204974Y89665D01*
X204927Y89646D01*
X204880Y89627D01*
X204861Y89618D01*
X204833Y89590D01*
X204805Y89543D01*
X204786Y89477D01*
Y83913D01*
Y83895D01*
X204795Y83857D01*
X204824Y83800D01*
X204871Y83753D01*
X204889Y83744D01*
X204936Y83725D01*
X205012Y83707D01*
X205115Y83697D01*
X205190D01*
X205247Y83707D01*
X205322Y83716D01*
X205397Y83725D01*
X205491Y83744D01*
X205585Y83772D01*
X205801Y83848D01*
X205914Y83895D01*
X206026Y83951D01*
X206149Y84026D01*
X206262Y84111D01*
X206374Y84205D01*
X206478Y84308D01*
X206487Y84317D01*
X206506Y84336D01*
X206525Y84374D01*
X206562Y84430D01*
X206609Y84505D01*
X206656Y84599D01*
X206703Y84712D01*
X206760Y84844D01*
X206807Y85003D01*
X206854Y85182D01*
X206901Y85379D01*
X206947Y85605D01*
X206985Y85849D01*
X207004Y86122D01*
X207023Y86423D01*
X207032Y86751D01*
Y86761D01*
Y86770D01*
Y86827D01*
Y86911D01*
X207023Y87015D01*
X207013Y87146D01*
X207004Y87306D01*
X206994Y87475D01*
X206976Y87654D01*
X206919Y88030D01*
X206835Y88406D01*
X206778Y88584D01*
X206713Y88753D01*
X206637Y88904D01*
X206553Y89035D01*
X206543Y89045D01*
X206534Y89063D01*
X206506Y89092D01*
X206468Y89139D01*
X206412Y89185D01*
X206355Y89242D01*
X206290Y89298D01*
X206205Y89364D01*
X206120Y89420D01*
X206017Y89477D01*
X205914Y89533D01*
X205792Y89580D01*
X205660Y89627D01*
X205528Y89655D01*
X205378Y89674D01*
X205228Y89684D01*
D02*
G37*
G36*
X195567Y87466D02*
X195520D01*
X195482Y87456D01*
X195388Y87437D01*
X195266Y87409D01*
X195125Y87344D01*
X194974Y87259D01*
X194899Y87203D01*
X194824Y87137D01*
X194739Y87062D01*
X194664Y86977D01*
Y86968D01*
X194646Y86958D01*
X194627Y86930D01*
X194599Y86883D01*
X194570Y86836D01*
X194542Y86770D01*
X194505Y86695D01*
X194467Y86610D01*
X194429Y86517D01*
X194392Y86404D01*
X194364Y86282D01*
X194335Y86150D01*
X194307Y86009D01*
X194288Y85859D01*
X194279Y85689D01*
X194270Y85511D01*
Y85501D01*
Y85464D01*
Y85417D01*
X194279Y85351D01*
Y85267D01*
X194288Y85182D01*
X194298Y85079D01*
X194317Y84966D01*
X194364Y84731D01*
X194429Y84496D01*
X194523Y84270D01*
X194580Y84167D01*
X194646Y84073D01*
X194655Y84064D01*
X194664Y84054D01*
X194711Y84007D01*
X194796Y83932D01*
X194909Y83848D01*
X195040Y83763D01*
X195200Y83697D01*
X195369Y83641D01*
X195473Y83631D01*
X195567Y83622D01*
X195623D01*
X195670Y83631D01*
X195773Y83650D01*
X195914Y83688D01*
X196065Y83744D01*
X196224Y83829D01*
X196300Y83885D01*
X196375Y83951D01*
X196450Y84026D01*
X196516Y84111D01*
Y84120D01*
X196535Y84129D01*
X196544Y84167D01*
X196572Y84205D01*
X196600Y84252D01*
X196628Y84317D01*
X196657Y84393D01*
X196694Y84477D01*
X196723Y84571D01*
X196751Y84675D01*
X196779Y84787D01*
X196807Y84909D01*
X196835Y85050D01*
X196845Y85191D01*
X196863Y85351D01*
Y85511D01*
Y85520D01*
Y85558D01*
Y85605D01*
X196854Y85671D01*
Y85755D01*
X196845Y85849D01*
X196835Y85953D01*
X196817Y86065D01*
X196770Y86300D01*
X196704Y86545D01*
X196610Y86770D01*
X196544Y86883D01*
X196478Y86977D01*
Y86986D01*
X196459Y86996D01*
X196412Y87052D01*
X196328Y87127D01*
X196224Y87221D01*
X196093Y87315D01*
X195933Y87390D01*
X195764Y87447D01*
X195670Y87456D01*
X195567Y87466D01*
D02*
G37*
%LPD*%
D10*
X244602Y11938D02*
G03*
X244602Y11938I-762J0D01*
G01*
X187960Y57150D02*
Y58674D01*
X39657Y21971D02*
X61400D01*
X3488Y105029D02*
X23603D01*
X61400Y97734D02*
Y105029D01*
X39657D02*
X61400D01*
Y21971D02*
Y29266D01*
X3488Y21971D02*
X23603D01*
X3488D02*
Y105029D01*
X22606Y114173D02*
X53594D01*
X22606Y134747D02*
X53594D01*
X161671Y86995D02*
Y126365D01*
X92329Y86995D02*
X161671D01*
X92329D02*
Y126365D01*
X161671D01*
D11*
X167640Y83820D02*
Y121920D01*
D12*
X239608Y68581D02*
Y73659D01*
X242147D01*
X242994Y72813D01*
Y71120D01*
X242147Y70274D01*
X239608D01*
X241301D02*
X242994Y68581D01*
X244686Y72813D02*
X245533Y73659D01*
X247226D01*
X248072Y72813D01*
Y71966D01*
X247226Y71120D01*
X246379D01*
X247226D01*
X248072Y70274D01*
Y69427D01*
X247226Y68581D01*
X245533D01*
X244686Y69427D01*
X232836Y20319D02*
Y15241D01*
X236222D01*
X241300Y20319D02*
X237914D01*
Y15241D01*
X241300D01*
X237914Y17780D02*
X239607D01*
X242993Y20319D02*
Y15241D01*
X245532D01*
X246378Y16087D01*
Y19473D01*
X245532Y20319D01*
X242993D01*
X248071Y15241D02*
X249764D01*
X248918D01*
Y20319D01*
X248071Y19473D01*
X219288Y33019D02*
Y28787D01*
X220135Y27941D01*
X221827D01*
X222674Y28787D01*
Y33019D01*
X227752Y27941D02*
X224366D01*
X227752Y31326D01*
Y32173D01*
X226906Y33019D01*
X225213D01*
X224366Y32173D01*
X77048Y96521D02*
Y101599D01*
X79587D01*
X80434Y100753D01*
Y99060D01*
X79587Y98214D01*
X77048D01*
X78741D02*
X80434Y96521D01*
X85512D02*
X82126D01*
X85512Y99906D01*
Y100753D01*
X84666Y101599D01*
X82973D01*
X82126Y100753D01*
X182034Y10161D02*
Y15239D01*
X184574D01*
X185420Y14393D01*
Y12700D01*
X184574Y11854D01*
X182034D01*
X183727D02*
X185420Y10161D01*
X187113D02*
X188806D01*
X187959D01*
Y15239D01*
X187113Y14393D01*
X184574Y70273D02*
X183727Y71119D01*
X182034D01*
X181188Y70273D01*
Y66887D01*
X182034Y66041D01*
X183727D01*
X184574Y66887D01*
X188806Y66041D02*
Y71119D01*
X186266Y68580D01*
X189652D01*
X82974Y27093D02*
X82127Y27939D01*
X80435D01*
X79588Y27093D01*
Y23707D01*
X80435Y22861D01*
X82127D01*
X82974Y23707D01*
X84666Y27093D02*
X85513Y27939D01*
X87206D01*
X88052Y27093D01*
Y26246D01*
X87206Y25400D01*
X86359D01*
X87206D01*
X88052Y24554D01*
Y23707D01*
X87206Y22861D01*
X85513D01*
X84666Y23707D01*
X220134Y72813D02*
X219287Y73659D01*
X217595D01*
X216748Y72813D01*
Y69427D01*
X217595Y68581D01*
X219287D01*
X220134Y69427D01*
X225212Y68581D02*
X221826D01*
X225212Y71966D01*
Y72813D01*
X224366Y73659D01*
X222673D01*
X221826Y72813D01*
X226060Y47413D02*
X225214Y48259D01*
X223521D01*
X222674Y47413D01*
Y44027D01*
X223521Y43181D01*
X225214D01*
X226060Y44027D01*
X227753Y43181D02*
X229446D01*
X228599D01*
Y48259D01*
X227753Y47413D01*
X79588Y109219D02*
Y104987D01*
X80435Y104141D01*
X82127D01*
X82974Y104987D01*
Y109219D01*
X84666Y108373D02*
X85513Y109219D01*
X87206D01*
X88052Y108373D01*
Y107526D01*
X87206Y106680D01*
X86359D01*
X87206D01*
X88052Y105834D01*
Y104987D01*
X87206Y104141D01*
X85513D01*
X84666Y104987D01*
X146474Y71119D02*
Y66887D01*
X147321Y66041D01*
X149014D01*
X149860Y66887D01*
Y71119D01*
X151553Y66041D02*
X153246D01*
X152399D01*
Y71119D01*
X151553Y70273D01*
X6774Y114299D02*
X5081D01*
X5927D01*
Y110067D01*
X5081Y109221D01*
X4234D01*
X3388Y110067D01*
X11852Y109221D02*
X8466D01*
X11852Y112606D01*
Y113453D01*
X11006Y114299D01*
X9313D01*
X8466Y113453D01*
X25401Y141393D02*
X24555Y142239D01*
X22862D01*
X22015Y141393D01*
Y138007D01*
X22862Y137161D01*
X24555D01*
X25401Y138007D01*
X27094Y137161D02*
Y142239D01*
X29633D01*
X30479Y141393D01*
Y139700D01*
X29633Y138854D01*
X27094D01*
X28786D02*
X30479Y137161D01*
X32172D02*
X33865D01*
X33018D01*
Y142239D01*
X32172Y141393D01*
M02*
