G04*
G04 #@! TF.GenerationSoftware,Altium Limited,Altium Designer,26.6.0 (10)*
G04*
G04 Layer_Color=128*
G04 Board_Origin=0|0*
%FSLAX44Y44*%
%MOMM*%
G71*
G04*
G04 #@! TF.SameCoordinates,5CBCFD7A-D7D9-4FBD-A79A-5820311D6744*
G04*
G04*
G04 #@! TF.FilePolarity,Positive*
G04*
G01*
G75*
%ADD11C,0.1270*%
D11*
X55332Y38500D02*
X61428D01*
X58380Y35452D02*
Y41548D01*
X55332Y88500D02*
X61428D01*
X58380Y85452D02*
Y91548D01*
X28836Y28500D02*
X34424D01*
X31630Y25706D02*
Y31294D01*
X28836Y98500D02*
X34424D01*
X31630Y95706D02*
Y101294D01*
X2540Y10160D02*
X17780D01*
X10160Y2540D02*
Y17780D01*
X2540Y142240D02*
X17780D01*
X10160Y134620D02*
Y149860D01*
X242840Y25527D02*
X244840D01*
X243840Y24527D02*
Y26527D01*
X175530Y5080D02*
X177530D01*
X176530Y4080D02*
Y6080D01*
X79010Y92710D02*
X81010D01*
X80010Y91710D02*
Y93710D01*
X127270Y3810D02*
X129270D01*
X128270Y2810D02*
Y4810D01*
X95520Y17780D02*
X97520D01*
X96520Y16780D02*
Y18780D01*
X134140Y74930D02*
X137640D01*
X135890Y73180D02*
Y76680D01*
X134390Y147320D02*
X137390D01*
X135890Y145820D02*
Y148820D01*
X208552Y62566D02*
X210552D01*
X209552Y61567D02*
Y63566D01*
X117390Y66680D02*
X119390D01*
X118390Y65680D02*
Y67680D01*
X79010Y50800D02*
X81010D01*
X80010Y49800D02*
Y51800D01*
X79010Y74930D02*
X81010D01*
X80010Y73930D02*
Y75930D01*
X41430Y10160D02*
X44930D01*
X43180Y8410D02*
Y11910D01*
X186960Y25400D02*
X188960D01*
X187960Y24400D02*
Y26400D01*
X176800Y52070D02*
X178800D01*
X177800Y51070D02*
Y53070D01*
X202200Y17780D02*
X204200D01*
X203200Y16780D02*
Y18780D01*
X90440Y38100D02*
X92440D01*
X91440Y37100D02*
Y39100D01*
X143280Y35687D02*
X146280D01*
X144780Y34187D02*
Y37187D01*
X148987Y138430D02*
X150987D01*
X149987Y137430D02*
Y139430D01*
X30630Y73500D02*
X32630D01*
X31630Y72500D02*
Y74500D01*
X30630Y53500D02*
X32630D01*
X31630Y52500D02*
Y54500D01*
X117110Y10160D02*
X119110D01*
X118110Y9160D02*
Y11160D01*
X230090Y11080D02*
X232090D01*
X231090Y10080D02*
Y12080D01*
X230090Y140680D02*
X232090D01*
X231090Y139680D02*
Y141680D01*
X117590Y138480D02*
X119590D01*
X118590Y137480D02*
Y139480D01*
X175530Y30480D02*
X177530D01*
X176530Y29480D02*
Y31480D01*
X81550Y17780D02*
X83550D01*
X82550Y16780D02*
Y18780D01*
X156480Y66040D02*
X158480D01*
X157480Y65040D02*
Y67040D01*
X175777Y68576D02*
X177777D01*
X176777Y67576D02*
Y69576D01*
X229251Y38100D02*
X231251D01*
X230251Y37100D02*
Y39100D01*
X208674Y75692D02*
X210674D01*
X209674Y74692D02*
Y76692D01*
X89170Y66040D02*
X91170D01*
X90170Y65040D02*
Y67040D01*
X203430Y31077D02*
X205430D01*
X204430Y30077D02*
Y32077D01*
X210493Y43180D02*
X212493D01*
X211493Y42180D02*
Y44180D01*
X181880Y30480D02*
X183880D01*
X182880Y29480D02*
Y31480D01*
X180610Y45275D02*
X182610D01*
X181610Y44275D02*
Y46275D01*
X90440Y52070D02*
X92440D01*
X91440Y51070D02*
Y53070D01*
M02*
