M48
;Layer_Color=9474304
;FILE_FORMAT=2:5
INCH,LZ
;TYPE=PLATED
T01F00S00C0.00787
T02F00S00C0.01181
T03F00S00C0.01378
T06F00S00C0.06000
%
T01
X0012453Y0021063
Y0028937
X00315Y00295
Y00365
X00355Y0026
X0036Y00205
X00315Y002
X0036Y0015
X0038Y0007
X00325
X00465Y0004
X00505Y00015
X00695Y0002
Y0012
X0072
X0074Y001
X0080484Y0012235
X008Y0007
X0083265Y0017
X0082501Y0024633
X0082549Y00298
X0069597Y0026998
X007Y00205
X00715Y0017825
X0062Y0026
X004661Y0026252
X0046689Y005452
X005905Y00545
X009098Y0055386
X009065Y0015
X0096Y001005
X009098Y0004362
T02
X0057Y001405
X00535Y0058
T03
X0017Y0004
X00535Y00295
T06
X0004Y0004
Y0056
M30
