G04*
G04 #@! TF.GenerationSoftware,Altium Limited,Altium Designer,26.5.1 (12)*
G04*
G04 Layer_Color=16711935*
G04 Board_Origin=0|0*
%FSLAX25Y25*%
%MOIN*%
G70*
G04*
G04 #@! TF.SameCoordinates,FD545783-0337-4B66-9695-0EA922D21319*
G04*
G04*
G04 #@! TF.FilePolarity,Positive*
G04*
G01*
G75*
G36*
X199400Y173400D02*
X210000D01*
Y167000D01*
X199400D01*
Y173400D01*
D02*
G37*
G36*
X215300Y168650D02*
X220100D01*
Y166750D01*
X215300D01*
Y168650D01*
D02*
G37*
G36*
X239500Y196750D02*
X241500D01*
Y195250D01*
X239500D01*
Y196750D01*
D02*
G37*
G36*
X247750Y230800D02*
X244250D01*
Y233200D01*
X247750D01*
Y230800D01*
D02*
G37*
G36*
X217750Y221750D02*
X214250D01*
Y223250D01*
X217750D01*
Y221750D01*
D02*
G37*
G36*
X244178Y216238D02*
X241822D01*
Y220962D01*
X244178D01*
Y216238D01*
D02*
G37*
G36*
X244450Y204650D02*
X242350D01*
Y208350D01*
X244450D01*
Y204650D01*
D02*
G37*
G36*
X263600Y185600D02*
Y187800D01*
X264900D01*
Y185600D01*
X263600D01*
D02*
G37*
G36*
X303750Y219350D02*
X298250D01*
Y223650D01*
X303750D01*
Y219350D01*
D02*
G37*
G36*
X272850Y242650D02*
Y247350D01*
X275150D01*
Y242650D01*
X272850D01*
D02*
G37*
G36*
X296100Y247100D02*
Y241800D01*
X293000D01*
Y247100D01*
X296100D01*
D02*
G37*
G36*
X259000Y250300D02*
X249200D01*
Y256900D01*
X259000D01*
Y250300D01*
D02*
G37*
G36*
X273050Y256450D02*
Y261150D01*
X275350D01*
Y256450D01*
X273050D01*
D02*
G37*
G36*
X296250Y261450D02*
Y256150D01*
X293150D01*
Y261450D01*
X296250D01*
D02*
G37*
M02*
