G04*
G04 #@! TF.GenerationSoftware,Altium Limited,Altium Designer,26.5.1 (12)*
G04*
G04 Layer_Color=65535*
G04 Board_Origin=0|0*
%FSLAX25Y25*%
%MOIN*%
G70*
G04*
G04 #@! TF.SameCoordinates,FD545783-0337-4B66-9695-0EA922D21319*
G04*
G04*
G04 #@! TF.FilePolarity,Positive*
G04*
G01*
G75*
%ADD10C,0.00600*%
%ADD11C,0.00787*%
%ADD12C,0.00984*%
%ADD13C,0.02000*%
%ADD14C,0.00500*%
%ADD15C,0.00591*%
%ADD16C,0.00200*%
%ADD17C,0.01000*%
%ADD18C,0.00800*%
%ADD19C,0.00300*%
G36*
X135375Y277232D02*
X135536D01*
Y277179D01*
X135589D01*
Y277071D01*
X135643D01*
Y276964D01*
X135589D01*
Y276911D01*
X135536D01*
Y276857D01*
X135429D01*
Y276911D01*
X135268D01*
Y276964D01*
X135161D01*
Y276911D01*
X135214D01*
Y276857D01*
X135268D01*
Y276804D01*
X135321D01*
Y276750D01*
X135375D01*
Y276696D01*
X135429D01*
Y276589D01*
X135482D01*
Y276536D01*
X135536D01*
Y276482D01*
X135589D01*
Y276375D01*
X135643D01*
Y276321D01*
X135696D01*
Y276268D01*
X135750D01*
Y276214D01*
X135857D01*
Y276161D01*
X136071D01*
Y276107D01*
X136179D01*
Y276054D01*
X136286D01*
Y276000D01*
X136393D01*
Y275946D01*
X136554D01*
Y276000D01*
X136607D01*
Y275946D01*
X136714D01*
Y275893D01*
X136768D01*
Y275786D01*
X136821D01*
Y275679D01*
X136875D01*
Y275518D01*
X136929D01*
Y275464D01*
X136875D01*
Y275411D01*
X136768D01*
Y275357D01*
X136714D01*
Y275304D01*
X136661D01*
Y275250D01*
X136607D01*
Y275196D01*
X136661D01*
Y275089D01*
X136714D01*
Y275036D01*
X136768D01*
Y274929D01*
X136821D01*
Y274875D01*
X136875D01*
Y274768D01*
X136929D01*
Y274500D01*
X136982D01*
Y274446D01*
X137036D01*
Y274393D01*
X137143D01*
Y274339D01*
X137196D01*
Y274286D01*
X137250D01*
Y274232D01*
X137304D01*
Y274286D01*
X137357D01*
Y274339D01*
X137518D01*
Y274286D01*
X137571D01*
Y274232D01*
X137625D01*
Y274179D01*
X137679D01*
Y274071D01*
X137839D01*
Y274125D01*
X138000D01*
Y274071D01*
X138054D01*
Y274018D01*
X138107D01*
Y273964D01*
X138161D01*
Y273696D01*
X138214D01*
Y273536D01*
X138268D01*
Y273482D01*
X138321D01*
Y273429D01*
X138375D01*
Y273375D01*
X138429D01*
Y273321D01*
X138482D01*
Y273268D01*
X138536D01*
Y273214D01*
X138589D01*
Y273268D01*
X138643D01*
Y273375D01*
X138696D01*
Y273482D01*
X138750D01*
Y273536D01*
X138804D01*
Y273643D01*
X138857D01*
Y273696D01*
X138911D01*
Y273857D01*
X138964D01*
Y274018D01*
X139018D01*
Y274125D01*
X139071D01*
Y274179D01*
X139125D01*
Y274286D01*
X139232D01*
Y274232D01*
X139286D01*
Y274125D01*
X139339D01*
Y274018D01*
X139500D01*
Y274125D01*
X139554D01*
Y274179D01*
X139607D01*
Y274232D01*
X139661D01*
Y274286D01*
X139714D01*
Y274339D01*
X139768D01*
Y274446D01*
X139821D01*
Y274500D01*
X139875D01*
Y274607D01*
X139929D01*
Y274661D01*
X139982D01*
Y274768D01*
X140143D01*
Y274714D01*
X140196D01*
Y274661D01*
X140304D01*
Y274714D01*
X140357D01*
Y274768D01*
X140411D01*
Y274661D01*
X140464D01*
Y274446D01*
X140518D01*
Y274179D01*
X140571D01*
Y274125D01*
X140625D01*
Y274071D01*
X140679D01*
Y273964D01*
X140732D01*
Y272786D01*
X140679D01*
Y272625D01*
X140625D01*
Y272571D01*
X140571D01*
Y272518D01*
X140518D01*
Y272464D01*
X140411D01*
Y272411D01*
X140304D01*
Y272518D01*
X140250D01*
Y272571D01*
X140304D01*
Y272893D01*
X140357D01*
Y273161D01*
X140304D01*
Y273429D01*
X140250D01*
Y273696D01*
X140196D01*
Y273750D01*
X139982D01*
Y273696D01*
X139875D01*
Y273643D01*
X139821D01*
Y273107D01*
X139768D01*
Y272893D01*
X139714D01*
Y272786D01*
X139554D01*
Y272839D01*
X139393D01*
Y272679D01*
X139339D01*
Y272411D01*
X139393D01*
Y272357D01*
X139446D01*
Y272250D01*
X139500D01*
Y272196D01*
X139554D01*
Y272143D01*
X139607D01*
Y272089D01*
X139714D01*
Y272036D01*
X139821D01*
Y271982D01*
X139875D01*
Y271929D01*
X139929D01*
Y271875D01*
X139982D01*
Y271821D01*
X140036D01*
Y271768D01*
X140089D01*
Y271500D01*
X140143D01*
Y271393D01*
X140250D01*
Y271446D01*
X140357D01*
Y271125D01*
X140304D01*
Y270964D01*
X140250D01*
Y270857D01*
X140196D01*
Y270750D01*
X140250D01*
Y270696D01*
X140304D01*
Y270589D01*
X140357D01*
Y270536D01*
X140464D01*
Y270482D01*
X140571D01*
Y270429D01*
X140679D01*
Y270054D01*
X140625D01*
Y269893D01*
X140571D01*
Y269839D01*
X140518D01*
Y269732D01*
X140464D01*
Y269625D01*
X140411D01*
Y269518D01*
X140357D01*
Y269464D01*
X140304D01*
Y269411D01*
X140250D01*
Y269357D01*
X140196D01*
Y269304D01*
X139661D01*
Y269250D01*
X139500D01*
Y269196D01*
X139393D01*
Y269143D01*
X139286D01*
Y269089D01*
X139125D01*
Y269036D01*
X138911D01*
Y268982D01*
X138804D01*
Y268929D01*
X138643D01*
Y268875D01*
X138536D01*
Y268821D01*
X138482D01*
Y268661D01*
X138429D01*
Y268500D01*
X138482D01*
Y268446D01*
X138536D01*
Y268393D01*
X138643D01*
Y268339D01*
X139446D01*
Y268286D01*
X139607D01*
Y268232D01*
X139929D01*
Y268018D01*
X139821D01*
Y267964D01*
X139607D01*
Y267911D01*
X139232D01*
Y267857D01*
X138964D01*
Y267804D01*
X138804D01*
Y267750D01*
X138589D01*
Y267696D01*
X138429D01*
Y267643D01*
X138321D01*
Y267589D01*
X138214D01*
Y267536D01*
X138000D01*
Y267482D01*
X137839D01*
Y267429D01*
X137786D01*
Y267375D01*
X137304D01*
Y267482D01*
X137196D01*
Y267429D01*
X137143D01*
Y267375D01*
X136982D01*
Y267482D01*
X136821D01*
Y267536D01*
X136607D01*
Y267589D01*
X136393D01*
Y267536D01*
X136179D01*
Y267482D01*
X136125D01*
Y267429D01*
X136071D01*
Y267375D01*
X135482D01*
Y267429D01*
X135429D01*
Y267482D01*
X135268D01*
Y267429D01*
X135214D01*
Y267375D01*
X132482D01*
Y267482D01*
X132268D01*
Y267536D01*
X132000D01*
Y267589D01*
X131839D01*
Y267643D01*
X131625D01*
Y267696D01*
X131518D01*
Y267750D01*
X131357D01*
Y267804D01*
X131250D01*
Y267857D01*
X131143D01*
Y267911D01*
X131089D01*
Y267964D01*
X129964D01*
Y268018D01*
X129804D01*
Y268071D01*
X129696D01*
Y268125D01*
X129643D01*
Y268179D01*
X129589D01*
Y268232D01*
X129536D01*
Y268339D01*
X129482D01*
Y268393D01*
X129429D01*
Y268446D01*
X129321D01*
Y268500D01*
X129268D01*
Y268554D01*
X129161D01*
Y268607D01*
X129107D01*
Y268661D01*
X129054D01*
Y268714D01*
X128946D01*
Y268768D01*
X128679D01*
Y268714D01*
X128304D01*
Y268661D01*
X128196D01*
Y268607D01*
X128089D01*
Y268554D01*
X128036D01*
Y268607D01*
X127929D01*
Y268661D01*
X127821D01*
Y268714D01*
X127768D01*
Y268768D01*
X127661D01*
Y268821D01*
X127607D01*
Y268875D01*
X127500D01*
Y268929D01*
X127393D01*
Y268982D01*
X127339D01*
Y269036D01*
X127286D01*
Y269143D01*
X127232D01*
Y269196D01*
X127179D01*
Y269250D01*
X127125D01*
Y269304D01*
X127071D01*
Y269357D01*
X127018D01*
Y269411D01*
X126964D01*
Y269518D01*
X126911D01*
Y269571D01*
X126857D01*
Y269732D01*
X126750D01*
Y269786D01*
X126375D01*
Y269732D01*
X126268D01*
Y269679D01*
X125893D01*
Y269732D01*
X125786D01*
Y269786D01*
X125679D01*
Y269839D01*
X125625D01*
Y269893D01*
X125571D01*
Y269946D01*
X125464D01*
Y270054D01*
X125357D01*
Y270107D01*
X125304D01*
Y270161D01*
X125143D01*
Y270214D01*
X124982D01*
Y270268D01*
X124875D01*
Y270321D01*
X124821D01*
Y270375D01*
X124768D01*
Y270429D01*
X124661D01*
Y270482D01*
X124554D01*
Y270536D01*
X124446D01*
Y270589D01*
X124393D01*
Y270750D01*
X124339D01*
Y270804D01*
X124286D01*
Y270857D01*
X124125D01*
Y270911D01*
X124071D01*
Y270964D01*
X123911D01*
Y271018D01*
X123857D01*
Y271071D01*
X123750D01*
Y271125D01*
X123696D01*
Y271179D01*
X123643D01*
Y271232D01*
X123536D01*
Y271286D01*
X123482D01*
Y271339D01*
X123429D01*
Y271393D01*
X123268D01*
Y271339D01*
X123214D01*
Y271232D01*
X123161D01*
Y271179D01*
X123107D01*
Y271071D01*
X123054D01*
Y271018D01*
X123000D01*
Y270911D01*
X122946D01*
Y270857D01*
X122893D01*
Y270750D01*
X122839D01*
Y270696D01*
X122786D01*
Y270643D01*
X122732D01*
Y270536D01*
X122679D01*
Y270482D01*
X122625D01*
Y270375D01*
X122571D01*
Y270268D01*
X122518D01*
Y270214D01*
X122464D01*
Y270054D01*
X122411D01*
Y269732D01*
X122357D01*
Y269625D01*
X122304D01*
Y269518D01*
X122250D01*
Y269250D01*
X122196D01*
Y269143D01*
X122143D01*
Y269089D01*
X122089D01*
Y268929D01*
X122036D01*
Y268714D01*
X121982D01*
Y268607D01*
X121875D01*
Y268554D01*
X121554D01*
Y268500D01*
X121446D01*
Y268446D01*
X121339D01*
Y268393D01*
X121179D01*
Y268339D01*
X120750D01*
Y268393D01*
X120589D01*
Y268446D01*
X120482D01*
Y268500D01*
X120429D01*
Y268714D01*
X120482D01*
Y268768D01*
X120589D01*
Y268821D01*
X120696D01*
Y268875D01*
X120804D01*
Y268929D01*
X120911D01*
Y268982D01*
X120964D01*
Y269036D01*
X121071D01*
Y269089D01*
X121125D01*
Y269143D01*
X121179D01*
Y269196D01*
X121232D01*
Y269250D01*
X121286D01*
Y269625D01*
X121339D01*
Y269786D01*
X121393D01*
Y269839D01*
X121446D01*
Y269893D01*
X121500D01*
Y269946D01*
X121554D01*
Y270054D01*
X121607D01*
Y270161D01*
X121661D01*
Y270268D01*
X121714D01*
Y270321D01*
X121768D01*
Y270375D01*
X121821D01*
Y270429D01*
X121875D01*
Y270482D01*
X121929D01*
Y270589D01*
X121982D01*
Y270643D01*
X122036D01*
Y270750D01*
X122089D01*
Y270964D01*
X122143D01*
Y271071D01*
X122196D01*
Y271179D01*
X122250D01*
Y271339D01*
X122304D01*
Y271446D01*
X122357D01*
Y271661D01*
X122411D01*
Y271768D01*
X122464D01*
Y271875D01*
X122518D01*
Y272036D01*
X122464D01*
Y272089D01*
X122411D01*
Y272143D01*
X122357D01*
Y272196D01*
X122304D01*
Y272250D01*
X122250D01*
Y272304D01*
X122143D01*
Y272357D01*
X122089D01*
Y272411D01*
X122036D01*
Y272464D01*
X121982D01*
Y272518D01*
X121929D01*
Y272571D01*
X121875D01*
Y272625D01*
X121821D01*
Y272679D01*
X121714D01*
Y272732D01*
X121661D01*
Y272786D01*
X121607D01*
Y272839D01*
X121554D01*
Y272893D01*
X121500D01*
Y272946D01*
X121446D01*
Y273000D01*
X121393D01*
Y273054D01*
X121339D01*
Y273107D01*
X121286D01*
Y273161D01*
X121179D01*
Y273268D01*
X121071D01*
Y273321D01*
X121018D01*
Y273375D01*
X120964D01*
Y273429D01*
X120911D01*
Y273482D01*
X120857D01*
Y273536D01*
X120750D01*
Y273589D01*
X120696D01*
Y273643D01*
X120643D01*
Y273696D01*
X120589D01*
Y273804D01*
X120536D01*
Y274179D01*
X120589D01*
Y274339D01*
X120643D01*
Y274393D01*
X120696D01*
Y274446D01*
X120750D01*
Y274500D01*
X120804D01*
Y274554D01*
X120857D01*
Y274607D01*
X121339D01*
Y274554D01*
X121446D01*
Y274500D01*
X121500D01*
Y274446D01*
X121554D01*
Y274393D01*
X121607D01*
Y274339D01*
X121714D01*
Y274286D01*
X121875D01*
Y274232D01*
X121982D01*
Y274179D01*
X122143D01*
Y274125D01*
X122464D01*
Y274071D01*
X122732D01*
Y274018D01*
X123161D01*
Y274071D01*
X123268D01*
Y274125D01*
X123375D01*
Y274179D01*
X123429D01*
Y274232D01*
X123482D01*
Y274286D01*
X123536D01*
Y274232D01*
X123804D01*
Y274286D01*
X124018D01*
Y274339D01*
X124125D01*
Y274446D01*
X124179D01*
Y274554D01*
X124393D01*
Y274607D01*
X124500D01*
Y274554D01*
X124607D01*
Y274607D01*
X124661D01*
Y274768D01*
X124714D01*
Y274821D01*
X125036D01*
Y274875D01*
X125089D01*
Y274929D01*
X125036D01*
Y274982D01*
X124982D01*
Y275089D01*
X125304D01*
Y275143D01*
X125357D01*
Y275304D01*
X125411D01*
Y275357D01*
X125518D01*
Y275464D01*
X125411D01*
Y275518D01*
X125357D01*
Y275571D01*
X125411D01*
Y275625D01*
X125464D01*
Y275679D01*
X125679D01*
Y275625D01*
X125839D01*
Y275571D01*
X126161D01*
Y275625D01*
X126268D01*
Y275679D01*
X126643D01*
Y275625D01*
X127071D01*
Y275571D01*
X127607D01*
Y275518D01*
X127714D01*
Y275464D01*
X127821D01*
Y275411D01*
X127875D01*
Y275357D01*
X127929D01*
Y275304D01*
X127982D01*
Y275196D01*
X128036D01*
Y275143D01*
X128089D01*
Y275089D01*
X128143D01*
Y275036D01*
X128196D01*
Y274982D01*
X128357D01*
Y274929D01*
X128571D01*
Y274875D01*
X128679D01*
Y274821D01*
X128786D01*
Y274768D01*
X128839D01*
Y274714D01*
X128893D01*
Y274661D01*
X129000D01*
Y274607D01*
X129161D01*
Y274554D01*
X129321D01*
Y274500D01*
X129375D01*
Y274446D01*
X129429D01*
Y274393D01*
X129482D01*
Y274339D01*
X129429D01*
Y274286D01*
X129375D01*
Y274232D01*
X129268D01*
Y274286D01*
X129161D01*
Y274339D01*
X129054D01*
Y274393D01*
X128893D01*
Y274446D01*
X128786D01*
Y274500D01*
X128732D01*
Y274554D01*
X128679D01*
Y274607D01*
X128464D01*
Y274554D01*
X128196D01*
Y274500D01*
X128143D01*
Y274446D01*
X128036D01*
Y274393D01*
X127982D01*
Y274286D01*
X127929D01*
Y274125D01*
X127875D01*
Y273964D01*
X127821D01*
Y273643D01*
X127768D01*
Y273268D01*
X127821D01*
Y273161D01*
X127875D01*
Y273054D01*
X127929D01*
Y272946D01*
X127982D01*
Y272893D01*
X128036D01*
Y272786D01*
X128143D01*
Y272679D01*
X128250D01*
Y272625D01*
X128304D01*
Y272571D01*
X128357D01*
Y272518D01*
X128411D01*
Y272464D01*
X128518D01*
Y272411D01*
X128625D01*
Y272357D01*
X128679D01*
Y272304D01*
X128786D01*
Y272250D01*
X129000D01*
Y272196D01*
X129107D01*
Y272143D01*
X129268D01*
Y272089D01*
X129429D01*
Y272036D01*
X129643D01*
Y271982D01*
X130661D01*
Y272036D01*
X130875D01*
Y272089D01*
X131036D01*
Y272143D01*
X131196D01*
Y272089D01*
X131250D01*
Y271982D01*
X131304D01*
Y271929D01*
X131357D01*
Y271875D01*
X131464D01*
Y272036D01*
X131411D01*
Y272089D01*
X131357D01*
Y272196D01*
X131304D01*
Y272357D01*
X131357D01*
Y272464D01*
X131411D01*
Y272571D01*
X131464D01*
Y272946D01*
X131411D01*
Y273000D01*
X131357D01*
Y273054D01*
X131304D01*
Y272732D01*
X131250D01*
Y272625D01*
X131196D01*
Y272571D01*
X131036D01*
Y272625D01*
X130982D01*
Y272839D01*
X131036D01*
Y272946D01*
X131089D01*
Y273321D01*
X131036D01*
Y273375D01*
X130929D01*
Y273268D01*
X130982D01*
Y273000D01*
X130929D01*
Y272946D01*
X130875D01*
Y272893D01*
X130821D01*
Y272946D01*
X130768D01*
Y273000D01*
X130714D01*
Y273268D01*
X130768D01*
Y273321D01*
X130875D01*
Y273429D01*
X130821D01*
Y273482D01*
X130768D01*
Y273643D01*
X131196D01*
Y273696D01*
X131411D01*
Y273750D01*
X131518D01*
Y273804D01*
X131679D01*
Y273857D01*
X131732D01*
Y273911D01*
X131839D01*
Y273964D01*
X131946D01*
Y274018D01*
X132000D01*
Y274071D01*
X132054D01*
Y274125D01*
X132107D01*
Y274179D01*
X132161D01*
Y274232D01*
X132214D01*
Y274286D01*
X132268D01*
Y274339D01*
X132321D01*
Y274393D01*
X132375D01*
Y274500D01*
X132429D01*
Y274607D01*
X132482D01*
Y274714D01*
X132536D01*
Y274875D01*
X132589D01*
Y275143D01*
X132643D01*
Y275357D01*
X132696D01*
Y275464D01*
X132750D01*
Y275839D01*
X132696D01*
Y275893D01*
X132536D01*
Y275946D01*
X132375D01*
Y276000D01*
X132161D01*
Y276054D01*
X132107D01*
Y276107D01*
X132054D01*
Y276161D01*
X132000D01*
Y276482D01*
X132054D01*
Y276696D01*
X132107D01*
Y276750D01*
X132429D01*
Y276804D01*
X132643D01*
Y276857D01*
X132911D01*
Y276911D01*
X133446D01*
Y276857D01*
X133607D01*
Y276804D01*
X133982D01*
Y276750D01*
X134089D01*
Y276696D01*
X134196D01*
Y276643D01*
X134250D01*
Y276589D01*
X134357D01*
Y276536D01*
X134411D01*
Y276482D01*
X134518D01*
Y276429D01*
X134625D01*
Y276375D01*
X134732D01*
Y276321D01*
X134839D01*
Y276268D01*
X135000D01*
Y276214D01*
X135107D01*
Y276161D01*
X135321D01*
Y276321D01*
X135268D01*
Y276375D01*
X135214D01*
Y276536D01*
X135161D01*
Y276643D01*
X135107D01*
Y276804D01*
X135054D01*
Y276911D01*
X135000D01*
Y276964D01*
X134946D01*
Y277018D01*
X134839D01*
Y277071D01*
X134786D01*
Y277179D01*
X135000D01*
Y277125D01*
X135161D01*
Y277179D01*
X135214D01*
Y277232D01*
X135268D01*
Y277286D01*
X135375D01*
Y277232D01*
D02*
G37*
G36*
X124929Y276536D02*
X125036D01*
Y276375D01*
X125089D01*
Y276000D01*
X125036D01*
Y275786D01*
X124982D01*
Y275625D01*
X124929D01*
Y275571D01*
X124821D01*
Y275464D01*
X124768D01*
Y275411D01*
X124714D01*
Y275304D01*
X124661D01*
Y275250D01*
X124554D01*
Y275196D01*
X124500D01*
Y275143D01*
X124446D01*
Y275089D01*
X124393D01*
Y274982D01*
X124446D01*
Y274875D01*
X124393D01*
Y274821D01*
X124339D01*
Y274768D01*
X124232D01*
Y274875D01*
X124125D01*
Y274821D01*
X124071D01*
Y274714D01*
X124125D01*
Y274607D01*
X123911D01*
Y274661D01*
X123750D01*
Y274607D01*
X123696D01*
Y274554D01*
X123589D01*
Y274500D01*
X123536D01*
Y274446D01*
X123482D01*
Y274339D01*
X123375D01*
Y274393D01*
X123321D01*
Y274446D01*
X122679D01*
Y274500D01*
X122625D01*
Y274554D01*
X122571D01*
Y274929D01*
X122625D01*
Y275089D01*
X122679D01*
Y275196D01*
X122732D01*
Y275304D01*
X122786D01*
Y275679D01*
X122732D01*
Y276054D01*
X122786D01*
Y276107D01*
X122839D01*
Y276214D01*
X122893D01*
Y276268D01*
X122946D01*
Y276321D01*
X123054D01*
Y276375D01*
X123107D01*
Y276429D01*
X123214D01*
Y276482D01*
X123375D01*
Y276536D01*
X123536D01*
Y276589D01*
X123964D01*
Y276536D01*
X124071D01*
Y276482D01*
X124393D01*
Y276536D01*
X124554D01*
Y276589D01*
X124929D01*
Y276536D01*
D02*
G37*
G36*
X129643Y274339D02*
X129750D01*
Y274286D01*
X129857D01*
Y274179D01*
X129804D01*
Y274125D01*
X129696D01*
Y274179D01*
X129589D01*
Y274286D01*
X129536D01*
Y274393D01*
X129643D01*
Y274339D01*
D02*
G37*
G36*
X130018Y273964D02*
X130071D01*
Y273804D01*
X129911D01*
Y273857D01*
X129857D01*
Y274018D01*
X130018D01*
Y273964D01*
D02*
G37*
G36*
X130286D02*
X130339D01*
Y273911D01*
X130393D01*
Y273857D01*
X130446D01*
Y273804D01*
X130500D01*
Y273696D01*
X130554D01*
Y273643D01*
X130607D01*
Y273536D01*
X130661D01*
Y273321D01*
X130607D01*
Y273268D01*
X130500D01*
Y273321D01*
X130446D01*
Y273375D01*
X130393D01*
Y273429D01*
X130339D01*
Y273482D01*
X130286D01*
Y273536D01*
X130232D01*
Y273589D01*
X130179D01*
Y274018D01*
X130286D01*
Y273964D01*
D02*
G37*
G36*
X130125Y273268D02*
X130018D01*
Y273321D01*
X129964D01*
Y273375D01*
Y273429D01*
X130125D01*
Y273268D01*
D02*
G37*
G36*
X130446Y272946D02*
X130339D01*
Y273000D01*
X130286D01*
Y273107D01*
X130446D01*
Y272946D01*
D02*
G37*
G36*
X129536Y273750D02*
X129643D01*
Y273643D01*
X129696D01*
Y273536D01*
X129750D01*
Y273482D01*
X129804D01*
Y273375D01*
X129857D01*
Y273321D01*
X129911D01*
Y273054D01*
X129857D01*
Y272946D01*
X129804D01*
Y272786D01*
X129911D01*
Y272893D01*
X129964D01*
Y272946D01*
X130071D01*
Y272893D01*
X130125D01*
Y272839D01*
X130179D01*
Y272625D01*
X130125D01*
Y272571D01*
X130071D01*
Y272357D01*
X130018D01*
Y272304D01*
X129804D01*
Y272357D01*
X129321D01*
Y272411D01*
X129214D01*
Y272464D01*
X129054D01*
Y272518D01*
X128946D01*
Y272571D01*
X128839D01*
Y272625D01*
X128732D01*
Y272679D01*
X128679D01*
Y272839D01*
X128732D01*
Y272946D01*
X128786D01*
Y273054D01*
X128839D01*
Y273107D01*
X128893D01*
Y273161D01*
X128946D01*
Y273268D01*
X129000D01*
Y273321D01*
X129054D01*
Y273375D01*
X129107D01*
Y273429D01*
X129161D01*
Y273536D01*
X129321D01*
Y273429D01*
X129375D01*
Y273268D01*
X129429D01*
Y273054D01*
X129482D01*
Y272893D01*
X129536D01*
Y273054D01*
X129482D01*
Y273589D01*
X129429D01*
Y273643D01*
Y273750D01*
X129482D01*
Y273804D01*
X129536D01*
Y273750D01*
D02*
G37*
G36*
X128732Y274286D02*
X128839D01*
Y274232D01*
X128893D01*
Y274179D01*
X129054D01*
Y274125D01*
X129161D01*
Y274071D01*
X129268D01*
Y273964D01*
X129321D01*
Y273911D01*
X129268D01*
Y273857D01*
X129214D01*
Y273804D01*
X129161D01*
Y273750D01*
X129107D01*
Y273696D01*
X129054D01*
Y273643D01*
X129000D01*
Y273589D01*
X128946D01*
Y273536D01*
X128893D01*
Y273482D01*
X128839D01*
Y273375D01*
X128786D01*
Y273321D01*
X128732D01*
Y273268D01*
X128679D01*
Y273161D01*
X128625D01*
Y273107D01*
X128571D01*
Y273000D01*
X128518D01*
Y272946D01*
X128464D01*
Y272893D01*
X128411D01*
Y272946D01*
X128304D01*
Y273054D01*
X128250D01*
Y273107D01*
X128196D01*
Y273214D01*
X128143D01*
Y273321D01*
X128089D01*
Y273482D01*
X128036D01*
Y273804D01*
X128089D01*
Y273964D01*
X128143D01*
Y274018D01*
X128196D01*
Y274071D01*
X128250D01*
Y274179D01*
X128357D01*
Y274232D01*
X128411D01*
Y274286D01*
X128464D01*
Y274339D01*
X128732D01*
Y274286D01*
D02*
G37*
G36*
X130661Y272786D02*
X130714D01*
Y272625D01*
X130661D01*
Y272571D01*
X130446D01*
Y272625D01*
X130339D01*
Y272679D01*
X130286D01*
Y272732D01*
X130339D01*
Y272786D01*
X130393D01*
Y272839D01*
X130661D01*
Y272786D01*
D02*
G37*
G36*
X130875Y272464D02*
X130929D01*
Y272411D01*
X130875D01*
Y272357D01*
X130661D01*
Y272518D01*
X130875D01*
Y272464D01*
D02*
G37*
G36*
X130286D02*
X130393D01*
Y272411D01*
X130500D01*
Y272357D01*
X130607D01*
Y272304D01*
X130554D01*
Y272250D01*
X130232D01*
Y272304D01*
X130179D01*
Y272464D01*
X130232D01*
Y272518D01*
X130286D01*
Y272464D01*
D02*
G37*
%LPC*%
G36*
X126321Y275464D02*
X126268D01*
Y275411D01*
X126214D01*
Y275357D01*
X126268D01*
Y275304D01*
X126375D01*
Y275411D01*
X126321D01*
Y275464D01*
D02*
G37*
G36*
X135964Y275893D02*
X135804D01*
Y275839D01*
X135750D01*
Y275571D01*
X135804D01*
Y275464D01*
X135857D01*
Y275411D01*
X135911D01*
Y275357D01*
X136018D01*
Y275304D01*
X136071D01*
Y275250D01*
X136179D01*
Y275196D01*
X136286D01*
Y275250D01*
X136393D01*
Y275411D01*
X136339D01*
Y275464D01*
X136232D01*
Y275571D01*
X136179D01*
Y275625D01*
X136125D01*
Y275732D01*
X136071D01*
Y275839D01*
X135964D01*
Y275893D01*
D02*
G37*
G36*
X135268Y275571D02*
X135161D01*
Y275518D01*
X135107D01*
Y275411D01*
X135054D01*
Y275357D01*
X135107D01*
Y275304D01*
X135161D01*
Y275250D01*
X135214D01*
Y275196D01*
X135429D01*
Y275143D01*
X135589D01*
Y275250D01*
X135536D01*
Y275357D01*
X135482D01*
Y275411D01*
X135429D01*
Y275464D01*
X135321D01*
Y275518D01*
X135268D01*
Y275571D01*
D02*
G37*
G36*
X124768Y273911D02*
X124607D01*
Y273804D01*
X124768D01*
Y273911D01*
D02*
G37*
G36*
X134464Y272786D02*
X134411D01*
Y272732D01*
X134357D01*
Y272679D01*
X134411D01*
Y272625D01*
X134464D01*
Y272679D01*
X134518D01*
Y272732D01*
X134464D01*
Y272786D01*
D02*
G37*
G36*
X139393Y272143D02*
X139286D01*
Y272089D01*
X139339D01*
Y272036D01*
X139393D01*
Y272089D01*
Y272143D01*
D02*
G37*
G36*
X139661Y271768D02*
X139607D01*
Y271714D01*
X139661D01*
Y271768D01*
D02*
G37*
G36*
X139714Y271661D02*
X139661D01*
Y271607D01*
X139714D01*
Y271500D01*
X139768D01*
Y271607D01*
X139714D01*
Y271661D01*
D02*
G37*
G36*
X132054Y271339D02*
X131946D01*
Y271232D01*
X132000D01*
Y271179D01*
X132054D01*
Y271071D01*
X132107D01*
Y271018D01*
X132161D01*
Y270964D01*
X132214D01*
Y270911D01*
X132268D01*
Y270857D01*
X132321D01*
Y270804D01*
X132375D01*
Y270696D01*
X132429D01*
Y270643D01*
X132482D01*
Y270589D01*
X132857D01*
Y270643D01*
X132911D01*
Y270696D01*
X132857D01*
Y270750D01*
X132804D01*
Y270804D01*
X132750D01*
Y270857D01*
X132643D01*
Y270911D01*
X132589D01*
Y270964D01*
X132482D01*
Y271018D01*
X132375D01*
Y271071D01*
X132321D01*
Y271125D01*
X132268D01*
Y271179D01*
X132214D01*
Y271232D01*
X132107D01*
Y271286D01*
X132054D01*
Y271339D01*
D02*
G37*
G36*
X134946Y270107D02*
X134518D01*
Y270054D01*
X134464D01*
Y270000D01*
Y269946D01*
X134839D01*
Y270000D01*
X135000D01*
Y270054D01*
X134946D01*
Y270107D01*
D02*
G37*
%LPD*%
D10*
X254400Y242622D02*
G03*
X254400Y242622I-300J0D01*
G01*
X246300Y224022D02*
G03*
X246300Y224022I-300J0D01*
G01*
X205000Y181800D02*
G03*
X205000Y181800I-300J0D01*
G01*
X216300Y214472D02*
G03*
X216300Y214472I-300J0D01*
G01*
X204800Y150600D02*
G03*
X204800Y150600I-300J0D01*
G01*
X259500Y251311D02*
Y255889D01*
X248700Y251311D02*
Y255889D01*
X294011Y241300D02*
X295089D01*
X294011Y247600D02*
X295089D01*
X294161Y255650D02*
X295239D01*
X294161Y261950D02*
X295239D01*
X210500Y168011D02*
Y172389D01*
X198900Y168011D02*
Y172389D01*
X304250Y220361D02*
Y222639D01*
X297750Y220361D02*
Y222639D01*
X199750Y264650D02*
X232250D01*
Y233350D02*
Y264650D01*
X199750Y233350D02*
X232250D01*
X199750D02*
Y264650D01*
X146550Y264558D02*
X167810D01*
X146550Y261015D02*
Y264558D01*
X167810Y261015D02*
Y264558D01*
X117810Y220936D02*
Y238259D01*
Y240621D02*
Y257944D01*
Y220936D02*
X129227D01*
X117810Y240621D02*
X129227D01*
X117810Y238259D02*
X129227D01*
X117810Y257944D02*
X129227D01*
Y261015D02*
X193401D01*
X129227Y215739D02*
Y261015D01*
Y215739D02*
X193401D01*
Y261015D01*
X207500Y130150D02*
Y157650D01*
X271500Y130150D02*
Y157650D01*
X207500Y130150D02*
X271500D01*
X207500Y157650D02*
X271500D01*
X146067Y164458D02*
X167327D01*
X146067Y160915D02*
Y164458D01*
X167327Y160915D02*
Y164458D01*
X117327Y120836D02*
Y138159D01*
Y140521D02*
Y157844D01*
Y120836D02*
X128744D01*
X117327Y140521D02*
X128744D01*
X117327Y138159D02*
X128744D01*
X117327Y157844D02*
X128744D01*
Y160915D02*
X192917D01*
X128744Y115639D02*
Y160915D01*
Y115639D02*
X192917D01*
Y160915D01*
D11*
X279894Y157039D02*
G03*
X279894Y157039I-394J0D01*
G01*
X312417Y167921D02*
Y208079D01*
X293913Y167921D02*
Y208079D01*
Y167921D02*
X312417D01*
X293913Y208079D02*
X312417D01*
D12*
X254795Y191856D02*
G03*
X254795Y191856I-492J0D01*
G01*
X301492Y210636D02*
G03*
X301492Y210636I-492J0D01*
G01*
D13*
X183484Y268515D02*
G03*
X183484Y268515I-1500J0D01*
G01*
X183000Y168415D02*
G03*
X183000Y168415I-1500J0D01*
G01*
D14*
X274825Y175386D02*
X279500D01*
X284175D01*
Y193614D01*
X279500D02*
X284175D01*
X274825D02*
X279500D01*
X274825Y175386D02*
Y193614D01*
X279500D02*
Y200504D01*
Y168496D02*
Y175386D01*
X251334Y267333D02*
X250667Y267999D01*
X249334D01*
X248668Y267333D01*
Y264667D01*
X249334Y264001D01*
X250667D01*
X251334Y264667D01*
X255332Y267999D02*
X252666D01*
Y266000D01*
X253999Y266666D01*
X254666D01*
X255332Y266000D01*
Y264667D01*
X254666Y264001D01*
X253333D01*
X252666Y264667D01*
X287669Y238999D02*
Y235001D01*
X290335D01*
X294334Y238999D02*
X291668D01*
Y235001D01*
X294334D01*
X291668Y237000D02*
X293001D01*
X295667Y238999D02*
Y235001D01*
X297666D01*
X298332Y235667D01*
Y238333D01*
X297666Y238999D01*
X295667D01*
X302331Y235001D02*
X299665D01*
X302331Y237666D01*
Y238333D01*
X301664Y238999D01*
X300332D01*
X299665Y238333D01*
X273668Y236001D02*
Y239999D01*
X275667D01*
X276334Y239333D01*
Y238000D01*
X275667Y237334D01*
X273668D01*
X275001D02*
X276334Y236001D01*
X277666Y239999D02*
X280332D01*
Y239333D01*
X277666Y236667D01*
Y236001D01*
X273668Y264001D02*
Y267999D01*
X275667D01*
X276334Y267333D01*
Y266000D01*
X275667Y265334D01*
X273668D01*
X275001D02*
X276334Y264001D01*
X280332Y267999D02*
X277666D01*
Y266000D01*
X278999Y266666D01*
X279666D01*
X280332Y266000D01*
Y264667D01*
X279666Y264001D01*
X278333D01*
X277666Y264667D01*
X288335Y267999D02*
Y264001D01*
X291001D01*
X295000Y267999D02*
X292334D01*
Y264001D01*
X295000D01*
X292334Y266000D02*
X293667D01*
X296333Y267999D02*
Y264001D01*
X298332D01*
X298999Y264667D01*
Y267333D01*
X298332Y267999D01*
X296333D01*
X300332Y264001D02*
X301664D01*
X300998D01*
Y267999D01*
X300332Y267333D01*
X250667Y231334D02*
X250001Y230667D01*
Y229334D01*
X250667Y228668D01*
X253333D01*
X253999Y229334D01*
Y230667D01*
X253333Y231334D01*
X253999Y234666D02*
X250001D01*
X252000Y232666D01*
Y235332D01*
X226334Y171333D02*
X225667Y171999D01*
X224334D01*
X223668Y171333D01*
Y168667D01*
X224334Y168001D01*
X225667D01*
X226334Y168667D01*
X227666Y171333D02*
X228333Y171999D01*
X229666D01*
X230332Y171333D01*
Y170667D01*
X229666Y170000D01*
X228999D01*
X229666D01*
X230332Y169334D01*
Y168667D01*
X229666Y168001D01*
X228333D01*
X227666Y168667D01*
X207667Y183334D02*
X207001Y182667D01*
Y181334D01*
X207667Y180668D01*
X210333D01*
X210999Y181334D01*
Y182667D01*
X210333Y183334D01*
X210999Y187332D02*
Y184667D01*
X208334Y187332D01*
X207667D01*
X207001Y186666D01*
Y185333D01*
X207667Y184667D01*
X237568Y210301D02*
Y214299D01*
X239567D01*
X240234Y213633D01*
Y212300D01*
X239567Y211634D01*
X237568D01*
X238901D02*
X240234Y210301D01*
X244232D02*
X241566D01*
X244232Y212966D01*
Y213633D01*
X243566Y214299D01*
X242233D01*
X241566Y213633D01*
X269500Y176001D02*
X272499D01*
Y177500D01*
X272000Y178000D01*
X270000D01*
X269500Y177500D01*
Y176001D01*
X272499Y179000D02*
Y179999D01*
Y179499D01*
X269500D01*
X270000Y179000D01*
X309999Y217668D02*
X306001D01*
Y219667D01*
X306667Y220334D01*
X308000D01*
X308666Y219667D01*
Y217668D01*
Y219001D02*
X309999Y220334D01*
Y223666D02*
X306001D01*
X308000Y221667D01*
Y224332D01*
X207667Y223000D02*
X207001Y222334D01*
Y221001D01*
X207667Y220334D01*
X210333D01*
X210999Y221001D01*
Y222334D01*
X210333Y223000D01*
X210999Y224333D02*
Y225666D01*
Y224999D01*
X207001D01*
X207667Y224333D01*
X234999Y223334D02*
X231001D01*
Y225334D01*
X231667Y226000D01*
X233000D01*
X233666Y225334D01*
Y223334D01*
Y224667D02*
X234999Y226000D01*
Y227333D02*
Y228666D01*
Y227999D01*
X231001D01*
X231667Y227333D01*
X245334Y171499D02*
Y168167D01*
X246001Y167501D01*
X247334D01*
X248000Y168167D01*
Y171499D01*
X249333Y167501D02*
X250666D01*
X249999D01*
Y171499D01*
X249333Y170833D01*
X227334Y270499D02*
Y266501D01*
X230000D01*
X231333D02*
X232666D01*
X231999D01*
Y270499D01*
X231333Y269833D01*
X303500Y164333D02*
Y161667D01*
X304166Y161001D01*
X305499D01*
X306166Y161667D01*
Y164333D01*
X305499Y164999D01*
X304166D01*
X304833Y163666D02*
X303500Y164999D01*
X304166D02*
X303500Y164333D01*
X302167Y164999D02*
X300834D01*
X301501D01*
Y161001D01*
X302167Y161667D01*
X189333Y271499D02*
X188001D01*
X188667D01*
Y268167D01*
X188001Y267501D01*
X187334D01*
X186668Y268167D01*
X193332Y267501D02*
X190666D01*
X193332Y270166D01*
Y270833D01*
X192666Y271499D01*
X191333D01*
X190666Y270833D01*
X191000Y112999D02*
X189667D01*
X190333D01*
Y109667D01*
X189667Y109001D01*
X189001D01*
X188334Y109667D01*
X192333Y109001D02*
X193666D01*
X192999D01*
Y112999D01*
X192333Y112333D01*
X202700Y158699D02*
X200034D01*
Y156700D01*
X201367D01*
X200034D01*
Y154701D01*
X204033D02*
X205366D01*
X204699D01*
Y158699D01*
X204033Y158033D01*
D15*
X245248Y189100D02*
X257453D01*
X245248Y176895D02*
Y189100D01*
X257453Y176895D02*
Y189100D01*
X245248Y176895D02*
X257453D01*
X257354Y176502D02*
X257827D01*
X257846D02*
Y176974D01*
Y189021D02*
Y189494D01*
X244815Y176502D02*
X245287D01*
X244854Y189021D02*
Y189494D01*
X244815Y176502D02*
Y176974D01*
X244854Y189494D02*
X245327D01*
X256665D02*
X257846D01*
D16*
X262934Y189200D02*
Y191200D01*
X263934D01*
X264267Y190866D01*
Y190200D01*
X263934Y189867D01*
X262934D01*
X263600D02*
X264267Y189200D01*
X264933Y190866D02*
X265266Y191200D01*
X265933D01*
X266266Y190866D01*
Y190533D01*
X265933Y190200D01*
X265600D01*
X265933D01*
X266266Y189867D01*
Y189534D01*
X265933Y189200D01*
X265266D01*
X264933Y189534D01*
X236874Y196892D02*
X236541Y196559D01*
Y195893D01*
X236874Y195559D01*
X238207D01*
X238540Y195893D01*
Y196559D01*
X238207Y196892D01*
X236541Y198891D02*
X236874Y198225D01*
X237540Y197559D01*
X238207D01*
X238540Y197892D01*
Y198558D01*
X238207Y198891D01*
X237873D01*
X237540Y198558D01*
Y197559D01*
D17*
X309999Y247998D02*
X306000D01*
Y242000D01*
X309999D01*
X306000Y244999D02*
X307999D01*
X311998Y245999D02*
Y242000D01*
Y243999D01*
X312998Y244999D01*
X313997Y245999D01*
X314997D01*
X317996D02*
Y242000D01*
Y243999D01*
X318996Y244999D01*
X319995Y245999D01*
X320995D01*
X324994Y242000D02*
X326993D01*
X327993Y243000D01*
Y244999D01*
X326993Y245999D01*
X324994D01*
X323994Y244999D01*
Y243000D01*
X324994Y242000D01*
X329992Y245999D02*
Y242000D01*
Y243999D01*
X330992Y244999D01*
X331992Y245999D01*
X332991D01*
X306000Y256000D02*
Y261998D01*
X308999D01*
X309999Y260998D01*
Y258999D01*
X308999Y257999D01*
X306000D01*
X312998Y256000D02*
X314997D01*
X315997Y257000D01*
Y258999D01*
X314997Y259999D01*
X312998D01*
X311998Y258999D01*
Y257000D01*
X312998Y256000D01*
X317996Y259999D02*
Y257000D01*
X318996Y256000D01*
X319995Y257000D01*
X320995Y256000D01*
X321995Y257000D01*
Y259999D01*
X326993Y256000D02*
X324994D01*
X323994Y257000D01*
Y258999D01*
X324994Y259999D01*
X326993D01*
X327993Y258999D01*
Y257999D01*
X323994D01*
X329992Y259999D02*
Y256000D01*
Y257999D01*
X330992Y258999D01*
X331992Y259999D01*
X332991D01*
X207500Y110000D02*
X208500Y109000D01*
X210499D01*
X211499Y110000D01*
Y113998D01*
X210499Y114998D01*
X208500D01*
X207500Y113998D01*
Y112999D01*
X208500Y111999D01*
X211499D01*
X213498D02*
X217497D01*
X223495Y109000D02*
X219496D01*
X223495Y112999D01*
Y113998D01*
X222495Y114998D01*
X220496D01*
X219496Y113998D01*
X228493Y109000D02*
Y114998D01*
X225494Y111999D01*
X229493D01*
X231492Y114998D02*
Y110999D01*
X233492Y109000D01*
X235491Y110999D01*
Y114998D01*
X244488Y113998D02*
Y112999D01*
X243488D01*
X245488D01*
X244488D01*
Y110000D01*
X245488Y109000D01*
X249486D02*
X251486D01*
X252485Y110000D01*
Y111999D01*
X251486Y112999D01*
X249486D01*
X248487Y111999D01*
Y110000D01*
X249486Y109000D01*
X264482Y114998D02*
X260483D01*
Y111999D01*
X262482Y112999D01*
X263482D01*
X264482Y111999D01*
Y110000D01*
X263482Y109000D01*
X261483D01*
X260483Y110000D01*
X266481Y114998D02*
Y110999D01*
X268480Y109000D01*
X270480Y110999D01*
Y114998D01*
X278477D02*
Y109000D01*
X287474D02*
X289474D01*
X288474D01*
Y114998D01*
X287474Y113998D01*
X292473D02*
X293472Y114998D01*
X295472D01*
X296471Y113998D01*
Y110000D01*
X295472Y109000D01*
X293472D01*
X292473Y110000D01*
Y113998D01*
X298471Y109000D02*
Y112999D01*
X300470Y114998D01*
X302469Y112999D01*
Y109000D01*
Y111999D01*
X298471D01*
X211499Y122998D02*
X210499Y123998D01*
X208500D01*
X207500Y122998D01*
Y119000D01*
X208500Y118000D01*
X210499D01*
X211499Y119000D01*
X213498Y118000D02*
X215497D01*
X214498D01*
Y123998D01*
X213498D01*
X219496Y118000D02*
X221496D01*
X222495Y119000D01*
Y120999D01*
X221496Y121999D01*
X219496D01*
X218496Y120999D01*
Y119000D01*
X219496Y118000D01*
X224495Y121999D02*
Y119000D01*
X225494Y118000D01*
X228493D01*
Y121999D01*
X234491Y123998D02*
Y118000D01*
X231492D01*
X230493Y119000D01*
Y120999D01*
X231492Y121999D01*
X234491D01*
X242489Y118000D02*
X244488D01*
X243488D01*
Y123998D01*
X242489Y122998D01*
X247487Y118000D02*
Y119000D01*
X248487D01*
Y118000D01*
X247487D01*
X256484D02*
X252485D01*
X256484Y121999D01*
Y122998D01*
X255485Y123998D01*
X253485D01*
X252485Y122998D01*
X264482Y123998D02*
Y118000D01*
X273479Y123998D02*
Y118000D01*
X276478D01*
X277477Y119000D01*
Y122998D01*
X276478Y123998D01*
X273479D01*
X283475Y122998D02*
X282476Y123998D01*
X280476D01*
X279477Y122998D01*
Y119000D01*
X280476Y118000D01*
X282476D01*
X283475Y119000D01*
X285475Y120999D02*
X289474D01*
X291473Y123998D02*
Y118000D01*
X294472D01*
X295472Y119000D01*
Y122998D01*
X294472Y123998D01*
X291473D01*
X301470Y122998D02*
X300470Y123998D01*
X298471D01*
X297471Y122998D01*
Y119000D01*
X298471Y118000D01*
X300470D01*
X301470Y119000D01*
X309467Y123998D02*
Y118000D01*
X312466D01*
X313466Y119000D01*
Y119999D01*
X312466Y120999D01*
X309467D01*
X312466D01*
X313466Y121999D01*
Y122998D01*
X312466Y123998D01*
X309467D01*
X315465Y121999D02*
Y119000D01*
X316465Y118000D01*
X319464D01*
Y121999D01*
X325462D02*
X322463D01*
X321463Y120999D01*
Y119000D01*
X322463Y118000D01*
X325462D01*
X327461D02*
Y123998D01*
Y119999D02*
X330460Y121999D01*
X327461Y119999D02*
X330460Y118000D01*
D18*
X274800Y226299D02*
Y223966D01*
X275966Y222800D01*
X277133Y223966D01*
Y226299D01*
X278882Y222800D02*
X280048D01*
X280631Y223383D01*
Y224549D01*
X280048Y225133D01*
X278882D01*
X278299Y224549D01*
Y223383D01*
X278882Y222800D01*
X281798Y225133D02*
Y223383D01*
X282381Y222800D01*
X284130D01*
Y225133D01*
X285880Y225716D02*
Y225133D01*
X285297D01*
X286463D01*
X285880D01*
Y223383D01*
X286463Y222800D01*
X176800Y191299D02*
Y188966D01*
X177966Y187800D01*
X179133Y188966D01*
Y191299D01*
X180299Y187800D02*
X181465D01*
X180882D01*
Y190133D01*
X180299D01*
X183215Y187800D02*
Y190133D01*
X184964D01*
X185547Y189549D01*
Y187800D01*
X138133Y190716D02*
X137549Y191299D01*
X136383D01*
X135800Y190716D01*
Y188383D01*
X136383Y187800D01*
X137549D01*
X138133Y188383D01*
Y189549D01*
X136966D01*
X139299Y187800D02*
Y191299D01*
X141631Y187800D01*
Y191299D01*
X142798D02*
Y187800D01*
X144547D01*
X145130Y188383D01*
Y190716D01*
X144547Y191299D01*
X142798D01*
D19*
X218498Y262750D02*
X213500D01*
Y259418D01*
Y257752D02*
Y256085D01*
Y256919D01*
X218498D01*
X217665Y257752D01*
X168340Y248795D02*
Y250461D01*
Y249628D01*
X164175D01*
X163342Y250461D01*
Y251294D01*
X164175Y252127D01*
X163342Y243796D02*
Y247129D01*
X166674Y243796D01*
X167507D01*
X168340Y244630D01*
Y246296D01*
X167507Y247129D01*
X229082Y146398D02*
X225750D01*
Y143899D01*
X227416D01*
X225750D01*
Y141400D01*
X230748D02*
X232415D01*
X231581D01*
Y146398D01*
X230748Y145565D01*
X167857Y148695D02*
Y150361D01*
Y149528D01*
X163691D01*
X162858Y150361D01*
Y151194D01*
X163691Y152027D01*
X162858Y147029D02*
Y145363D01*
Y146196D01*
X167857D01*
X167024Y147029D01*
M02*
