G04*
G04 #@! TF.GenerationSoftware,Altium Limited,Altium Designer,26.5.1 (12)*
G04*
G04 Layer_Color=32768*
G04 Board_Origin=0|0*
%FSLAX25Y25*%
%MOIN*%
G70*
G04*
G04 #@! TF.SameCoordinates,FD545783-0337-4B66-9695-0EA922D21319*
G04*
G04*
G04 #@! TF.FilePolarity,Positive*
G04*
G01*
G75*
G36*
X302582Y187996D02*
X302621D01*
X302669Y187991D01*
X302722Y187987D01*
X302779Y187978D01*
X302905Y187956D01*
X303041Y187926D01*
X303185Y187882D01*
X303325Y187821D01*
X303329Y187817D01*
X303342Y187812D01*
X303360Y187803D01*
X303386Y187786D01*
X303417Y187768D01*
X303452Y187747D01*
X303535Y187685D01*
X303622Y187615D01*
X303714Y187524D01*
X303805Y187423D01*
X303884Y187305D01*
X303889Y187301D01*
X303893Y187288D01*
X303902Y187270D01*
X303915Y187244D01*
X303928Y187213D01*
X303945Y187178D01*
X303963Y187135D01*
X303980Y187087D01*
X303998Y187030D01*
X304015Y186973D01*
X304046Y186846D01*
X304068Y186706D01*
X304077Y186632D01*
Y186514D01*
X304072Y186484D01*
Y186444D01*
X304068Y186405D01*
X304059Y186353D01*
X304050Y186300D01*
X304028Y186186D01*
X303993Y186055D01*
X303941Y185929D01*
X303910Y185863D01*
X303875Y185798D01*
X303871Y185793D01*
X303867Y185784D01*
X303854Y185767D01*
X303840Y185741D01*
X303819Y185714D01*
X303792Y185679D01*
X303731Y185605D01*
X303653Y185527D01*
X303556Y185439D01*
X303443Y185356D01*
X303316Y185286D01*
X303312D01*
X303299Y185277D01*
X303281Y185269D01*
X303255Y185260D01*
X303220Y185242D01*
X303181Y185229D01*
X303133Y185212D01*
X303080Y185195D01*
X303023Y185181D01*
X302962Y185164D01*
X302897Y185146D01*
X302827Y185133D01*
X302674Y185116D01*
X302512Y185107D01*
X302508D01*
X302495D01*
X302477D01*
X302451D01*
X302416Y185111D01*
X302377D01*
X302333Y185116D01*
X302289Y185120D01*
X302184Y185133D01*
X302071Y185155D01*
X301953Y185181D01*
X301839Y185221D01*
X301835D01*
X301826Y185225D01*
X301808Y185234D01*
X301791Y185242D01*
X301765Y185256D01*
X301734Y185269D01*
X301664Y185304D01*
X301581Y185352D01*
X301494Y185413D01*
X301406Y185483D01*
X301319Y185562D01*
Y185557D01*
X301310Y185548D01*
X301302Y185535D01*
X301288Y185513D01*
X301271Y185492D01*
X301254Y185461D01*
X301214Y185396D01*
X301166Y185317D01*
X301118Y185229D01*
X301079Y185138D01*
X301039Y185050D01*
X300764Y185168D01*
Y185173D01*
X300768Y185181D01*
X300777Y185199D01*
X300786Y185225D01*
X300799Y185256D01*
X300816Y185291D01*
X300834Y185330D01*
X300856Y185374D01*
X300908Y185470D01*
X300969Y185579D01*
X301048Y185697D01*
X301135Y185819D01*
Y185824D01*
X301127Y185833D01*
X301118Y185854D01*
X301105Y185876D01*
X301092Y185911D01*
X301074Y185946D01*
X301061Y185990D01*
X301044Y186038D01*
X301026Y186090D01*
X301009Y186147D01*
X300978Y186274D01*
X300956Y186414D01*
X300952Y186488D01*
X300948Y186562D01*
Y186602D01*
X300952Y186632D01*
Y186667D01*
X300956Y186711D01*
X300965Y186759D01*
X300974Y186811D01*
X300996Y186925D01*
X301031Y187052D01*
X301079Y187183D01*
X301109Y187244D01*
X301144Y187310D01*
X301149Y187314D01*
X301153Y187323D01*
X301166Y187340D01*
X301179Y187362D01*
X301201Y187393D01*
X301227Y187423D01*
X301288Y187497D01*
X301367Y187581D01*
X301463Y187663D01*
X301572Y187747D01*
X301699Y187821D01*
X301704D01*
X301717Y187830D01*
X301734Y187838D01*
X301760Y187847D01*
X301795Y187860D01*
X301835Y187878D01*
X301883Y187895D01*
X301935Y187908D01*
X301992Y187926D01*
X302053Y187943D01*
X302119Y187956D01*
X302193Y187974D01*
X302346Y187991D01*
X302508Y188000D01*
X302512D01*
X302530D01*
X302551D01*
X302582Y187996D01*
D02*
G37*
G36*
X303277Y184434D02*
X303286Y184425D01*
X303290Y184408D01*
X303303Y184386D01*
X303316Y184360D01*
X303334Y184329D01*
X303377Y184255D01*
X303425Y184168D01*
X303486Y184080D01*
X303556Y183988D01*
X303631Y183897D01*
X303635Y183892D01*
X303640Y183888D01*
X303653Y183875D01*
X303666Y183857D01*
X303709Y183818D01*
X303762Y183765D01*
X303823Y183713D01*
X303893Y183656D01*
X303963Y183608D01*
X304037Y183564D01*
Y183324D01*
X301000D01*
Y183696D01*
X303364D01*
X303360Y183700D01*
X303342Y183722D01*
X303316Y183748D01*
X303286Y183792D01*
X303246Y183840D01*
X303203Y183901D01*
X303154Y183971D01*
X303106Y184049D01*
Y184054D01*
X303102Y184058D01*
X303084Y184084D01*
X303063Y184128D01*
X303036Y184181D01*
X303006Y184242D01*
X302975Y184307D01*
X302945Y184373D01*
X302918Y184438D01*
X303277D01*
Y184434D01*
D02*
G37*
%LPC*%
G36*
X302508Y187589D02*
X302499D01*
X302481D01*
X302451D01*
X302412Y187585D01*
X302363Y187581D01*
X302307Y187572D01*
X302241Y187563D01*
X302175Y187554D01*
X302027Y187519D01*
X301953Y187497D01*
X301878Y187467D01*
X301804Y187436D01*
X301734Y187397D01*
X301664Y187353D01*
X301603Y187301D01*
X301599Y187296D01*
X301590Y187288D01*
X301572Y187270D01*
X301555Y187248D01*
X301529Y187218D01*
X301503Y187183D01*
X301476Y187144D01*
X301446Y187095D01*
X301415Y187047D01*
X301389Y186990D01*
X301363Y186929D01*
X301337Y186864D01*
X301319Y186790D01*
X301302Y186715D01*
X301293Y186637D01*
X301288Y186554D01*
Y186514D01*
X301293Y186475D01*
X301297Y186422D01*
X301306Y186357D01*
X301323Y186291D01*
X301341Y186217D01*
X301367Y186147D01*
X301372Y186156D01*
X301389Y186178D01*
X301411Y186217D01*
X301437Y186265D01*
X301463Y186326D01*
X301494Y186392D01*
X301520Y186466D01*
X301542Y186545D01*
X301830Y186444D01*
Y186440D01*
X301826Y186427D01*
X301822Y186409D01*
X301813Y186388D01*
X301804Y186357D01*
X301791Y186322D01*
X301760Y186243D01*
X301717Y186152D01*
X301669Y186055D01*
X301612Y185964D01*
X301542Y185872D01*
X301546Y185867D01*
X301555Y185854D01*
X301577Y185837D01*
X301603Y185815D01*
X301638Y185789D01*
X301677Y185758D01*
X301725Y185728D01*
X301782Y185693D01*
X301848Y185662D01*
X301922Y185632D01*
X302001Y185601D01*
X302084Y185575D01*
X302180Y185548D01*
X302280Y185531D01*
X302390Y185522D01*
X302508Y185518D01*
X302512D01*
X302525D01*
X302543D01*
X302569D01*
X302604Y185522D01*
X302639D01*
X302682Y185527D01*
X302726Y185535D01*
X302827Y185548D01*
X302936Y185570D01*
X303045Y185601D01*
X303150Y185645D01*
X303154D01*
X303163Y185649D01*
X303176Y185658D01*
X303194Y185666D01*
X303246Y185697D01*
X303307Y185736D01*
X303377Y185789D01*
X303447Y185854D01*
X303517Y185929D01*
X303578Y186012D01*
Y186016D01*
X303587Y186020D01*
X303591Y186033D01*
X303605Y186055D01*
X303613Y186077D01*
X303626Y186103D01*
X303657Y186169D01*
X303683Y186248D01*
X303709Y186339D01*
X303727Y186444D01*
X303731Y186554D01*
Y186597D01*
X303727Y186628D01*
X303723Y186667D01*
X303714Y186711D01*
X303705Y186759D01*
X303692Y186811D01*
X303674Y186872D01*
X303657Y186929D01*
X303631Y186990D01*
X303600Y187056D01*
X303565Y187117D01*
X303521Y187178D01*
X303478Y187240D01*
X303421Y187296D01*
X303417Y187301D01*
X303408Y187310D01*
X303390Y187323D01*
X303364Y187340D01*
X303334Y187366D01*
X303294Y187388D01*
X303246Y187414D01*
X303194Y187441D01*
X303133Y187471D01*
X303063Y187497D01*
X302988Y187519D01*
X302905Y187541D01*
X302818Y187563D01*
X302722Y187576D01*
X302617Y187585D01*
X302508Y187589D01*
D02*
G37*
%LPD*%
M02*
