G04*
G04 #@! TF.GenerationSoftware,Altium Limited,Altium Designer,26.5.1 (12)*
G04*
G04 Layer_Color=8388736*
G04 Board_Origin=0|0*
%FSLAX25Y25*%
%MOIN*%
G70*
G04*
G04 #@! TF.SameCoordinates,FD545783-0337-4B66-9695-0EA922D21319*
G04*
G04*
G04 #@! TF.FilePolarity,Negative*
G04*
G01*
G75*
%ADD20R,0.09800X0.04178*%
%ADD21R,0.03800X0.05300*%
%ADD22R,0.04000X0.04700*%
%ADD23C,0.06000*%
%ADD24R,0.03500X0.03278*%
%ADD25R,0.03959X0.04724*%
%ADD26R,0.23600X0.06100*%
%ADD27R,0.00984X0.02362*%
%ADD28R,0.04800X0.04200*%
%ADD29R,0.10600X0.04900*%
%ADD30R,0.03378X0.03700*%
%ADD31C,0.01378*%
%ADD32R,0.05500X0.03378*%
%ADD33R,0.02000X0.02400*%
%ADD34R,0.03500X0.03778*%
%ADD35R,0.02362X0.00984*%
%ADD36R,0.08268X0.01575*%
%ADD37R,0.06693X0.00984*%
%ADD38C,0.07874*%
%ADD39C,0.07063*%
%ADD40R,0.07063X0.07063*%
%ADD41C,0.07835*%
%ADD42R,0.07835X0.07835*%
%ADD43C,0.11811*%
%ADD44C,0.08300*%
%ADD45R,0.08300X0.08300*%
%ADD46C,0.01500*%
%ADD47C,0.02000*%
%ADD48C,0.03000*%
G36*
X258043Y178667D02*
Y179848D01*
X257846Y180045D01*
X249972D01*
X249776Y179848D01*
Y178470D01*
X249874D01*
Y176462D01*
X250071Y176265D01*
X250661D01*
X250858Y176462D01*
Y178470D01*
X251842D01*
Y176462D01*
X252039Y176265D01*
X252630D01*
X252827Y176462D01*
Y178470D01*
X253811D01*
Y176462D01*
X254008Y176265D01*
X254598D01*
X254795Y176462D01*
Y178273D01*
X254992Y178470D01*
X257846D01*
X258043Y178667D01*
D02*
G37*
D20*
X254100Y248011D02*
D03*
Y259189D02*
D03*
D21*
X290900Y244450D02*
D03*
X298200D02*
D03*
X291050Y258800D02*
D03*
X298350D02*
D03*
D22*
X277350Y245000D02*
D03*
X270650D02*
D03*
X270850Y258800D02*
D03*
X277550D02*
D03*
D23*
X270000Y225000D02*
D03*
X150000Y190000D02*
D03*
X190000D02*
D03*
D24*
X246000Y235039D02*
D03*
Y228961D02*
D03*
D25*
X239643Y218600D02*
D03*
X246357D02*
D03*
D26*
X216000Y259250D02*
D03*
Y238750D02*
D03*
D27*
X248398Y188509D02*
D03*
X250366D02*
D03*
X254303D02*
D03*
X252335D02*
D03*
D28*
X217700Y170950D02*
D03*
Y164450D02*
D03*
D29*
X204700Y164350D02*
D03*
Y176050D02*
D03*
D30*
X240461Y206500D02*
D03*
X246339D02*
D03*
D31*
X254500Y179100D02*
D03*
D32*
X301000Y217461D02*
D03*
Y225539D02*
D03*
D33*
X240500Y198150D02*
D03*
Y193850D02*
D03*
D34*
X216000Y219661D02*
D03*
Y225339D02*
D03*
D35*
X245839Y186659D02*
D03*
Y179572D02*
D03*
X256862Y186659D02*
D03*
D36*
X253909Y183824D02*
D03*
D37*
X248004Y181541D02*
D03*
D38*
X181983Y250385D02*
D03*
X149700D02*
D03*
X181500Y130600D02*
D03*
X149216D02*
D03*
X181983Y230700D02*
D03*
X149700D02*
D03*
X149216Y150285D02*
D03*
X181500D02*
D03*
D39*
X279500Y204894D02*
D03*
D40*
Y164106D02*
D03*
D41*
X301000Y178000D02*
D03*
Y188000D02*
D03*
D42*
Y198000D02*
D03*
D43*
X107500Y275000D02*
D03*
X332500D02*
D03*
Y107500D02*
D03*
X107500D02*
D03*
D44*
X259000Y150600D02*
D03*
Y137200D02*
D03*
X220000D02*
D03*
D45*
Y150600D02*
D03*
D46*
X249000Y192000D02*
D03*
X248398Y188509D02*
D03*
X240461Y206500D02*
D03*
X240500Y198150D02*
D03*
X266100Y186700D02*
D03*
D47*
X254100Y248011D02*
D03*
X298200Y244450D02*
D03*
X253909Y183824D02*
D03*
X298350Y258800D02*
D03*
D48*
X301000Y225539D02*
D03*
X217700Y170950D02*
D03*
X204700Y176050D02*
D03*
M02*
