M48
;Layer_Color=9474304
;FILE_FORMAT=2:5
INCH,LZ
;TYPE=PLATED
T01F00S00C0.00600
T02F00S00C0.00750
T03F00S00C0.01000
T04F00S00C0.01500
T05F00S00C0.04173
T06F00S00C0.05118
T07F00S00C0.05472
T08F00S00C0.06300
T09F00S00C0.07874
%
T01
X0248398Y0188509
T02
X02405Y019815
X0240461Y02065
X0249Y0192
X02661Y01867
T03
X0253909Y0183824
X02541Y0248011
X02982Y024445
X029835Y02588
T04
X02047Y017605
X02177Y017095
X0301Y0225539
T05
X02795Y0164106
Y0204894
T06
X0149216Y01306
Y0150285
X01815
Y01306
X0181983Y02307
Y0250385
X01497
Y02307
T07
X0301Y0178
Y0188
Y0198
T08
X022Y01372
Y01506
X0259
Y01372
T09
X01075Y01075
X03325
Y0275
X01075
M30
