G04*
G04 #@! TF.GenerationSoftware,Altium Limited,Altium Designer,26.5.1 (12)*
G04*
G04 Layer_Color=16711935*
G04 Board_Origin=0|0*
%FSLAX25Y25*%
%MOIN*%
G70*
G04*
G04 #@! TF.SameCoordinates,FD545783-0337-4B66-9695-0EA922D21319*
G04*
G04*
G04 #@! TF.FilePolarity,Negative*
G04*
G01*
G75*
%ADD38C,0.07874*%
%ADD39C,0.07063*%
%ADD40R,0.07063X0.07063*%
%ADD41C,0.07835*%
%ADD42R,0.07835X0.07835*%
%ADD43C,0.11811*%
%ADD44C,0.08300*%
%ADD45R,0.08300X0.08300*%
%ADD46C,0.01500*%
%ADD47C,0.02000*%
%ADD48C,0.03000*%
D38*
X181983Y250385D02*
D03*
X149700D02*
D03*
X181500Y130600D02*
D03*
X149216D02*
D03*
X181983Y230700D02*
D03*
X149700D02*
D03*
X149216Y150285D02*
D03*
X181500D02*
D03*
D39*
X279500Y204894D02*
D03*
D40*
Y164106D02*
D03*
D41*
X301000Y178000D02*
D03*
Y188000D02*
D03*
D42*
Y198000D02*
D03*
D43*
X107500Y275000D02*
D03*
X332500D02*
D03*
Y107500D02*
D03*
X107500D02*
D03*
D44*
X259000Y150600D02*
D03*
Y137200D02*
D03*
X220000D02*
D03*
D45*
Y150600D02*
D03*
D46*
X249000Y192000D02*
D03*
X248398Y188509D02*
D03*
X240461Y206500D02*
D03*
X240500Y198150D02*
D03*
X266100Y186700D02*
D03*
D47*
X254100Y248011D02*
D03*
X298200Y244450D02*
D03*
X253909Y183824D02*
D03*
X298350Y258800D02*
D03*
D48*
X301000Y225539D02*
D03*
X217700Y170950D02*
D03*
X204700Y176050D02*
D03*
M02*
