G04*
G04 #@! TF.GenerationSoftware,Altium Limited,Altium Designer,26.5.1 (12)*
G04*
G04 Layer_Color=2752767*
G04 Board_Origin=0|0*
%FSLAX25Y25*%
%MOIN*%
G70*
G04*
G04 #@! TF.SameCoordinates,FD545783-0337-4B66-9695-0EA922D21319*
G04*
G04*
G04 #@! TF.FilePolarity,Positive*
G04*
G01*
G75*
%ADD14C,0.00500*%
%ADD60C,0.00667*%
D14*
X179983Y248385D02*
Y252385D01*
X183984D01*
Y248385D01*
X179983D01*
X147700D02*
Y252385D01*
X151700D01*
Y248385D01*
X147700D01*
X279500Y202894D02*
X280500Y203894D01*
X281500D01*
X280500Y204894D01*
X281500Y205894D01*
X280500D01*
X279500Y206894D01*
X278500Y205894D01*
X277500D01*
X278500Y204894D01*
X277500Y203894D01*
X278500D01*
X279500Y202894D01*
Y162106D02*
X280500Y163106D01*
X281500D01*
X280500Y164106D01*
X281500Y165106D01*
X280500D01*
X279500Y166106D01*
X278500Y165106D01*
X277500D01*
X278500Y164106D01*
X277500Y163106D01*
X278500D01*
X279500Y162106D01*
X301000Y176000D02*
X299000Y180000D01*
X303000D01*
X301000Y176000D01*
Y196000D02*
X299000Y200000D01*
X303000D01*
X301000Y196000D01*
X179500Y128600D02*
Y132600D01*
X183500D01*
Y128600D01*
X179500D01*
X147216D02*
Y132600D01*
X151216D01*
Y128600D01*
X147216D01*
X179983Y228700D02*
Y232700D01*
X183984D01*
Y228700D01*
X179983D01*
X147700D02*
Y232700D01*
X151700D01*
Y228700D01*
X147700D01*
X105500Y273000D02*
Y277000D01*
X109500D01*
Y273000D01*
X105500D01*
X106300Y273800D02*
Y276200D01*
X108700D01*
Y273800D01*
X106300D01*
X330500Y273000D02*
Y277000D01*
X334500D01*
Y273000D01*
X330500D01*
X331300Y273800D02*
Y276200D01*
X333700D01*
Y273800D01*
X331300D01*
X330500Y105500D02*
Y109500D01*
X334500D01*
Y105500D01*
X330500D01*
X331300Y106300D02*
Y108700D01*
X333700D01*
Y106300D01*
X331300D01*
X301000Y186000D02*
X299000Y190000D01*
X303000D01*
X301000Y186000D01*
X147216Y148285D02*
Y152285D01*
X151216D01*
Y148285D01*
X147216D01*
X179500D02*
Y152285D01*
X183500D01*
Y148285D01*
X179500D01*
X105500Y105500D02*
Y109500D01*
X109500D01*
Y105500D01*
X105500D01*
X106300Y106300D02*
Y108700D01*
X108700D01*
Y106300D01*
X106300D01*
X247000Y190000D02*
X248000Y192000D01*
X247000Y194000D01*
X249000Y193000D01*
X251000Y194000D01*
X250000Y192000D01*
X251000Y190000D01*
X249000Y191000D01*
X247000Y190000D01*
X252100Y248011D02*
X254100Y250011D01*
X256100Y248011D01*
X254100Y246011D01*
X252100Y248011D01*
X246398Y186509D02*
X247398D01*
X248398Y187509D01*
X249398Y186509D01*
X250398D01*
Y187509D01*
X249398Y188509D01*
X250398Y189509D01*
Y190509D01*
X249398D01*
X248398Y189509D01*
X247398Y190509D01*
X246398D01*
Y189509D01*
X247398Y188509D01*
X246398Y187509D01*
Y186509D01*
X296200Y244450D02*
X298200Y246450D01*
X300200Y244450D01*
X298200Y242450D01*
X296200Y244450D01*
X300000Y224539D02*
Y223539D01*
X302000D01*
Y224539D01*
X303000D01*
Y226539D01*
X302000D01*
Y227539D01*
X300000D01*
Y226539D01*
X299000D01*
Y224539D01*
X300000D01*
X216700Y169950D02*
Y168950D01*
X218700D01*
Y169950D01*
X219700D01*
Y171950D01*
X218700D01*
Y172950D01*
X216700D01*
Y171950D01*
X215700D01*
Y169950D01*
X216700D01*
X203700Y175050D02*
Y174050D01*
X205700D01*
Y175050D01*
X206700D01*
Y177050D01*
X205700D01*
Y178050D01*
X203700D01*
Y177050D01*
X202700D01*
Y175050D01*
X203700D01*
X238461Y204500D02*
X239461Y206500D01*
X238461Y208500D01*
X240461Y207500D01*
X242461Y208500D01*
X241461Y206500D01*
X242461Y204500D01*
X240461Y205500D01*
X238461Y204500D01*
X238500Y196150D02*
X239500Y198150D01*
X238500Y200150D01*
X240500Y199150D01*
X242500Y200150D01*
X241500Y198150D01*
X242500Y196150D01*
X240500Y197150D01*
X238500Y196150D01*
X264100Y184700D02*
X265100Y186700D01*
X264100Y188700D01*
X266100Y187700D01*
X268100Y188700D01*
X267100Y186700D01*
X268100Y184700D01*
X266100Y185700D01*
X264100Y184700D01*
X251909Y183824D02*
X253909Y185824D01*
X255909Y183824D01*
X253909Y181824D01*
X251909Y183824D01*
X296350Y258800D02*
X298350Y260800D01*
X300350Y258800D01*
X298350Y256800D01*
X296350Y258800D01*
D60*
X261000Y150600D02*
G03*
X261000Y150600I-2000J0D01*
G01*
Y137200D02*
G03*
X261000Y137200I-2000J0D01*
G01*
X222000D02*
G03*
X222000Y137200I-2000J0D01*
G01*
Y150600D02*
G03*
X222000Y150600I-2000J0D01*
G01*
M02*
