G04*
G04 #@! TF.GenerationSoftware,Altium Limited,Altium Designer,26.5.1 (12)*
G04*
G04 Layer_Physical_Order=2*
G04 Layer_Color=16711680*
G04 Board_Origin=0|0*
%FSLAX25Y25*%
%MOIN*%
G70*
G04*
G04 #@! TF.SameCoordinates,FD545783-0337-4B66-9695-0EA922D21319*
G04*
G04*
G04 #@! TF.FilePolarity,Positive*
G04*
G01*
G75*
%ADD38C,0.07874*%
%ADD41C,0.07835*%
%ADD42R,0.07835X0.07835*%
%ADD43C,0.11811*%
%ADD44C,0.08300*%
%ADD45R,0.08300X0.08300*%
%ADD46C,0.01500*%
%ADD47C,0.02000*%
%ADD48C,0.03000*%
%ADD52C,0.03000*%
%ADD53C,0.06260*%
%ADD54R,0.06260X0.06260*%
%ADD55C,0.06000*%
G36*
X340000Y100000D02*
X100000D01*
Y282500D01*
X340000D01*
Y100000D01*
D02*
G37*
%LPC*%
G36*
X333101Y281105D02*
X331899D01*
X330719Y280871D01*
X329608Y280411D01*
X328608Y279743D01*
X327758Y278892D01*
X327089Y277892D01*
X326629Y276781D01*
X326395Y275601D01*
Y274399D01*
X326629Y273219D01*
X327089Y272108D01*
X327758Y271108D01*
X328608Y270257D01*
X329608Y269589D01*
X330719Y269129D01*
X331899Y268895D01*
X333101D01*
X334281Y269129D01*
X335392Y269589D01*
X336392Y270257D01*
X337243Y271108D01*
X337911Y272108D01*
X338371Y273219D01*
X338605Y274399D01*
Y275601D01*
X338371Y276781D01*
X337911Y277892D01*
X337243Y278892D01*
X336392Y279743D01*
X335392Y280411D01*
X334281Y280871D01*
X333101Y281105D01*
D02*
G37*
G36*
X108101D02*
X106899D01*
X105719Y280871D01*
X104608Y280411D01*
X103608Y279743D01*
X102758Y278892D01*
X102089Y277892D01*
X101629Y276781D01*
X101394Y275601D01*
Y274399D01*
X101629Y273219D01*
X102089Y272108D01*
X102758Y271108D01*
X103608Y270257D01*
X104608Y269589D01*
X105719Y269129D01*
X106899Y268895D01*
X108101D01*
X109281Y269129D01*
X110392Y269589D01*
X111392Y270257D01*
X112242Y271108D01*
X112911Y272108D01*
X113371Y273219D01*
X113605Y274399D01*
Y275601D01*
X113371Y276781D01*
X112911Y277892D01*
X112242Y278892D01*
X111392Y279743D01*
X110392Y280411D01*
X109281Y280871D01*
X108101Y281105D01*
D02*
G37*
G36*
X298850Y260758D02*
Y259300D01*
X300308D01*
X300045Y259933D01*
X299483Y260495D01*
X298850Y260758D01*
D02*
G37*
G36*
X296250Y261666D02*
X293150D01*
X292997Y261603D01*
X292934Y261450D01*
Y256150D01*
X292997Y255997D01*
X293150Y255933D01*
X296250D01*
X296403Y255997D01*
X296466Y256150D01*
Y256441D01*
X296716Y256662D01*
X297466Y257001D01*
X297850Y256842D01*
Y258800D01*
Y260758D01*
X297466Y260599D01*
X296716Y260939D01*
X296466Y261159D01*
Y261450D01*
X296403Y261603D01*
X296250Y261666D01*
D02*
G37*
G36*
X300308Y258300D02*
X298850D01*
Y256842D01*
X299483Y257104D01*
X300045Y257667D01*
X300308Y258300D01*
D02*
G37*
G36*
X275350Y261367D02*
X273050D01*
X272897Y261303D01*
X272833Y261150D01*
Y256450D01*
X272897Y256297D01*
X273050Y256234D01*
X275350D01*
X275503Y256297D01*
X275567Y256450D01*
Y261150D01*
X275503Y261303D01*
X275350Y261367D01*
D02*
G37*
G36*
X259000Y257117D02*
X249200D01*
X249047Y257053D01*
X248984Y256900D01*
Y250300D01*
X249047Y250147D01*
X249200Y250083D01*
X251930D01*
X252404Y249144D01*
X252142Y248511D01*
X256058D01*
X255796Y249144D01*
X256270Y250083D01*
X259000D01*
X259153Y250147D01*
X259216Y250300D01*
Y256900D01*
X259153Y257053D01*
X259000Y257117D01*
D02*
G37*
G36*
X182528Y254522D02*
X181439D01*
X180387Y254240D01*
X179443Y253696D01*
X178673Y252925D01*
X178128Y251982D01*
X177847Y250930D01*
Y249840D01*
X178128Y248788D01*
X178673Y247845D01*
X179443Y247075D01*
X180387Y246530D01*
X181439Y246248D01*
X182528D01*
X183580Y246530D01*
X184524Y247075D01*
X185294Y247845D01*
X185838Y248788D01*
X186120Y249840D01*
Y250930D01*
X185838Y251982D01*
X185294Y252925D01*
X184524Y253696D01*
X183580Y254240D01*
X182528Y254522D01*
D02*
G37*
G36*
X150245D02*
X149155D01*
X148103Y254240D01*
X147160Y253696D01*
X146390Y252925D01*
X145845Y251982D01*
X145563Y250930D01*
Y249840D01*
X145845Y248788D01*
X146390Y247845D01*
X147160Y247075D01*
X148103Y246530D01*
X149155Y246248D01*
X150245D01*
X151297Y246530D01*
X152240Y247075D01*
X153010Y247845D01*
X153555Y248788D01*
X153837Y249840D01*
Y250930D01*
X153555Y251982D01*
X153010Y252925D01*
X152240Y253696D01*
X151297Y254240D01*
X150245Y254522D01*
D02*
G37*
G36*
X256058Y247511D02*
X254600D01*
Y246053D01*
X255233Y246316D01*
X255796Y246878D01*
X256058Y247511D01*
D02*
G37*
G36*
X253600D02*
X252142D01*
X252404Y246878D01*
X252967Y246316D01*
X253600Y246053D01*
Y247511D01*
D02*
G37*
G36*
X275150Y247567D02*
X272850D01*
X272697Y247503D01*
X272634Y247350D01*
Y242650D01*
X272697Y242497D01*
X272850Y242434D01*
X275150D01*
X275303Y242497D01*
X275366Y242650D01*
Y247350D01*
X275303Y247503D01*
X275150Y247567D01*
D02*
G37*
G36*
X182984Y235543D02*
Y231700D01*
X186827D01*
X186584Y232606D01*
X185934Y233731D01*
X185015Y234651D01*
X183889Y235301D01*
X182984Y235543D01*
D02*
G37*
G36*
X150700D02*
Y231700D01*
X154543D01*
X154301Y232606D01*
X153651Y233731D01*
X152731Y234651D01*
X151606Y235301D01*
X150700Y235543D01*
D02*
G37*
G36*
X148700D02*
X147794Y235301D01*
X146669Y234651D01*
X145749Y233731D01*
X145099Y232606D01*
X144857Y231700D01*
X148700D01*
Y235543D01*
D02*
G37*
G36*
X180983D02*
X180078Y235301D01*
X178952Y234651D01*
X178033Y233731D01*
X177383Y232606D01*
X177140Y231700D01*
X180983D01*
Y235543D01*
D02*
G37*
G36*
X247750Y233417D02*
X244250D01*
X244097Y233353D01*
X244034Y233200D01*
Y230800D01*
X244097Y230647D01*
X244250Y230584D01*
X247750D01*
X247903Y230647D01*
X247967Y230800D01*
Y233200D01*
X247903Y233353D01*
X247750Y233417D01*
D02*
G37*
G36*
X301500Y228038D02*
Y226039D01*
X303499D01*
X303119Y226955D01*
X302416Y227658D01*
X301500Y228038D01*
D02*
G37*
G36*
X300500D02*
X299584Y227658D01*
X298881Y226955D01*
X298501Y226039D01*
X300500D01*
Y228038D01*
D02*
G37*
G36*
X186827Y229700D02*
X182984D01*
Y225857D01*
X183889Y226099D01*
X185015Y226749D01*
X185934Y227669D01*
X186584Y228794D01*
X186827Y229700D01*
D02*
G37*
G36*
X154543D02*
X150700D01*
Y225857D01*
X151606Y226099D01*
X152731Y226749D01*
X153651Y227669D01*
X154301Y228794D01*
X154543Y229700D01*
D02*
G37*
G36*
X148700D02*
X144857D01*
X145099Y228794D01*
X145749Y227669D01*
X146669Y226749D01*
X147794Y226099D01*
X148700Y225857D01*
Y229700D01*
D02*
G37*
G36*
X180983D02*
X177140D01*
X177383Y228794D01*
X178033Y227669D01*
X178952Y226749D01*
X180078Y226099D01*
X180983Y225857D01*
Y229700D01*
D02*
G37*
G36*
X217750Y223466D02*
X214250D01*
X214097Y223403D01*
X214034Y223250D01*
Y221750D01*
X214097Y221597D01*
X214250Y221533D01*
X217750D01*
X217903Y221597D01*
X217967Y221750D01*
Y223250D01*
X217903Y223403D01*
X217750Y223466D01*
D02*
G37*
G36*
X303499Y225039D02*
X298501D01*
X298573Y224867D01*
X298250Y223867D01*
X298097Y223803D01*
X298033Y223650D01*
Y219350D01*
X298097Y219197D01*
X298250Y219133D01*
X303750D01*
X303903Y219197D01*
X303966Y219350D01*
Y223650D01*
X303903Y223803D01*
X303750Y223867D01*
X303427Y224867D01*
X303499Y225039D01*
D02*
G37*
G36*
X244178Y221179D02*
X241822D01*
X241669Y221115D01*
X241606Y220962D01*
Y216238D01*
X241669Y216085D01*
X241822Y216021D01*
X244178D01*
X244331Y216085D01*
X244394Y216238D01*
Y220962D01*
X244331Y221115D01*
X244178Y221179D01*
D02*
G37*
G36*
X244450Y208566D02*
X242350D01*
X242197Y208503D01*
X241899Y208295D01*
X241133Y208116D01*
X240961Y208187D01*
Y206500D01*
Y204813D01*
X241133Y204884D01*
X241899Y204705D01*
X242197Y204497D01*
X242350Y204433D01*
X244450D01*
X244603Y204497D01*
X244667Y204650D01*
Y208350D01*
X244603Y208503D01*
X244450Y208566D01*
D02*
G37*
G36*
X239961Y208187D02*
X239470Y207984D01*
X238977Y207491D01*
X238774Y207000D01*
X239961D01*
Y208187D01*
D02*
G37*
G36*
Y206000D02*
X238774D01*
X238977Y205509D01*
X239470Y205016D01*
X239961Y204813D01*
Y206000D01*
D02*
G37*
G36*
X279938Y208224D02*
X279062D01*
X278215Y207997D01*
X277455Y207558D01*
X276835Y206938D01*
X276397Y206179D01*
X276170Y205332D01*
Y204455D01*
X276397Y203608D01*
X276835Y202849D01*
X277455Y202229D01*
X278215Y201791D01*
X279062Y201564D01*
X279938D01*
X280785Y201791D01*
X281545Y202229D01*
X282165Y202849D01*
X282603Y203608D01*
X282830Y204455D01*
Y205332D01*
X282603Y206179D01*
X282165Y206938D01*
X281545Y207558D01*
X280785Y207997D01*
X279938Y208224D01*
D02*
G37*
G36*
X241000Y199837D02*
Y198650D01*
X242187D01*
X241984Y199141D01*
X241491Y199634D01*
X241000Y199837D01*
D02*
G37*
G36*
X240000D02*
X239509Y199634D01*
X239016Y199141D01*
X238813Y198650D01*
X240000D01*
Y199837D01*
D02*
G37*
G36*
X242187Y197650D02*
X238813D01*
X239016Y197159D01*
X239325Y196850D01*
X239283Y196750D01*
Y195250D01*
X239347Y195097D01*
X239500Y195034D01*
X241500D01*
X241653Y195097D01*
X241717Y195250D01*
Y196750D01*
X241675Y196850D01*
X241984Y197159D01*
X242187Y197650D01*
D02*
G37*
G36*
X305117Y202117D02*
X296883D01*
Y193883D01*
X305117D01*
Y202117D01*
D02*
G37*
G36*
X249500Y193687D02*
Y192500D01*
X250687D01*
X250484Y192991D01*
X249991Y193484D01*
X249500Y193687D01*
D02*
G37*
G36*
X265600Y188387D02*
X265109Y188184D01*
X264929Y188004D01*
X264900Y188016D01*
X263600D01*
X263447Y187953D01*
X263384Y187800D01*
Y185600D01*
X263447Y185447D01*
X263600Y185383D01*
X264900D01*
X264929Y185396D01*
X265109Y185216D01*
X265600Y185013D01*
Y186700D01*
Y188387D01*
D02*
G37*
G36*
X266600D02*
Y187200D01*
X267787D01*
X267584Y187691D01*
X267091Y188184D01*
X266600Y188387D01*
D02*
G37*
G36*
X296100Y247317D02*
X293000D01*
X292847Y247253D01*
X292783Y247100D01*
Y241800D01*
X292847Y241647D01*
X293000Y241583D01*
X296100Y241583D01*
X296467Y240660D01*
Y235918D01*
X268282Y207733D01*
X257000D01*
X256337Y207601D01*
X255774Y207226D01*
X245324Y196776D01*
X244949Y196213D01*
X244817Y195550D01*
Y190357D01*
X244949Y189694D01*
X245324Y189131D01*
X247172Y187284D01*
X247734Y186908D01*
X248398Y186776D01*
X249061Y186908D01*
X249623Y187284D01*
X249999Y187846D01*
X250131Y188509D01*
X249999Y189173D01*
X249861Y189380D01*
X249991Y190516D01*
X250484Y191009D01*
X250687Y191500D01*
X249000D01*
Y192000D01*
X248500D01*
Y193851D01*
X248435Y193895D01*
X248372Y194921D01*
X257718Y204267D01*
X269000D01*
X269663Y204399D01*
X270226Y204774D01*
X299426Y233974D01*
X299801Y234537D01*
X299933Y235200D01*
X299933Y235200D01*
Y244450D01*
X299801Y245113D01*
X299426Y245676D01*
X298863Y246051D01*
X298200Y246183D01*
X297537Y246051D01*
X297317Y245904D01*
X296317Y246354D01*
Y247100D01*
X296253Y247253D01*
X296100Y247317D01*
D02*
G37*
G36*
X267787Y186200D02*
X266600D01*
Y185013D01*
X267091Y185216D01*
X267584Y185709D01*
X267787Y186200D01*
D02*
G37*
G36*
X254410Y185782D02*
Y184324D01*
X255867D01*
X255605Y184957D01*
X255042Y185520D01*
X254410Y185782D01*
D02*
G37*
G36*
X253410D02*
X252777Y185520D01*
X252214Y184957D01*
X251952Y184324D01*
X253410D01*
Y185782D01*
D02*
G37*
G36*
X301542Y192117D02*
X300458D01*
X299411Y191837D01*
X298472Y191295D01*
X297705Y190528D01*
X297163Y189589D01*
X296883Y188542D01*
Y187458D01*
X297163Y186411D01*
X297705Y185472D01*
X298472Y184705D01*
X299411Y184163D01*
X300458Y183883D01*
X301542D01*
X302589Y184163D01*
X303528Y184705D01*
X304295Y185472D01*
X304837Y186411D01*
X305117Y187458D01*
Y188542D01*
X304837Y189589D01*
X304295Y190528D01*
X303528Y191295D01*
X302589Y191837D01*
X301542Y192117D01*
D02*
G37*
G36*
X255867Y183324D02*
X254410D01*
Y181867D01*
X255042Y182129D01*
X255605Y182692D01*
X255867Y183324D01*
D02*
G37*
G36*
X253410D02*
X251952D01*
X252214Y182692D01*
X252777Y182129D01*
X253410Y181867D01*
Y183324D01*
D02*
G37*
G36*
X205200Y178549D02*
Y176550D01*
X207199D01*
X206819Y177466D01*
X206116Y178169D01*
X205200Y178549D01*
D02*
G37*
G36*
X204200D02*
X203284Y178169D01*
X202581Y177466D01*
X202201Y176550D01*
X204200D01*
Y178549D01*
D02*
G37*
G36*
X301542Y182117D02*
X300458D01*
X299411Y181837D01*
X298472Y181295D01*
X297705Y180528D01*
X297163Y179589D01*
X296883Y178542D01*
Y177458D01*
X297163Y176411D01*
X297705Y175472D01*
X298472Y174705D01*
X299411Y174163D01*
X300458Y173883D01*
X301542D01*
X302589Y174163D01*
X303528Y174705D01*
X304295Y175472D01*
X304837Y176411D01*
X305117Y177458D01*
Y178542D01*
X304837Y179589D01*
X304295Y180528D01*
X303528Y181295D01*
X302589Y181837D01*
X301542Y182117D01*
D02*
G37*
G36*
X218200Y173449D02*
Y171450D01*
X220199D01*
X219819Y172366D01*
X219116Y173069D01*
X218200Y173449D01*
D02*
G37*
G36*
X217200D02*
X216284Y173069D01*
X215581Y172366D01*
X215201Y171450D01*
X217200D01*
Y173449D01*
D02*
G37*
G36*
X207199Y175550D02*
X202201D01*
X202581Y174634D01*
X202598Y174617D01*
X202184Y173617D01*
X199400D01*
X199247Y173553D01*
X199183Y173400D01*
Y167000D01*
X199247Y166847D01*
X199400Y166783D01*
X210000D01*
X210153Y166847D01*
X210216Y167000D01*
Y173400D01*
X210153Y173553D01*
X210000Y173617D01*
X207216D01*
X206802Y174617D01*
X206819Y174634D01*
X207199Y175550D01*
D02*
G37*
G36*
X220199Y170450D02*
X215201D01*
X215443Y169867D01*
X215337Y169123D01*
X215147Y168803D01*
X215084Y168650D01*
Y166750D01*
X215147Y166597D01*
X215300Y166534D01*
X220100D01*
X220253Y166597D01*
X220317Y166750D01*
Y168650D01*
X220253Y168803D01*
X220063Y169123D01*
X219957Y169867D01*
X220199Y170450D01*
D02*
G37*
G36*
X282830Y167436D02*
X276170D01*
Y160776D01*
X282830D01*
Y167436D01*
D02*
G37*
G36*
X259573Y154950D02*
X258427D01*
X257321Y154654D01*
X256329Y154081D01*
X255519Y153271D01*
X254946Y152279D01*
X254650Y151173D01*
Y150027D01*
X254946Y148921D01*
X255519Y147929D01*
X256329Y147119D01*
X257321Y146546D01*
X258427Y146250D01*
X259573D01*
X260679Y146546D01*
X261671Y147119D01*
X262481Y147929D01*
X263054Y148921D01*
X263350Y150027D01*
Y151173D01*
X263054Y152279D01*
X262481Y153271D01*
X261671Y154081D01*
X260679Y154654D01*
X259573Y154950D01*
D02*
G37*
G36*
X224350D02*
X215650D01*
Y146250D01*
X224350D01*
Y154950D01*
D02*
G37*
G36*
X182045Y154422D02*
X180955D01*
X179903Y154140D01*
X178960Y153595D01*
X178190Y152825D01*
X177645Y151882D01*
X177363Y150830D01*
Y149740D01*
X177645Y148688D01*
X178190Y147745D01*
X178960Y146975D01*
X179903Y146430D01*
X180955Y146148D01*
X182045D01*
X183097Y146430D01*
X184040Y146975D01*
X184810Y147745D01*
X185355Y148688D01*
X185637Y149740D01*
Y150830D01*
X185355Y151882D01*
X184810Y152825D01*
X184040Y153595D01*
X183097Y154140D01*
X182045Y154422D01*
D02*
G37*
G36*
X149761D02*
X148672D01*
X147620Y154140D01*
X146676Y153595D01*
X145906Y152825D01*
X145361Y151882D01*
X145080Y150830D01*
Y149740D01*
X145361Y148688D01*
X145906Y147745D01*
X146676Y146975D01*
X147620Y146430D01*
X148672Y146148D01*
X149761D01*
X150813Y146430D01*
X151757Y146975D01*
X152527Y147745D01*
X153072Y148688D01*
X153354Y149740D01*
Y150830D01*
X153072Y151882D01*
X152527Y152825D01*
X151757Y153595D01*
X150813Y154140D01*
X149761Y154422D01*
D02*
G37*
G36*
X259573Y141550D02*
X258427D01*
X257321Y141254D01*
X256329Y140681D01*
X255519Y139871D01*
X254946Y138879D01*
X254650Y137773D01*
Y136627D01*
X254946Y135521D01*
X255519Y134529D01*
X256329Y133719D01*
X257321Y133146D01*
X258427Y132850D01*
X259573D01*
X260679Y133146D01*
X261671Y133719D01*
X262481Y134529D01*
X263054Y135521D01*
X263350Y136627D01*
Y137773D01*
X263054Y138879D01*
X262481Y139871D01*
X261671Y140681D01*
X260679Y141254D01*
X259573Y141550D01*
D02*
G37*
G36*
X220573D02*
X219427D01*
X218321Y141254D01*
X217329Y140681D01*
X216519Y139871D01*
X215946Y138879D01*
X215650Y137773D01*
Y136627D01*
X215946Y135521D01*
X216519Y134529D01*
X217329Y133719D01*
X218321Y133146D01*
X219427Y132850D01*
X220573D01*
X221679Y133146D01*
X222671Y133719D01*
X223481Y134529D01*
X224054Y135521D01*
X224350Y136627D01*
Y137773D01*
X224054Y138879D01*
X223481Y139871D01*
X222671Y140681D01*
X221679Y141254D01*
X220573Y141550D01*
D02*
G37*
G36*
X182500Y135443D02*
Y131600D01*
X186343D01*
X186101Y132506D01*
X185451Y133631D01*
X184531Y134551D01*
X183406Y135201D01*
X182500Y135443D01*
D02*
G37*
G36*
X150216D02*
Y131600D01*
X154060D01*
X153817Y132506D01*
X153167Y133631D01*
X152248Y134551D01*
X151122Y135201D01*
X150216Y135443D01*
D02*
G37*
G36*
X148216D02*
X147311Y135201D01*
X146185Y134551D01*
X145266Y133631D01*
X144616Y132506D01*
X144373Y131600D01*
X148216D01*
Y135443D01*
D02*
G37*
G36*
X180500D02*
X179594Y135201D01*
X178469Y134551D01*
X177549Y133631D01*
X176899Y132506D01*
X176657Y131600D01*
X180500D01*
Y135443D01*
D02*
G37*
G36*
X186343Y129600D02*
X182500D01*
Y125757D01*
X183406Y125999D01*
X184531Y126649D01*
X185451Y127569D01*
X186101Y128694D01*
X186343Y129600D01*
D02*
G37*
G36*
X154060D02*
X150216D01*
Y125757D01*
X151122Y125999D01*
X152248Y126649D01*
X153167Y127569D01*
X153817Y128694D01*
X154060Y129600D01*
D02*
G37*
G36*
X148216D02*
X144373D01*
X144616Y128694D01*
X145266Y127569D01*
X146185Y126649D01*
X147311Y125999D01*
X148216Y125757D01*
Y129600D01*
D02*
G37*
G36*
X180500D02*
X176657D01*
X176899Y128694D01*
X177549Y127569D01*
X178469Y126649D01*
X179594Y125999D01*
X180500Y125757D01*
Y129600D01*
D02*
G37*
G36*
X333101Y113605D02*
X331899D01*
X330719Y113371D01*
X329608Y112911D01*
X328608Y112242D01*
X327758Y111392D01*
X327089Y110392D01*
X326629Y109281D01*
X326395Y108101D01*
Y106899D01*
X326629Y105719D01*
X327089Y104608D01*
X327758Y103608D01*
X328608Y102758D01*
X329608Y102089D01*
X330719Y101629D01*
X331899Y101394D01*
X333101D01*
X334281Y101629D01*
X335392Y102089D01*
X336392Y102758D01*
X337243Y103608D01*
X337911Y104608D01*
X338371Y105719D01*
X338605Y106899D01*
Y108101D01*
X338371Y109281D01*
X337911Y110392D01*
X337243Y111392D01*
X336392Y112242D01*
X335392Y112911D01*
X334281Y113371D01*
X333101Y113605D01*
D02*
G37*
G36*
X108101D02*
X106899D01*
X105719Y113371D01*
X104608Y112911D01*
X103608Y112242D01*
X102758Y111392D01*
X102089Y110392D01*
X101629Y109281D01*
X101394Y108101D01*
Y106899D01*
X101629Y105719D01*
X102089Y104608D01*
X102758Y103608D01*
X103608Y102758D01*
X104608Y102089D01*
X105719Y101629D01*
X106899Y101394D01*
X108101D01*
X109281Y101629D01*
X110392Y102089D01*
X111392Y102758D01*
X112242Y103608D01*
X112911Y104608D01*
X113371Y105719D01*
X113605Y106899D01*
Y108101D01*
X113371Y109281D01*
X112911Y110392D01*
X112242Y111392D01*
X111392Y112242D01*
X110392Y112911D01*
X109281Y113371D01*
X108101Y113605D01*
D02*
G37*
%LPD*%
D38*
X181983Y250385D02*
D03*
X149700D02*
D03*
X181500Y130600D02*
D03*
X149216D02*
D03*
X181983Y230700D02*
D03*
X149700D02*
D03*
X149216Y150285D02*
D03*
X181500D02*
D03*
D41*
X301000Y178000D02*
D03*
Y188000D02*
D03*
D42*
Y198000D02*
D03*
D43*
X107500Y275000D02*
D03*
X332500D02*
D03*
Y107500D02*
D03*
X107500D02*
D03*
D44*
X259000Y150600D02*
D03*
Y137200D02*
D03*
X220000D02*
D03*
D45*
Y150600D02*
D03*
D46*
X249000Y192000D02*
D03*
X248398Y188509D02*
D03*
X240461Y206500D02*
D03*
X240500Y198150D02*
D03*
X266100Y186700D02*
D03*
D47*
X254100Y248011D02*
D03*
X298200Y244450D02*
D03*
X253909Y183824D02*
D03*
X298350Y258800D02*
D03*
D48*
X301000Y225539D02*
D03*
X217700Y170950D02*
D03*
X204700Y176050D02*
D03*
D52*
X246550Y195550D02*
X257000Y206000D01*
X246550Y190357D02*
Y195550D01*
Y190357D02*
X248398Y188509D01*
X269000Y206000D02*
X298200Y235200D01*
Y244450D01*
X257000Y206000D02*
X269000D01*
D53*
X279500Y204894D02*
D03*
D54*
Y164106D02*
D03*
D55*
X149700Y230700D02*
X181983D01*
X149216Y130600D02*
X181500D01*
M02*
