G04*
G04 #@! TF.GenerationSoftware,Altium Limited,Altium Designer,26.5.1 (12)*
G04*
G04 Layer_Physical_Order=2*
G04 Layer_Color=16711680*
G04 Board_Origin=0|0*
%FSLAX25Y25*%
%MOIN*%
G70*
G04*
G04 #@! TF.SameCoordinates,A7A92D0D-E98A-4A8B-A3FE-55D99BD98021*
G04*
G04*
G04 #@! TF.FilePolarity,Positive*
G04*
G01*
G75*
%ADD39C,0.11811*%
%ADD40C,0.07874*%
%ADD41C,0.07835*%
%ADD42R,0.07835X0.07835*%
%ADD45C,0.08300*%
%ADD46R,0.08300X0.08300*%
%ADD47C,0.01500*%
%ADD48C,0.02000*%
%ADD49C,0.03000*%
%ADD51C,0.02500*%
%ADD56R,0.06260X0.06260*%
%ADD57C,0.06260*%
%ADD58C,0.06000*%
G36*
X340000Y100000D02*
X100000D01*
Y282500D01*
X340000D01*
Y100000D01*
D02*
G37*
%LPC*%
G36*
X333121Y281306D02*
X331879D01*
X330661Y281063D01*
X329513Y280588D01*
X328481Y279898D01*
X327602Y279019D01*
X326912Y277987D01*
X326437Y276839D01*
X326195Y275621D01*
Y274379D01*
X326437Y273161D01*
X326912Y272013D01*
X327602Y270981D01*
X328481Y270102D01*
X329513Y269412D01*
X330661Y268937D01*
X331879Y268694D01*
X333121D01*
X334339Y268937D01*
X335487Y269412D01*
X336520Y270102D01*
X337398Y270981D01*
X338088Y272013D01*
X338563Y273161D01*
X338806Y274379D01*
Y275621D01*
X338563Y276839D01*
X338088Y277987D01*
X337398Y279019D01*
X336520Y279898D01*
X335487Y280588D01*
X334339Y281063D01*
X333121Y281306D01*
D02*
G37*
G36*
X108121D02*
X106879D01*
X105661Y281063D01*
X104513Y280588D01*
X103481Y279898D01*
X102602Y279019D01*
X101912Y277987D01*
X101437Y276839D01*
X101195Y275621D01*
Y274379D01*
X101437Y273161D01*
X101912Y272013D01*
X102602Y270981D01*
X103481Y270102D01*
X104513Y269412D01*
X105661Y268937D01*
X106879Y268694D01*
X108121D01*
X109339Y268937D01*
X110487Y269412D01*
X111520Y270102D01*
X112398Y270981D01*
X113088Y272013D01*
X113563Y273161D01*
X113805Y274379D01*
Y275621D01*
X113563Y276839D01*
X113088Y277987D01*
X112398Y279019D01*
X111520Y279898D01*
X110487Y280588D01*
X109339Y281063D01*
X108121Y281306D01*
D02*
G37*
G36*
X312850Y263758D02*
Y262300D01*
X314308D01*
X314046Y262933D01*
X313483Y263495D01*
X312850Y263758D01*
D02*
G37*
G36*
X314308Y261300D02*
X312850D01*
Y259842D01*
X313483Y260104D01*
X314046Y260667D01*
X314308Y261300D01*
D02*
G37*
G36*
X310250Y264883D02*
X307150D01*
X306844Y264756D01*
X306717Y264450D01*
Y259150D01*
X306844Y258844D01*
X307150Y258717D01*
X310250D01*
X310556Y258844D01*
X310683Y259150D01*
Y259332D01*
X311683Y259911D01*
X311850Y259842D01*
Y261800D01*
Y263758D01*
X311683Y263688D01*
X310683Y264268D01*
Y264450D01*
X310556Y264756D01*
X310250Y264883D01*
D02*
G37*
G36*
X289350Y264583D02*
X287050D01*
X286744Y264456D01*
X286617Y264150D01*
Y259450D01*
X286744Y259144D01*
X287050Y259017D01*
X289350D01*
X289656Y259144D01*
X289783Y259450D01*
Y264150D01*
X289656Y264456D01*
X289350Y264583D01*
D02*
G37*
G36*
X260562Y252311D02*
X255838D01*
X255532Y252184D01*
X255405Y251878D01*
Y249522D01*
X255532Y249216D01*
X255838Y249089D01*
X260562D01*
X260868Y249216D01*
X260995Y249522D01*
Y251878D01*
X260868Y252184D01*
X260562Y252311D01*
D02*
G37*
G36*
X182554Y254722D02*
X181412D01*
X180309Y254427D01*
X179321Y253855D01*
X178513Y253048D01*
X177942Y252059D01*
X177647Y250956D01*
Y249814D01*
X177942Y248711D01*
X178513Y247722D01*
X179321Y246915D01*
X180309Y246344D01*
X181412Y246048D01*
X182554D01*
X183658Y246344D01*
X184646Y246915D01*
X185454Y247722D01*
X186025Y248711D01*
X186320Y249814D01*
Y250956D01*
X186025Y252059D01*
X185454Y253048D01*
X184646Y253855D01*
X183658Y254427D01*
X182554Y254722D01*
D02*
G37*
G36*
X150271D02*
X149129D01*
X148026Y254427D01*
X147037Y253855D01*
X146230Y253048D01*
X145659Y252059D01*
X145363Y250956D01*
Y249814D01*
X145659Y248711D01*
X146230Y247722D01*
X147037Y246915D01*
X148026Y246344D01*
X149129Y246048D01*
X150271D01*
X151374Y246344D01*
X152363Y246915D01*
X153171Y247722D01*
X153742Y248711D01*
X154037Y249814D01*
Y250956D01*
X153742Y252059D01*
X153171Y253048D01*
X152363Y253855D01*
X151374Y254427D01*
X150271Y254722D01*
D02*
G37*
G36*
X258450Y242387D02*
X257959Y242184D01*
X257466Y241691D01*
X257263Y241200D01*
X258450D01*
Y242387D01*
D02*
G37*
G36*
X259450D02*
Y240700D01*
Y239013D01*
X259941Y239216D01*
X260342Y239617D01*
X260450D01*
X260756Y239744D01*
X260883Y240050D01*
Y241350D01*
X260756Y241656D01*
X260450Y241783D01*
X260342D01*
X259941Y242184D01*
X259450Y242387D01*
D02*
G37*
G36*
X258450Y240200D02*
X257263D01*
X257466Y239709D01*
X257959Y239216D01*
X258450Y239013D01*
Y240200D01*
D02*
G37*
G36*
X274070Y240819D02*
X270330D01*
X270024Y240692D01*
X269897Y240386D01*
Y239014D01*
X270024Y238708D01*
X270330Y238581D01*
X274070D01*
X274376Y238708D01*
X274503Y239014D01*
Y240386D01*
X274376Y240692D01*
X274070Y240819D01*
D02*
G37*
G36*
X203000Y240203D02*
Y238204D01*
X204999D01*
X204619Y239120D01*
X203916Y239823D01*
X203000Y240203D01*
D02*
G37*
G36*
X202000D02*
X201084Y239823D01*
X200381Y239120D01*
X200001Y238204D01*
X202000D01*
Y240203D01*
D02*
G37*
G36*
X284700Y240049D02*
Y238050D01*
X286699D01*
X286319Y238966D01*
X285616Y239669D01*
X284700Y240049D01*
D02*
G37*
G36*
X283700D02*
X282784Y239669D01*
X282081Y238966D01*
X281701Y238050D01*
X283700D01*
Y240049D01*
D02*
G37*
G36*
X260225Y236627D02*
X259733Y236424D01*
X259578Y236268D01*
X259325Y236373D01*
X257825D01*
X257519Y236246D01*
X257392Y235940D01*
Y233940D01*
X257519Y233634D01*
X257825Y233507D01*
X259325D01*
X259903Y233089D01*
X260016Y231991D01*
X259813Y231500D01*
X263187D01*
X262984Y231991D01*
X262491Y232484D01*
X262179Y232613D01*
X262118Y232724D01*
X261949Y233593D01*
X261962Y233703D01*
X262208Y233949D01*
X262412Y234440D01*
X260725D01*
Y234940D01*
X260225D01*
Y236627D01*
D02*
G37*
G36*
X261225D02*
Y235440D01*
X262412D01*
X262208Y235931D01*
X261716Y236424D01*
X261225Y236627D01*
D02*
G37*
G36*
X204999Y237204D02*
X203000D01*
Y235205D01*
X203916Y235584D01*
X204619Y236288D01*
X204999Y237204D01*
D02*
G37*
G36*
X202000D02*
X200001D01*
X200381Y236288D01*
X201084Y235584D01*
X202000Y235205D01*
Y237204D01*
D02*
G37*
G36*
X314700Y235738D02*
Y233739D01*
X316699D01*
X316319Y234655D01*
X315616Y235358D01*
X314700Y235738D01*
D02*
G37*
G36*
X313700D02*
X312784Y235358D01*
X312081Y234655D01*
X311701Y233739D01*
X313700D01*
Y235738D01*
D02*
G37*
G36*
X299700Y234949D02*
Y232950D01*
X301699D01*
X301319Y233866D01*
X300616Y234569D01*
X299700Y234949D01*
D02*
G37*
G36*
X298700D02*
X297784Y234569D01*
X297081Y233866D01*
X296701Y232950D01*
X298700D01*
Y234949D01*
D02*
G37*
G36*
X182984Y235543D02*
Y231700D01*
X186827D01*
X186584Y232606D01*
X185934Y233731D01*
X185015Y234651D01*
X183889Y235301D01*
X182984Y235543D01*
D02*
G37*
G36*
X150700D02*
Y231700D01*
X154543D01*
X154301Y232606D01*
X153651Y233731D01*
X152731Y234651D01*
X151606Y235301D01*
X150700Y235543D01*
D02*
G37*
G36*
X148700D02*
X147794Y235301D01*
X146669Y234651D01*
X145749Y233731D01*
X145099Y232606D01*
X144857Y231700D01*
X148700D01*
Y235543D01*
D02*
G37*
G36*
X180983D02*
X180078Y235301D01*
X178952Y234651D01*
X178033Y233731D01*
X177383Y232606D01*
X177140Y231700D01*
X180983D01*
Y235543D01*
D02*
G37*
G36*
X274700Y232237D02*
Y231050D01*
X275887D01*
X275684Y231541D01*
X275191Y232034D01*
X274700Y232237D01*
D02*
G37*
G36*
X273700D02*
X273209Y232034D01*
X272716Y231541D01*
X272513Y231050D01*
X273700D01*
Y232237D01*
D02*
G37*
G36*
X286699Y237050D02*
X281701D01*
X281998Y236333D01*
X281708Y235647D01*
X281467Y235333D01*
X278900D01*
X278594Y235206D01*
X278467Y234900D01*
Y228500D01*
X278594Y228194D01*
X278900Y228067D01*
X289500D01*
X289806Y228194D01*
X289933Y228500D01*
Y234900D01*
X289806Y235206D01*
X289500Y235333D01*
X286933D01*
X286692Y235647D01*
X286402Y236333D01*
X286699Y237050D01*
D02*
G37*
G36*
X301699Y231950D02*
X296701D01*
X296853Y231583D01*
X296843Y231395D01*
X296494Y230456D01*
X296494D01*
X296494Y230456D01*
X296367Y230150D01*
X296367Y229509D01*
Y228250D01*
X296494Y227944D01*
X296800Y227817D01*
X301600D01*
X301906Y227944D01*
X302033Y228250D01*
Y230150D01*
X301906Y230456D01*
X301557Y231395D01*
X301547Y231583D01*
X301699Y231950D01*
D02*
G37*
G36*
X275887Y230050D02*
X272513D01*
X272716Y229559D01*
X272743Y229533D01*
X272667Y229350D01*
Y228050D01*
X272794Y227744D01*
X273100Y227617D01*
X275300D01*
X275606Y227744D01*
X275733Y228050D01*
Y229350D01*
X275657Y229533D01*
X275684Y229559D01*
X275887Y230050D01*
D02*
G37*
G36*
X316701Y232739D02*
X311699D01*
X311669Y232624D01*
X311144Y231656D01*
X311017Y231350D01*
Y227050D01*
X311144Y226744D01*
X311450Y226617D01*
X316950D01*
X317256Y226744D01*
X317383Y227050D01*
Y231350D01*
X317256Y231656D01*
X316731Y232624D01*
X316701Y232739D01*
D02*
G37*
G36*
X186827Y229700D02*
X182984D01*
Y225857D01*
X183889Y226099D01*
X185015Y226749D01*
X185934Y227669D01*
X186584Y228794D01*
X186827Y229700D01*
D02*
G37*
G36*
X154543D02*
X150700D01*
Y225857D01*
X151606Y226099D01*
X152731Y226749D01*
X153651Y227669D01*
X154301Y228794D01*
X154543Y229700D01*
D02*
G37*
G36*
X148700D02*
X144857D01*
X145099Y228794D01*
X145749Y227669D01*
X146669Y226749D01*
X147794Y226099D01*
X148700Y225857D01*
Y229700D01*
D02*
G37*
G36*
X180983D02*
X177140D01*
X177383Y228794D01*
X178033Y227669D01*
X178952Y226749D01*
X180078Y226099D01*
X180983Y225857D01*
Y229700D01*
D02*
G37*
G36*
X266610Y225882D02*
Y224424D01*
X268067D01*
X267805Y225057D01*
X267242Y225620D01*
X266610Y225882D01*
D02*
G37*
G36*
X265610D02*
X264977Y225620D01*
X264414Y225057D01*
X264152Y224424D01*
X265610D01*
Y225882D01*
D02*
G37*
G36*
X268067Y223424D02*
X266610D01*
Y221967D01*
X267242Y222229D01*
X267805Y222792D01*
X268067Y223424D01*
D02*
G37*
G36*
X265610D02*
X264152D01*
X264414Y222792D01*
X264977Y222229D01*
X265610Y221967D01*
Y223424D01*
D02*
G37*
G36*
X227650Y220683D02*
X224150D01*
X223844Y220556D01*
X223717Y220250D01*
Y218750D01*
X223844Y218444D01*
X224150Y218317D01*
X227650D01*
X227956Y218444D01*
X228083Y218750D01*
Y220250D01*
X227956Y220556D01*
X227650Y220683D01*
D02*
G37*
G36*
X324665Y215230D02*
X323735D01*
X322837Y214989D01*
X322033Y214525D01*
X321375Y213867D01*
X320911Y213063D01*
X320670Y212165D01*
Y211235D01*
X320911Y210337D01*
X321375Y209533D01*
X322033Y208875D01*
X322837Y208411D01*
X323735Y208170D01*
X324665D01*
X325563Y208411D01*
X326367Y208875D01*
X327025Y209533D01*
X327489Y210337D01*
X327730Y211235D01*
Y212165D01*
X327489Y213063D01*
X327025Y213867D01*
X326367Y214525D01*
X325563Y214989D01*
X324665Y215230D01*
D02*
G37*
G36*
X286943D02*
X279883D01*
Y208170D01*
X286943D01*
Y215230D01*
D02*
G37*
G36*
X263187Y230500D02*
X259813D01*
X259953Y230163D01*
X259408Y229799D01*
X259043Y229253D01*
X258915Y228609D01*
Y211698D01*
Y207645D01*
X247383Y196112D01*
X246383Y196526D01*
Y197050D01*
X246256Y197356D01*
X245950Y197483D01*
X242850D01*
X242544Y197356D01*
X242417Y197050D01*
Y191750D01*
X242544Y191444D01*
X242850Y191317D01*
X245950D01*
X246256Y191444D01*
X246383Y191750D01*
Y192327D01*
X247383Y192861D01*
X247406Y192846D01*
X248050Y192718D01*
X248694Y192846D01*
X249240Y193210D01*
X261787Y205758D01*
X262152Y206304D01*
X262280Y206948D01*
X262280Y206948D01*
Y211698D01*
Y228609D01*
X262152Y229253D01*
X262194Y229394D01*
X262491Y229516D01*
X262984Y230009D01*
X263187Y230500D01*
D02*
G37*
G36*
X226050Y197183D02*
X223750D01*
X223444Y197056D01*
X223317Y196750D01*
Y192050D01*
X223444Y191744D01*
X223750Y191617D01*
X226050D01*
X226356Y191744D01*
X226483Y192050D01*
Y196750D01*
X226356Y197056D01*
X226050Y197183D01*
D02*
G37*
G36*
X321017Y196017D02*
X312383D01*
Y187383D01*
X321017D01*
Y196017D01*
D02*
G37*
G36*
X307268D02*
X306132D01*
X305034Y195723D01*
X304049Y195155D01*
X303245Y194351D01*
X302677Y193366D01*
X302383Y192268D01*
Y191132D01*
X302677Y190034D01*
X303245Y189049D01*
X304049Y188245D01*
X305034Y187677D01*
X306132Y187383D01*
X307268D01*
X308366Y187677D01*
X309351Y188245D01*
X310155Y189049D01*
X310723Y190034D01*
X311017Y191132D01*
Y192268D01*
X310723Y193366D01*
X310155Y194351D01*
X309351Y195155D01*
X308366Y195723D01*
X307268Y196017D01*
D02*
G37*
G36*
X297268D02*
X296132D01*
X295034Y195723D01*
X294049Y195155D01*
X293245Y194351D01*
X292677Y193366D01*
X292383Y192268D01*
Y191132D01*
X292677Y190034D01*
X293245Y189049D01*
X294049Y188245D01*
X295034Y187677D01*
X296132Y187383D01*
X297268D01*
X298366Y187677D01*
X299351Y188245D01*
X300155Y189049D01*
X300723Y190034D01*
X301017Y191132D01*
Y192268D01*
X300723Y193366D01*
X300155Y194351D01*
X299351Y195155D01*
X298366Y195723D01*
X297268Y196017D01*
D02*
G37*
G36*
X259599Y155150D02*
X258401D01*
X257244Y154840D01*
X256206Y154241D01*
X255359Y153394D01*
X254760Y152356D01*
X254450Y151199D01*
Y150001D01*
X254760Y148844D01*
X255359Y147806D01*
X256206Y146959D01*
X257244Y146360D01*
X258401Y146050D01*
X259599D01*
X260756Y146360D01*
X261794Y146959D01*
X262641Y147806D01*
X263240Y148844D01*
X263550Y150001D01*
Y151199D01*
X263240Y152356D01*
X262641Y153394D01*
X261794Y154241D01*
X260756Y154840D01*
X259599Y155150D01*
D02*
G37*
G36*
X224550D02*
X215450D01*
Y146050D01*
X224550D01*
Y155150D01*
D02*
G37*
G36*
X182071Y154622D02*
X180929D01*
X179826Y154326D01*
X178837Y153755D01*
X178030Y152948D01*
X177459Y151959D01*
X177163Y150856D01*
Y149714D01*
X177459Y148611D01*
X178030Y147622D01*
X178837Y146815D01*
X179826Y146244D01*
X180929Y145948D01*
X182071D01*
X183174Y146244D01*
X184163Y146815D01*
X184970Y147622D01*
X185541Y148611D01*
X185837Y149714D01*
Y150856D01*
X185541Y151959D01*
X184970Y152948D01*
X184163Y153755D01*
X183174Y154326D01*
X182071Y154622D01*
D02*
G37*
G36*
X149787D02*
X148646D01*
X147543Y154326D01*
X146554Y153755D01*
X145746Y152948D01*
X145175Y151959D01*
X144879Y150856D01*
Y149714D01*
X145175Y148611D01*
X145746Y147622D01*
X146554Y146815D01*
X147543Y146244D01*
X148646Y145948D01*
X149787D01*
X150891Y146244D01*
X151880Y146815D01*
X152687Y147622D01*
X153258Y148611D01*
X153553Y149714D01*
Y150856D01*
X153258Y151959D01*
X152687Y152948D01*
X151880Y153755D01*
X150891Y154326D01*
X149787Y154622D01*
D02*
G37*
G36*
X259599Y141750D02*
X258401D01*
X257244Y141440D01*
X256206Y140841D01*
X255359Y139994D01*
X254760Y138956D01*
X254450Y137799D01*
Y136601D01*
X254760Y135444D01*
X255359Y134406D01*
X256206Y133559D01*
X257244Y132960D01*
X258401Y132650D01*
X259599D01*
X260756Y132960D01*
X261794Y133559D01*
X262641Y134406D01*
X263240Y135444D01*
X263550Y136601D01*
Y137799D01*
X263240Y138956D01*
X262641Y139994D01*
X261794Y140841D01*
X260756Y141440D01*
X259599Y141750D01*
D02*
G37*
G36*
X220599D02*
X219401D01*
X218244Y141440D01*
X217206Y140841D01*
X216359Y139994D01*
X215760Y138956D01*
X215450Y137799D01*
Y136601D01*
X215760Y135444D01*
X216359Y134406D01*
X217206Y133559D01*
X218244Y132960D01*
X219401Y132650D01*
X220599D01*
X221756Y132960D01*
X222794Y133559D01*
X223641Y134406D01*
X224240Y135444D01*
X224550Y136601D01*
Y137799D01*
X224240Y138956D01*
X223641Y139994D01*
X222794Y140841D01*
X221756Y141440D01*
X220599Y141750D01*
D02*
G37*
G36*
X182500Y135443D02*
Y131600D01*
X186343D01*
X186101Y132506D01*
X185451Y133631D01*
X184531Y134551D01*
X183406Y135201D01*
X182500Y135443D01*
D02*
G37*
G36*
X150216D02*
Y131600D01*
X154060D01*
X153817Y132506D01*
X153167Y133631D01*
X152248Y134551D01*
X151122Y135201D01*
X150216Y135443D01*
D02*
G37*
G36*
X148216D02*
X147311Y135201D01*
X146185Y134551D01*
X145266Y133631D01*
X144616Y132506D01*
X144373Y131600D01*
X148216D01*
Y135443D01*
D02*
G37*
G36*
X180500D02*
X179594Y135201D01*
X178469Y134551D01*
X177549Y133631D01*
X176899Y132506D01*
X176657Y131600D01*
X180500D01*
Y135443D01*
D02*
G37*
G36*
X186343Y129600D02*
X182500D01*
Y125757D01*
X183406Y125999D01*
X184531Y126649D01*
X185451Y127569D01*
X186101Y128694D01*
X186343Y129600D01*
D02*
G37*
G36*
X154060D02*
X150216D01*
Y125757D01*
X151122Y125999D01*
X152248Y126649D01*
X153167Y127569D01*
X153817Y128694D01*
X154060Y129600D01*
D02*
G37*
G36*
X148216D02*
X144373D01*
X144616Y128694D01*
X145266Y127569D01*
X146185Y126649D01*
X147311Y125999D01*
X148216Y125757D01*
Y129600D01*
D02*
G37*
G36*
X180500D02*
X176657D01*
X176899Y128694D01*
X177549Y127569D01*
X178469Y126649D01*
X179594Y125999D01*
X180500Y125757D01*
Y129600D01*
D02*
G37*
G36*
X333121Y113805D02*
X331879D01*
X330661Y113563D01*
X329513Y113088D01*
X328481Y112398D01*
X327602Y111520D01*
X326912Y110487D01*
X326437Y109339D01*
X326195Y108121D01*
Y106879D01*
X326437Y105661D01*
X326912Y104513D01*
X327602Y103481D01*
X328481Y102602D01*
X329513Y101912D01*
X330661Y101437D01*
X331879Y101195D01*
X333121D01*
X334339Y101437D01*
X335487Y101912D01*
X336520Y102602D01*
X337398Y103481D01*
X338088Y104513D01*
X338563Y105661D01*
X338806Y106879D01*
Y108121D01*
X338563Y109339D01*
X338088Y110487D01*
X337398Y111520D01*
X336520Y112398D01*
X335487Y113088D01*
X334339Y113563D01*
X333121Y113805D01*
D02*
G37*
G36*
X108121D02*
X106879D01*
X105661Y113563D01*
X104513Y113088D01*
X103481Y112398D01*
X102602Y111520D01*
X101912Y110487D01*
X101437Y109339D01*
X101195Y108121D01*
Y106879D01*
X101437Y105661D01*
X101912Y104513D01*
X102602Y103481D01*
X103481Y102602D01*
X104513Y101912D01*
X105661Y101437D01*
X106879Y101195D01*
X108121D01*
X109339Y101437D01*
X110487Y101912D01*
X111520Y102602D01*
X112398Y103481D01*
X113088Y104513D01*
X113563Y105661D01*
X113805Y106879D01*
Y108121D01*
X113563Y109339D01*
X113088Y110487D01*
X112398Y111520D01*
X111520Y112398D01*
X110487Y113088D01*
X109339Y113563D01*
X108121Y113805D01*
D02*
G37*
%LPD*%
D39*
X107500Y275000D02*
D03*
X332500D02*
D03*
Y107500D02*
D03*
X107500D02*
D03*
D40*
X149700Y230700D02*
D03*
Y250385D02*
D03*
X181983Y230700D02*
D03*
Y250385D02*
D03*
X149216Y130600D02*
D03*
Y150285D02*
D03*
X181500Y130600D02*
D03*
Y150285D02*
D03*
D41*
X296700Y191700D02*
D03*
X306700D02*
D03*
D42*
X316700D02*
D03*
D45*
X259000Y150600D02*
D03*
Y137200D02*
D03*
X220000D02*
D03*
D46*
Y150600D02*
D03*
D47*
X261500Y231000D02*
D03*
X258950Y240700D02*
D03*
X274200Y230550D02*
D03*
X260725Y234940D02*
D03*
X260598Y228609D02*
D03*
D48*
X248050Y194400D02*
D03*
X312350Y261800D02*
D03*
X266109Y223924D02*
D03*
D49*
X314200Y233239D02*
D03*
X202500Y237704D02*
D03*
X299200Y232450D02*
D03*
X284200Y237550D02*
D03*
D51*
X248050Y194400D02*
X260598Y206948D01*
Y211698D01*
Y228609D01*
D56*
X283413Y211700D02*
D03*
D57*
X324200D02*
D03*
D58*
X149216Y130600D02*
X181500D01*
X149700Y230700D02*
X181983D01*
M02*
