G04*
G04 #@! TF.GenerationSoftware,Altium Limited,Altium Designer,26.5.1 (12)*
G04*
G04 Layer_Color=16711935*
G04 Board_Origin=0|0*
%FSLAX25Y25*%
%MOIN*%
G70*
G04*
G04 #@! TF.SameCoordinates,A7A92D0D-E98A-4A8B-A3FE-55D99BD98021*
G04*
G04*
G04 #@! TF.FilePolarity,Positive*
G04*
G01*
G75*
G36*
X227650Y218750D02*
X224150D01*
Y220250D01*
X227650D01*
Y218750D01*
D02*
G37*
G36*
X226050Y192050D02*
X223750D01*
Y196750D01*
X226050D01*
Y192050D01*
D02*
G37*
G36*
X245950Y191750D02*
X242850D01*
Y197050D01*
X245950D01*
Y191750D01*
D02*
G37*
G36*
X259325Y235940D02*
Y233940D01*
X257825D01*
Y235940D01*
X259325D01*
D02*
G37*
G36*
X259950Y240050D02*
Y241350D01*
X260450D01*
Y240050D01*
X259950D01*
D02*
G37*
G36*
X255838Y251878D02*
X260562D01*
Y249522D01*
X255838D01*
Y251878D01*
D02*
G37*
G36*
X275300Y228050D02*
X273100D01*
Y229350D01*
X275300D01*
Y228050D01*
D02*
G37*
G36*
X278900Y234900D02*
X289500D01*
Y228500D01*
X278900D01*
Y234900D01*
D02*
G37*
G36*
X274070Y239014D02*
X270330D01*
Y240386D01*
X274070D01*
Y239014D01*
D02*
G37*
G36*
X287050Y259450D02*
Y264150D01*
X289350D01*
Y259450D01*
X287050D01*
D02*
G37*
G36*
X296800Y230150D02*
X301600D01*
Y228250D01*
X296800D01*
Y230150D01*
D02*
G37*
G36*
X316950Y227050D02*
X311450D01*
Y231350D01*
X316950D01*
Y227050D01*
D02*
G37*
G36*
X310250Y264450D02*
Y259150D01*
X307150D01*
Y264450D01*
X310250D01*
D02*
G37*
M02*
