M48
;Layer_Color=9474304
;FILE_FORMAT=2:5
INCH,LZ
;TYPE=PLATED
T01F00S00C0.00600
T02F00S00C0.00750
T03F00S00C0.01000
T04F00S00C0.01500
T05F00S00C0.04173
T06F00S00C0.05118
T07F00S00C0.05472
T08F00S00C0.06300
T09F00S00C0.07874
%
T01
X0260598Y0228609
X02615Y0231
T02
X0260725Y023494
X025895Y02407
X02742Y023055
T03
X024805Y01944
X0266109Y0223924
X031235Y02618
T04
X03142Y0233239
X02992Y023245
X02842Y023755
X02025Y0237704
T05
X03242Y02117
X0283413
T06
X0149216Y01306
Y0150285
X01815
Y01306
X0181983Y02307
Y0250385
X01497
Y02307
T07
X03167Y01917
X03067
X02967
T08
X022Y01372
Y01506
X0259
Y01372
T09
X01075Y01075
X03325
Y0275
X01075
M30
