G04*
G04 #@! TF.GenerationSoftware,Altium Limited,Altium Designer,26.5.1 (12)*
G04*
G04 Layer_Color=8421504*
G04 Board_Origin=0|0*
%FSLAX25Y25*%
%MOIN*%
G70*
G04*
G04 #@! TF.SameCoordinates,A7A92D0D-E98A-4A8B-A3FE-55D99BD98021*
G04*
G04*
G04 #@! TF.FilePolarity,Positive*
G04*
G01*
G75*
%ADD20C,0.06000*%
%ADD21R,0.08661X0.04331*%
%ADD22R,0.03800X0.05300*%
%ADD23R,0.05500X0.03378*%
%ADD24R,0.04800X0.04200*%
%ADD25R,0.10600X0.04900*%
%ADD26R,0.23600X0.06100*%
%ADD27R,0.02362X0.00984*%
%ADD28C,0.01378*%
%ADD29R,0.00984X0.02362*%
%ADD30R,0.04000X0.04700*%
%ADD31R,0.03740X0.03959*%
%ADD32R,0.04724X0.03959*%
%ADD33R,0.02400X0.02000*%
%ADD34R,0.01600X0.01300*%
%ADD35R,0.03500X0.03778*%
G36*
X270263Y224515D02*
Y223334D01*
X270066Y223137D01*
X266720D01*
X266523Y223334D01*
Y224515D01*
X266720Y224712D01*
X270066D01*
X270263Y224515D01*
D02*
G37*
G36*
X265735D02*
Y223334D01*
X265539Y223137D01*
X262192D01*
X261995Y223334D01*
Y224515D01*
X262192Y224712D01*
X265539D01*
X265735Y224515D01*
D02*
G37*
G36*
X263531Y221936D02*
Y221346D01*
X263334Y221149D01*
X260775D01*
X260578Y221346D01*
Y221936D01*
X260775Y222133D01*
X263334D01*
X263531Y221936D01*
D02*
G37*
G36*
X259790D02*
Y221346D01*
X259594Y221149D01*
X257035D01*
X256838Y221346D01*
Y221936D01*
X257035Y222133D01*
X259594D01*
X259790Y221936D01*
D02*
G37*
G36*
X270243Y219948D02*
Y218767D01*
X270046Y218570D01*
X267192D01*
X266995Y218373D01*
Y216562D01*
X266798Y216365D01*
X266208D01*
X266011Y216562D01*
Y218570D01*
X265027D01*
Y216562D01*
X264830Y216365D01*
X264239D01*
X264042Y216562D01*
Y218570D01*
X263058D01*
Y216562D01*
X262861Y216365D01*
X262271D01*
X262074Y216562D01*
Y218570D01*
X261976D01*
Y219948D01*
X262172Y220145D01*
X270046D01*
X270243Y219948D01*
D02*
G37*
D20*
X190500Y174500D02*
D03*
X149700Y207300D02*
D03*
X194204Y203704D02*
D03*
D21*
X202500Y250696D02*
D03*
Y237704D02*
D03*
D22*
X312350Y261800D02*
D03*
X305050D02*
D03*
X248050Y194400D02*
D03*
X240750D02*
D03*
D23*
X314200Y233239D02*
D03*
Y225161D02*
D03*
D24*
X299200Y225950D02*
D03*
Y232450D02*
D03*
D25*
X284200Y237550D02*
D03*
Y225850D02*
D03*
D26*
X234500Y260250D02*
D03*
Y239750D02*
D03*
D27*
X269062Y226759D02*
D03*
X258039Y219672D02*
D03*
Y226759D02*
D03*
D28*
X266700Y219200D02*
D03*
D29*
X260598Y228609D02*
D03*
X262566D02*
D03*
X264535D02*
D03*
X266503D02*
D03*
D30*
X284850Y261800D02*
D03*
X291550D02*
D03*
X221550Y194400D02*
D03*
X228250D02*
D03*
D31*
X272200Y242565D02*
D03*
Y236835D02*
D03*
D32*
X258200Y247342D02*
D03*
Y254058D02*
D03*
D33*
X260725Y234940D02*
D03*
X256425D02*
D03*
D34*
X258950Y240700D02*
D03*
X261450D02*
D03*
D35*
X225900Y222339D02*
D03*
Y216661D02*
D03*
M02*
