G04*
G04 #@! TF.GenerationSoftware,Altium Limited,Altium Designer,26.5.1 (12)*
G04*
G04 Layer_Color=2752767*
G04 Board_Origin=0|0*
%FSLAX25Y25*%
%MOIN*%
G70*
G04*
G04 #@! TF.SameCoordinates,A7A92D0D-E98A-4A8B-A3FE-55D99BD98021*
G04*
G04*
G04 #@! TF.FilePolarity,Positive*
G04*
G01*
G75*
%ADD14C,0.00500*%
%ADD62C,0.00667*%
D14*
X105500Y273000D02*
Y277000D01*
X109500D01*
Y273000D01*
X105500D01*
X106300Y273800D02*
Y276200D01*
X108700D01*
Y273800D01*
X106300D01*
X330500Y273000D02*
Y277000D01*
X334500D01*
Y273000D01*
X330500D01*
X331300Y273800D02*
Y276200D01*
X333700D01*
Y273800D01*
X331300D01*
X330500Y105500D02*
Y109500D01*
X334500D01*
Y105500D01*
X330500D01*
X331300Y106300D02*
Y108700D01*
X333700D01*
Y106300D01*
X331300D01*
X147700Y228700D02*
Y232700D01*
X151700D01*
Y228700D01*
X147700D01*
Y248385D02*
Y252385D01*
X151700D01*
Y248385D01*
X147700D01*
X179983Y228700D02*
Y232700D01*
X183984D01*
Y228700D01*
X179983D01*
Y248385D02*
Y252385D01*
X183984D01*
Y248385D01*
X179983D01*
X296700Y189700D02*
X294700Y193700D01*
X298700D01*
X296700Y189700D01*
X306700D02*
X304700Y193700D01*
X308700D01*
X306700Y189700D01*
X316700D02*
X314700Y193700D01*
X318700D01*
X316700Y189700D01*
X283413Y209700D02*
X284413Y210700D01*
X285413D01*
X284413Y211700D01*
X285413Y212700D01*
X284413D01*
X283413Y213700D01*
X282413Y212700D01*
X281413D01*
X282413Y211700D01*
X281413Y210700D01*
X282413D01*
X283413Y209700D01*
X324200D02*
X325200Y210700D01*
X326200D01*
X325200Y211700D01*
X326200Y212700D01*
X325200D01*
X324200Y213700D01*
X323200Y212700D01*
X322200D01*
X323200Y211700D01*
X322200Y210700D01*
X323200D01*
X324200Y209700D01*
X147216Y128600D02*
Y132600D01*
X151216D01*
Y128600D01*
X147216D01*
Y148285D02*
Y152285D01*
X151216D01*
Y148285D01*
X147216D01*
X179500Y128600D02*
Y132600D01*
X183500D01*
Y128600D01*
X179500D01*
Y148285D02*
Y152285D01*
X183500D01*
Y148285D01*
X179500D01*
X105500Y105500D02*
Y109500D01*
X109500D01*
Y105500D01*
X105500D01*
X106300Y106300D02*
Y108700D01*
X108700D01*
Y106300D01*
X106300D01*
X259500Y229000D02*
X260500D01*
X261500Y230000D01*
X262500Y229000D01*
X263500D01*
Y230000D01*
X262500Y231000D01*
X263500Y232000D01*
Y233000D01*
X262500D01*
X261500Y232000D01*
X260500Y233000D01*
X259500D01*
Y232000D01*
X260500Y231000D01*
X259500Y230000D01*
Y229000D01*
X246050Y194400D02*
X248050Y196400D01*
X250050Y194400D01*
X248050Y192400D01*
X246050Y194400D01*
X313200Y232239D02*
Y231239D01*
X315200D01*
Y232239D01*
X316200D01*
Y234239D01*
X315200D01*
Y235239D01*
X313200D01*
Y234239D01*
X312200D01*
Y232239D01*
X313200D01*
X310350Y261800D02*
X312350Y263800D01*
X314350Y261800D01*
X312350Y259800D01*
X310350Y261800D01*
X264109Y223924D02*
X266109Y225924D01*
X268109Y223924D01*
X266109Y221924D01*
X264109Y223924D01*
X256950Y238700D02*
X257950Y240700D01*
X256950Y242700D01*
X258950Y241700D01*
X260950Y242700D01*
X259950Y240700D01*
X260950Y238700D01*
X258950Y239700D01*
X256950Y238700D01*
X201500Y236704D02*
Y235704D01*
X203500D01*
Y236704D01*
X204500D01*
Y238704D01*
X203500D01*
Y239704D01*
X201500D01*
Y238704D01*
X200500D01*
Y236704D01*
X201500D01*
X272200Y228550D02*
X273200Y230550D01*
X272200Y232550D01*
X274200Y231550D01*
X276200Y232550D01*
X275200Y230550D01*
X276200Y228550D01*
X274200Y229550D01*
X272200Y228550D01*
X258725Y232940D02*
X259725Y234940D01*
X258725Y236940D01*
X260725Y235940D01*
X262725Y236940D01*
X261725Y234940D01*
X262725Y232940D01*
X260725Y233940D01*
X258725Y232940D01*
X298200Y231450D02*
Y230450D01*
X300200D01*
Y231450D01*
X301200D01*
Y233450D01*
X300200D01*
Y234450D01*
X298200D01*
Y233450D01*
X297200D01*
Y231450D01*
X298200D01*
X258598Y226609D02*
X259598D01*
X260598Y227609D01*
X261598Y226609D01*
X262598D01*
Y227609D01*
X261598Y228609D01*
X262598Y229609D01*
Y230609D01*
X261598D01*
X260598Y229609D01*
X259598Y230609D01*
X258598D01*
Y229609D01*
X259598Y228609D01*
X258598Y227609D01*
Y226609D01*
X283200Y236550D02*
Y235550D01*
X285200D01*
Y236550D01*
X286200D01*
Y238550D01*
X285200D01*
Y239550D01*
X283200D01*
Y238550D01*
X282200D01*
Y236550D01*
X283200D01*
D62*
X261000Y150600D02*
G03*
X261000Y150600I-2000J0D01*
G01*
Y137200D02*
G03*
X261000Y137200I-2000J0D01*
G01*
X222000D02*
G03*
X222000Y137200I-2000J0D01*
G01*
Y150600D02*
G03*
X222000Y150600I-2000J0D01*
G01*
M02*
