G04*
G04 #@! TF.GenerationSoftware,Altium Limited,Altium Designer,26.5.1 (12)*
G04*
G04 Layer_Color=128*
G04 Board_Origin=0|0*
%FSLAX25Y25*%
%MOIN*%
G70*
G04*
G04 #@! TF.SameCoordinates,A7A92D0D-E98A-4A8B-A3FE-55D99BD98021*
G04*
G04*
G04 #@! TF.FilePolarity,Positive*
G04*
G01*
G75*
%ADD14C,0.00500*%
D14*
X103563Y275000D02*
X111437D01*
X107500Y271063D02*
Y278937D01*
X328563Y275000D02*
X336437D01*
X332500Y271063D02*
Y278937D01*
X328563Y107500D02*
X336437D01*
X332500Y103563D02*
Y111437D01*
X147141Y230700D02*
X152259D01*
X149700Y228141D02*
Y233259D01*
X147141Y250385D02*
X152259D01*
X149700Y247826D02*
Y252944D01*
X179424Y230700D02*
X184543D01*
X181983Y228141D02*
Y233259D01*
X179424Y250385D02*
X184543D01*
X181983Y247826D02*
Y252944D01*
X293964Y191700D02*
X299436D01*
X296700Y188964D02*
Y194436D01*
X303964Y191700D02*
X309436D01*
X306700Y188964D02*
Y194436D01*
X313964Y191700D02*
X319436D01*
X316700Y188964D02*
Y194436D01*
X281326Y211700D02*
X285499D01*
X283413Y209613D02*
Y213787D01*
X322113Y211700D02*
X326287D01*
X324200Y209613D02*
Y213787D01*
X255850Y150600D02*
X262150D01*
X259000Y147450D02*
Y153750D01*
X255850Y137200D02*
X262150D01*
X259000Y134050D02*
Y140350D01*
X216850Y137200D02*
X223150D01*
X220000Y134050D02*
Y140350D01*
X216850Y150600D02*
X223150D01*
X220000Y147450D02*
Y153750D01*
X146658Y130600D02*
X151776D01*
X149216Y128041D02*
Y133159D01*
X146658Y150285D02*
X151776D01*
X149216Y147726D02*
Y152844D01*
X178941Y130600D02*
X184059D01*
X181500Y128041D02*
Y133159D01*
X178941Y150285D02*
X184059D01*
X181500Y147726D02*
Y152844D01*
X103563Y107500D02*
X111437D01*
X107500Y103563D02*
Y111437D01*
X261200Y231000D02*
X261800D01*
X261500Y230700D02*
Y231300D01*
X247550Y194400D02*
X248550D01*
X248050Y193900D02*
Y194900D01*
X313450Y233239D02*
X314950D01*
X314200Y232489D02*
Y233989D01*
X311850Y261800D02*
X312850D01*
X312350Y261300D02*
Y262300D01*
X265610Y223924D02*
X266610D01*
X266109Y223424D02*
Y224424D01*
X258575Y240700D02*
X259325D01*
X258950Y240325D02*
Y241075D01*
X201750Y237704D02*
X203250D01*
X202500Y236954D02*
Y238454D01*
X273825Y230550D02*
X274575D01*
X274200Y230175D02*
Y230925D01*
X260350Y234940D02*
X261100D01*
X260725Y234565D02*
Y235315D01*
X298450Y232450D02*
X299950D01*
X299200Y231700D02*
Y233200D01*
X260298Y228609D02*
X260898D01*
X260598Y228309D02*
Y228909D01*
X283450Y237550D02*
X284950D01*
X284200Y236800D02*
Y238300D01*
M02*
