G04*
G04 #@! TF.GenerationSoftware,Altium Limited,Altium Designer,26.5.1 (12)*
G04*
G04 Layer_Color=65535*
G04 Board_Origin=0|0*
%FSLAX25Y25*%
%MOIN*%
G70*
G04*
G04 #@! TF.SameCoordinates,A7A92D0D-E98A-4A8B-A3FE-55D99BD98021*
G04*
G04*
G04 #@! TF.FilePolarity,Positive*
G04*
G01*
G75*
%ADD10C,0.02000*%
%ADD11C,0.00984*%
%ADD12C,0.00787*%
%ADD13C,0.00600*%
%ADD14C,0.00500*%
%ADD15C,0.00591*%
%ADD16C,0.00200*%
%ADD17C,0.00800*%
%ADD18C,0.01000*%
%ADD19C,0.00300*%
G36*
X135375Y277232D02*
X135536D01*
Y277179D01*
X135589D01*
Y277071D01*
X135643D01*
Y276964D01*
X135589D01*
Y276911D01*
X135536D01*
Y276857D01*
X135429D01*
Y276911D01*
X135268D01*
Y276964D01*
X135161D01*
Y276911D01*
X135214D01*
Y276857D01*
X135268D01*
Y276804D01*
X135321D01*
Y276750D01*
X135375D01*
Y276696D01*
X135429D01*
Y276589D01*
X135482D01*
Y276536D01*
X135536D01*
Y276482D01*
X135589D01*
Y276375D01*
X135643D01*
Y276321D01*
X135696D01*
Y276268D01*
X135750D01*
Y276214D01*
X135857D01*
Y276161D01*
X136071D01*
Y276107D01*
X136179D01*
Y276054D01*
X136286D01*
Y276000D01*
X136393D01*
Y275946D01*
X136554D01*
Y276000D01*
X136607D01*
Y275946D01*
X136714D01*
Y275893D01*
X136768D01*
Y275786D01*
X136821D01*
Y275679D01*
X136875D01*
Y275518D01*
X136929D01*
Y275464D01*
X136875D01*
Y275411D01*
X136768D01*
Y275357D01*
X136714D01*
Y275304D01*
X136661D01*
Y275250D01*
X136607D01*
Y275196D01*
X136661D01*
Y275089D01*
X136714D01*
Y275036D01*
X136768D01*
Y274929D01*
X136821D01*
Y274875D01*
X136875D01*
Y274768D01*
X136929D01*
Y274500D01*
X136982D01*
Y274446D01*
X137036D01*
Y274393D01*
X137143D01*
Y274339D01*
X137196D01*
Y274286D01*
X137250D01*
Y274232D01*
X137304D01*
Y274286D01*
X137357D01*
Y274339D01*
X137518D01*
Y274286D01*
X137571D01*
Y274232D01*
X137625D01*
Y274179D01*
X137679D01*
Y274071D01*
X137839D01*
Y274125D01*
X138000D01*
Y274071D01*
X138054D01*
Y274018D01*
X138107D01*
Y273964D01*
X138161D01*
Y273696D01*
X138214D01*
Y273536D01*
X138268D01*
Y273482D01*
X138321D01*
Y273429D01*
X138375D01*
Y273375D01*
X138429D01*
Y273321D01*
X138482D01*
Y273268D01*
X138536D01*
Y273214D01*
X138589D01*
Y273268D01*
X138643D01*
Y273375D01*
X138696D01*
Y273482D01*
X138750D01*
Y273536D01*
X138804D01*
Y273643D01*
X138857D01*
Y273696D01*
X138911D01*
Y273857D01*
X138964D01*
Y274018D01*
X139018D01*
Y274125D01*
X139071D01*
Y274179D01*
X139125D01*
Y274286D01*
X139232D01*
Y274232D01*
X139286D01*
Y274125D01*
X139339D01*
Y274018D01*
X139500D01*
Y274125D01*
X139554D01*
Y274179D01*
X139607D01*
Y274232D01*
X139661D01*
Y274286D01*
X139714D01*
Y274339D01*
X139768D01*
Y274446D01*
X139821D01*
Y274500D01*
X139875D01*
Y274607D01*
X139929D01*
Y274661D01*
X139982D01*
Y274768D01*
X140143D01*
Y274714D01*
X140196D01*
Y274661D01*
X140304D01*
Y274714D01*
X140357D01*
Y274768D01*
X140411D01*
Y274661D01*
X140464D01*
Y274446D01*
X140518D01*
Y274179D01*
X140571D01*
Y274125D01*
X140625D01*
Y274071D01*
X140679D01*
Y273964D01*
X140732D01*
Y272786D01*
X140679D01*
Y272625D01*
X140625D01*
Y272571D01*
X140571D01*
Y272518D01*
X140518D01*
Y272464D01*
X140411D01*
Y272411D01*
X140304D01*
Y272518D01*
X140250D01*
Y272571D01*
X140304D01*
Y272893D01*
X140357D01*
Y273161D01*
X140304D01*
Y273429D01*
X140250D01*
Y273696D01*
X140196D01*
Y273750D01*
X139982D01*
Y273696D01*
X139875D01*
Y273643D01*
X139821D01*
Y273107D01*
X139768D01*
Y272893D01*
X139714D01*
Y272786D01*
X139554D01*
Y272839D01*
X139393D01*
Y272679D01*
X139339D01*
Y272411D01*
X139393D01*
Y272357D01*
X139446D01*
Y272250D01*
X139500D01*
Y272196D01*
X139554D01*
Y272143D01*
X139607D01*
Y272089D01*
X139714D01*
Y272036D01*
X139821D01*
Y271982D01*
X139875D01*
Y271929D01*
X139929D01*
Y271875D01*
X139982D01*
Y271821D01*
X140036D01*
Y271768D01*
X140089D01*
Y271500D01*
X140143D01*
Y271393D01*
X140250D01*
Y271446D01*
X140357D01*
Y271125D01*
X140304D01*
Y270964D01*
X140250D01*
Y270857D01*
X140196D01*
Y270750D01*
X140250D01*
Y270696D01*
X140304D01*
Y270589D01*
X140357D01*
Y270536D01*
X140464D01*
Y270482D01*
X140571D01*
Y270429D01*
X140679D01*
Y270054D01*
X140625D01*
Y269893D01*
X140571D01*
Y269839D01*
X140518D01*
Y269732D01*
X140464D01*
Y269625D01*
X140411D01*
Y269518D01*
X140357D01*
Y269464D01*
X140304D01*
Y269411D01*
X140250D01*
Y269357D01*
X140196D01*
Y269304D01*
X139661D01*
Y269250D01*
X139500D01*
Y269196D01*
X139393D01*
Y269143D01*
X139286D01*
Y269089D01*
X139125D01*
Y269036D01*
X138911D01*
Y268982D01*
X138804D01*
Y268929D01*
X138643D01*
Y268875D01*
X138536D01*
Y268821D01*
X138482D01*
Y268661D01*
X138429D01*
Y268500D01*
X138482D01*
Y268446D01*
X138536D01*
Y268393D01*
X138643D01*
Y268339D01*
X139446D01*
Y268286D01*
X139607D01*
Y268232D01*
X139929D01*
Y268018D01*
X139821D01*
Y267964D01*
X139607D01*
Y267911D01*
X139232D01*
Y267857D01*
X138964D01*
Y267804D01*
X138804D01*
Y267750D01*
X138589D01*
Y267696D01*
X138429D01*
Y267643D01*
X138321D01*
Y267589D01*
X138214D01*
Y267536D01*
X138000D01*
Y267482D01*
X137839D01*
Y267429D01*
X137786D01*
Y267375D01*
X137304D01*
Y267482D01*
X137196D01*
Y267429D01*
X137143D01*
Y267375D01*
X136982D01*
Y267482D01*
X136821D01*
Y267536D01*
X136607D01*
Y267589D01*
X136393D01*
Y267536D01*
X136179D01*
Y267482D01*
X136125D01*
Y267429D01*
X136071D01*
Y267375D01*
X135482D01*
Y267429D01*
X135429D01*
Y267482D01*
X135268D01*
Y267429D01*
X135214D01*
Y267375D01*
X132482D01*
Y267482D01*
X132268D01*
Y267536D01*
X132000D01*
Y267589D01*
X131839D01*
Y267643D01*
X131625D01*
Y267696D01*
X131518D01*
Y267750D01*
X131357D01*
Y267804D01*
X131250D01*
Y267857D01*
X131143D01*
Y267911D01*
X131089D01*
Y267964D01*
X129964D01*
Y268018D01*
X129804D01*
Y268071D01*
X129696D01*
Y268125D01*
X129643D01*
Y268179D01*
X129589D01*
Y268232D01*
X129536D01*
Y268339D01*
X129482D01*
Y268393D01*
X129429D01*
Y268446D01*
X129321D01*
Y268500D01*
X129268D01*
Y268554D01*
X129161D01*
Y268607D01*
X129107D01*
Y268661D01*
X129054D01*
Y268714D01*
X128946D01*
Y268768D01*
X128679D01*
Y268714D01*
X128304D01*
Y268661D01*
X128196D01*
Y268607D01*
X128089D01*
Y268554D01*
X128036D01*
Y268607D01*
X127929D01*
Y268661D01*
X127821D01*
Y268714D01*
X127768D01*
Y268768D01*
X127661D01*
Y268821D01*
X127607D01*
Y268875D01*
X127500D01*
Y268929D01*
X127393D01*
Y268982D01*
X127339D01*
Y269036D01*
X127286D01*
Y269143D01*
X127232D01*
Y269196D01*
X127179D01*
Y269250D01*
X127125D01*
Y269304D01*
X127071D01*
Y269357D01*
X127018D01*
Y269411D01*
X126964D01*
Y269518D01*
X126911D01*
Y269571D01*
X126857D01*
Y269732D01*
X126750D01*
Y269786D01*
X126375D01*
Y269732D01*
X126268D01*
Y269679D01*
X125893D01*
Y269732D01*
X125786D01*
Y269786D01*
X125679D01*
Y269839D01*
X125625D01*
Y269893D01*
X125571D01*
Y269946D01*
X125464D01*
Y270054D01*
X125357D01*
Y270107D01*
X125304D01*
Y270161D01*
X125143D01*
Y270214D01*
X124982D01*
Y270268D01*
X124875D01*
Y270321D01*
X124821D01*
Y270375D01*
X124768D01*
Y270429D01*
X124661D01*
Y270482D01*
X124554D01*
Y270536D01*
X124446D01*
Y270589D01*
X124393D01*
Y270750D01*
X124339D01*
Y270804D01*
X124286D01*
Y270857D01*
X124125D01*
Y270911D01*
X124071D01*
Y270964D01*
X123911D01*
Y271018D01*
X123857D01*
Y271071D01*
X123750D01*
Y271125D01*
X123696D01*
Y271179D01*
X123643D01*
Y271232D01*
X123536D01*
Y271286D01*
X123482D01*
Y271339D01*
X123429D01*
Y271393D01*
X123268D01*
Y271339D01*
X123214D01*
Y271232D01*
X123161D01*
Y271179D01*
X123107D01*
Y271071D01*
X123054D01*
Y271018D01*
X123000D01*
Y270911D01*
X122946D01*
Y270857D01*
X122893D01*
Y270750D01*
X122839D01*
Y270696D01*
X122786D01*
Y270643D01*
X122732D01*
Y270536D01*
X122679D01*
Y270482D01*
X122625D01*
Y270375D01*
X122571D01*
Y270268D01*
X122518D01*
Y270214D01*
X122464D01*
Y270054D01*
X122411D01*
Y269732D01*
X122357D01*
Y269625D01*
X122304D01*
Y269518D01*
X122250D01*
Y269250D01*
X122196D01*
Y269143D01*
X122143D01*
Y269089D01*
X122089D01*
Y268929D01*
X122036D01*
Y268714D01*
X121982D01*
Y268607D01*
X121875D01*
Y268554D01*
X121554D01*
Y268500D01*
X121446D01*
Y268446D01*
X121339D01*
Y268393D01*
X121179D01*
Y268339D01*
X120750D01*
Y268393D01*
X120589D01*
Y268446D01*
X120482D01*
Y268500D01*
X120429D01*
Y268714D01*
X120482D01*
Y268768D01*
X120589D01*
Y268821D01*
X120696D01*
Y268875D01*
X120804D01*
Y268929D01*
X120911D01*
Y268982D01*
X120964D01*
Y269036D01*
X121071D01*
Y269089D01*
X121125D01*
Y269143D01*
X121179D01*
Y269196D01*
X121232D01*
Y269250D01*
X121286D01*
Y269625D01*
X121339D01*
Y269786D01*
X121393D01*
Y269839D01*
X121446D01*
Y269893D01*
X121500D01*
Y269946D01*
X121554D01*
Y270054D01*
X121607D01*
Y270161D01*
X121661D01*
Y270268D01*
X121714D01*
Y270321D01*
X121768D01*
Y270375D01*
X121821D01*
Y270429D01*
X121875D01*
Y270482D01*
X121929D01*
Y270589D01*
X121982D01*
Y270643D01*
X122036D01*
Y270750D01*
X122089D01*
Y270964D01*
X122143D01*
Y271071D01*
X122196D01*
Y271179D01*
X122250D01*
Y271339D01*
X122304D01*
Y271446D01*
X122357D01*
Y271661D01*
X122411D01*
Y271768D01*
X122464D01*
Y271875D01*
X122518D01*
Y272036D01*
X122464D01*
Y272089D01*
X122411D01*
Y272143D01*
X122357D01*
Y272196D01*
X122304D01*
Y272250D01*
X122250D01*
Y272304D01*
X122143D01*
Y272357D01*
X122089D01*
Y272411D01*
X122036D01*
Y272464D01*
X121982D01*
Y272518D01*
X121929D01*
Y272571D01*
X121875D01*
Y272625D01*
X121821D01*
Y272679D01*
X121714D01*
Y272732D01*
X121661D01*
Y272786D01*
X121607D01*
Y272839D01*
X121554D01*
Y272893D01*
X121500D01*
Y272946D01*
X121446D01*
Y273000D01*
X121393D01*
Y273054D01*
X121339D01*
Y273107D01*
X121286D01*
Y273161D01*
X121179D01*
Y273268D01*
X121071D01*
Y273321D01*
X121018D01*
Y273375D01*
X120964D01*
Y273429D01*
X120911D01*
Y273482D01*
X120857D01*
Y273536D01*
X120750D01*
Y273589D01*
X120696D01*
Y273643D01*
X120643D01*
Y273696D01*
X120589D01*
Y273804D01*
X120536D01*
Y274179D01*
X120589D01*
Y274339D01*
X120643D01*
Y274393D01*
X120696D01*
Y274446D01*
X120750D01*
Y274500D01*
X120804D01*
Y274554D01*
X120857D01*
Y274607D01*
X121339D01*
Y274554D01*
X121446D01*
Y274500D01*
X121500D01*
Y274446D01*
X121554D01*
Y274393D01*
X121607D01*
Y274339D01*
X121714D01*
Y274286D01*
X121875D01*
Y274232D01*
X121982D01*
Y274179D01*
X122143D01*
Y274125D01*
X122464D01*
Y274071D01*
X122732D01*
Y274018D01*
X123161D01*
Y274071D01*
X123268D01*
Y274125D01*
X123375D01*
Y274179D01*
X123429D01*
Y274232D01*
X123482D01*
Y274286D01*
X123536D01*
Y274232D01*
X123804D01*
Y274286D01*
X124018D01*
Y274339D01*
X124125D01*
Y274446D01*
X124179D01*
Y274554D01*
X124393D01*
Y274607D01*
X124500D01*
Y274554D01*
X124607D01*
Y274607D01*
X124661D01*
Y274768D01*
X124714D01*
Y274821D01*
X125036D01*
Y274875D01*
X125089D01*
Y274929D01*
X125036D01*
Y274982D01*
X124982D01*
Y275089D01*
X125304D01*
Y275143D01*
X125357D01*
Y275304D01*
X125411D01*
Y275357D01*
X125518D01*
Y275464D01*
X125411D01*
Y275518D01*
X125357D01*
Y275571D01*
X125411D01*
Y275625D01*
X125464D01*
Y275679D01*
X125679D01*
Y275625D01*
X125839D01*
Y275571D01*
X126161D01*
Y275625D01*
X126268D01*
Y275679D01*
X126643D01*
Y275625D01*
X127071D01*
Y275571D01*
X127607D01*
Y275518D01*
X127714D01*
Y275464D01*
X127821D01*
Y275411D01*
X127875D01*
Y275357D01*
X127929D01*
Y275304D01*
X127982D01*
Y275196D01*
X128036D01*
Y275143D01*
X128089D01*
Y275089D01*
X128143D01*
Y275036D01*
X128196D01*
Y274982D01*
X128357D01*
Y274929D01*
X128571D01*
Y274875D01*
X128679D01*
Y274821D01*
X128786D01*
Y274768D01*
X128839D01*
Y274714D01*
X128893D01*
Y274661D01*
X129000D01*
Y274607D01*
X129161D01*
Y274554D01*
X129321D01*
Y274500D01*
X129375D01*
Y274446D01*
X129429D01*
Y274393D01*
X129482D01*
Y274339D01*
X129429D01*
Y274286D01*
X129375D01*
Y274232D01*
X129268D01*
Y274286D01*
X129161D01*
Y274339D01*
X129054D01*
Y274393D01*
X128893D01*
Y274446D01*
X128786D01*
Y274500D01*
X128732D01*
Y274554D01*
X128679D01*
Y274607D01*
X128464D01*
Y274554D01*
X128196D01*
Y274500D01*
X128143D01*
Y274446D01*
X128036D01*
Y274393D01*
X127982D01*
Y274286D01*
X127929D01*
Y274125D01*
X127875D01*
Y273964D01*
X127821D01*
Y273643D01*
X127768D01*
Y273268D01*
X127821D01*
Y273161D01*
X127875D01*
Y273054D01*
X127929D01*
Y272946D01*
X127982D01*
Y272893D01*
X128036D01*
Y272786D01*
X128143D01*
Y272679D01*
X128250D01*
Y272625D01*
X128304D01*
Y272571D01*
X128357D01*
Y272518D01*
X128411D01*
Y272464D01*
X128518D01*
Y272411D01*
X128625D01*
Y272357D01*
X128679D01*
Y272304D01*
X128786D01*
Y272250D01*
X129000D01*
Y272196D01*
X129107D01*
Y272143D01*
X129268D01*
Y272089D01*
X129429D01*
Y272036D01*
X129643D01*
Y271982D01*
X130661D01*
Y272036D01*
X130875D01*
Y272089D01*
X131036D01*
Y272143D01*
X131196D01*
Y272089D01*
X131250D01*
Y271982D01*
X131304D01*
Y271929D01*
X131357D01*
Y271875D01*
X131464D01*
Y272036D01*
X131411D01*
Y272089D01*
X131357D01*
Y272196D01*
X131304D01*
Y272357D01*
X131357D01*
Y272464D01*
X131411D01*
Y272571D01*
X131464D01*
Y272946D01*
X131411D01*
Y273000D01*
X131357D01*
Y273054D01*
X131304D01*
Y272732D01*
X131250D01*
Y272625D01*
X131196D01*
Y272571D01*
X131036D01*
Y272625D01*
X130982D01*
Y272839D01*
X131036D01*
Y272946D01*
X131089D01*
Y273321D01*
X131036D01*
Y273375D01*
X130929D01*
Y273268D01*
X130982D01*
Y273000D01*
X130929D01*
Y272946D01*
X130875D01*
Y272893D01*
X130821D01*
Y272946D01*
X130768D01*
Y273000D01*
X130714D01*
Y273268D01*
X130768D01*
Y273321D01*
X130875D01*
Y273429D01*
X130821D01*
Y273482D01*
X130768D01*
Y273643D01*
X131196D01*
Y273696D01*
X131411D01*
Y273750D01*
X131518D01*
Y273804D01*
X131679D01*
Y273857D01*
X131732D01*
Y273911D01*
X131839D01*
Y273964D01*
X131946D01*
Y274018D01*
X132000D01*
Y274071D01*
X132054D01*
Y274125D01*
X132107D01*
Y274179D01*
X132161D01*
Y274232D01*
X132214D01*
Y274286D01*
X132268D01*
Y274339D01*
X132321D01*
Y274393D01*
X132375D01*
Y274500D01*
X132429D01*
Y274607D01*
X132482D01*
Y274714D01*
X132536D01*
Y274875D01*
X132589D01*
Y275143D01*
X132643D01*
Y275357D01*
X132696D01*
Y275464D01*
X132750D01*
Y275839D01*
X132696D01*
Y275893D01*
X132536D01*
Y275946D01*
X132375D01*
Y276000D01*
X132161D01*
Y276054D01*
X132107D01*
Y276107D01*
X132054D01*
Y276161D01*
X132000D01*
Y276482D01*
X132054D01*
Y276696D01*
X132107D01*
Y276750D01*
X132429D01*
Y276804D01*
X132643D01*
Y276857D01*
X132911D01*
Y276911D01*
X133446D01*
Y276857D01*
X133607D01*
Y276804D01*
X133982D01*
Y276750D01*
X134089D01*
Y276696D01*
X134196D01*
Y276643D01*
X134250D01*
Y276589D01*
X134357D01*
Y276536D01*
X134411D01*
Y276482D01*
X134518D01*
Y276429D01*
X134625D01*
Y276375D01*
X134732D01*
Y276321D01*
X134839D01*
Y276268D01*
X135000D01*
Y276214D01*
X135107D01*
Y276161D01*
X135321D01*
Y276321D01*
X135268D01*
Y276375D01*
X135214D01*
Y276536D01*
X135161D01*
Y276643D01*
X135107D01*
Y276804D01*
X135054D01*
Y276911D01*
X135000D01*
Y276964D01*
X134946D01*
Y277018D01*
X134839D01*
Y277071D01*
X134786D01*
Y277179D01*
X135000D01*
Y277125D01*
X135161D01*
Y277179D01*
X135214D01*
Y277232D01*
X135268D01*
Y277286D01*
X135375D01*
Y277232D01*
D02*
G37*
G36*
X124929Y276536D02*
X125036D01*
Y276375D01*
X125089D01*
Y276000D01*
X125036D01*
Y275786D01*
X124982D01*
Y275625D01*
X124929D01*
Y275571D01*
X124821D01*
Y275464D01*
X124768D01*
Y275411D01*
X124714D01*
Y275304D01*
X124661D01*
Y275250D01*
X124554D01*
Y275196D01*
X124500D01*
Y275143D01*
X124446D01*
Y275089D01*
X124393D01*
Y274982D01*
X124446D01*
Y274875D01*
X124393D01*
Y274821D01*
X124339D01*
Y274768D01*
X124232D01*
Y274875D01*
X124125D01*
Y274821D01*
X124071D01*
Y274714D01*
X124125D01*
Y274607D01*
X123911D01*
Y274661D01*
X123750D01*
Y274607D01*
X123696D01*
Y274554D01*
X123589D01*
Y274500D01*
X123536D01*
Y274446D01*
X123482D01*
Y274339D01*
X123375D01*
Y274393D01*
X123321D01*
Y274446D01*
X122679D01*
Y274500D01*
X122625D01*
Y274554D01*
X122571D01*
Y274929D01*
X122625D01*
Y275089D01*
X122679D01*
Y275196D01*
X122732D01*
Y275304D01*
X122786D01*
Y275679D01*
X122732D01*
Y276054D01*
X122786D01*
Y276107D01*
X122839D01*
Y276214D01*
X122893D01*
Y276268D01*
X122946D01*
Y276321D01*
X123054D01*
Y276375D01*
X123107D01*
Y276429D01*
X123214D01*
Y276482D01*
X123375D01*
Y276536D01*
X123536D01*
Y276589D01*
X123964D01*
Y276536D01*
X124071D01*
Y276482D01*
X124393D01*
Y276536D01*
X124554D01*
Y276589D01*
X124929D01*
Y276536D01*
D02*
G37*
G36*
X129643Y274339D02*
X129750D01*
Y274286D01*
X129857D01*
Y274179D01*
X129804D01*
Y274125D01*
X129696D01*
Y274179D01*
X129589D01*
Y274286D01*
X129536D01*
Y274393D01*
X129643D01*
Y274339D01*
D02*
G37*
G36*
X130018Y273964D02*
X130071D01*
Y273804D01*
X129911D01*
Y273857D01*
X129857D01*
Y274018D01*
X130018D01*
Y273964D01*
D02*
G37*
G36*
X130286D02*
X130339D01*
Y273911D01*
X130393D01*
Y273857D01*
X130446D01*
Y273804D01*
X130500D01*
Y273696D01*
X130554D01*
Y273643D01*
X130607D01*
Y273536D01*
X130661D01*
Y273321D01*
X130607D01*
Y273268D01*
X130500D01*
Y273321D01*
X130446D01*
Y273375D01*
X130393D01*
Y273429D01*
X130339D01*
Y273482D01*
X130286D01*
Y273536D01*
X130232D01*
Y273589D01*
X130179D01*
Y274018D01*
X130286D01*
Y273964D01*
D02*
G37*
G36*
X130125Y273268D02*
X130018D01*
Y273321D01*
X129964D01*
Y273375D01*
Y273429D01*
X130125D01*
Y273268D01*
D02*
G37*
G36*
X130446Y272946D02*
X130339D01*
Y273000D01*
X130286D01*
Y273107D01*
X130446D01*
Y272946D01*
D02*
G37*
G36*
X129536Y273750D02*
X129643D01*
Y273643D01*
X129696D01*
Y273536D01*
X129750D01*
Y273482D01*
X129804D01*
Y273375D01*
X129857D01*
Y273321D01*
X129911D01*
Y273054D01*
X129857D01*
Y272946D01*
X129804D01*
Y272786D01*
X129911D01*
Y272893D01*
X129964D01*
Y272946D01*
X130071D01*
Y272893D01*
X130125D01*
Y272839D01*
X130179D01*
Y272625D01*
X130125D01*
Y272571D01*
X130071D01*
Y272357D01*
X130018D01*
Y272304D01*
X129804D01*
Y272357D01*
X129321D01*
Y272411D01*
X129214D01*
Y272464D01*
X129054D01*
Y272518D01*
X128946D01*
Y272571D01*
X128839D01*
Y272625D01*
X128732D01*
Y272679D01*
X128679D01*
Y272839D01*
X128732D01*
Y272946D01*
X128786D01*
Y273054D01*
X128839D01*
Y273107D01*
X128893D01*
Y273161D01*
X128946D01*
Y273268D01*
X129000D01*
Y273321D01*
X129054D01*
Y273375D01*
X129107D01*
Y273429D01*
X129161D01*
Y273536D01*
X129321D01*
Y273429D01*
X129375D01*
Y273268D01*
X129429D01*
Y273054D01*
X129482D01*
Y272893D01*
X129536D01*
Y273054D01*
X129482D01*
Y273589D01*
X129429D01*
Y273643D01*
Y273750D01*
X129482D01*
Y273804D01*
X129536D01*
Y273750D01*
D02*
G37*
G36*
X128732Y274286D02*
X128839D01*
Y274232D01*
X128893D01*
Y274179D01*
X129054D01*
Y274125D01*
X129161D01*
Y274071D01*
X129268D01*
Y273964D01*
X129321D01*
Y273911D01*
X129268D01*
Y273857D01*
X129214D01*
Y273804D01*
X129161D01*
Y273750D01*
X129107D01*
Y273696D01*
X129054D01*
Y273643D01*
X129000D01*
Y273589D01*
X128946D01*
Y273536D01*
X128893D01*
Y273482D01*
X128839D01*
Y273375D01*
X128786D01*
Y273321D01*
X128732D01*
Y273268D01*
X128679D01*
Y273161D01*
X128625D01*
Y273107D01*
X128571D01*
Y273000D01*
X128518D01*
Y272946D01*
X128464D01*
Y272893D01*
X128411D01*
Y272946D01*
X128304D01*
Y273054D01*
X128250D01*
Y273107D01*
X128196D01*
Y273214D01*
X128143D01*
Y273321D01*
X128089D01*
Y273482D01*
X128036D01*
Y273804D01*
X128089D01*
Y273964D01*
X128143D01*
Y274018D01*
X128196D01*
Y274071D01*
X128250D01*
Y274179D01*
X128357D01*
Y274232D01*
X128411D01*
Y274286D01*
X128464D01*
Y274339D01*
X128732D01*
Y274286D01*
D02*
G37*
G36*
X130661Y272786D02*
X130714D01*
Y272625D01*
X130661D01*
Y272571D01*
X130446D01*
Y272625D01*
X130339D01*
Y272679D01*
X130286D01*
Y272732D01*
X130339D01*
Y272786D01*
X130393D01*
Y272839D01*
X130661D01*
Y272786D01*
D02*
G37*
G36*
X130875Y272464D02*
X130929D01*
Y272411D01*
X130875D01*
Y272357D01*
X130661D01*
Y272518D01*
X130875D01*
Y272464D01*
D02*
G37*
G36*
X130286D02*
X130393D01*
Y272411D01*
X130500D01*
Y272357D01*
X130607D01*
Y272304D01*
X130554D01*
Y272250D01*
X130232D01*
Y272304D01*
X130179D01*
Y272464D01*
X130232D01*
Y272518D01*
X130286D01*
Y272464D01*
D02*
G37*
%LPC*%
G36*
X126321Y275464D02*
X126268D01*
Y275411D01*
X126214D01*
Y275357D01*
X126268D01*
Y275304D01*
X126375D01*
Y275411D01*
X126321D01*
Y275464D01*
D02*
G37*
G36*
X135964Y275893D02*
X135804D01*
Y275839D01*
X135750D01*
Y275571D01*
X135804D01*
Y275464D01*
X135857D01*
Y275411D01*
X135911D01*
Y275357D01*
X136018D01*
Y275304D01*
X136071D01*
Y275250D01*
X136179D01*
Y275196D01*
X136286D01*
Y275250D01*
X136393D01*
Y275411D01*
X136339D01*
Y275464D01*
X136232D01*
Y275571D01*
X136179D01*
Y275625D01*
X136125D01*
Y275732D01*
X136071D01*
Y275839D01*
X135964D01*
Y275893D01*
D02*
G37*
G36*
X135268Y275571D02*
X135161D01*
Y275518D01*
X135107D01*
Y275411D01*
X135054D01*
Y275357D01*
X135107D01*
Y275304D01*
X135161D01*
Y275250D01*
X135214D01*
Y275196D01*
X135429D01*
Y275143D01*
X135589D01*
Y275250D01*
X135536D01*
Y275357D01*
X135482D01*
Y275411D01*
X135429D01*
Y275464D01*
X135321D01*
Y275518D01*
X135268D01*
Y275571D01*
D02*
G37*
G36*
X124768Y273911D02*
X124607D01*
Y273804D01*
X124768D01*
Y273911D01*
D02*
G37*
G36*
X134464Y272786D02*
X134411D01*
Y272732D01*
X134357D01*
Y272679D01*
X134411D01*
Y272625D01*
X134464D01*
Y272679D01*
X134518D01*
Y272732D01*
X134464D01*
Y272786D01*
D02*
G37*
G36*
X139393Y272143D02*
X139286D01*
Y272089D01*
X139339D01*
Y272036D01*
X139393D01*
Y272089D01*
Y272143D01*
D02*
G37*
G36*
X139661Y271768D02*
X139607D01*
Y271714D01*
X139661D01*
Y271768D01*
D02*
G37*
G36*
X139714Y271661D02*
X139661D01*
Y271607D01*
X139714D01*
Y271500D01*
X139768D01*
Y271607D01*
X139714D01*
Y271661D01*
D02*
G37*
G36*
X132054Y271339D02*
X131946D01*
Y271232D01*
X132000D01*
Y271179D01*
X132054D01*
Y271071D01*
X132107D01*
Y271018D01*
X132161D01*
Y270964D01*
X132214D01*
Y270911D01*
X132268D01*
Y270857D01*
X132321D01*
Y270804D01*
X132375D01*
Y270696D01*
X132429D01*
Y270643D01*
X132482D01*
Y270589D01*
X132857D01*
Y270643D01*
X132911D01*
Y270696D01*
X132857D01*
Y270750D01*
X132804D01*
Y270804D01*
X132750D01*
Y270857D01*
X132643D01*
Y270911D01*
X132589D01*
Y270964D01*
X132482D01*
Y271018D01*
X132375D01*
Y271071D01*
X132321D01*
Y271125D01*
X132268D01*
Y271179D01*
X132214D01*
Y271232D01*
X132107D01*
Y271286D01*
X132054D01*
Y271339D01*
D02*
G37*
G36*
X134946Y270107D02*
X134518D01*
Y270054D01*
X134464D01*
Y270000D01*
Y269946D01*
X134839D01*
Y270000D01*
X135000D01*
Y270054D01*
X134946D01*
Y270107D01*
D02*
G37*
%LPD*%
D10*
X183484Y268515D02*
G03*
X183484Y268515I-1500J0D01*
G01*
X183000Y168415D02*
G03*
X183000Y168415I-1500J0D01*
G01*
D11*
X329828Y191700D02*
G03*
X329828Y191700I-492J0D01*
G01*
X266995Y231956D02*
G03*
X266995Y231956I-492J0D01*
G01*
D12*
X276739Y211700D02*
G03*
X276739Y211700I-394J0D01*
G01*
X286621Y180283D02*
X326779D01*
X286621Y198787D02*
X326779D01*
X286621Y180283D02*
Y198787D01*
X326779Y180283D02*
Y198787D01*
D13*
X284500Y243300D02*
G03*
X284500Y243300I-300J0D01*
G01*
X204800Y150600D02*
G03*
X204800Y150600I-300J0D01*
G01*
X226200Y211472D02*
G03*
X226200Y211472I-300J0D01*
G01*
X308161Y264950D02*
X309239D01*
X308161Y258650D02*
X309239D01*
X310950Y228061D02*
Y230339D01*
X317450Y228061D02*
Y230339D01*
X146550Y264558D02*
X167810D01*
X146550Y261015D02*
Y264558D01*
X167810Y261015D02*
Y264558D01*
X117810Y220936D02*
Y238259D01*
Y240621D02*
Y257944D01*
Y220936D02*
X129227D01*
X117810Y240621D02*
X129227D01*
X117810Y238259D02*
X129227D01*
X117810Y257944D02*
X129227D01*
Y261015D02*
X193401D01*
X129227Y215739D02*
Y261015D01*
Y215739D02*
X193401D01*
Y261015D01*
X278400Y229511D02*
Y233889D01*
X290000Y229511D02*
Y233889D01*
X207500Y130150D02*
Y157650D01*
X271500Y130150D02*
Y157650D01*
X207500Y130150D02*
X271500D01*
X207500Y157650D02*
X271500D01*
X218250Y234350D02*
Y265650D01*
Y234350D02*
X250750D01*
Y265650D01*
X218250D02*
X250750D01*
X146067Y164458D02*
X167327D01*
X146067Y160915D02*
Y164458D01*
X167327Y160915D02*
Y164458D01*
X117327Y120836D02*
Y138159D01*
Y140521D02*
Y157844D01*
Y120836D02*
X128744D01*
X117327Y140521D02*
X128744D01*
X117327Y138159D02*
X128744D01*
X117327Y157844D02*
X128744D01*
Y160915D02*
X192917D01*
X128744Y115639D02*
Y160915D01*
Y115639D02*
X192917D01*
Y160915D01*
X243861Y197550D02*
X244939D01*
X243861Y191250D02*
X244939D01*
D14*
X207421Y241129D02*
Y247271D01*
X197579Y241129D02*
Y247271D01*
X287802Y211700D02*
X294692D01*
X312920D02*
X319810D01*
X294692Y216375D02*
X312920D01*
Y211700D02*
Y216375D01*
Y207025D02*
Y211700D01*
X294692Y207025D02*
X312920D01*
X294692D02*
Y211700D01*
Y216375D01*
X222168Y198501D02*
Y202499D01*
X224167D01*
X224834Y201833D01*
Y200500D01*
X224167Y199834D01*
X222168D01*
X223501D02*
X224834Y198501D01*
X226167Y202499D02*
X228832D01*
Y201833D01*
X226167Y199167D01*
Y198501D01*
X285168Y253001D02*
Y256999D01*
X287167D01*
X287834Y256333D01*
Y255000D01*
X287167Y254334D01*
X285168D01*
X286501D02*
X287834Y253001D01*
X291832Y256999D02*
X289166D01*
Y255000D01*
X290499Y255666D01*
X291166D01*
X291832Y255000D01*
Y253667D01*
X291166Y253001D01*
X289833D01*
X289166Y253667D01*
X256069Y196499D02*
Y192501D01*
X258735D01*
X262734Y196499D02*
X260068D01*
Y192501D01*
X262734D01*
X260068Y194500D02*
X261401D01*
X264067Y196499D02*
Y192501D01*
X266066D01*
X266732Y193167D01*
Y195833D01*
X266066Y196499D01*
X264067D01*
X270731Y192501D02*
X268065D01*
X270731Y195167D01*
Y195833D01*
X270064Y196499D01*
X268732D01*
X268065Y195833D01*
X302336Y256599D02*
Y252601D01*
X305001D01*
X309000Y256599D02*
X306334D01*
Y252601D01*
X309000D01*
X306334Y254600D02*
X307667D01*
X310333Y256599D02*
Y252601D01*
X312332D01*
X312999Y253267D01*
Y255933D01*
X312332Y256599D01*
X310333D01*
X314332Y252601D02*
X315665D01*
X314998D01*
Y256599D01*
X314332Y255933D01*
X246134Y230599D02*
Y227267D01*
X246801Y226601D01*
X248134D01*
X248800Y227267D01*
Y230599D01*
X250133Y226601D02*
X251466D01*
X250799D01*
Y230599D01*
X250133Y229933D01*
X316299Y237868D02*
X312301D01*
Y239867D01*
X312967Y240534D01*
X314300D01*
X314966Y239867D01*
Y237868D01*
Y239201D02*
X316299Y240534D01*
Y243866D02*
X312301D01*
X314300Y241866D01*
Y244532D01*
X257534Y258701D02*
Y262699D01*
X259534D01*
X260200Y262033D01*
Y260700D01*
X259534Y260034D01*
X257534D01*
X258867D02*
X260200Y258701D01*
X261533D02*
X262866D01*
X262199D01*
Y262699D01*
X261533Y262033D01*
X283033Y189200D02*
X280367D01*
X279701Y188533D01*
Y187201D01*
X280367Y186534D01*
X283033D01*
X283699Y187201D01*
Y188533D01*
X282366Y187867D02*
X283699Y189200D01*
Y188533D02*
X283033Y189200D01*
X283699Y190533D02*
Y191866D01*
Y191199D01*
X279701D01*
X280367Y190533D01*
X211401Y259534D02*
X215399D01*
Y262200D01*
Y263533D02*
Y264866D01*
Y264199D01*
X211401D01*
X212067Y263533D01*
X196101Y261034D02*
Y259701D01*
Y260367D01*
X199433D01*
X200099Y259701D01*
Y259034D01*
X199433Y258368D01*
X200099Y265032D02*
Y262367D01*
X197433Y265032D01*
X196767D01*
X196101Y264366D01*
Y263033D01*
X196767Y262367D01*
X195701Y118600D02*
Y117267D01*
Y117933D01*
X199033D01*
X199699Y117267D01*
Y116601D01*
X199033Y115934D01*
X199699Y119933D02*
Y121266D01*
Y120599D01*
X195701D01*
X196367Y119933D01*
X202700Y158699D02*
X200034D01*
Y156700D01*
X201367D01*
X200034D01*
Y154701D01*
X204033D02*
X205366D01*
X204699D01*
Y158699D01*
X204033Y158033D01*
X304701Y221300D02*
Y218301D01*
X306200D01*
X306700Y218800D01*
Y220800D01*
X306200Y221300D01*
X304701D01*
X307700Y218301D02*
X308699D01*
X308200D01*
Y221300D01*
X307700Y220800D01*
X199733Y232633D02*
X199067Y233299D01*
X197734D01*
X197068Y232633D01*
Y229967D01*
X197734Y229301D01*
X199067D01*
X199733Y229967D01*
X203732Y233299D02*
X201066D01*
Y231300D01*
X202399Y231966D01*
X203066D01*
X203732Y231300D01*
Y229967D01*
X203066Y229301D01*
X201733D01*
X201066Y229967D01*
X297967Y240234D02*
X297301Y239567D01*
Y238234D01*
X297967Y237568D01*
X300633D01*
X301299Y238234D01*
Y239567D01*
X300633Y240234D01*
X297967Y241566D02*
X297301Y242233D01*
Y243566D01*
X297967Y244232D01*
X298634D01*
X299300Y243566D01*
Y242899D01*
Y243566D01*
X299966Y244232D01*
X300633D01*
X301299Y243566D01*
Y242233D01*
X300633Y241566D01*
X287767Y245134D02*
X287101Y244467D01*
Y243134D01*
X287767Y242468D01*
X290433D01*
X291099Y243134D01*
Y244467D01*
X290433Y245134D01*
X291099Y249132D02*
Y246466D01*
X288434Y249132D01*
X287767D01*
X287101Y248466D01*
Y247133D01*
X287767Y246466D01*
X219800Y230433D02*
X219134Y231099D01*
X217801D01*
X217134Y230433D01*
Y227767D01*
X217801Y227101D01*
X219134D01*
X219800Y227767D01*
X221133Y227101D02*
X222466D01*
X221799D01*
Y231099D01*
X221133Y230433D01*
D15*
X268865Y229594D02*
X270046D01*
X257054D02*
X257527D01*
X257015Y216602D02*
Y217074D01*
X257054Y229121D02*
Y229594D01*
X257015Y216602D02*
X257487D01*
X270046Y229121D02*
Y229594D01*
Y216602D02*
Y217074D01*
X269554Y216602D02*
X270027D01*
X257448Y216995D02*
X269653D01*
Y229200D01*
X257448Y216995D02*
Y229200D01*
X269653D01*
D16*
X271366Y232500D02*
Y230500D01*
X270366D01*
X270033Y230834D01*
Y231500D01*
X270366Y231833D01*
X271366D01*
X270700D02*
X270033Y232500D01*
X269367Y230834D02*
X269034Y230500D01*
X268367D01*
X268034Y230834D01*
Y231167D01*
X268367Y231500D01*
X268700D01*
X268367D01*
X268034Y231833D01*
Y232166D01*
X268367Y232500D01*
X269034D01*
X269367Y232166D01*
X256200Y239034D02*
X254200D01*
Y240034D01*
X254534Y240367D01*
X255200D01*
X255533Y240034D01*
Y239034D01*
Y239700D02*
X256200Y240367D01*
Y242366D02*
Y241033D01*
X254867Y242366D01*
X254534D01*
X254200Y242033D01*
Y241367D01*
X254534Y241033D01*
X259467Y238566D02*
X259134Y238900D01*
X258467D01*
X258134Y238566D01*
Y237234D01*
X258467Y236900D01*
X259134D01*
X259467Y237234D01*
X261466Y238900D02*
X260800Y238566D01*
X260133Y237900D01*
Y237234D01*
X260467Y236900D01*
X261133D01*
X261466Y237234D01*
Y237567D01*
X261133Y237900D01*
X260133D01*
X276033Y243367D02*
X275700Y243034D01*
Y242367D01*
X276033Y242034D01*
X277366D01*
X277700Y242367D01*
Y243034D01*
X277366Y243367D01*
X277700Y245033D02*
X275700D01*
X276700Y244033D01*
Y245366D01*
D17*
X152800Y194799D02*
X155133D01*
X153966D01*
Y191300D01*
X158048D02*
X156882D01*
X156299Y191883D01*
Y193049D01*
X156882Y193633D01*
X158048D01*
X158631Y193049D01*
Y192466D01*
X156299D01*
X159798Y191300D02*
X161547D01*
X162130Y191883D01*
X161547Y192466D01*
X160381D01*
X159798Y193049D01*
X160381Y193633D01*
X162130D01*
X163880Y194216D02*
Y193633D01*
X163297D01*
X164463D01*
X163880D01*
Y191883D01*
X164463Y191300D01*
X169711D02*
Y194799D01*
X171461D01*
X172044Y194216D01*
Y193049D01*
X171461Y192466D01*
X169711D01*
X173793Y193633D02*
X174960D01*
X175543Y193049D01*
Y191300D01*
X173793D01*
X173210Y191883D01*
X173793Y192466D01*
X175543D01*
X179042Y194799D02*
Y191300D01*
X177292D01*
X176709Y191883D01*
Y193049D01*
X177292Y193633D01*
X179042D01*
X180208Y191300D02*
X181957D01*
X182540Y191883D01*
X181957Y192466D01*
X180791D01*
X180208Y193049D01*
X180791Y193633D01*
X182540D01*
X185800Y182799D02*
Y180466D01*
X186966Y179300D01*
X188133Y180466D01*
Y182799D01*
X189299Y179300D02*
X190465D01*
X189882D01*
Y181633D01*
X189299D01*
X192215Y179300D02*
Y181633D01*
X193964D01*
X194547Y181049D01*
Y179300D01*
X188300Y198799D02*
Y196466D01*
X189466Y195300D01*
X190633Y196466D01*
Y198799D01*
X192382Y195300D02*
X193548D01*
X194131Y195883D01*
Y197049D01*
X193548Y197633D01*
X192382D01*
X191799Y197049D01*
Y195883D01*
X192382Y195300D01*
X195298Y197633D02*
Y195883D01*
X195881Y195300D01*
X197630D01*
Y197633D01*
X199380Y198216D02*
Y197633D01*
X198797D01*
X199963D01*
X199380D01*
Y195883D01*
X199963Y195300D01*
X157133Y208216D02*
X156549Y208799D01*
X155383D01*
X154800Y208216D01*
Y205883D01*
X155383Y205300D01*
X156549D01*
X157133Y205883D01*
Y207049D01*
X155966D01*
X158299Y205300D02*
Y208799D01*
X160631Y205300D01*
Y208799D01*
X161798D02*
Y205300D01*
X163547D01*
X164130Y205883D01*
Y208216D01*
X163547Y208799D01*
X161798D01*
D18*
X208500Y110000D02*
X209500Y109000D01*
X211499D01*
X212499Y110000D01*
Y113998D01*
X211499Y114998D01*
X209500D01*
X208500Y113998D01*
Y112999D01*
X209500Y111999D01*
X212499D01*
X214498D02*
X218497D01*
X224495Y109000D02*
X220496D01*
X224495Y112999D01*
Y113998D01*
X223495Y114998D01*
X221496D01*
X220496Y113998D01*
X229493Y109000D02*
Y114998D01*
X226494Y111999D01*
X230493D01*
X232492Y114998D02*
Y110999D01*
X234492Y109000D01*
X236491Y110999D01*
Y114998D01*
X245488Y113998D02*
Y112999D01*
X244488D01*
X246488D01*
X245488D01*
Y110000D01*
X246488Y109000D01*
X250486D02*
X252486D01*
X253485Y110000D01*
Y111999D01*
X252486Y112999D01*
X250486D01*
X249487Y111999D01*
Y110000D01*
X250486Y109000D01*
X265482Y114998D02*
X261483D01*
Y111999D01*
X263482Y112999D01*
X264482D01*
X265482Y111999D01*
Y110000D01*
X264482Y109000D01*
X262483D01*
X261483Y110000D01*
X267481Y114998D02*
Y110999D01*
X269480Y109000D01*
X271480Y110999D01*
Y114998D01*
X279477D02*
Y109000D01*
X288474D02*
X290474D01*
X289474D01*
Y114998D01*
X288474Y113998D01*
X293473D02*
X294472Y114998D01*
X296472D01*
X297471Y113998D01*
Y110000D01*
X296472Y109000D01*
X294472D01*
X293473Y110000D01*
Y113998D01*
X299471Y109000D02*
Y112999D01*
X301470Y114998D01*
X303469Y112999D01*
Y109000D01*
Y111999D01*
X299471D01*
X212499Y122998D02*
X211499Y123998D01*
X209500D01*
X208500Y122998D01*
Y119000D01*
X209500Y118000D01*
X211499D01*
X212499Y119000D01*
X214498Y118000D02*
X216497D01*
X215498D01*
Y123998D01*
X214498D01*
X220496Y118000D02*
X222496D01*
X223495Y119000D01*
Y120999D01*
X222496Y121999D01*
X220496D01*
X219496Y120999D01*
Y119000D01*
X220496Y118000D01*
X225495Y121999D02*
Y119000D01*
X226494Y118000D01*
X229493D01*
Y121999D01*
X235491Y123998D02*
Y118000D01*
X232492D01*
X231493Y119000D01*
Y120999D01*
X232492Y121999D01*
X235491D01*
X243489Y118000D02*
X245488D01*
X244488D01*
Y123998D01*
X243489Y122998D01*
X248487Y118000D02*
Y119000D01*
X249487D01*
Y118000D01*
X248487D01*
X253485Y122998D02*
X254485Y123998D01*
X256485D01*
X257484Y122998D01*
Y119000D01*
X256485Y118000D01*
X254485D01*
X253485Y119000D01*
Y122998D01*
X265482Y123998D02*
Y118000D01*
X274479Y123998D02*
Y118000D01*
X277478D01*
X278477Y119000D01*
Y122998D01*
X277478Y123998D01*
X274479D01*
X284475Y122998D02*
X283476Y123998D01*
X281476D01*
X280477Y122998D01*
Y119000D01*
X281476Y118000D01*
X283476D01*
X284475Y119000D01*
X286475Y120999D02*
X290474D01*
X292473Y123998D02*
Y118000D01*
X295472D01*
X296472Y119000D01*
Y122998D01*
X295472Y123998D01*
X292473D01*
X302470Y122998D02*
X301470Y123998D01*
X299471D01*
X298471Y122998D01*
Y119000D01*
X299471Y118000D01*
X301470D01*
X302470Y119000D01*
X310467Y123998D02*
Y118000D01*
X313466D01*
X314466Y119000D01*
Y119999D01*
X313466Y120999D01*
X310467D01*
X313466D01*
X314466Y121999D01*
Y122998D01*
X313466Y123998D01*
X310467D01*
X316465Y121999D02*
Y119000D01*
X317465Y118000D01*
X320464D01*
Y121999D01*
X326462D02*
X323463D01*
X322463Y120999D01*
Y119000D01*
X323463Y118000D01*
X326462D01*
X328461D02*
Y123998D01*
Y119999D02*
X331460Y121999D01*
X328461Y119999D02*
X331460Y118000D01*
X291000Y268000D02*
Y273998D01*
X293999D01*
X294999Y272998D01*
Y270999D01*
X293999Y269999D01*
X291000D01*
X297998Y268000D02*
X299997D01*
X300997Y269000D01*
Y270999D01*
X299997Y271999D01*
X297998D01*
X296998Y270999D01*
Y269000D01*
X297998Y268000D01*
X302996Y271999D02*
Y269000D01*
X303996Y268000D01*
X304995Y269000D01*
X305995Y268000D01*
X306995Y269000D01*
Y271999D01*
X311993Y268000D02*
X309994D01*
X308994Y269000D01*
Y270999D01*
X309994Y271999D01*
X311993D01*
X312993Y270999D01*
Y269999D01*
X308994D01*
X314992Y271999D02*
Y268000D01*
Y269999D01*
X315992Y270999D01*
X316992Y271999D01*
X317991D01*
X236499Y187999D02*
X233500D01*
Y183500D01*
X236499D01*
X233500Y185749D02*
X234999D01*
X237999Y186499D02*
Y183500D01*
Y185000D01*
X238748Y185749D01*
X239498Y186499D01*
X240248D01*
X242497D02*
Y183500D01*
Y185000D01*
X243247Y185749D01*
X243997Y186499D01*
X244746D01*
X247745Y183500D02*
X249245D01*
X249995Y184250D01*
Y185749D01*
X249245Y186499D01*
X247745D01*
X246996Y185749D01*
Y184250D01*
X247745Y183500D01*
X251494Y186499D02*
Y183500D01*
Y185000D01*
X252244Y185749D01*
X252994Y186499D01*
X253744D01*
D19*
X168340Y248795D02*
Y250461D01*
Y249628D01*
X164175D01*
X163342Y250461D01*
Y251294D01*
X164175Y252127D01*
X163342Y243796D02*
Y247129D01*
X166674Y243796D01*
X167507D01*
X168340Y244630D01*
Y246296D01*
X167507Y247129D01*
X229082Y146398D02*
X225750D01*
Y143899D01*
X227416D01*
X225750D01*
Y141400D01*
X230748D02*
X232415D01*
X231581D01*
Y146398D01*
X230748Y145565D01*
X236998Y263750D02*
X232000D01*
Y260418D01*
Y258752D02*
Y257085D01*
Y257919D01*
X236998D01*
X236165Y258752D01*
X167857Y148695D02*
Y150361D01*
Y149528D01*
X163691D01*
X162858Y150361D01*
Y151194D01*
X163691Y152027D01*
X162858Y147029D02*
Y145363D01*
Y146196D01*
X167857D01*
X167024Y147029D01*
M02*
