G04*
G04 #@! TF.GenerationSoftware,Altium Limited,Altium Designer,26.5.1 (12)*
G04*
G04 Layer_Color=8388736*
G04 Board_Origin=0|0*
%FSLAX25Y25*%
%MOIN*%
G70*
G04*
G04 #@! TF.SameCoordinates,A7A92D0D-E98A-4A8B-A3FE-55D99BD98021*
G04*
G04*
G04 #@! TF.FilePolarity,Negative*
G04*
G01*
G75*
%ADD20C,0.06000*%
%ADD22R,0.03800X0.05300*%
%ADD23R,0.05500X0.03378*%
%ADD24R,0.04800X0.04200*%
%ADD25R,0.10600X0.04900*%
%ADD26R,0.23600X0.06100*%
%ADD27R,0.02362X0.00984*%
%ADD28C,0.01378*%
%ADD29R,0.00984X0.02362*%
%ADD30R,0.04000X0.04700*%
%ADD31R,0.03740X0.03959*%
%ADD32R,0.04724X0.03959*%
%ADD33R,0.02400X0.02000*%
%ADD34R,0.01600X0.01300*%
%ADD35R,0.03500X0.03778*%
%ADD36R,0.09465X0.05134*%
%ADD37R,0.08268X0.01575*%
%ADD38R,0.06693X0.00984*%
%ADD39C,0.11811*%
%ADD40C,0.07874*%
%ADD41C,0.07835*%
%ADD42R,0.07835X0.07835*%
%ADD43R,0.07063X0.07063*%
%ADD44C,0.07063*%
%ADD45C,0.08300*%
%ADD46R,0.08300X0.08300*%
%ADD47C,0.01500*%
%ADD48C,0.02000*%
%ADD49C,0.03000*%
G36*
X270243Y218767D02*
Y219948D01*
X270046Y220145D01*
X262172D01*
X261976Y219948D01*
Y218570D01*
X262074D01*
Y216562D01*
X262271Y216365D01*
X262861D01*
X263058Y216562D01*
Y218570D01*
X264042D01*
Y216562D01*
X264239Y216365D01*
X264830D01*
X265027Y216562D01*
Y218570D01*
X266011D01*
Y216562D01*
X266208Y216365D01*
X266798D01*
X266995Y216562D01*
Y218373D01*
X267192Y218570D01*
X270046D01*
X270243Y218767D01*
D02*
G37*
D20*
X190500Y174500D02*
D03*
X149700Y207300D02*
D03*
X194204Y203704D02*
D03*
D22*
X312350Y261800D02*
D03*
X305050D02*
D03*
X248050Y194400D02*
D03*
X240750D02*
D03*
D23*
X314200Y233239D02*
D03*
Y225161D02*
D03*
D24*
X299200Y225950D02*
D03*
Y232450D02*
D03*
D25*
X284200Y237550D02*
D03*
Y225850D02*
D03*
D26*
X234500Y260250D02*
D03*
Y239750D02*
D03*
D27*
X269062Y226759D02*
D03*
X258039Y219672D02*
D03*
Y226759D02*
D03*
D28*
X266700Y219200D02*
D03*
D29*
X260598Y228609D02*
D03*
X262566D02*
D03*
X264535D02*
D03*
X266503D02*
D03*
D30*
X284850Y261800D02*
D03*
X291550D02*
D03*
X221550Y194400D02*
D03*
X228250D02*
D03*
D31*
X272200Y242565D02*
D03*
Y236835D02*
D03*
D32*
X258200Y247342D02*
D03*
Y254058D02*
D03*
D33*
X260725Y234940D02*
D03*
X256425D02*
D03*
D34*
X258950Y240700D02*
D03*
X261450D02*
D03*
D35*
X225900Y222339D02*
D03*
Y216661D02*
D03*
D36*
X202500Y250696D02*
D03*
Y237704D02*
D03*
D37*
X266109Y223924D02*
D03*
D38*
X260204Y221641D02*
D03*
D39*
X107500Y275000D02*
D03*
X332500D02*
D03*
Y107500D02*
D03*
X107500D02*
D03*
D40*
X149700Y230700D02*
D03*
Y250385D02*
D03*
X181983Y230700D02*
D03*
Y250385D02*
D03*
X149216Y130600D02*
D03*
Y150285D02*
D03*
X181500Y130600D02*
D03*
Y150285D02*
D03*
D41*
X296700Y191700D02*
D03*
X306700D02*
D03*
D42*
X316700D02*
D03*
D43*
X283413Y211700D02*
D03*
D44*
X324200D02*
D03*
D45*
X259000Y150600D02*
D03*
Y137200D02*
D03*
X220000D02*
D03*
D46*
Y150600D02*
D03*
D47*
X261500Y231000D02*
D03*
X258950Y240700D02*
D03*
X274200Y230550D02*
D03*
X260725Y234940D02*
D03*
X260598Y228609D02*
D03*
D48*
X248050Y194400D02*
D03*
X312350Y261800D02*
D03*
X266109Y223924D02*
D03*
D49*
X314200Y233239D02*
D03*
X299200Y232450D02*
D03*
X284200Y237550D02*
D03*
M02*
