G04*
G04 #@! TF.GenerationSoftware,Altium Limited,Altium Designer,26.5.1 (12)*
G04*
G04 Layer_Physical_Order=1*
G04 Layer_Color=255*
G04 Board_Origin=0|0*
%FSLAX25Y25*%
%MOIN*%
G70*
G04*
G04 #@! TF.SameCoordinates,A7A92D0D-E98A-4A8B-A3FE-55D99BD98021*
G04*
G04*
G04 #@! TF.FilePolarity,Positive*
G04*
G01*
G75*
%ADD18C,0.01000*%
%ADD20C,0.06000*%
%ADD21R,0.08661X0.04331*%
%ADD22R,0.03800X0.05300*%
%ADD23R,0.05500X0.03378*%
%ADD24R,0.04800X0.04200*%
%ADD25R,0.10600X0.04900*%
%ADD26R,0.23600X0.06100*%
%ADD27R,0.02362X0.00984*%
%ADD28C,0.01378*%
%ADD29R,0.00984X0.02362*%
%ADD30R,0.04000X0.04700*%
%ADD31R,0.03740X0.03959*%
%ADD32R,0.04724X0.03959*%
%ADD33R,0.02400X0.02000*%
%ADD34R,0.01600X0.01300*%
%ADD35R,0.03500X0.03778*%
%ADD37R,0.08268X0.01575*%
%ADD38R,0.06693X0.00984*%
%ADD39C,0.11811*%
%ADD40C,0.07874*%
%ADD41C,0.07835*%
%ADD42R,0.07835X0.07835*%
%ADD45C,0.08300*%
%ADD46R,0.08300X0.08300*%
%ADD47C,0.01500*%
%ADD48C,0.02000*%
%ADD49C,0.03000*%
%ADD50R,0.02200X0.02000*%
%ADD51C,0.02500*%
%ADD52C,0.02400*%
%ADD53C,0.04000*%
%ADD54C,0.03500*%
%ADD55C,0.01500*%
%ADD56R,0.06260X0.06260*%
%ADD57C,0.06260*%
G36*
X260200Y213100D02*
X252900D01*
Y219900D01*
X260200D01*
Y213100D01*
D02*
G37*
G36*
X260700Y222100D02*
X260700D01*
X260459Y221200D01*
X252900D01*
Y225100D01*
X260700D01*
Y222100D01*
D02*
G37*
G36*
X271100Y213100D02*
X261400D01*
Y220145D01*
X271100D01*
Y213100D01*
D02*
G37*
D18*
X221550Y194400D02*
Y194750D01*
X284850Y261450D02*
Y261800D01*
X259432Y221665D02*
X259447Y221649D01*
X255741Y226759D02*
X258039D01*
X252900Y229600D02*
X255741Y226759D01*
X252900Y229600D02*
Y232900D01*
X269826Y226850D02*
X274200D01*
X269735Y226759D02*
X269826Y226850D01*
X269062Y226759D02*
X269735D01*
X272200Y247900D02*
Y248800D01*
X252900Y232900D02*
X255200Y235200D01*
D20*
X190500Y174500D02*
D03*
X149700Y207300D02*
D03*
X194204Y203704D02*
D03*
D21*
X202500Y250696D02*
D03*
Y237704D02*
D03*
D22*
X312350Y261800D02*
D03*
X305050D02*
D03*
X248050Y194400D02*
D03*
X240750D02*
D03*
D23*
X314200Y233239D02*
D03*
Y225161D02*
D03*
D24*
X299200Y225950D02*
D03*
Y232450D02*
D03*
D25*
X284200Y237550D02*
D03*
Y225850D02*
D03*
D26*
X234500Y260250D02*
D03*
Y239750D02*
D03*
D27*
X269062Y226759D02*
D03*
X258039Y219672D02*
D03*
Y226759D02*
D03*
D28*
X266700Y219200D02*
D03*
D29*
X260598Y228609D02*
D03*
X262566D02*
D03*
X264535D02*
D03*
X266503D02*
D03*
D30*
X284850Y261800D02*
D03*
X291550D02*
D03*
X221550Y194400D02*
D03*
X228250D02*
D03*
D31*
X272200Y242565D02*
D03*
Y236835D02*
D03*
D32*
X258200Y247342D02*
D03*
Y254058D02*
D03*
D33*
X260725Y234940D02*
D03*
X256425D02*
D03*
D34*
X258950Y240700D02*
D03*
X261450D02*
D03*
D35*
X225900Y222339D02*
D03*
Y216661D02*
D03*
D37*
X266109Y223924D02*
D03*
D38*
X260204Y221641D02*
D03*
D39*
X107500Y275000D02*
D03*
X332500D02*
D03*
Y107500D02*
D03*
X107500D02*
D03*
D40*
X149700Y230700D02*
D03*
Y250385D02*
D03*
X181983Y230700D02*
D03*
Y250385D02*
D03*
X149216Y130600D02*
D03*
Y150285D02*
D03*
X181500Y130600D02*
D03*
Y150285D02*
D03*
D41*
X296700Y191700D02*
D03*
X306700D02*
D03*
D42*
X316700D02*
D03*
D45*
X259000Y150600D02*
D03*
Y137200D02*
D03*
X220000D02*
D03*
D46*
Y150600D02*
D03*
D47*
X261500Y231000D02*
D03*
X258950Y240700D02*
D03*
X274200Y230550D02*
D03*
X260725Y234940D02*
D03*
X260598Y228609D02*
D03*
D48*
X248050Y194400D02*
D03*
X312350Y261800D02*
D03*
X266109Y223924D02*
D03*
D49*
X314200Y233239D02*
D03*
X202500Y237704D02*
D03*
X299200Y232450D02*
D03*
X284200Y237550D02*
D03*
D50*
X274200Y226850D02*
D03*
Y230550D02*
D03*
D51*
X212596Y203704D02*
X221550Y194750D01*
X194204Y203704D02*
X212596D01*
X190500Y159285D02*
Y174500D01*
X181500Y150285D02*
X190500Y159285D01*
X212596Y203704D02*
Y250696D01*
X272200Y248800D02*
X284850Y261450D01*
X291550Y261800D02*
X305050D01*
X228250Y194400D02*
X240750D01*
D52*
X149700Y207300D02*
Y230700D01*
D53*
X266892Y254108D02*
X272200Y248800D01*
X258251Y254108D02*
X266892D01*
X259000Y150600D02*
X259899Y151499D01*
X234136Y259886D02*
X234500Y260250D01*
X257817Y254058D02*
X258200D01*
X251625Y260250D02*
X257817Y254058D01*
X234500Y260250D02*
X251625D01*
X273268Y217768D02*
X274700Y219200D01*
X267657Y217768D02*
X273268D01*
X182294Y250696D02*
X202500D01*
X181983Y250385D02*
X182294Y250696D01*
X306700Y179200D02*
Y191700D01*
X314200Y225161D02*
X315261D01*
X324092Y211808D02*
X324200Y211700D01*
X283413D02*
Y225063D01*
X315261Y225161D02*
X324092Y216330D01*
Y211808D02*
Y216330D01*
X283413Y204987D02*
X296700Y191700D01*
X283413Y204987D02*
Y211700D01*
X316700Y191700D02*
X324200Y199200D01*
Y211700D01*
X274700Y219200D02*
X281450Y225950D01*
X221786Y259886D02*
X234136D01*
X212596Y250696D02*
X221786Y259886D01*
X259899Y151499D02*
X278999D01*
X149700Y250385D02*
X181983D01*
X278999Y151499D02*
X306700Y179200D01*
X259000Y137200D02*
Y150600D01*
X149216Y150285D02*
X181500D01*
X219685D01*
X220000Y150600D01*
Y137200D02*
Y150600D01*
X239500Y223500D02*
X254144D01*
X283413Y225063D02*
X284200Y225850D01*
X281450Y225950D02*
X299200D01*
X234500Y228500D02*
X239500Y223500D01*
X234500Y228500D02*
Y239750D01*
X272200Y242565D02*
Y247900D01*
X202500Y250696D02*
X212596D01*
D54*
X255361Y216661D02*
X255400Y216700D01*
X225900Y216661D02*
X255361D01*
X255400Y216700D02*
X255500Y216800D01*
X225900Y222339D02*
Y237200D01*
D55*
X261500Y230865D02*
Y231000D01*
Y230865D02*
X262558Y229806D01*
Y228617D02*
Y229806D01*
Y228617D02*
X262566Y228609D01*
X264535Y241008D02*
X268708Y236835D01*
X264535Y228609D02*
Y241008D01*
Y245865D01*
X261450Y240700D02*
X264227D01*
X264535Y241008D01*
X263057Y247342D02*
X264535Y245865D01*
X258200Y247342D02*
X263057D01*
X268708Y236835D02*
X272200D01*
D56*
X283413Y211700D02*
D03*
D57*
X324200D02*
D03*
M02*
