G04*
G04 #@! TF.GenerationSoftware,Altium Limited,Altium Designer,26.5.1 (12)*
G04*
G04 Layer_Color=32768*
G04 Board_Origin=0|0*
%FSLAX25Y25*%
%MOIN*%
G70*
G04*
G04 #@! TF.SameCoordinates,A7A92D0D-E98A-4A8B-A3FE-55D99BD98021*
G04*
G04*
G04 #@! TF.FilePolarity,Positive*
G04*
G01*
G75*
%ADD13C,0.00600*%
%ADD59C,0.00394*%
%ADD61C,0.00197*%
G36*
X294550Y258450D02*
X281850D01*
Y265150D01*
X294550D01*
Y258450D01*
D02*
G37*
G36*
X315250Y258150D02*
X302150D01*
Y265450D01*
X315250D01*
Y258150D01*
D02*
G37*
G36*
X261562Y244363D02*
X254838D01*
Y257037D01*
X261562D01*
Y244363D01*
D02*
G37*
G36*
X263250Y239050D02*
X257150D01*
Y242350D01*
X263250D01*
Y239050D01*
D02*
G37*
G36*
X275070Y233855D02*
X269330D01*
Y245545D01*
X275070D01*
Y233855D01*
D02*
G37*
G36*
X251250Y233850D02*
X217750D01*
Y266150D01*
X251250D01*
Y233850D01*
D02*
G37*
G36*
X262925Y232940D02*
X254225D01*
Y236940D01*
X262925D01*
Y232940D01*
D02*
G37*
G36*
X276300Y224850D02*
X272100D01*
Y232550D01*
X276300D01*
Y224850D01*
D02*
G37*
G36*
X302600Y222850D02*
X295800D01*
Y235550D01*
X302600D01*
Y222850D01*
D02*
G37*
G36*
X317950Y222472D02*
X310450D01*
Y235928D01*
X317950D01*
Y222472D01*
D02*
G37*
G36*
X290500Y222400D02*
X277900D01*
Y241000D01*
X290500D01*
Y222400D01*
D02*
G37*
G36*
X194401Y214739D02*
X116810D01*
Y265558D01*
X194401D01*
Y214739D01*
D02*
G37*
G36*
X228650Y213772D02*
X223150D01*
Y225228D01*
X228650D01*
Y213772D01*
D02*
G37*
G36*
X231250Y191050D02*
X218550D01*
Y197750D01*
X231250D01*
Y191050D01*
D02*
G37*
G36*
X250950Y190750D02*
X237850D01*
Y198050D01*
X250950D01*
Y190750D01*
D02*
G37*
G36*
X272000Y129650D02*
X207000D01*
Y158150D01*
X272000D01*
Y129650D01*
D02*
G37*
G36*
X193917Y114639D02*
X116327D01*
Y165458D01*
X193917D01*
Y114639D01*
D02*
G37*
D13*
X315250Y258150D02*
Y265450D01*
X302150Y258150D02*
X315250D01*
X302150D02*
Y265450D01*
X315250D01*
X317950Y222472D02*
Y235928D01*
X310450D02*
X317950D01*
X310450Y222472D02*
Y235928D01*
Y222472D02*
X317950D01*
X194401Y214739D02*
Y265558D01*
X116810Y214739D02*
X194401D01*
X116810D02*
Y265558D01*
X194401D01*
X116810D02*
X194401D01*
X295800Y222850D02*
Y235550D01*
Y222850D02*
X302600D01*
Y235550D01*
X295800D02*
X302600D01*
X277900Y241000D02*
X290500D01*
Y222400D02*
Y241000D01*
X277900Y222400D02*
X290500D01*
X277900D02*
Y241000D01*
X207000Y129650D02*
X272000D01*
Y158150D01*
X207000D02*
X272000D01*
X207000Y129650D02*
Y158150D01*
X272100Y224850D02*
X276300D01*
X272100D02*
Y232550D01*
X276300D01*
Y224850D02*
Y232550D01*
X221700Y266150D02*
X247300D01*
X221700Y233850D02*
X247300D01*
X217750Y266150D02*
X221700D01*
X247300D02*
X251250D01*
Y233850D02*
Y266150D01*
X247300Y233850D02*
X251250D01*
X217750D02*
X221700D01*
X217750D02*
Y266150D01*
X281850Y258450D02*
Y265150D01*
X294550D01*
Y258450D02*
Y265150D01*
X281850Y258450D02*
X294550D01*
X193917Y114639D02*
Y165458D01*
X116327Y114639D02*
X193917D01*
X116327D02*
Y165458D01*
X193917D01*
X116327D02*
X193917D01*
X275070Y233855D02*
Y245545D01*
X269330D02*
X275070D01*
X269330Y233855D02*
Y245545D01*
Y233855D02*
X275070D01*
X254838Y244363D02*
Y257037D01*
Y244363D02*
X261562D01*
Y257037D01*
X254838D02*
X261562D01*
X262925Y232940D02*
Y236940D01*
X254225Y232940D02*
X262925D01*
X254225D02*
Y236940D01*
X262925D01*
X257150Y239050D02*
Y242350D01*
X263250D01*
Y239050D02*
Y242350D01*
X257150Y239050D02*
X263250D01*
X228650Y213772D02*
Y225228D01*
X223150D02*
X228650D01*
X223150Y213772D02*
Y225228D01*
Y213772D02*
X228650D01*
X250950Y190750D02*
Y198050D01*
X237850Y190750D02*
X250950D01*
X237850D02*
Y198050D01*
X250950D01*
X218550Y191050D02*
Y197750D01*
X231250D01*
Y191050D02*
Y197750D01*
X218550Y191050D02*
X231250D01*
D59*
X306700Y189732D02*
Y193668D01*
X304731Y191700D02*
X308668D01*
X284653Y200755D02*
X328747D01*
Y178314D02*
Y200755D01*
X284653Y178314D02*
X328747D01*
X284653Y178314D02*
Y200755D01*
D61*
X196595Y234554D02*
Y253846D01*
X208405D01*
Y234554D02*
Y253846D01*
X196595Y234554D02*
X208405D01*
X279298Y206041D02*
Y217359D01*
Y206041D02*
X328314D01*
Y217359D01*
X279298D02*
X328314D01*
M02*
