G04*
G04 #@! TF.GenerationSoftware,Altium Limited,Altium Designer,26.5.1 (12)*
G04*
G04 Layer_Color=16711935*
G04 Board_Origin=0|0*
%FSLAX25Y25*%
%MOIN*%
G70*
G04*
G04 #@! TF.SameCoordinates,A7A92D0D-E98A-4A8B-A3FE-55D99BD98021*
G04*
G04*
G04 #@! TF.FilePolarity,Negative*
G04*
G01*
G75*
%ADD39C,0.11811*%
%ADD40C,0.07874*%
%ADD41C,0.07835*%
%ADD42R,0.07835X0.07835*%
%ADD43R,0.07063X0.07063*%
%ADD44C,0.07063*%
%ADD45C,0.08300*%
%ADD46R,0.08300X0.08300*%
%ADD47C,0.01500*%
%ADD48C,0.02000*%
%ADD49C,0.03000*%
D39*
X107500Y275000D02*
D03*
X332500D02*
D03*
Y107500D02*
D03*
X107500D02*
D03*
D40*
X149700Y230700D02*
D03*
Y250385D02*
D03*
X181983Y230700D02*
D03*
Y250385D02*
D03*
X149216Y130600D02*
D03*
Y150285D02*
D03*
X181500Y130600D02*
D03*
Y150285D02*
D03*
D41*
X296700Y191700D02*
D03*
X306700D02*
D03*
D42*
X316700D02*
D03*
D43*
X283413Y211700D02*
D03*
D44*
X324200D02*
D03*
D45*
X259000Y150600D02*
D03*
Y137200D02*
D03*
X220000D02*
D03*
D46*
Y150600D02*
D03*
D47*
X261500Y231000D02*
D03*
X258950Y240700D02*
D03*
X274200Y230550D02*
D03*
X260725Y234940D02*
D03*
X260598Y228609D02*
D03*
D48*
X248050Y194400D02*
D03*
X312350Y261800D02*
D03*
X266109Y223924D02*
D03*
D49*
X314200Y233239D02*
D03*
X299200Y232450D02*
D03*
X284200Y237550D02*
D03*
M02*
