G04*
G04 #@! TF.GenerationSoftware,Altium Limited,Altium Designer,26.5.1 (12)*
G04*
G04 Layer_Color=32768*
G04 Board_Origin=0|0*
%FSLAX25Y25*%
%MOIN*%
G70*
G04*
G04 #@! TF.SameCoordinates,A7A92D0D-E98A-4A8B-A3FE-55D99BD98021*
G04*
G04*
G04 #@! TF.FilePolarity,Positive*
G04*
G01*
G75*
G36*
X302396Y189336D02*
X302400Y189340D01*
X302422Y189358D01*
X302448Y189384D01*
X302492Y189415D01*
X302540Y189454D01*
X302601Y189497D01*
X302671Y189546D01*
X302749Y189594D01*
X302754D01*
X302758Y189598D01*
X302784Y189615D01*
X302828Y189637D01*
X302881Y189664D01*
X302942Y189694D01*
X303007Y189725D01*
X303073Y189755D01*
X303138Y189782D01*
Y189423D01*
X303134D01*
X303125Y189415D01*
X303108Y189410D01*
X303086Y189397D01*
X303060Y189384D01*
X303029Y189366D01*
X302955Y189323D01*
X302868Y189275D01*
X302780Y189214D01*
X302688Y189144D01*
X302597Y189069D01*
X302592Y189065D01*
X302588Y189060D01*
X302575Y189047D01*
X302557Y189034D01*
X302518Y188991D01*
X302466Y188938D01*
X302413Y188877D01*
X302356Y188807D01*
X302308Y188737D01*
X302264Y188663D01*
X302024D01*
Y191700D01*
X302396D01*
Y189336D01*
D02*
G37*
G36*
X303881Y191932D02*
X303899Y191923D01*
X303925Y191914D01*
X303956Y191901D01*
X303991Y191884D01*
X304030Y191866D01*
X304074Y191844D01*
X304170Y191792D01*
X304279Y191731D01*
X304397Y191652D01*
X304519Y191565D01*
X304524D01*
X304533Y191573D01*
X304554Y191582D01*
X304576Y191595D01*
X304611Y191608D01*
X304646Y191626D01*
X304690Y191639D01*
X304738Y191656D01*
X304790Y191674D01*
X304847Y191691D01*
X304974Y191722D01*
X305114Y191744D01*
X305188Y191748D01*
X305262Y191752D01*
X305302D01*
X305332Y191748D01*
X305367D01*
X305411Y191744D01*
X305459Y191735D01*
X305511Y191726D01*
X305625Y191704D01*
X305752Y191669D01*
X305883Y191621D01*
X305944Y191591D01*
X306010Y191556D01*
X306014Y191551D01*
X306023Y191547D01*
X306040Y191534D01*
X306062Y191521D01*
X306093Y191499D01*
X306123Y191473D01*
X306197Y191412D01*
X306280Y191333D01*
X306364Y191237D01*
X306447Y191128D01*
X306521Y191001D01*
Y190996D01*
X306530Y190983D01*
X306538Y190966D01*
X306547Y190940D01*
X306560Y190905D01*
X306578Y190865D01*
X306595Y190817D01*
X306608Y190765D01*
X306626Y190708D01*
X306643Y190647D01*
X306656Y190581D01*
X306674Y190507D01*
X306691Y190354D01*
X306700Y190192D01*
Y190188D01*
Y190171D01*
Y190149D01*
X306696Y190118D01*
Y190079D01*
X306691Y190031D01*
X306687Y189978D01*
X306678Y189921D01*
X306656Y189795D01*
X306626Y189659D01*
X306582Y189515D01*
X306521Y189375D01*
X306517Y189371D01*
X306512Y189358D01*
X306503Y189340D01*
X306486Y189314D01*
X306468Y189283D01*
X306447Y189248D01*
X306385Y189165D01*
X306315Y189078D01*
X306224Y188986D01*
X306123Y188894D01*
X306005Y188816D01*
X306001Y188811D01*
X305988Y188807D01*
X305970Y188798D01*
X305944Y188785D01*
X305913Y188772D01*
X305878Y188755D01*
X305835Y188737D01*
X305787Y188720D01*
X305730Y188702D01*
X305673Y188685D01*
X305546Y188654D01*
X305406Y188632D01*
X305332Y188623D01*
X305214D01*
X305184Y188628D01*
X305144D01*
X305105Y188632D01*
X305052Y188641D01*
X305000Y188650D01*
X304887Y188672D01*
X304755Y188707D01*
X304629Y188759D01*
X304563Y188790D01*
X304498Y188824D01*
X304493Y188829D01*
X304484Y188833D01*
X304467Y188846D01*
X304441Y188859D01*
X304415Y188881D01*
X304380Y188908D01*
X304305Y188969D01*
X304227Y189047D01*
X304139Y189144D01*
X304056Y189257D01*
X303986Y189384D01*
Y189388D01*
X303977Y189401D01*
X303969Y189419D01*
X303960Y189445D01*
X303942Y189480D01*
X303929Y189519D01*
X303912Y189567D01*
X303894Y189620D01*
X303881Y189677D01*
X303864Y189738D01*
X303846Y189803D01*
X303833Y189873D01*
X303816Y190026D01*
X303807Y190188D01*
Y190192D01*
Y190206D01*
Y190223D01*
Y190249D01*
X303811Y190284D01*
Y190323D01*
X303816Y190367D01*
X303820Y190411D01*
X303833Y190516D01*
X303855Y190629D01*
X303881Y190747D01*
X303921Y190861D01*
Y190865D01*
X303925Y190874D01*
X303934Y190892D01*
X303942Y190909D01*
X303956Y190935D01*
X303969Y190966D01*
X304004Y191036D01*
X304052Y191119D01*
X304113Y191206D01*
X304183Y191294D01*
X304261Y191381D01*
X304257D01*
X304248Y191390D01*
X304235Y191399D01*
X304214Y191412D01*
X304192Y191429D01*
X304161Y191446D01*
X304096Y191486D01*
X304017Y191534D01*
X303929Y191582D01*
X303838Y191621D01*
X303750Y191661D01*
X303868Y191936D01*
X303873D01*
X303881Y191932D01*
D02*
G37*
%LPC*%
G36*
X305254Y191412D02*
X305214D01*
X305175Y191407D01*
X305122Y191403D01*
X305057Y191394D01*
X304991Y191377D01*
X304917Y191359D01*
X304847Y191333D01*
X304856Y191329D01*
X304878Y191311D01*
X304917Y191289D01*
X304965Y191263D01*
X305026Y191237D01*
X305092Y191206D01*
X305166Y191180D01*
X305245Y191158D01*
X305144Y190870D01*
X305140D01*
X305127Y190874D01*
X305109Y190878D01*
X305087Y190887D01*
X305057Y190896D01*
X305022Y190909D01*
X304943Y190940D01*
X304852Y190983D01*
X304755Y191031D01*
X304664Y191088D01*
X304572Y191158D01*
X304567Y191154D01*
X304554Y191145D01*
X304537Y191123D01*
X304515Y191097D01*
X304489Y191062D01*
X304458Y191023D01*
X304428Y190975D01*
X304393Y190918D01*
X304362Y190852D01*
X304331Y190778D01*
X304301Y190699D01*
X304275Y190616D01*
X304248Y190520D01*
X304231Y190420D01*
X304222Y190310D01*
X304218Y190192D01*
Y190188D01*
Y190175D01*
Y190157D01*
Y190131D01*
X304222Y190096D01*
Y190061D01*
X304227Y190018D01*
X304235Y189974D01*
X304248Y189873D01*
X304270Y189764D01*
X304301Y189655D01*
X304345Y189550D01*
Y189546D01*
X304349Y189537D01*
X304358Y189524D01*
X304366Y189506D01*
X304397Y189454D01*
X304436Y189393D01*
X304489Y189323D01*
X304554Y189253D01*
X304629Y189183D01*
X304712Y189122D01*
X304716D01*
X304720Y189113D01*
X304733Y189109D01*
X304755Y189095D01*
X304777Y189087D01*
X304803Y189074D01*
X304869Y189043D01*
X304948Y189017D01*
X305039Y188991D01*
X305144Y188973D01*
X305254Y188969D01*
X305297D01*
X305328Y188973D01*
X305367Y188978D01*
X305411Y188986D01*
X305459Y188995D01*
X305511Y189008D01*
X305573Y189026D01*
X305629Y189043D01*
X305691Y189069D01*
X305756Y189100D01*
X305817Y189135D01*
X305878Y189179D01*
X305940Y189222D01*
X305996Y189279D01*
X306001Y189283D01*
X306010Y189292D01*
X306023Y189310D01*
X306040Y189336D01*
X306066Y189366D01*
X306088Y189406D01*
X306114Y189454D01*
X306141Y189506D01*
X306171Y189567D01*
X306197Y189637D01*
X306219Y189712D01*
X306241Y189795D01*
X306263Y189882D01*
X306276Y189978D01*
X306285Y190083D01*
X306289Y190192D01*
Y190201D01*
Y190219D01*
Y190249D01*
X306285Y190288D01*
X306280Y190337D01*
X306272Y190393D01*
X306263Y190459D01*
X306254Y190524D01*
X306219Y190673D01*
X306197Y190747D01*
X306167Y190822D01*
X306136Y190896D01*
X306097Y190966D01*
X306053Y191036D01*
X306001Y191097D01*
X305996Y191101D01*
X305988Y191110D01*
X305970Y191128D01*
X305948Y191145D01*
X305918Y191171D01*
X305883Y191198D01*
X305843Y191224D01*
X305795Y191254D01*
X305747Y191285D01*
X305691Y191311D01*
X305629Y191337D01*
X305564Y191364D01*
X305489Y191381D01*
X305415Y191399D01*
X305337Y191407D01*
X305254Y191412D01*
D02*
G37*
%LPD*%
M02*
