G04*
G04 #@! TF.GenerationSoftware,Altium Limited,Altium Designer,26.6.0 (10)*
G04*
G04 Layer_Physical_Order=1*
G04 Layer_Color=255*
G04 Board_Origin=0|0*
%FSLAX44Y44*%
%MOMM*%
G71*
G04*
G04 #@! TF.SameCoordinates,D5F9FF62-7CA0-4EDD-8908-80C126BDDD69*
G04*
G04*
G04 #@! TF.FilePolarity,Positive*
G04*
G01*
G75*
%ADD15C,0.2540*%
%ADD17R,1.1596X0.9644*%
%ADD18R,1.5128X0.5326*%
%ADD19R,0.9644X1.1596*%
%ADD20R,0.9906X0.7112*%
%ADD21R,0.7112X0.7112*%
%ADD22R,0.8128X0.4064*%
%ADD23R,0.2540X0.2540*%
%ADD24R,0.4064X0.8128*%
%ADD25R,0.9898X1.0580*%
%ADD26R,1.4478X1.4478*%
%ADD27R,0.7064X0.6612*%
%ADD28R,1.3208X0.5588*%
%ADD29R,0.3515X0.5766*%
%ADD30R,0.5766X0.3515*%
%ADD31R,1.0406X1.1088*%
%ADD32R,1.6002X1.1176*%
%ADD33R,1.5000X1.0000*%
%ADD34R,1.6002X4.0132*%
%ADD35R,0.4064X0.7112*%
%ADD36R,0.4064X0.4826*%
%ADD37R,1.6000X2.1000*%
%ADD38R,1.3500X0.4000*%
%ADD39R,1.9000X1.8000*%
%ADD40R,1.9000X1.9000*%
%ADD41R,0.5680X1.2080*%
%ADD42R,1.0668X1.4478*%
%ADD43R,0.9906X1.0668*%
%ADD44R,1.5000X3.3000*%
%ADD45R,1.0580X0.9898*%
%ADD46R,0.2794X0.2540*%
%ADD47R,1.0668X0.9906*%
%ADD48R,1.4572X0.8874*%
%ADD49R,2.1200X2.2800*%
%ADD52C,1.9500*%
%ADD53C,2.6250*%
%ADD54R,2.6250X2.6250*%
%ADD55C,0.4000*%
%ADD56C,0.6350*%
G36*
X797560Y256540D02*
X256540D01*
Y645160D01*
X797560D01*
Y256540D01*
D02*
G37*
%LPC*%
G36*
X658680Y630605D02*
X654956D01*
X651360Y629641D01*
X648135Y627780D01*
X645502Y625147D01*
X643641Y621922D01*
X642803Y618795D01*
X610680D01*
Y624142D01*
X599869D01*
X599837Y624221D01*
X599059Y624543D01*
X588137D01*
X587359Y624221D01*
X587327Y624142D01*
X576516D01*
Y618789D01*
X568214D01*
Y620209D01*
X560261D01*
Y612707D01*
X568214D01*
Y614127D01*
X576516D01*
Y608774D01*
X587327D01*
X587359Y608695D01*
X588137Y608373D01*
X599059D01*
X599837Y608695D01*
X599869Y608774D01*
X610680D01*
Y614133D01*
X642803D01*
X643641Y611006D01*
X645502Y607781D01*
X648135Y605148D01*
X651360Y603287D01*
X654956Y602323D01*
X658680D01*
X662276Y603287D01*
X665501Y605148D01*
X668134Y607781D01*
X669995Y611006D01*
X670959Y614602D01*
Y618326D01*
X669995Y621922D01*
X668134Y625147D01*
X665501Y627780D01*
X662276Y629641D01*
X658680Y630605D01*
D02*
G37*
G36*
X704723Y633352D02*
Y618369D01*
X719706D01*
X719102Y621404D01*
X717826Y624486D01*
X715972Y627259D01*
X713613Y629618D01*
X710840Y631472D01*
X707758Y632748D01*
X704723Y633352D01*
D02*
G37*
G36*
X700913D02*
X697878Y632748D01*
X694796Y631472D01*
X692023Y629618D01*
X689664Y627259D01*
X687810Y624486D01*
X686534Y621404D01*
X685930Y618369D01*
X700913D01*
Y633352D01*
D02*
G37*
G36*
X553275Y620209D02*
X545322D01*
Y612707D01*
X553275D01*
Y620209D01*
D02*
G37*
G36*
X750680Y630605D02*
X746956D01*
X743360Y629641D01*
X740135Y627780D01*
X737502Y625147D01*
X735641Y621922D01*
X734677Y618326D01*
Y614602D01*
X735641Y611006D01*
X737502Y607781D01*
X740135Y605148D01*
X743360Y603287D01*
X746956Y602323D01*
X750680D01*
X754276Y603287D01*
X757501Y605148D01*
X760134Y607781D01*
X761995Y611006D01*
X762959Y614602D01*
Y618326D01*
X761995Y621922D01*
X760134Y625147D01*
X757501Y627780D01*
X754276Y629641D01*
X750680Y630605D01*
D02*
G37*
G36*
X719706Y614559D02*
X704723D01*
Y599576D01*
X707758Y600180D01*
X710840Y601456D01*
X713613Y603310D01*
X715972Y605669D01*
X717826Y608442D01*
X719102Y611524D01*
X719706Y614559D01*
D02*
G37*
G36*
X700913D02*
X685930D01*
X686534Y611524D01*
X687810Y608442D01*
X689664Y605669D01*
X692023Y603310D01*
X694796Y601456D01*
X697878Y600180D01*
X700913Y599576D01*
Y614559D01*
D02*
G37*
G36*
X566320Y586263D02*
X565542Y585940D01*
X565220Y585163D01*
Y585003D01*
X565542Y584226D01*
X565857Y584095D01*
X566517Y583762D01*
X567336Y583174D01*
X567343Y583168D01*
X567700Y582450D01*
X567767Y581262D01*
X567770Y581178D01*
Y581019D01*
X568092Y580241D01*
X568870Y579919D01*
X569029D01*
X569807Y580241D01*
X570129Y581019D01*
Y581178D01*
X569807Y581956D01*
X569492Y582087D01*
X568831Y582420D01*
X568013Y583007D01*
X568006Y583013D01*
X567649Y583731D01*
X567582Y584919D01*
X567579Y585003D01*
Y585163D01*
X567257Y585940D01*
X566479Y586262D01*
X566320Y586263D01*
D02*
G37*
G36*
X545528Y545656D02*
X531432D01*
Y539179D01*
X545528D01*
Y545656D01*
D02*
G37*
G36*
X762959Y561505D02*
X734677D01*
Y533223D01*
X762959D01*
Y561505D01*
D02*
G37*
G36*
X704680D02*
X700956D01*
X697360Y560541D01*
X694135Y558680D01*
X691502Y556047D01*
X689641Y552822D01*
X688803Y549695D01*
X685540D01*
X684648Y549517D01*
X683892Y549012D01*
X650624Y515744D01*
X650119Y514988D01*
X649941Y514096D01*
Y433988D01*
X649715Y433762D01*
X649256Y432654D01*
Y431454D01*
X649715Y430346D01*
X650564Y429497D01*
X651387Y429156D01*
X651672Y429038D01*
X653201Y428317D01*
X653927Y426726D01*
Y422192D01*
X662686D01*
Y420287D01*
X664591D01*
Y411187D01*
X671445D01*
Y416774D01*
X673283Y418469D01*
X673985Y418469D01*
X682752D01*
Y424942D01*
Y431415D01*
X673283D01*
Y431082D01*
X671445Y429387D01*
X671025Y429387D01*
X668485Y430067D01*
Y431419D01*
X668163Y432197D01*
X668080Y432231D01*
Y435311D01*
X676648D01*
Y434534D01*
X692665D01*
Y440750D01*
X676648D01*
Y439973D01*
X668080D01*
Y442952D01*
X657292D01*
Y437485D01*
X654753Y436223D01*
X654608Y436333D01*
X654603Y436357D01*
Y513131D01*
X686425Y544953D01*
X688898Y544677D01*
X689641Y541906D01*
X691502Y538681D01*
X694135Y536048D01*
X697360Y534187D01*
X700956Y533223D01*
X704680D01*
X708276Y534187D01*
X711501Y536048D01*
X714134Y538681D01*
X715995Y541906D01*
X716959Y545502D01*
Y549226D01*
X715995Y552822D01*
X714134Y556047D01*
X711501Y558680D01*
X708276Y560541D01*
X704680Y561505D01*
D02*
G37*
G36*
X513589Y609444D02*
X510755D01*
X508017Y608710D01*
X505561Y607293D01*
X503557Y605289D01*
X502140Y602834D01*
X501406Y600095D01*
Y597261D01*
X502140Y594523D01*
X503557Y592067D01*
X505561Y590063D01*
X508017Y588646D01*
X509841Y588157D01*
Y536130D01*
X507556D01*
Y529654D01*
X521652D01*
Y536130D01*
X514503D01*
Y588157D01*
X516328Y588646D01*
X518783Y590063D01*
X520787Y592067D01*
X522204Y594523D01*
X522938Y597261D01*
Y600095D01*
X522204Y602834D01*
X520787Y605289D01*
X518783Y607293D01*
X516328Y608710D01*
X513589Y609444D01*
D02*
G37*
G36*
X658680Y561505D02*
X654956D01*
X651360Y560541D01*
X648135Y558680D01*
X645502Y556047D01*
X643641Y552822D01*
X642677Y549226D01*
Y545502D01*
X643641Y541906D01*
X645260Y539102D01*
X631899Y525742D01*
X604325D01*
Y528397D01*
X604409Y528431D01*
X604731Y529209D01*
Y534543D01*
X604409Y535321D01*
X604325Y535355D01*
Y546076D01*
X593539D01*
Y535355D01*
X593455Y535321D01*
X593133Y534543D01*
Y529209D01*
X593455Y528431D01*
X593539Y528397D01*
Y525571D01*
X582397D01*
Y528633D01*
X571677D01*
X571643Y528717D01*
X570865Y529039D01*
X565531D01*
X564753Y528717D01*
X564719Y528633D01*
X553998D01*
Y525698D01*
X545528D01*
Y526605D01*
X531432D01*
Y520129D01*
X545528D01*
Y521036D01*
X553998D01*
Y517846D01*
X564719D01*
X564753Y517763D01*
X565531Y517441D01*
X570865D01*
X571643Y517763D01*
X571677Y517846D01*
X582397D01*
Y520909D01*
X593539D01*
Y517677D01*
X604325D01*
Y521080D01*
X632865D01*
X633757Y521258D01*
X634513Y521763D01*
X648556Y535806D01*
X651360Y534187D01*
X654956Y533223D01*
X658680D01*
X662276Y534187D01*
X665501Y536048D01*
X668134Y538681D01*
X669995Y541906D01*
X670959Y545502D01*
Y549226D01*
X669995Y552822D01*
X668134Y556047D01*
X665501Y558680D01*
X662276Y560541D01*
X658680Y561505D01*
D02*
G37*
G36*
X379031Y638366D02*
X362141D01*
Y636479D01*
X310896D01*
X309261Y636154D01*
X307874Y635228D01*
X307874Y635228D01*
X284757Y612110D01*
X283831Y610724D01*
X283505Y609089D01*
Y608942D01*
X280611D01*
Y598222D01*
X280528Y598188D01*
X280206Y597410D01*
Y592076D01*
X280528Y591298D01*
X280611Y591264D01*
Y580544D01*
X287229D01*
Y569943D01*
X274706D01*
Y546254D01*
X296794D01*
Y569943D01*
X291891D01*
Y582723D01*
X291713Y583615D01*
X291398Y584086D01*
Y591264D01*
X291481Y591298D01*
X291803Y592076D01*
Y597410D01*
X291481Y598188D01*
X291398Y598222D01*
Y602855D01*
X291726Y603347D01*
X292052Y604982D01*
Y607319D01*
X312666Y627933D01*
X315286D01*
X317543Y626745D01*
Y522859D01*
X317865Y522081D01*
X318643Y521759D01*
X362077D01*
X362141Y521717D01*
Y511239D01*
X379031D01*
Y521717D01*
X379095Y521759D01*
X422529D01*
X423307Y522081D01*
X423629Y522859D01*
Y626745D01*
X425975Y627679D01*
X427128D01*
X452105Y602702D01*
X451406Y600095D01*
Y597261D01*
X452140Y594523D01*
X453557Y592067D01*
X455561Y590063D01*
X457899Y588714D01*
Y551879D01*
X453834D01*
Y540666D01*
X453501Y540528D01*
X453179Y539750D01*
Y524002D01*
X453501Y523224D01*
X453834Y523086D01*
Y511874D01*
X470726D01*
Y523086D01*
X471059Y523224D01*
X471381Y524002D01*
Y539750D01*
X471059Y540528D01*
X470726Y540666D01*
Y551879D01*
X466445D01*
Y588714D01*
X468783Y590063D01*
X470787Y592067D01*
X472204Y594523D01*
X472938Y597261D01*
Y600095D01*
X472204Y602834D01*
X470787Y605289D01*
X468783Y607293D01*
X466328Y608710D01*
X463589Y609444D01*
X460755D01*
X458148Y608745D01*
X431920Y634974D01*
X430533Y635900D01*
X428898Y636225D01*
X379031D01*
Y638366D01*
D02*
G37*
G36*
X555029Y505456D02*
X547326D01*
Y498729D01*
X555029D01*
Y505456D01*
D02*
G37*
G36*
X607883Y497622D02*
X600180D01*
Y490895D01*
X607883D01*
Y497622D01*
D02*
G37*
G36*
X555029Y494919D02*
X547326D01*
Y488192D01*
X555029D01*
Y494919D01*
D02*
G37*
G36*
X543516Y505456D02*
X535813D01*
Y502496D01*
X535305D01*
X534527Y502174D01*
X534493Y502090D01*
X522757D01*
Y491558D01*
X534493D01*
X534527Y491474D01*
X535305Y491152D01*
X535813D01*
Y488192D01*
X543516D01*
Y496824D01*
Y505456D01*
D02*
G37*
G36*
X607883Y487085D02*
X600180D01*
Y480358D01*
X607883D01*
Y487085D01*
D02*
G37*
G36*
X597552Y487339D02*
X590694D01*
Y480100D01*
X597552D01*
Y487339D01*
D02*
G37*
G36*
X586884D02*
X580026D01*
Y480100D01*
X586884D01*
Y487339D01*
D02*
G37*
G36*
X511996Y499847D02*
X501464D01*
Y488111D01*
X501380Y488077D01*
X501058Y487299D01*
Y486791D01*
X498098D01*
Y479088D01*
X506730D01*
X515362D01*
Y486791D01*
X512402D01*
Y487299D01*
X512080Y488077D01*
X511996Y488111D01*
Y499847D01*
D02*
G37*
G36*
X379662Y485425D02*
X371959D01*
Y478698D01*
X379662D01*
Y485425D01*
D02*
G37*
G36*
X523202Y481952D02*
X518414D01*
Y478289D01*
X523202D01*
Y481952D01*
D02*
G37*
G36*
X399355Y487422D02*
X383465D01*
Y476534D01*
X399355D01*
Y487422D01*
D02*
G37*
G36*
X619396Y497622D02*
X611693D01*
Y488990D01*
Y480358D01*
X615572D01*
X616847Y478386D01*
X616981Y477818D01*
X616858Y477203D01*
Y474667D01*
X614269D01*
Y477416D01*
X611094D01*
Y472336D01*
X607284D01*
Y477416D01*
X604109D01*
Y472186D01*
X601379D01*
Y469011D01*
X606586D01*
Y465201D01*
X601379D01*
Y464437D01*
X596057D01*
X594818Y466578D01*
X595774Y469051D01*
X597552D01*
Y476290D01*
X588789D01*
X580026D01*
Y469051D01*
X582990D01*
Y467019D01*
X583312Y466241D01*
X583391Y466209D01*
Y455398D01*
X584409D01*
Y432816D01*
X584587Y431924D01*
X585092Y431168D01*
X590311Y425949D01*
X588872Y423796D01*
X588634Y423894D01*
X587435D01*
X586326Y423435D01*
X586100Y423209D01*
X566928D01*
X566036Y423031D01*
X565280Y422526D01*
X553472Y410718D01*
X552967Y409962D01*
X552789Y409070D01*
Y400622D01*
X552644D01*
Y391605D01*
X557597D01*
Y400622D01*
X557451D01*
Y406690D01*
X558249Y407210D01*
X560789Y405832D01*
Y400622D01*
X560644D01*
Y391605D01*
X565597D01*
Y400622D01*
X565451D01*
Y405284D01*
X565612Y405618D01*
X566011Y405868D01*
X566391Y405939D01*
X568789Y404610D01*
Y400622D01*
X568643D01*
Y391605D01*
X573596D01*
Y400622D01*
X573451D01*
Y404944D01*
X575586Y406105D01*
X576291Y406017D01*
X576770Y405667D01*
X576789Y405597D01*
Y400622D01*
X576643D01*
Y391605D01*
X581596D01*
Y400622D01*
X581451D01*
Y408022D01*
X581677Y408248D01*
X582136Y409356D01*
Y410556D01*
X582087Y410673D01*
X583347Y413027D01*
X583575Y413213D01*
X595348D01*
X596012Y412446D01*
X596632Y411138D01*
X596467Y410153D01*
X596424Y410048D01*
Y409728D01*
X593472Y406776D01*
X592967Y406020D01*
X592789Y405128D01*
Y400622D01*
X592644D01*
Y391605D01*
X597597D01*
Y400622D01*
X597451D01*
Y404163D01*
X599720Y406432D01*
X600040D01*
X601148Y406891D01*
X601997Y407740D01*
X602456Y408848D01*
Y410048D01*
X601997Y411156D01*
X601329Y411825D01*
X600979Y412362D01*
X600272Y413854D01*
X600437Y414840D01*
X600480Y414944D01*
Y416144D01*
X600021Y417252D01*
X599173Y418101D01*
X598064Y418560D01*
X596864D01*
X595756Y418101D01*
X595530Y417875D01*
X592615D01*
X591050Y420278D01*
Y421478D01*
X590952Y421716D01*
X593105Y423154D01*
X593474Y422786D01*
X594230Y422281D01*
X595122Y422103D01*
X602793D01*
X616789Y408106D01*
Y400622D01*
X616643D01*
Y399464D01*
X614104Y398485D01*
X613596Y399045D01*
Y400622D01*
X608643D01*
Y399045D01*
X608136Y398485D01*
X605597Y399464D01*
Y400622D01*
X600644D01*
Y391605D01*
X605597D01*
Y392764D01*
X608136Y393743D01*
X608643Y393183D01*
Y391605D01*
X613596D01*
Y393183D01*
X614104Y393743D01*
X616643Y392764D01*
Y391605D01*
X621596D01*
Y400622D01*
X621451D01*
Y409072D01*
X621273Y409964D01*
X620768Y410720D01*
X605406Y426082D01*
X604650Y426587D01*
X603758Y426765D01*
X596743D01*
X595854Y427903D01*
X597094Y430443D01*
X605934D01*
Y433407D01*
X607966D01*
X608744Y433729D01*
X608776Y433809D01*
X611477D01*
Y426830D01*
X611655Y425938D01*
X612160Y425182D01*
X624789Y412553D01*
Y400622D01*
X624644D01*
Y391605D01*
X629596D01*
Y400622D01*
X629451D01*
Y405362D01*
X630293Y405986D01*
X631991Y406693D01*
X632622Y406432D01*
X633822D01*
X634930Y406891D01*
X635157Y407117D01*
X643687D01*
X659006Y391798D01*
X659762Y391293D01*
X660654Y391115D01*
X707898D01*
X708790Y391293D01*
X709546Y391798D01*
X740359Y422611D01*
X749547D01*
Y421834D01*
X765564D01*
Y428050D01*
X749547D01*
Y427273D01*
X742732D01*
X741926Y429813D01*
X742205Y430092D01*
X742664Y431200D01*
Y431520D01*
X746455Y435311D01*
X749547D01*
Y434534D01*
X765564D01*
Y440750D01*
X749547D01*
Y439973D01*
X745490D01*
X744598Y439795D01*
X743842Y439290D01*
X739368Y434816D01*
X739048D01*
X737940Y434357D01*
X737091Y433508D01*
X736632Y432400D01*
Y431200D01*
X737091Y430092D01*
X737760Y429422D01*
X737835Y429190D01*
X737868Y428265D01*
X737746Y426590D01*
X710160Y399004D01*
X707619Y400056D01*
Y408619D01*
X695883D01*
X695849Y408702D01*
X695071Y409024D01*
X694563D01*
Y411984D01*
X686860D01*
Y403352D01*
X684955D01*
Y401447D01*
X675347D01*
Y395777D01*
X661619D01*
X646300Y411096D01*
X645544Y411601D01*
X644652Y411779D01*
X635157D01*
X634930Y412005D01*
X633822Y412464D01*
X632622D01*
X631991Y412202D01*
X630262Y412923D01*
X629451Y413518D01*
X629273Y414410D01*
X628768Y415166D01*
X616139Y427795D01*
Y433809D01*
X619586D01*
Y444604D01*
X616520D01*
Y451796D01*
X617284D01*
Y456876D01*
X621094D01*
Y451796D01*
X624269D01*
Y457026D01*
X626999D01*
Y460308D01*
X629179Y461177D01*
X629539Y461177D01*
X632139D01*
Y460669D01*
X632461Y459891D01*
X632545Y459857D01*
Y448120D01*
X643077D01*
Y459857D01*
X643161Y459891D01*
X643483Y460669D01*
Y461177D01*
X646443D01*
Y468880D01*
X637811D01*
X629179D01*
Y468055D01*
X626999Y467186D01*
X626639Y467186D01*
X623633D01*
X623633Y468820D01*
X621761Y470017D01*
X621520Y472457D01*
Y476238D01*
X622834Y477552D01*
X623154D01*
X624262Y478011D01*
X625111Y478860D01*
X625570Y479968D01*
Y481168D01*
X625564Y481184D01*
X626933Y483635D01*
X627052Y483723D01*
X632453D01*
Y494257D01*
X620716D01*
X620682Y494340D01*
X619904Y494662D01*
X619396D01*
Y497622D01*
D02*
G37*
G36*
X646443Y480393D02*
X639716D01*
Y472690D01*
X646443D01*
Y480393D01*
D02*
G37*
G36*
X635906D02*
X629179D01*
Y472690D01*
X635906D01*
Y480393D01*
D02*
G37*
G36*
X547778Y485140D02*
X544115D01*
Y478447D01*
Y471754D01*
X545986D01*
Y469182D01*
X545985D01*
Y468586D01*
X545986D01*
Y464537D01*
X545087Y463459D01*
X544372Y462883D01*
X543834Y462648D01*
X543446Y462648D01*
X540008Y462648D01*
X537468Y462648D01*
X535008Y462648D01*
X532468Y462648D01*
X530586Y462648D01*
X530048Y462883D01*
X529333Y463459D01*
X528434Y464537D01*
X528434Y466126D01*
X528434Y468586D01*
X529183Y470816D01*
X531800D01*
Y475120D01*
X534412D01*
X534412Y475120D01*
X536642Y474371D01*
Y471754D01*
X540305D01*
Y478447D01*
Y485140D01*
X536642D01*
Y482523D01*
X534412Y481774D01*
X534412Y481774D01*
Y481774D01*
X534412Y481774D01*
X531800D01*
Y481952D01*
X527012D01*
Y476384D01*
X525107D01*
Y474479D01*
X518414D01*
Y470816D01*
X521031D01*
X521780Y468586D01*
X521780Y466642D01*
X521780Y464182D01*
X521780Y461642D01*
Y459182D01*
X528434Y459182D01*
X530008Y457294D01*
Y455994D01*
X534412Y455994D01*
X534879Y453647D01*
Y449529D01*
X529151Y443801D01*
X521637D01*
X521605Y443881D01*
X520827Y444203D01*
X518795D01*
Y447167D01*
X511556D01*
Y438404D01*
Y429641D01*
X518795D01*
Y432605D01*
X520827D01*
X521605Y432927D01*
X521637Y433007D01*
X524338D01*
Y430152D01*
X524516Y429260D01*
X525021Y428504D01*
X526884Y426641D01*
X527033Y426282D01*
X527882Y425433D01*
X528990Y424974D01*
X530190D01*
X531298Y425433D01*
X532147Y426282D01*
X532606Y427390D01*
Y428590D01*
X532147Y429698D01*
X531379Y430466D01*
X531398Y430897D01*
X531998Y433007D01*
X532448D01*
Y440505D01*
X537339Y445397D01*
X539879Y444345D01*
Y443945D01*
X540057Y443053D01*
X540562Y442297D01*
X541501Y441357D01*
X541534Y441195D01*
X541973Y440538D01*
Y433007D01*
X545420D01*
Y425464D01*
X545598Y424572D01*
X546103Y423816D01*
X548418Y421501D01*
Y420786D01*
X548877Y419678D01*
X549726Y418829D01*
X550834Y418370D01*
X552034D01*
X553142Y418829D01*
X553991Y419678D01*
X554450Y420786D01*
Y421986D01*
X553991Y423094D01*
X553142Y423943D01*
X552163Y424349D01*
X550082Y426429D01*
Y433007D01*
X552783D01*
X552815Y432927D01*
X553593Y432605D01*
X555625D01*
Y429641D01*
X562864D01*
Y438404D01*
Y447167D01*
X555625D01*
Y444203D01*
X553593D01*
X552815Y443881D01*
X552783Y443801D01*
X545545D01*
X545335Y444116D01*
X544541Y444910D01*
Y457240D01*
X545986Y459182D01*
X548666Y459182D01*
X549313Y459053D01*
X549959Y459182D01*
X552640D01*
Y463586D01*
X552640D01*
Y464182D01*
X552640D01*
Y468586D01*
X552640D01*
Y469182D01*
X552640D01*
Y471642D01*
X552640Y473586D01*
X552640D01*
Y474182D01*
X552640D01*
Y478586D01*
X547778D01*
Y485140D01*
D02*
G37*
G36*
X788285Y476797D02*
X781431D01*
Y469602D01*
X788285D01*
Y476797D01*
D02*
G37*
G36*
X777621D02*
X770767D01*
Y469602D01*
X777621D01*
Y476797D01*
D02*
G37*
G36*
X368149Y485425D02*
X360446D01*
Y482465D01*
X359938D01*
X359161Y482143D01*
X359126Y482060D01*
X347390D01*
Y471526D01*
X359126D01*
X359161Y471443D01*
X359938Y471121D01*
X360446D01*
Y468161D01*
X368149D01*
Y476793D01*
Y485425D01*
D02*
G37*
G36*
X515362Y475278D02*
X508635D01*
Y467575D01*
X515362D01*
Y475278D01*
D02*
G37*
G36*
X504825D02*
X498098D01*
Y467575D01*
X504825D01*
Y475278D01*
D02*
G37*
G36*
X296794Y526642D02*
X274706D01*
Y502953D01*
X278085D01*
Y436772D01*
X278263Y435880D01*
X278768Y435124D01*
X286314Y427578D01*
X285370Y425942D01*
X284636Y423203D01*
Y420369D01*
X285370Y417631D01*
X286787Y415176D01*
X288792Y413171D01*
X291246Y411754D01*
X293985Y411020D01*
X296819D01*
X299557Y411754D01*
X301194Y412698D01*
X315744Y398148D01*
X316500Y397643D01*
X317392Y397465D01*
X353365D01*
X362867Y387963D01*
Y379051D01*
X358476D01*
Y382678D01*
X358154Y383456D01*
X357376Y383778D01*
X337928D01*
X337150Y383456D01*
X336828Y382678D01*
Y379051D01*
X322403D01*
Y375965D01*
X320294D01*
X319402Y375787D01*
X318646Y375282D01*
X315598Y372234D01*
X315093Y371478D01*
X315042Y371226D01*
X312502Y371476D01*
Y383829D01*
X295613D01*
Y361940D01*
X312375D01*
X312502Y361940D01*
X314915Y361632D01*
Y358089D01*
X314782Y357957D01*
X312502Y357328D01*
X312502Y357328D01*
Y357328D01*
X312502Y357328D01*
X298113D01*
X298113Y350829D01*
X298113Y349899D01*
X298113Y344328D01*
X298113Y343400D01*
X298113Y337828D01*
X298113Y336899D01*
X298113Y331329D01*
X298113Y330400D01*
Y326440D01*
X303487D01*
X303600Y326327D01*
X304708Y325868D01*
X305908D01*
X307016Y326327D01*
X307129Y326440D01*
X312106D01*
X313030Y326278D01*
X314757Y325749D01*
X315090Y325250D01*
X327917Y312423D01*
X328232Y312213D01*
Y310070D01*
X333185D01*
Y310597D01*
X338633D01*
X340392Y308838D01*
Y308518D01*
X340851Y307410D01*
X341700Y306561D01*
X342808Y306102D01*
X344008D01*
X345116Y306561D01*
X345965Y307410D01*
X346424Y308518D01*
Y309718D01*
X345965Y310826D01*
X345116Y311675D01*
X344008Y312134D01*
X343688D01*
X341246Y314576D01*
X340490Y315081D01*
X339598Y315259D01*
X333185D01*
Y315786D01*
X331495D01*
X330838Y316224D01*
X330676Y316257D01*
X319069Y327863D01*
Y339344D01*
X318891Y340236D01*
X318386Y340992D01*
X316576Y342802D01*
X315820Y343307D01*
X315242Y343422D01*
X315189Y343513D01*
X315998Y345333D01*
X316908Y346053D01*
X325148D01*
X328232Y342969D01*
Y340550D01*
X333185D01*
Y341077D01*
X338633D01*
X340823Y338887D01*
Y328578D01*
X340597Y328352D01*
X340138Y327244D01*
Y326044D01*
X340597Y324936D01*
X341446Y324087D01*
X342554Y323628D01*
X343754D01*
X344862Y324087D01*
X345711Y324936D01*
X346170Y326044D01*
Y326364D01*
X349707Y329901D01*
X404876D01*
X405768Y330079D01*
X406524Y330584D01*
X427371Y351431D01*
X427633Y351459D01*
X430219Y350687D01*
X430259Y350590D01*
X431108Y349741D01*
X432216Y349282D01*
X433416D01*
X434524Y349741D01*
X434751Y349967D01*
X443635D01*
Y347159D01*
X447224D01*
Y341305D01*
X444722Y341214D01*
X444263Y342322D01*
X444263Y342323D01*
X444245Y342340D01*
X443414Y343171D01*
X442306Y343630D01*
X441106D01*
X439998Y343171D01*
X439149Y342322D01*
X438690Y341214D01*
Y340894D01*
X438407Y340611D01*
X437902Y339855D01*
X437724Y338963D01*
Y334957D01*
X436771D01*
Y321987D01*
X443340D01*
Y334957D01*
X442386D01*
Y337631D01*
X443414Y338057D01*
X444245Y338888D01*
X444263Y338905D01*
X444263Y338906D01*
X444722Y340014D01*
X447224Y339923D01*
Y314536D01*
X446270D01*
Y301567D01*
X452840D01*
Y314536D01*
X451886D01*
Y347159D01*
X454356D01*
X454390Y347075D01*
X455168Y346753D01*
X460502D01*
X461280Y347075D01*
X461314Y347159D01*
X472034D01*
Y347159D01*
X474575Y347756D01*
X486452Y335879D01*
X487291Y333686D01*
X487291Y333686D01*
X487291D01*
X487291Y333686D01*
Y320718D01*
X493861D01*
Y333686D01*
X492394D01*
Y335564D01*
X492216Y336456D01*
X491711Y337212D01*
X475560Y353363D01*
X474804Y353868D01*
X473912Y354046D01*
X472034D01*
Y357841D01*
X496570D01*
X497462Y358019D01*
X498218Y358524D01*
X508477Y368783D01*
X515611D01*
Y368638D01*
X524628D01*
Y373591D01*
X515611D01*
Y373445D01*
X512286D01*
X510947Y375985D01*
X511494Y376783D01*
X515611D01*
Y376637D01*
X524628D01*
Y381590D01*
X515611D01*
Y381445D01*
X508908D01*
X508016Y381267D01*
X507260Y380762D01*
X494335Y367837D01*
X444507D01*
X442659Y369506D01*
X442659Y370377D01*
Y374859D01*
X451422D01*
Y373190D01*
X456375D01*
Y381190D01*
X451422D01*
Y379521D01*
X442659D01*
Y384874D01*
X431848D01*
X431816Y384953D01*
X431038Y385275D01*
X420116D01*
X419338Y384953D01*
X419306Y384874D01*
X408495D01*
Y379521D01*
X391033D01*
X390141Y379343D01*
X389385Y378838D01*
X387546Y377000D01*
X385890D01*
Y376473D01*
X372901D01*
Y379051D01*
X367528D01*
Y388929D01*
X367351Y389821D01*
X366845Y390577D01*
X355978Y401444D01*
X355222Y401949D01*
X354330Y402127D01*
X318358D01*
X304490Y415994D01*
X305434Y417631D01*
X305923Y419455D01*
X335723D01*
X336615Y419633D01*
X337371Y420138D01*
X347026Y429793D01*
X354263D01*
Y433704D01*
X365192D01*
Y430047D01*
X376488D01*
Y433704D01*
X383465D01*
Y430533D01*
X399355D01*
Y441423D01*
X383465D01*
Y438366D01*
X376488D01*
Y441275D01*
X376571Y441309D01*
X376893Y442087D01*
Y447929D01*
X376571Y448707D01*
X376488Y448741D01*
Y459969D01*
X365192D01*
Y448741D01*
X365109Y448707D01*
X364787Y447929D01*
Y442087D01*
X365109Y441309D01*
X365192Y441275D01*
Y438366D01*
X354263D01*
Y441529D01*
X354346Y441563D01*
X354668Y442341D01*
Y446151D01*
X354346Y446929D01*
X354263Y446963D01*
Y458699D01*
X343730D01*
Y446963D01*
X343646Y446929D01*
X343324Y446151D01*
Y442341D01*
X343646Y441563D01*
X343730Y441529D01*
Y433089D01*
X334758Y424117D01*
X305923D01*
X305434Y425942D01*
X304017Y428396D01*
X302013Y430401D01*
X299557Y431818D01*
X296819Y432552D01*
X293985D01*
X291246Y431818D01*
X289611Y430874D01*
X282747Y437737D01*
Y467606D01*
X285287Y467940D01*
X285370Y467631D01*
X286787Y465176D01*
X288792Y463171D01*
X291246Y461754D01*
X293985Y461020D01*
X296819D01*
X299557Y461754D01*
X302013Y463171D01*
X304017Y465176D01*
X305434Y467631D01*
X306168Y470369D01*
Y473203D01*
X305434Y475942D01*
X304017Y478396D01*
X302013Y480401D01*
X299557Y481818D01*
X296819Y482552D01*
X293985D01*
X291246Y481818D01*
X288792Y480401D01*
X286787Y478396D01*
X285370Y475942D01*
X285287Y475632D01*
X282747Y475966D01*
Y502953D01*
X296794D01*
Y526642D01*
D02*
G37*
G36*
X393315Y467788D02*
Y460883D01*
X402720D01*
Y467788D01*
X393315D01*
D02*
G37*
G36*
X379662Y474888D02*
X371959D01*
Y468161D01*
X377447D01*
X377614Y468161D01*
X377737Y468157D01*
X379720Y467847D01*
X380096Y465824D01*
X380100Y465691D01*
X380100Y465522D01*
Y460883D01*
X389505D01*
Y467788D01*
X382315D01*
X382149Y467788D01*
X382025Y467792D01*
X380042Y468102D01*
X379666Y470125D01*
X379662Y470258D01*
X379662Y470427D01*
Y474888D01*
D02*
G37*
G36*
X465720Y479288D02*
X456315D01*
Y460883D01*
X465720D01*
Y479288D01*
D02*
G37*
G36*
X452505D02*
X443100D01*
Y460883D01*
X452505D01*
Y479288D01*
D02*
G37*
G36*
X765564Y466149D02*
X749547D01*
Y459935D01*
X765564D01*
Y466149D01*
D02*
G37*
G36*
X666334Y466312D02*
X665134D01*
X664026Y465853D01*
X663177Y465004D01*
X662718Y463896D01*
Y462696D01*
X663177Y461588D01*
X664026Y460739D01*
X665134Y460280D01*
X666334D01*
X667442Y460739D01*
X667542Y460838D01*
X676648D01*
Y459935D01*
X692665D01*
Y466149D01*
X676648D01*
Y465500D01*
X667795D01*
X667442Y465853D01*
X666334Y466312D01*
D02*
G37*
G36*
X483675Y475210D02*
X472380D01*
Y463981D01*
X472297Y463947D01*
X471975Y463169D01*
Y460629D01*
X469015D01*
Y453180D01*
X478028D01*
X487041D01*
Y460629D01*
X484081D01*
Y463169D01*
X483759Y463947D01*
X483675Y463981D01*
Y475210D01*
D02*
G37*
G36*
X788285Y465792D02*
X779526D01*
X770767D01*
Y458597D01*
X773727D01*
Y456565D01*
X774049Y455787D01*
X774133Y455753D01*
Y452673D01*
X765564D01*
Y453450D01*
X749547D01*
Y447234D01*
X765564D01*
Y448011D01*
X774133D01*
Y445033D01*
X784920D01*
Y455753D01*
X785003Y455787D01*
X785325Y456565D01*
Y458597D01*
X788285D01*
Y465792D01*
D02*
G37*
G36*
X692665Y453450D02*
X676648D01*
Y452673D01*
X663605D01*
X663378Y452899D01*
X662270Y453358D01*
X661070D01*
X659962Y452899D01*
X659113Y452050D01*
X658654Y450942D01*
Y449742D01*
X659113Y448634D01*
X659962Y447785D01*
X661070Y447326D01*
X662270D01*
X663378Y447785D01*
X663605Y448011D01*
X676648D01*
Y447234D01*
X692665D01*
Y453450D01*
D02*
G37*
G36*
X402720Y457073D02*
X393315D01*
Y450168D01*
X402720D01*
Y457073D01*
D02*
G37*
G36*
X389505D02*
X380100D01*
Y450168D01*
X389505D01*
Y457073D01*
D02*
G37*
G36*
X487041Y449370D02*
X479933D01*
Y441921D01*
X487041D01*
Y449370D01*
D02*
G37*
G36*
X476123D02*
X469015D01*
Y441921D01*
X476123D01*
Y449370D01*
D02*
G37*
G36*
X573913Y447167D02*
X566674D01*
Y440309D01*
X573913D01*
Y447167D01*
D02*
G37*
G36*
X507746D02*
X500507D01*
Y440309D01*
X507746D01*
Y447167D01*
D02*
G37*
G36*
X465720Y457073D02*
X456315D01*
Y438668D01*
X465720D01*
Y457073D01*
D02*
G37*
G36*
X452505D02*
X443100D01*
Y438668D01*
X452505D01*
Y457073D01*
D02*
G37*
G36*
X573913Y436499D02*
X566674D01*
Y429641D01*
X573913D01*
Y436499D01*
D02*
G37*
G36*
X507746D02*
X500507D01*
Y429641D01*
X507746D01*
Y436499D01*
D02*
G37*
G36*
X696031Y431415D02*
X686562D01*
Y426847D01*
X696031D01*
Y431415D01*
D02*
G37*
G36*
X439449Y491579D02*
X406449D01*
X405672Y491256D01*
X405350Y490479D01*
Y427479D01*
X405672Y426701D01*
X406449Y426379D01*
X439449D01*
X440227Y426701D01*
X440549Y427479D01*
Y490479D01*
X440227Y491256D01*
X439449Y491579D01*
D02*
G37*
G36*
X497205Y425407D02*
X491871D01*
X491093Y425085D01*
X488425Y424923D01*
X487978Y425108D01*
Y419608D01*
Y412376D01*
X488418Y411541D01*
X488220Y411064D01*
Y409864D01*
X488679Y408756D01*
X489528Y407907D01*
X490636Y407448D01*
X491836D01*
X492944Y407907D01*
X493171Y408133D01*
X533563D01*
X536789Y404907D01*
Y400622D01*
X536643D01*
Y391605D01*
X541596D01*
Y400622D01*
X541451D01*
Y403814D01*
X543991Y405111D01*
X544789Y404534D01*
Y400622D01*
X544644D01*
Y391605D01*
X549596D01*
Y400622D01*
X549451D01*
Y406904D01*
X549273Y407796D01*
X548768Y408552D01*
X536060Y421260D01*
X535304Y421765D01*
X534412Y421943D01*
X520602D01*
X520376Y422169D01*
X519268Y422628D01*
X518068D01*
X516960Y422169D01*
X516111Y421320D01*
X515652Y420212D01*
Y419012D01*
X516111Y417904D01*
X516960Y417055D01*
X518068Y416596D01*
X519268D01*
X520376Y417055D01*
X520602Y417281D01*
X533447D01*
X535545Y415182D01*
X534712Y413226D01*
X534341Y412795D01*
X499965D01*
X498305Y414909D01*
X498305Y415335D01*
Y424307D01*
X497983Y425085D01*
X497205Y425407D01*
D02*
G37*
G36*
X484168Y425108D02*
X482782Y424534D01*
X481147Y422899D01*
X480573Y421513D01*
X484168D01*
Y425108D01*
D02*
G37*
G36*
X696031Y423037D02*
X686562D01*
Y418469D01*
X696031D01*
Y423037D01*
D02*
G37*
G36*
X484168Y417703D02*
X480573D01*
X481147Y416317D01*
X482782Y414683D01*
X484168Y414108D01*
Y417703D01*
D02*
G37*
G36*
X660781Y418382D02*
X653927D01*
Y411187D01*
X660781D01*
Y418382D01*
D02*
G37*
G36*
X412242Y415925D02*
X405003D01*
Y406781D01*
X412242D01*
Y415925D01*
D02*
G37*
G36*
X683050Y411984D02*
X675347D01*
Y405257D01*
X683050D01*
Y411984D01*
D02*
G37*
G36*
X467677Y408876D02*
X462724D01*
Y406665D01*
X462644Y406584D01*
X462185Y405476D01*
Y404276D01*
X462644Y403168D01*
X462724Y403087D01*
Y400876D01*
X467677D01*
Y403087D01*
X467758Y403168D01*
X468217Y404276D01*
Y405476D01*
X467758Y406584D01*
X467677Y406665D01*
Y408876D01*
D02*
G37*
G36*
X423291Y415925D02*
X416052D01*
Y404876D01*
Y393827D01*
X423291D01*
Y396791D01*
X430911D01*
X431689Y397113D01*
X431721Y397192D01*
X442532D01*
Y402545D01*
X450787D01*
Y400876D01*
X455740D01*
Y408876D01*
X450787D01*
Y407207D01*
X442532D01*
Y412560D01*
X431721D01*
X431689Y412639D01*
X430911Y412961D01*
X423291D01*
Y415925D01*
D02*
G37*
G36*
X749173Y406484D02*
X745363D01*
X744585Y406162D01*
X744551Y406078D01*
X732814D01*
Y395546D01*
X736407D01*
Y381273D01*
X733341D01*
Y379603D01*
X723474D01*
X722582Y379425D01*
X721826Y378920D01*
X712952Y370046D01*
X712632D01*
X711524Y369587D01*
X710675Y368738D01*
X710216Y367630D01*
Y366430D01*
X710675Y365322D01*
X711524Y364473D01*
X712632Y364014D01*
X713832D01*
X714940Y364473D01*
X715789Y365322D01*
X716248Y366430D01*
Y366750D01*
X724439Y374941D01*
X733341D01*
Y373271D01*
X744136D01*
Y381273D01*
X741069D01*
Y395546D01*
X744551D01*
X744585Y395462D01*
X745363Y395140D01*
X749173D01*
X749951Y395462D01*
X749985Y395546D01*
X761721D01*
Y406078D01*
X749985D01*
X749951Y406162D01*
X749173Y406484D01*
D02*
G37*
G36*
X412242Y402971D02*
X405003D01*
Y393827D01*
X412242D01*
Y402971D01*
D02*
G37*
G36*
X393792Y408019D02*
X392592D01*
X391484Y407560D01*
X390635Y406711D01*
X390176Y405603D01*
Y404403D01*
X390635Y403295D01*
X391129Y402801D01*
X390798Y401124D01*
X390350Y400261D01*
X388493D01*
X387715Y399939D01*
X387393Y399161D01*
Y393827D01*
X387715Y393049D01*
X388493Y392727D01*
X397891D01*
X398669Y393049D01*
X398991Y393827D01*
Y399161D01*
X398669Y399939D01*
X397891Y400261D01*
X396034D01*
X395586Y401124D01*
X395255Y402801D01*
X395749Y403295D01*
X396208Y404403D01*
Y405603D01*
X395749Y406711D01*
X394900Y407560D01*
X393792Y408019D01*
D02*
G37*
G36*
X523620Y400615D02*
X515620D01*
Y392613D01*
X523620D01*
Y400615D01*
D02*
G37*
G36*
X374996Y409566D02*
X373796D01*
X372688Y409107D01*
X371839Y408258D01*
X371380Y407150D01*
Y405950D01*
X371613Y405388D01*
X370690Y403254D01*
X370396Y402848D01*
X369618Y402526D01*
X369296Y401748D01*
Y392764D01*
X369618Y391986D01*
X370396Y391664D01*
X378396D01*
X379174Y391986D01*
X379496Y392764D01*
Y401748D01*
X379174Y402526D01*
X378396Y402848D01*
X378102Y403254D01*
X377179Y405388D01*
X377412Y405950D01*
Y407150D01*
X376953Y408258D01*
X376104Y409107D01*
X374996Y409566D01*
D02*
G37*
G36*
X589596Y400622D02*
X584644D01*
Y391605D01*
X589596D01*
Y400622D01*
D02*
G37*
G36*
X533596D02*
X528643D01*
Y391605D01*
X533596D01*
Y400622D01*
D02*
G37*
G36*
X642620Y400614D02*
X634619D01*
Y392613D01*
X636289D01*
Y389590D01*
X633611D01*
Y384637D01*
X642628D01*
Y389590D01*
X640951D01*
Y392613D01*
X642620D01*
Y400614D01*
D02*
G37*
G36*
X524628Y389590D02*
X515611D01*
Y384637D01*
X524628D01*
Y389590D01*
D02*
G37*
G36*
X679831Y385567D02*
Y381972D01*
X683426D01*
X682851Y383358D01*
X681217Y384992D01*
X679831Y385567D01*
D02*
G37*
G36*
X676021D02*
X674635Y384992D01*
X673000Y383358D01*
X672426Y381972D01*
X676021D01*
Y385567D01*
D02*
G37*
G36*
X642628Y381590D02*
X633611D01*
Y376637D01*
X642628D01*
Y381590D01*
D02*
G37*
G36*
X789136Y381273D02*
X778341D01*
Y373271D01*
X789136D01*
Y381273D01*
D02*
G37*
G36*
X468312Y381190D02*
X463359D01*
Y378979D01*
X463279Y378898D01*
X462820Y377790D01*
Y376590D01*
X463279Y375482D01*
X463359Y375401D01*
Y373190D01*
X468312D01*
Y375401D01*
X468393Y375482D01*
X468852Y376590D01*
Y377790D01*
X468393Y378898D01*
X468312Y378979D01*
Y381190D01*
D02*
G37*
G36*
X288503Y389328D02*
X268613D01*
Y370439D01*
X288503D01*
Y389328D01*
D02*
G37*
G36*
X642628Y373591D02*
X633611D01*
Y368638D01*
X642628D01*
Y373591D01*
D02*
G37*
G36*
X683426Y378162D02*
X672426D01*
X672611Y377715D01*
X672449Y375047D01*
X672127Y374269D01*
Y368935D01*
X672449Y368157D01*
X673227Y367835D01*
X682625D01*
X683403Y368157D01*
X683725Y368935D01*
Y374269D01*
X683403Y375047D01*
X683241Y377715D01*
X683426Y378162D01*
D02*
G37*
G36*
X705040Y377956D02*
X697040D01*
X696262Y377634D01*
X695940Y376856D01*
Y367872D01*
X696262Y367094D01*
X697040Y366772D01*
X705040D01*
X705818Y367094D01*
X706140Y367872D01*
Y376856D01*
X705818Y377634D01*
X705040Y377956D01*
D02*
G37*
G36*
X524628Y365591D02*
X515611D01*
Y360638D01*
X524628D01*
Y365591D01*
D02*
G37*
G36*
X642628D02*
X633611D01*
Y360638D01*
X642628D01*
Y360783D01*
X647878D01*
X648279Y360413D01*
X649366Y358243D01*
X649256Y357978D01*
Y356778D01*
X649715Y355670D01*
X649941Y355443D01*
Y353264D01*
X646123Y349445D01*
X642628D01*
Y349590D01*
X633611D01*
Y344637D01*
X642628D01*
Y344783D01*
X647088D01*
X647980Y344961D01*
X648736Y345466D01*
X653920Y350650D01*
X654425Y351406D01*
X654603Y352298D01*
Y355443D01*
X654829Y355670D01*
X655288Y356778D01*
Y357978D01*
X655178Y358243D01*
X656265Y360413D01*
X656499Y360629D01*
X658859Y360750D01*
X659708Y359901D01*
X660816Y359442D01*
X662016D01*
X663124Y359901D01*
X663973Y360750D01*
X664432Y361858D01*
Y363058D01*
X663973Y364166D01*
X663124Y365015D01*
X662016Y365474D01*
X660816D01*
X660622Y365394D01*
X660365Y365445D01*
X642628D01*
Y365591D01*
D02*
G37*
G36*
X606553Y374548D02*
X591186D01*
Y359180D01*
X606553D01*
Y374548D01*
D02*
G37*
G36*
X586804D02*
X571437D01*
Y359180D01*
X586804D01*
Y374548D01*
D02*
G37*
G36*
X567053D02*
X551687D01*
Y359180D01*
X567053D01*
Y374548D01*
D02*
G37*
G36*
X695090Y359030D02*
X694312Y358708D01*
X693990Y357930D01*
Y357888D01*
X693983Y356726D01*
X693929Y356409D01*
X693676Y355295D01*
X693513Y354828D01*
X693473Y354722D01*
X693313Y354336D01*
Y354294D01*
X693635Y353516D01*
X694413Y353194D01*
X694455D01*
X695233Y353516D01*
X695245Y353546D01*
X695275Y353559D01*
X695288Y353588D01*
X695318Y353601D01*
X695320Y353606D01*
X695402Y353643D01*
X695414Y353671D01*
X695444Y353685D01*
X695767Y354463D01*
Y354505D01*
X695799Y355765D01*
X695919Y356788D01*
X696184Y357629D01*
X696274Y357846D01*
Y357888D01*
X695952Y358666D01*
X695922Y358678D01*
X695910Y358708D01*
X695132Y359030D01*
X695090D01*
D02*
G37*
G36*
X642628Y357590D02*
X633611D01*
Y352637D01*
X642628D01*
Y357590D01*
D02*
G37*
G36*
X524628D02*
X515611D01*
Y352637D01*
X524628D01*
Y357590D01*
D02*
G37*
G36*
X789136Y359772D02*
X778341D01*
Y351772D01*
X789136D01*
Y359772D01*
D02*
G37*
G36*
X744136D02*
X733341D01*
Y351772D01*
X744136D01*
Y359772D01*
D02*
G37*
G36*
X524628Y349590D02*
X515611D01*
Y349445D01*
X509996D01*
X509104Y349267D01*
X508348Y348762D01*
X502432Y342847D01*
X501927Y342090D01*
X501750Y341199D01*
Y333295D01*
X501633Y333178D01*
X501174Y332070D01*
Y330870D01*
X501633Y329762D01*
X502481Y328913D01*
X502029Y326351D01*
X497716Y322038D01*
X497211Y321282D01*
X497033Y320390D01*
Y300686D01*
X489644Y293296D01*
X489077Y293276D01*
X486795Y294040D01*
X486681Y294316D01*
X485832Y295165D01*
X484724Y295624D01*
X484404D01*
X483407Y296621D01*
Y300298D01*
X484361D01*
Y313267D01*
X477791D01*
Y300298D01*
X478745D01*
Y295656D01*
X478923Y294764D01*
X479428Y294008D01*
X481108Y292328D01*
Y292008D01*
X481567Y290900D01*
X482416Y290051D01*
X482692Y289937D01*
X482914Y289274D01*
X482762Y286734D01*
X481654Y286275D01*
X480805Y285426D01*
X480346Y284318D01*
Y283118D01*
X480805Y282010D01*
X481654Y281161D01*
X481751Y281121D01*
X482523Y278535D01*
X482495Y278273D01*
X471221Y266999D01*
X422810D01*
X420846Y268894D01*
Y270094D01*
X420692Y270465D01*
X421650Y272475D01*
X422176Y273005D01*
X465328D01*
X466220Y273183D01*
X466976Y273688D01*
X469516Y276228D01*
X470021Y276984D01*
X470199Y277876D01*
Y278578D01*
X477114D01*
Y289366D01*
X473907D01*
Y320718D01*
X474860D01*
Y333686D01*
X468292D01*
Y320718D01*
X469245D01*
Y289366D01*
X466394D01*
X466360Y289449D01*
X465582Y289771D01*
X460248D01*
X459470Y289449D01*
X459436Y289366D01*
X448716D01*
Y288550D01*
X446175Y287498D01*
X434410Y299264D01*
X433839Y301567D01*
X433839D01*
Y314536D01*
X427271D01*
Y301567D01*
X428356D01*
Y299690D01*
X428534Y298798D01*
X429039Y298042D01*
X444757Y282324D01*
X445513Y281819D01*
X446405Y281641D01*
X448716D01*
Y278578D01*
X446553Y277667D01*
X386979D01*
X386605Y278568D01*
X385757Y279416D01*
X384649Y279875D01*
X383449D01*
X382340Y279416D01*
X381492Y278568D01*
X381033Y277459D01*
X379822Y277590D01*
X378622D01*
X377514Y277131D01*
X376555Y276370D01*
X375596Y277131D01*
X374488Y277590D01*
X373288D01*
X372180Y277131D01*
X371331Y276282D01*
X370872Y275174D01*
Y273974D01*
X371331Y272866D01*
X371837Y272360D01*
Y271755D01*
X372014Y270863D01*
X372519Y270107D01*
X379606Y263020D01*
X380362Y262515D01*
X381254Y262337D01*
X472186D01*
X473078Y262515D01*
X473834Y263020D01*
X503206Y292392D01*
X505746Y291500D01*
X506152Y290520D01*
Y286283D01*
X506329Y285391D01*
X506834Y284635D01*
X512702Y278768D01*
X513458Y278263D01*
X514350Y278085D01*
X709573D01*
X710465Y278263D01*
X711221Y278768D01*
X736637Y304184D01*
X744136D01*
Y312185D01*
X741069D01*
Y321124D01*
X744551D01*
X744585Y321040D01*
X745363Y320718D01*
X749173D01*
X749951Y321040D01*
X749985Y321124D01*
X761721D01*
Y331656D01*
X749985D01*
X749951Y331740D01*
X749173Y332062D01*
X745363D01*
X744585Y331740D01*
X744551Y331656D01*
X732814D01*
Y321124D01*
X736407D01*
Y312185D01*
X733341D01*
Y307480D01*
X708608Y282747D01*
X515316D01*
X510813Y287249D01*
Y289886D01*
X511319Y290392D01*
X511778Y291500D01*
Y292700D01*
X511319Y293808D01*
X510470Y294657D01*
X509362Y295116D01*
X508722D01*
X507448Y296017D01*
X506521Y297185D01*
Y313279D01*
X506747Y313506D01*
X507206Y314614D01*
Y315814D01*
X506747Y316922D01*
X505898Y317771D01*
X504790Y318230D01*
X504092D01*
X503140Y319652D01*
X502847Y320577D01*
X513265Y330995D01*
X515611Y330023D01*
Y328638D01*
X524628D01*
Y333591D01*
X521685D01*
X520328Y336130D01*
X520667Y336637D01*
X524628D01*
Y341590D01*
X515611D01*
Y339934D01*
X509309Y333631D01*
X508613Y333508D01*
X506411Y335099D01*
Y340233D01*
X510961Y344783D01*
X515611D01*
Y344637D01*
X524628D01*
Y349590D01*
D02*
G37*
G36*
X288503Y363829D02*
X268613D01*
Y343940D01*
X288503D01*
Y363829D01*
D02*
G37*
G36*
X662524Y342360D02*
X661324D01*
X660216Y341901D01*
X659874Y341560D01*
X642628D01*
Y341590D01*
X633611D01*
Y336637D01*
X642628D01*
Y336898D01*
X660105D01*
X660216Y336787D01*
X661324Y336328D01*
X662524D01*
X663632Y336787D01*
X664481Y337636D01*
X664940Y338744D01*
Y339944D01*
X664481Y341052D01*
X663632Y341901D01*
X662524Y342360D01*
D02*
G37*
G36*
X606553Y354798D02*
X591186D01*
Y339431D01*
X606553D01*
Y354798D01*
D02*
G37*
G36*
X586804D02*
X571437D01*
Y339431D01*
X586804D01*
Y354798D01*
D02*
G37*
G36*
X567053D02*
X551687D01*
Y339431D01*
X567053D01*
Y354798D01*
D02*
G37*
G36*
X331308Y333216D02*
X330108D01*
X329725Y333058D01*
X328232D01*
Y331989D01*
X328151Y331908D01*
X327692Y330800D01*
Y329600D01*
X328151Y328492D01*
X328232Y328411D01*
Y327342D01*
X329725D01*
X330108Y327184D01*
X331308D01*
X331691Y327342D01*
X333185D01*
Y328411D01*
X333265Y328492D01*
X333724Y329600D01*
Y330800D01*
X333265Y331908D01*
X333185Y331989D01*
Y333058D01*
X331691D01*
X331308Y333216D01*
D02*
G37*
G36*
X642628Y333591D02*
X633611D01*
Y328956D01*
X630246D01*
Y325019D01*
X638120D01*
X645994D01*
Y328956D01*
X642628D01*
Y333591D01*
D02*
G37*
G36*
X663829Y328334D02*
Y324739D01*
X667424D01*
X666850Y326125D01*
X665215Y327760D01*
X663829Y328334D01*
D02*
G37*
G36*
X660019D02*
X658633Y327760D01*
X656999Y326125D01*
X656424Y324739D01*
X660019D01*
Y328334D01*
D02*
G37*
G36*
X524628Y325591D02*
X515611D01*
Y320638D01*
X524628D01*
Y325591D01*
D02*
G37*
G36*
X288503Y339828D02*
X268613D01*
Y319939D01*
X288503D01*
Y339828D01*
D02*
G37*
G36*
X606553Y335047D02*
X591186D01*
Y319681D01*
X606553D01*
Y335047D01*
D02*
G37*
G36*
X586804D02*
X571437D01*
Y319681D01*
X586804D01*
Y335047D01*
D02*
G37*
G36*
X567053D02*
X551687D01*
Y319681D01*
X567053D01*
Y335047D01*
D02*
G37*
G36*
X393352Y323752D02*
X393321D01*
X392543Y323430D01*
X392221Y322653D01*
Y322637D01*
X392543Y321859D01*
X393321Y321537D01*
X393483Y321393D01*
X393617Y321069D01*
X394267Y320524D01*
X394485Y319996D01*
X395263Y319674D01*
X395279Y319674D01*
X396056Y319996D01*
X396061Y320007D01*
X396072Y320011D01*
X396394Y320789D01*
Y320805D01*
X396072Y321582D01*
X395822Y321686D01*
X395204Y322656D01*
X394594Y322909D01*
X394130Y323430D01*
X393352Y323752D01*
D02*
G37*
G36*
X402085Y320625D02*
X401307Y320303D01*
X400985Y319526D01*
Y319510D01*
X401307Y318732D01*
X402085Y318410D01*
X402101D01*
X402878Y318732D01*
X403201Y319510D01*
Y319526D01*
X402878Y320303D01*
X402101Y320625D01*
X402085D01*
D02*
G37*
G36*
X667424Y320929D02*
X663829D01*
Y317334D01*
X665215Y317908D01*
X666850Y319543D01*
X667424Y320929D01*
D02*
G37*
G36*
X660019D02*
X656424D01*
X656999Y319543D01*
X658633Y317908D01*
X660019Y317334D01*
Y320929D01*
D02*
G37*
G36*
X399622Y316251D02*
X398844Y315929D01*
X398814Y315875D01*
X398654Y315803D01*
X398650Y315792D01*
X398638Y315787D01*
X398634Y315776D01*
X398623Y315771D01*
X398301Y314994D01*
Y314962D01*
X398623Y314184D01*
X399400Y313862D01*
X399416D01*
X400194Y314184D01*
X400201Y314196D01*
X400210Y314200D01*
X400251Y314274D01*
X400415Y314342D01*
X400737Y315120D01*
Y315151D01*
X400415Y315929D01*
X399637Y316251D01*
X399622D01*
D02*
G37*
G36*
X524628Y317591D02*
X515611D01*
Y312638D01*
X524628D01*
Y317591D01*
D02*
G37*
G36*
X397727Y309919D02*
X396949Y309597D01*
X396734Y309242D01*
X396522Y309154D01*
X396200Y308377D01*
Y308361D01*
X396522Y307583D01*
X397300Y307261D01*
X397316D01*
X397749Y307441D01*
X397916Y307372D01*
X397932D01*
X398709Y307694D01*
X399032Y308472D01*
Y308487D01*
X398709Y309265D01*
X398638Y309313D01*
X398520Y309597D01*
X397742Y309919D01*
X397727D01*
D02*
G37*
G36*
X402732Y310282D02*
X401955Y309960D01*
X401633Y309182D01*
Y309166D01*
X401955Y308389D01*
X401972Y308361D01*
X401980Y307666D01*
X402302Y306889D01*
X403080Y306566D01*
X403096Y306566D01*
X403873Y306889D01*
X403886Y306919D01*
X403889Y306920D01*
X404211Y307698D01*
X404211Y307707D01*
X404227Y307745D01*
Y307761D01*
X404124Y308010D01*
X403867Y308927D01*
X403927Y309072D01*
Y309087D01*
X403605Y309865D01*
X403559Y309887D01*
X403526Y309960D01*
X402748Y310282D01*
X402732D01*
D02*
G37*
G36*
X379649Y312134D02*
X378449D01*
X377340Y311675D01*
X376492Y310826D01*
X376033Y309718D01*
Y308518D01*
X376492Y307410D01*
X377340Y306561D01*
X378449Y306102D01*
X379649D01*
X380757Y306561D01*
X381605Y307410D01*
X382065Y308518D01*
Y309718D01*
X381605Y310826D01*
X380757Y311675D01*
X379649Y312134D01*
D02*
G37*
G36*
X524628Y309590D02*
X515611D01*
Y304638D01*
X524628D01*
Y309590D01*
D02*
G37*
G36*
X789136Y312185D02*
X778341D01*
Y304184D01*
X789136D01*
Y312185D01*
D02*
G37*
G36*
X706882Y317711D02*
X697738D01*
X696960Y317389D01*
X696638Y316611D01*
Y312801D01*
X696960Y312023D01*
X697738Y311701D01*
X700360D01*
X700866Y309161D01*
X700602Y309052D01*
X699753Y308203D01*
X699294Y307095D01*
Y305895D01*
X699753Y304787D01*
X700602Y303938D01*
X701710Y303479D01*
X702910D01*
X704018Y303938D01*
X704867Y304787D01*
X705326Y305895D01*
Y307095D01*
X704867Y308203D01*
X704018Y309052D01*
X703754Y309161D01*
X704259Y311701D01*
X706882D01*
X707660Y312023D01*
X707982Y312801D01*
Y316611D01*
X707660Y317389D01*
X706882Y317711D01*
D02*
G37*
G36*
X401927Y304186D02*
X401149Y303864D01*
X401145Y303853D01*
X401134Y303848D01*
X400812Y303071D01*
Y303055D01*
X401134Y302277D01*
X401911Y301955D01*
X401927D01*
X402705Y302277D01*
X402709Y302288D01*
X402720Y302293D01*
X403043Y303071D01*
Y303087D01*
X402721Y303864D01*
X401943Y304186D01*
X401927D01*
D02*
G37*
G36*
X683133Y317965D02*
X673227D01*
X672449Y317643D01*
X672127Y316865D01*
Y311023D01*
X672449Y310245D01*
X673227Y309923D01*
X675617D01*
X676270Y308093D01*
X676327Y307383D01*
X675623Y306679D01*
X675164Y305571D01*
Y304371D01*
X675623Y303263D01*
X676472Y302414D01*
X677580Y301955D01*
X678780D01*
X679888Y302414D01*
X680737Y303263D01*
X681196Y304371D01*
Y305571D01*
X680737Y306679D01*
X680033Y307383D01*
X680090Y308093D01*
X680743Y309923D01*
X683133D01*
X683911Y310245D01*
X684233Y311023D01*
Y316865D01*
X683911Y317643D01*
X683133Y317965D01*
D02*
G37*
G36*
X629596Y302623D02*
X624644D01*
Y300445D01*
X621596D01*
Y302623D01*
X616643D01*
Y300445D01*
X613596D01*
Y302623D01*
X608643D01*
Y293605D01*
X613596D01*
Y295783D01*
X616643D01*
Y293605D01*
X621596D01*
Y295783D01*
X624644D01*
Y293605D01*
X629596D01*
Y302623D01*
D02*
G37*
G36*
X605597D02*
X600644D01*
Y300445D01*
X597597D01*
Y302623D01*
X592644D01*
Y300445D01*
X589596D01*
Y302623D01*
X584644D01*
Y293605D01*
X589596D01*
Y295783D01*
X592644D01*
Y293605D01*
X597597D01*
Y295783D01*
X600644D01*
Y293605D01*
X605597D01*
Y302623D01*
D02*
G37*
G36*
X581596D02*
X576643D01*
Y300445D01*
X573596D01*
Y302623D01*
X568643D01*
Y300445D01*
X565597D01*
Y302623D01*
X560644D01*
Y293605D01*
X565597D01*
Y295783D01*
X568643D01*
Y293605D01*
X573596D01*
Y295783D01*
X576643D01*
Y293605D01*
X581596D01*
Y302623D01*
D02*
G37*
G36*
X557597D02*
X552644D01*
Y300445D01*
X549596D01*
Y302623D01*
X544644D01*
Y300445D01*
X541596D01*
Y302623D01*
X536643D01*
Y300445D01*
X533596D01*
Y302623D01*
X528643D01*
Y293605D01*
X533596D01*
Y295783D01*
X536643D01*
Y293605D01*
X541596D01*
Y295783D01*
X544644D01*
Y293605D01*
X549596D01*
Y295783D01*
X552644D01*
Y293605D01*
X557597D01*
Y302623D01*
D02*
G37*
G36*
X312502Y321828D02*
X295613D01*
Y299939D01*
X312502D01*
Y321828D01*
D02*
G37*
G36*
X331308Y302736D02*
X330108D01*
X329725Y302577D01*
X328232D01*
Y301509D01*
X328151Y301428D01*
X327692Y300320D01*
Y299120D01*
X328151Y298012D01*
X328232Y297931D01*
Y296863D01*
X329725D01*
X330108Y296704D01*
X331308D01*
X331691Y296863D01*
X333185D01*
Y297931D01*
X333265Y298012D01*
X333724Y299120D01*
Y300320D01*
X333265Y301428D01*
X333185Y301509D01*
Y302577D01*
X331691D01*
X331308Y302736D01*
D02*
G37*
G36*
X288503Y313328D02*
X268613D01*
Y294440D01*
X288503D01*
Y313328D01*
D02*
G37*
G36*
X645994Y321209D02*
X638120D01*
X630246D01*
Y317272D01*
X633611D01*
Y312638D01*
X635789D01*
Y309590D01*
X633611D01*
Y304638D01*
X636289D01*
Y301614D01*
X634619D01*
Y293613D01*
X642620D01*
Y301614D01*
X640951D01*
Y304638D01*
X642628D01*
Y309590D01*
X640451D01*
Y312638D01*
X642628D01*
Y317272D01*
X645994D01*
Y321209D01*
D02*
G37*
G36*
X523620Y301614D02*
X515620D01*
Y293613D01*
X523620D01*
Y301614D01*
D02*
G37*
G36*
X334728Y288202D02*
Y284607D01*
X338323D01*
X337748Y285993D01*
X336114Y287628D01*
X334728Y288202D01*
D02*
G37*
G36*
X326771Y288755D02*
X320929D01*
X320151Y288433D01*
X319829Y287655D01*
Y285265D01*
X317999Y284612D01*
X317289Y284555D01*
X316585Y285259D01*
X315477Y285718D01*
X314277D01*
X313169Y285259D01*
X312320Y284410D01*
X311861Y283302D01*
Y282102D01*
X312320Y280994D01*
X313169Y280145D01*
X314277Y279686D01*
X315477D01*
X316585Y280145D01*
X317289Y280849D01*
X317999Y280792D01*
X319829Y280139D01*
Y277749D01*
X320151Y276971D01*
X320929Y276649D01*
X326771D01*
X327549Y276971D01*
X330147Y277479D01*
X330292Y277462D01*
X330918Y277202D01*
Y282702D01*
Y288202D01*
X330292Y287942D01*
X330147Y287925D01*
X327549Y288433D01*
X326771Y288755D01*
D02*
G37*
G36*
X789136Y290685D02*
X778341D01*
Y282684D01*
X789136D01*
Y290685D01*
D02*
G37*
G36*
X744136D02*
X733341D01*
Y282684D01*
X744136D01*
Y290685D01*
D02*
G37*
G36*
X338323Y280797D02*
X334728D01*
Y277202D01*
X336114Y277777D01*
X337748Y279411D01*
X338323Y280797D01*
D02*
G37*
%LPD*%
G36*
X566479Y585003D02*
X566320D01*
Y585163D01*
X566479D01*
Y585003D01*
D02*
G37*
G36*
X569029Y581019D02*
X568870D01*
Y581178D01*
X569029D01*
Y581019D01*
D02*
G37*
G36*
X606073Y458895D02*
X606924Y457452D01*
X606945Y457311D01*
X606858Y456876D01*
Y452191D01*
X606114Y451883D01*
X605265Y451034D01*
X604806Y449926D01*
X604806Y448726D01*
X604300Y447969D01*
X603817D01*
X598695D01*
Y439206D01*
X594885D01*
Y447969D01*
X589071D01*
Y455398D01*
X594187D01*
Y459775D01*
X605322D01*
X606073Y458895D01*
D02*
G37*
G36*
X408495Y369506D02*
X419306D01*
X419338Y369427D01*
X420116Y369105D01*
X426855D01*
X427023Y368890D01*
X427785Y366565D01*
X401879Y340659D01*
X354511D01*
X353589Y342039D01*
Y344350D01*
X352705Y346485D01*
X351071Y348120D01*
X349684Y348694D01*
Y343194D01*
X345874D01*
Y348694D01*
X344488Y348120D01*
X342854Y346485D01*
X340490Y345561D01*
X339598Y345739D01*
X333185D01*
Y346265D01*
X331528D01*
X327761Y350032D01*
X327005Y350537D01*
X326113Y350715D01*
X317453D01*
X316674Y353174D01*
X316673Y353255D01*
X318894Y355476D01*
X319399Y356232D01*
X319577Y357124D01*
Y367363D01*
X322117Y369358D01*
X322403Y369288D01*
X324059Y367434D01*
Y360328D01*
X323833Y360102D01*
X323374Y358994D01*
Y357794D01*
X323833Y356686D01*
X324682Y355837D01*
X325790Y355378D01*
X326990D01*
X328098Y355837D01*
X328947Y356686D01*
X329406Y357794D01*
Y358994D01*
X328947Y360102D01*
X328721Y360328D01*
Y369288D01*
X336828D01*
Y365660D01*
X337150Y364883D01*
X337928Y364561D01*
X357376D01*
X358154Y364883D01*
X358476Y365660D01*
Y369288D01*
X372901D01*
Y371811D01*
X385890D01*
Y371284D01*
X390843D01*
Y373703D01*
X391998Y374859D01*
X408495D01*
Y369506D01*
D02*
G37*
%LPC*%
G36*
X388966Y363950D02*
X387766D01*
X387383Y363792D01*
X385890D01*
Y362723D01*
X385809Y362642D01*
X385350Y361534D01*
Y360334D01*
X385809Y359226D01*
X385890Y359145D01*
Y358077D01*
X387383D01*
X387766Y357918D01*
X388966D01*
X389349Y358077D01*
X390843D01*
Y359145D01*
X390923Y359226D01*
X391382Y360334D01*
Y361534D01*
X390923Y362642D01*
X390843Y362723D01*
Y363792D01*
X389349D01*
X388966Y363950D01*
D02*
G37*
G36*
X367665Y359113D02*
X362331D01*
X361553Y358791D01*
X361231Y358013D01*
Y348615D01*
X361553Y347837D01*
X362331Y347515D01*
X367665D01*
X368443Y347837D01*
X368765Y348615D01*
Y358013D01*
X368443Y358791D01*
X367665Y359113D01*
D02*
G37*
G36*
X399415Y357081D02*
X394081D01*
X393303Y356759D01*
X392981Y355981D01*
Y346583D01*
X393303Y345805D01*
X394081Y345483D01*
X399415D01*
X400193Y345805D01*
X400515Y346583D01*
Y355981D01*
X400193Y356759D01*
X399415Y357081D01*
D02*
G37*
%LPD*%
G36*
X695132Y357888D02*
X695174D01*
Y357846D01*
X695132D01*
Y357888D01*
X695090D01*
Y357930D01*
X695132D01*
Y357888D01*
D02*
G37*
G36*
X694667Y354463D02*
X694624D01*
Y354421D01*
X694540D01*
Y354463D01*
X694582D01*
Y354505D01*
X694667D01*
Y354463D01*
D02*
G37*
G36*
X694540Y354379D02*
X694498D01*
Y354421D01*
X694540D01*
Y354379D01*
D02*
G37*
G36*
X694498Y354336D02*
X694455D01*
Y354379D01*
X694498D01*
Y354336D01*
D02*
G37*
G36*
X694455Y354294D02*
X694413D01*
Y354336D01*
X694455D01*
Y354294D01*
D02*
G37*
G36*
X393352Y322637D02*
X393321D01*
Y322653D01*
X393352D01*
Y322637D01*
D02*
G37*
G36*
X394426Y321863D02*
X394410D01*
Y321879D01*
X394426D01*
Y321863D01*
D02*
G37*
G36*
X394410Y321847D02*
X394394D01*
Y321863D01*
X394410D01*
Y321847D01*
D02*
G37*
G36*
X395295Y320789D02*
X395279D01*
Y320805D01*
X395295D01*
Y320789D01*
D02*
G37*
G36*
X395279Y320773D02*
X395263D01*
Y320789D01*
X395279D01*
Y320773D01*
D02*
G37*
G36*
X402101Y319510D02*
X402085D01*
Y319526D01*
X402101D01*
Y319510D01*
D02*
G37*
G36*
X399637Y315120D02*
X399622D01*
Y315151D01*
X399637D01*
Y315120D01*
D02*
G37*
G36*
X399448Y315009D02*
X399432D01*
Y315025D01*
X399448D01*
Y315009D01*
D02*
G37*
G36*
X399432Y314978D02*
X399416D01*
Y314962D01*
X399400D01*
Y314993D01*
X399416D01*
Y315009D01*
X399432D01*
Y314978D01*
D02*
G37*
G36*
X397742Y308803D02*
X397727D01*
Y308819D01*
X397742D01*
Y308803D01*
D02*
G37*
G36*
X397932Y308472D02*
X397916D01*
Y308487D01*
X397932D01*
Y308472D01*
D02*
G37*
G36*
X397316Y308361D02*
X397300D01*
Y308377D01*
X397316D01*
Y308361D01*
D02*
G37*
G36*
X402748Y309166D02*
X402732D01*
Y309182D01*
X402748D01*
Y309166D01*
D02*
G37*
G36*
X402827Y309072D02*
X402811D01*
Y309087D01*
X402827D01*
Y309072D01*
D02*
G37*
G36*
X403127Y307745D02*
X403111D01*
Y307761D01*
X403127D01*
Y307745D01*
D02*
G37*
G36*
X403111Y307698D02*
X403096D01*
Y307666D01*
X403080D01*
Y307714D01*
X403096D01*
Y307745D01*
X403111D01*
Y307698D01*
D02*
G37*
G36*
X401943Y303071D02*
X401927D01*
Y303087D01*
X401943D01*
Y303071D01*
D02*
G37*
G36*
X401927Y303055D02*
X401911D01*
Y303071D01*
X401927D01*
Y303055D01*
D02*
G37*
D15*
X684955Y403352D02*
Y424644D01*
X684657Y424942D02*
X684955Y424644D01*
X402844Y338328D02*
X430022Y365506D01*
X348996Y338328D02*
X402844D01*
X348742Y332232D02*
X404876D01*
X343154Y326644D02*
X348742Y332232D01*
X404876D02*
X432816Y360172D01*
X330708Y343408D02*
X339598D01*
X343154Y339852D01*
Y326644D02*
Y339852D01*
X738738Y308184D02*
Y326390D01*
X619189Y477203D02*
X622554Y480568D01*
X614189Y472336D02*
X619189D01*
X638620Y387614D02*
Y396614D01*
X638120Y387114D02*
X638620Y387614D01*
X619189Y472336D02*
Y477203D01*
X607822Y449326D02*
X609189Y450693D01*
Y456876D01*
X638120Y307114D02*
X638620Y306614D01*
X638120Y307114D02*
Y315114D01*
X638620Y297614D02*
Y306614D01*
X619120Y298114D02*
X627120D01*
X611120D02*
X619120D01*
X595120D02*
X603120D01*
X587120D02*
X595120D01*
X571120D02*
X579120D01*
X563120D02*
X571120D01*
X549313Y466384D02*
Y471384D01*
Y461384D02*
Y466384D01*
X532210Y478447D02*
X537210D01*
X539120Y298114D02*
X547120D01*
X555120D01*
X531120D02*
X539120D01*
X508483Y286283D02*
X514350Y280416D01*
X508483Y286283D02*
Y291821D01*
X514350Y280416D02*
X709573D01*
X508483Y291821D02*
X508762Y292100D01*
X709573Y280416D02*
X737341Y308184D01*
X738738D01*
X539120Y396114D02*
Y405873D01*
X534529Y410464D02*
X539120Y405873D01*
X491236Y410464D02*
X534529D01*
X440055Y328472D02*
Y338963D01*
X441706Y340614D01*
X286005Y586278D02*
X289560Y582723D01*
X285750Y558098D02*
X289560Y561908D01*
Y582723D01*
X652272Y514096D02*
X685540Y547364D01*
X702818D01*
X652272Y432054D02*
Y514096D01*
X384697Y269494D02*
X417830D01*
X379617Y274574D02*
X384697Y269494D01*
X381254Y264668D02*
X472186D01*
X374167Y271755D02*
X381254Y264668D01*
X472186D02*
X504190Y296672D01*
X373888Y274574D02*
X374167Y274295D01*
Y271755D02*
Y274295D01*
X495300Y365506D02*
X508908Y379114D01*
X430022Y365506D02*
X495300D01*
X508908Y379114D02*
X520120D01*
X496570Y360172D02*
X507512Y371114D01*
X520120D01*
X432816Y360172D02*
X496570D01*
X504080Y331580D02*
Y341199D01*
Y331580D02*
X504190Y331470D01*
X499364Y320390D02*
X518088Y339114D01*
X499364Y299720D02*
Y320390D01*
X504080Y341199D02*
X509996Y347114D01*
X520120D01*
X504190Y296672D02*
Y315214D01*
X483362Y283718D02*
X499364Y299720D01*
X385967Y275336D02*
X465328D01*
X467868Y277876D01*
Y280460D01*
X384049Y276859D02*
X384444D01*
X385967Y275336D01*
X379222Y274574D02*
X379617D01*
X467868Y280460D02*
X471576Y284168D01*
X518088Y339114D02*
X520120D01*
X481076Y295656D02*
X484124Y292608D01*
X481076Y295656D02*
Y306782D01*
X471576Y284168D02*
Y327202D01*
X647088Y347114D02*
X652272Y352298D01*
X638120Y347114D02*
X647088D01*
X652272Y352298D02*
Y357378D01*
X365197Y374142D02*
Y388929D01*
X354330Y399796D02*
X365197Y388929D01*
X317392Y399796D02*
X354330D01*
X295402Y421786D02*
X317392Y399796D01*
X295402Y421786D02*
X335723D01*
X348996Y435059D01*
Y436035D01*
X280416Y436772D02*
X295402Y421786D01*
X280416Y436772D02*
Y509464D01*
X285750Y514798D01*
X660365Y363114D02*
X661021Y362458D01*
X638120Y363114D02*
X660365D01*
X661021Y362458D02*
X661416D01*
X661809Y339229D02*
X661924Y339344D01*
X638235Y339229D02*
X661809D01*
X661784Y322974D02*
X661924Y322834D01*
X638260Y322974D02*
X661784D01*
X598932Y523411D02*
X632865D01*
X656818Y547364D01*
X512172Y534416D02*
Y598678D01*
Y534416D02*
X513696Y532892D01*
X514604D01*
X598761Y523240D02*
X598932Y523411D01*
X576663Y523240D02*
X598761D01*
X559606Y523367D02*
X559733Y523240D01*
X538480Y523367D02*
X559606D01*
X604907Y616464D02*
X656818D01*
X604901Y616458D02*
X604907Y616464D01*
X564237Y616458D02*
X582295D01*
X637811Y470317D02*
Y470785D01*
X634259Y466765D02*
X637811Y470317D01*
X631658Y466765D02*
X634259D01*
X621792Y462106D02*
X626999D01*
X631658Y466765D01*
X609189Y472336D02*
Y488391D01*
Y469582D02*
Y472336D01*
Y488391D02*
X609788Y488990D01*
X621665Y462106D02*
X621792D01*
X619189Y459630D02*
X621665Y462106D01*
X606586Y467106D02*
X606713D01*
X609189Y469582D01*
X619189Y456876D02*
Y459630D01*
X638120Y323114D02*
X638260Y322974D01*
X542210Y478447D02*
Y493613D01*
X545421Y496824D01*
X507529Y476384D02*
X525107D01*
X506730Y477183D02*
X507529Y476384D01*
X385115Y462708D02*
X387680D01*
X391410Y458978D01*
X370054Y476793D02*
X371030D01*
X385115Y462708D01*
X454410Y457505D02*
X460640Y451275D01*
X454410Y457505D02*
Y458978D01*
X460640Y451275D02*
X478028D01*
X723474Y377272D02*
X738738D01*
X713232Y367030D02*
X723474Y377272D01*
X738738D02*
Y400493D01*
X739057Y400812D01*
X436753Y404876D02*
X453263D01*
X547120Y396114D02*
Y406904D01*
X518668Y419612D02*
X534412D01*
X547120Y406904D01*
X391353Y436035D02*
X391410Y435978D01*
X370840Y436035D02*
X391353D01*
X348996D02*
X370840D01*
X638120Y339114D02*
X638235Y339229D01*
X739648Y431800D02*
X745490Y437642D01*
X757555D01*
X660654Y393446D02*
X707898D01*
X739394Y424942D01*
X757555D01*
X595120Y396114D02*
Y405128D01*
X599440Y409448D01*
X633222D02*
X644652D01*
X660654Y393446D01*
X665734Y463296D02*
X665861Y463169D01*
X684530D01*
X684657Y463042D01*
X661670Y450342D02*
X684657D01*
X566928Y420878D02*
X588035D01*
X555120Y409070D02*
X566928Y420878D01*
X569976Y415544D02*
X597464D01*
X563120Y408688D02*
X569976Y415544D01*
X563120Y396114D02*
Y408688D01*
X595122Y424434D02*
X603758D01*
X619120Y396114D02*
Y409072D01*
X603758Y424434D02*
X619120Y409072D01*
X586740Y432816D02*
Y459128D01*
Y432816D02*
X595122Y424434D01*
X555120Y396114D02*
Y409070D01*
X571120Y396114D02*
Y408052D01*
X551434Y421386D02*
Y421781D01*
X547751Y425464D02*
Y438404D01*
Y425464D02*
X551434Y421781D01*
X529311Y428269D02*
X529590Y427990D01*
X528552Y428269D02*
X529311D01*
X526669Y430152D02*
Y438404D01*
Y430152D02*
X528552Y428269D01*
X579120Y396114D02*
Y409956D01*
X527050Y438404D02*
X537210Y448564D01*
Y459321D01*
X627120Y396114D02*
Y413518D01*
X613808Y426830D02*
X627120Y413518D01*
X613808Y426830D02*
Y439206D01*
X586740Y459128D02*
X589718Y462106D01*
X388366Y374142D02*
Y374523D01*
X391033Y377190D01*
X414274D01*
X432816Y352298D02*
X449116D01*
X449370Y352552D01*
X467137Y351715D02*
X473912D01*
X490063Y327715D02*
X490576Y327202D01*
X466300Y352552D02*
X467137Y351715D01*
X490063Y327715D02*
Y335564D01*
X473912Y351715D02*
X490063Y335564D01*
X430687Y299690D02*
Y307920D01*
X430555Y308052D02*
X430687Y307920D01*
X449370Y352552D02*
X449555Y352367D01*
Y308052D02*
Y352367D01*
X430687Y299690D02*
X446405Y283972D01*
X454450D01*
X305308Y348384D02*
X326113D01*
X330708Y343789D01*
Y343408D02*
Y343789D01*
X339598Y312928D02*
X343408Y309118D01*
X330708Y312928D02*
X339598D01*
X305308Y341884D02*
X306038Y341154D01*
X314928D01*
X316738Y339344D01*
X330708Y312928D02*
Y313309D01*
X316738Y326898D02*
Y339344D01*
Y326898D02*
X329565Y314071D01*
X329946D01*
X330708Y313309D01*
X436880Y377190D02*
X453898D01*
X365197Y374142D02*
X388366D01*
X329557Y374169D02*
X330134D01*
X326390Y371002D02*
X329557Y374169D01*
X326390Y358394D02*
Y371002D01*
X329599Y373634D02*
X330134Y374169D01*
X320294Y373634D02*
X329599D01*
X317246Y370586D02*
X320294Y373634D01*
X317246Y357124D02*
Y370586D01*
X315006Y354884D02*
X317246Y357124D01*
X305308Y354884D02*
X315006D01*
X757555Y450342D02*
X779101D01*
X779526Y450767D01*
X662686Y437217D02*
X663111Y437642D01*
X684657D01*
X614189Y439587D02*
Y456876D01*
X613808Y439206D02*
X614189Y439587D01*
X589718Y462106D02*
X606586D01*
X542210Y443945D02*
Y459321D01*
Y443945D02*
X543687Y442468D01*
Y442087D02*
Y442468D01*
Y442087D02*
X547370Y438404D01*
X547751D01*
D17*
X755479Y326390D02*
D03*
X739057D02*
D03*
X701377Y403352D02*
D03*
X684955D02*
D03*
X755479Y400812D02*
D03*
X739057D02*
D03*
X626210Y488990D02*
D03*
X528999Y496824D02*
D03*
X353632Y476793D02*
D03*
X370054D02*
D03*
X545421Y496824D02*
D03*
X609788Y488990D02*
D03*
D18*
X757555Y463042D02*
D03*
X684657Y437642D02*
D03*
Y424942D02*
D03*
Y450342D02*
D03*
Y463042D02*
D03*
X757555Y424942D02*
D03*
Y437642D02*
D03*
Y450342D02*
D03*
D19*
X637811Y454363D02*
D03*
X506730Y493605D02*
D03*
X348996Y452457D02*
D03*
Y436035D02*
D03*
X506730Y477183D02*
D03*
X637811Y470785D02*
D03*
D20*
X783738Y355772D02*
D03*
Y286684D02*
D03*
X738738Y308184D02*
D03*
X783738D02*
D03*
X738738Y286684D02*
D03*
Y377272D02*
D03*
X783738D02*
D03*
X738738Y355772D02*
D03*
D21*
X638620Y396614D02*
D03*
Y297614D02*
D03*
X519620Y396614D02*
D03*
Y297614D02*
D03*
D22*
X638120Y387114D02*
D03*
Y315114D02*
D03*
Y307114D02*
D03*
X520120D02*
D03*
Y315114D02*
D03*
Y331114D02*
D03*
Y323114D02*
D03*
Y355114D02*
D03*
Y363114D02*
D03*
Y339114D02*
D03*
Y347114D02*
D03*
Y379114D02*
D03*
Y387114D02*
D03*
Y371114D02*
D03*
X638120Y323114D02*
D03*
Y331114D02*
D03*
Y363114D02*
D03*
Y371114D02*
D03*
Y339114D02*
D03*
Y355114D02*
D03*
Y347114D02*
D03*
Y379114D02*
D03*
D23*
X619189Y472336D02*
D03*
X614189D02*
D03*
X609189Y456876D02*
D03*
X614189D02*
D03*
X619189D02*
D03*
X609189Y472336D02*
D03*
D24*
X611120Y396114D02*
D03*
X627120Y298114D02*
D03*
X619120D02*
D03*
X611120D02*
D03*
X555120D02*
D03*
X571120D02*
D03*
X563120D02*
D03*
X603120D02*
D03*
X595120D02*
D03*
X587120D02*
D03*
X579120D02*
D03*
X547120D02*
D03*
X539120D02*
D03*
X531120D02*
D03*
X539120Y396114D02*
D03*
X531120D02*
D03*
X571120D02*
D03*
X555120D02*
D03*
X563120D02*
D03*
X547120D02*
D03*
X587120D02*
D03*
X579120D02*
D03*
X595120D02*
D03*
X603120D02*
D03*
X627120D02*
D03*
X619120D02*
D03*
D25*
X598932Y540341D02*
D03*
X779526Y450767D02*
D03*
Y467697D02*
D03*
X286005Y586278D02*
D03*
Y603208D02*
D03*
X598932Y523411D02*
D03*
X662686Y420287D02*
D03*
Y437217D02*
D03*
D26*
X598870Y366864D02*
D03*
Y347114D02*
D03*
X559370Y366864D02*
D03*
X579120D02*
D03*
Y347114D02*
D03*
X598870Y327364D02*
D03*
X579120D02*
D03*
X559370D02*
D03*
Y347114D02*
D03*
D27*
X549299Y616458D02*
D03*
X564237D02*
D03*
D28*
X538480Y542417D02*
D03*
X514604Y532892D02*
D03*
X538480Y523367D02*
D03*
D29*
X537210Y478447D02*
D03*
X532210D02*
D03*
X537210Y459321D02*
D03*
X532210D02*
D03*
X542210D02*
D03*
Y478447D02*
D03*
D30*
X549313Y466384D02*
D03*
Y461384D02*
D03*
Y471384D02*
D03*
X525107Y466384D02*
D03*
Y461384D02*
D03*
Y471384D02*
D03*
Y476384D02*
D03*
X549313D02*
D03*
D31*
X478028Y469221D02*
D03*
X370840Y453981D02*
D03*
X478028Y451275D02*
D03*
X370840Y436035D02*
D03*
D32*
X462280Y517906D02*
D03*
Y545846D02*
D03*
D33*
X391410Y481978D02*
D03*
Y435978D02*
D03*
Y458978D02*
D03*
D34*
X370586Y531749D02*
D03*
Y617855D02*
D03*
D35*
X465201Y404876D02*
D03*
X465836Y377190D02*
D03*
X453263Y404876D02*
D03*
X453898Y377190D02*
D03*
D36*
X388366Y360934D02*
D03*
X330708Y330200D02*
D03*
Y299720D02*
D03*
X388366Y374142D02*
D03*
X330708Y343408D02*
D03*
Y312928D02*
D03*
D37*
X304058Y372884D02*
D03*
Y310884D02*
D03*
D38*
X305308Y328884D02*
D03*
Y335384D02*
D03*
Y354884D02*
D03*
Y348384D02*
D03*
Y341884D02*
D03*
D39*
X278558Y379884D02*
D03*
Y303884D02*
D03*
D40*
Y353884D02*
D03*
Y329884D02*
D03*
D41*
X440055Y328472D02*
D03*
X471576Y327202D02*
D03*
X481076Y306782D02*
D03*
X490576Y327202D02*
D03*
X430555Y308052D02*
D03*
X449555D02*
D03*
D42*
X414274Y377190D02*
D03*
X436880D02*
D03*
X582295Y616458D02*
D03*
X604901D02*
D03*
X414147Y404876D02*
D03*
X436753D02*
D03*
D43*
X588789Y461177D02*
D03*
Y478195D02*
D03*
D44*
X454410Y458978D02*
D03*
D45*
X454450Y283972D02*
D03*
X471380D02*
D03*
X449370Y352552D02*
D03*
X466300D02*
D03*
X559733Y523240D02*
D03*
X576663D02*
D03*
D46*
X606586Y467106D02*
D03*
Y462106D02*
D03*
X621792Y467106D02*
D03*
Y462106D02*
D03*
D47*
X509651Y438404D02*
D03*
X526669D02*
D03*
X596790Y439206D02*
D03*
X613808D02*
D03*
X547751Y438404D02*
D03*
X564769D02*
D03*
D48*
X330134Y374169D02*
D03*
X365170D02*
D03*
D49*
X285750Y514798D02*
D03*
Y558098D02*
D03*
D52*
X295402Y471786D02*
D03*
Y421786D02*
D03*
X512172Y598678D02*
D03*
X462172D02*
D03*
D53*
X656818Y616464D02*
D03*
Y547364D02*
D03*
X702818D02*
D03*
Y616464D02*
D03*
X748818D02*
D03*
D54*
Y547364D02*
D03*
D55*
X465201Y404876D02*
D03*
X598870Y347114D02*
D03*
X347779Y343194D02*
D03*
X348996Y338328D02*
D03*
X305308Y328884D02*
D03*
X755479Y326390D02*
D03*
X701377Y403352D02*
D03*
X607822Y449326D02*
D03*
X757555Y463042D02*
D03*
X637811Y454363D02*
D03*
X626210Y488990D02*
D03*
X622554Y480568D02*
D03*
X755479Y400812D02*
D03*
X783738Y355772D02*
D03*
X638620Y396614D02*
D03*
X611120Y396114D02*
D03*
X598932Y540341D02*
D03*
X598870Y366864D02*
D03*
X579120Y347114D02*
D03*
Y366864D02*
D03*
X559370D02*
D03*
Y347114D02*
D03*
X702310Y306495D02*
D03*
X678180Y304971D02*
D03*
X638620Y297614D02*
D03*
X783738Y286684D02*
D03*
X619120Y298114D02*
D03*
X598870Y327364D02*
D03*
X579120D02*
D03*
X559370D02*
D03*
X595120Y298114D02*
D03*
X571120D02*
D03*
X549299Y616458D02*
D03*
X538480Y542417D02*
D03*
X532210Y478447D02*
D03*
X528999Y496824D02*
D03*
X506730Y493605D02*
D03*
X549313Y466384D02*
D03*
X519620Y396614D02*
D03*
X462280Y517906D02*
D03*
X391410Y481978D02*
D03*
X478028Y469221D02*
D03*
X370586Y531749D02*
D03*
X353632Y476793D02*
D03*
X393192Y405003D02*
D03*
X374396Y406550D02*
D03*
X370840Y453981D02*
D03*
X348996Y452457D02*
D03*
X278558Y379884D02*
D03*
X465836Y377190D02*
D03*
X388366Y360934D02*
D03*
X379049Y309118D02*
D03*
X539120Y298114D02*
D03*
X519620Y297614D02*
D03*
X330708Y330200D02*
D03*
X304058Y372884D02*
D03*
X278558Y353884D02*
D03*
Y329884D02*
D03*
X330708Y299720D02*
D03*
X314877Y282702D02*
D03*
X304058Y310884D02*
D03*
X278558Y303884D02*
D03*
X508762Y292100D02*
D03*
X491236Y410464D02*
D03*
X441706Y340614D02*
D03*
X677926Y380067D02*
D03*
X454410Y458978D02*
D03*
X417830Y269494D02*
D03*
X343154Y326644D02*
D03*
X504190Y331470D02*
D03*
Y315214D02*
D03*
X379222Y274574D02*
D03*
X373888D02*
D03*
X384049Y276859D02*
D03*
X483362Y283718D02*
D03*
X652272Y432054D02*
D03*
Y357378D02*
D03*
X661416Y362458D02*
D03*
X661924Y322834D02*
D03*
Y339344D02*
D03*
X370054Y476793D02*
D03*
X564769Y438404D02*
D03*
X509651D02*
D03*
X478028Y451275D02*
D03*
X779526Y467697D02*
D03*
X588789Y478195D02*
D03*
X596790Y439206D02*
D03*
X637811Y470785D02*
D03*
X609788Y488990D02*
D03*
X486073Y419608D02*
D03*
X414147Y404876D02*
D03*
X332823Y282702D02*
D03*
X713232Y367030D02*
D03*
X484124Y292608D02*
D03*
X739648Y431800D02*
D03*
X599440Y409448D02*
D03*
X633222D02*
D03*
X665734Y463296D02*
D03*
X661670Y450342D02*
D03*
X597464Y415544D02*
D03*
X588035Y420878D02*
D03*
X571120Y408052D02*
D03*
X551434Y421386D02*
D03*
X529590Y427990D02*
D03*
X579120Y409956D02*
D03*
X432816Y352298D02*
D03*
X343408Y309118D02*
D03*
X326390Y358394D02*
D03*
X518668Y419612D02*
D03*
D56*
X310896Y632206D02*
X368173D01*
X287779Y609089D02*
X310896Y632206D01*
X286005Y603208D02*
X287779Y604982D01*
Y609089D01*
X368173Y632206D02*
X370586Y629793D01*
Y622300D02*
Y629793D01*
X372618Y631952D02*
X428898D01*
X370586Y629920D02*
X372618Y631952D01*
X428898D02*
X462172Y598678D01*
X370586Y617855D02*
Y622300D01*
X462172Y545954D02*
Y598678D01*
Y545954D02*
X462280Y545846D01*
M02*
