G04*
G04 #@! TF.GenerationSoftware,Altium Limited,Altium Designer,26.6.0 (10)*
G04*
G04 Layer_Color=16711935*
G04 Board_Origin=0|0*
%FSLAX44Y44*%
%MOMM*%
G71*
G04*
G04 #@! TF.SameCoordinates,D5F9FF62-7CA0-4EDD-8908-80C126BDDD69*
G04*
G04*
G04 #@! TF.FilePolarity,Negative*
G04*
G01*
G75*
%ADD19R,0.9644X1.1596*%
%ADD25R,0.9898X1.0580*%
%ADD31R,1.0406X1.1088*%
%ADD43R,0.9906X1.0668*%
%ADD45R,1.0580X0.9898*%
%ADD47R,1.0668X0.9906*%
%ADD52C,1.9500*%
%ADD53C,2.6250*%
%ADD54R,2.6250X2.6250*%
%ADD55C,0.4000*%
%ADD57R,0.8508X0.8588*%
%ADD58R,1.0668X0.2540*%
%ADD59R,3.3528X3.3528*%
%ADD60R,1.1088X1.0406*%
%ADD61R,0.2540X1.0668*%
D19*
X702310Y306495D02*
D03*
Y322917D02*
D03*
D25*
X677926Y363137D02*
D03*
Y380067D02*
D03*
D31*
X678180Y304971D02*
D03*
Y322917D02*
D03*
D43*
X393192Y405003D02*
D03*
Y387985D02*
D03*
D45*
X405213Y351282D02*
D03*
X486073Y419608D02*
D03*
X503003D02*
D03*
X388283Y351282D02*
D03*
D47*
X356489Y353314D02*
D03*
X373507D02*
D03*
D52*
X295402Y471786D02*
D03*
Y421786D02*
D03*
X512172Y598678D02*
D03*
X462172D02*
D03*
D53*
X656818Y616464D02*
D03*
Y547364D02*
D03*
X702818D02*
D03*
Y616464D02*
D03*
X748818D02*
D03*
D54*
Y547364D02*
D03*
D55*
X465201Y404876D02*
D03*
X598870Y347114D02*
D03*
X347779Y343194D02*
D03*
X348996Y338328D02*
D03*
X305308Y328884D02*
D03*
X755479Y326390D02*
D03*
X701377Y403352D02*
D03*
X607822Y449326D02*
D03*
X757555Y463042D02*
D03*
X637811Y454363D02*
D03*
X626210Y488990D02*
D03*
X622554Y480568D02*
D03*
X755479Y400812D02*
D03*
X783738Y355772D02*
D03*
X638620Y396614D02*
D03*
X611120Y396114D02*
D03*
X598932Y540341D02*
D03*
X598870Y366864D02*
D03*
X579120Y347114D02*
D03*
Y366864D02*
D03*
X559370D02*
D03*
Y347114D02*
D03*
X702310Y306495D02*
D03*
X678180Y304971D02*
D03*
X638620Y297614D02*
D03*
X783738Y286684D02*
D03*
X619120Y298114D02*
D03*
X598870Y327364D02*
D03*
X579120D02*
D03*
X559370D02*
D03*
X595120Y298114D02*
D03*
X571120D02*
D03*
X549299Y616458D02*
D03*
X538480Y542417D02*
D03*
X532210Y478447D02*
D03*
X528999Y496824D02*
D03*
X506730Y493605D02*
D03*
X549313Y466384D02*
D03*
X519620Y396614D02*
D03*
X462280Y517906D02*
D03*
X391410Y481978D02*
D03*
X478028Y469221D02*
D03*
X370586Y531749D02*
D03*
X353632Y476793D02*
D03*
X393192Y405003D02*
D03*
X374396Y406550D02*
D03*
X370840Y453981D02*
D03*
X348996Y452457D02*
D03*
X278558Y379884D02*
D03*
X465836Y377190D02*
D03*
X388366Y360934D02*
D03*
X379049Y309118D02*
D03*
X539120Y298114D02*
D03*
X519620Y297614D02*
D03*
X330708Y330200D02*
D03*
X304058Y372884D02*
D03*
X278558Y353884D02*
D03*
Y329884D02*
D03*
X330708Y299720D02*
D03*
X314877Y282702D02*
D03*
X304058Y310884D02*
D03*
X278558Y303884D02*
D03*
X508762Y292100D02*
D03*
X491236Y410464D02*
D03*
X441706Y340614D02*
D03*
X677926Y380067D02*
D03*
X454410Y458978D02*
D03*
X417830Y269494D02*
D03*
X343154Y326644D02*
D03*
X504190Y331470D02*
D03*
Y315214D02*
D03*
X379222Y274574D02*
D03*
X373888D02*
D03*
X384049Y276859D02*
D03*
X483362Y283718D02*
D03*
X652272Y432054D02*
D03*
Y357378D02*
D03*
X661416Y362458D02*
D03*
X661924Y322834D02*
D03*
Y339344D02*
D03*
X370054Y476793D02*
D03*
X564769Y438404D02*
D03*
X509651D02*
D03*
X478028Y451275D02*
D03*
X779526Y467697D02*
D03*
X588789Y478195D02*
D03*
X596790Y439206D02*
D03*
X637811Y470785D02*
D03*
X609788Y488990D02*
D03*
X486073Y419608D02*
D03*
X414147Y404876D02*
D03*
X332823Y282702D02*
D03*
X713232Y367030D02*
D03*
X484124Y292608D02*
D03*
X739648Y431800D02*
D03*
X599440Y409448D02*
D03*
X633222D02*
D03*
X665734Y463296D02*
D03*
X661670Y450342D02*
D03*
X597464Y415544D02*
D03*
X588035Y420878D02*
D03*
X571120Y408052D02*
D03*
X551434Y421386D02*
D03*
X529590Y427990D02*
D03*
X579120Y409956D02*
D03*
X432816Y352298D02*
D03*
X343408Y309118D02*
D03*
X326390Y358394D02*
D03*
X518668Y419612D02*
D03*
D57*
X701040Y381658D02*
D03*
X374396Y406550D02*
D03*
X701040Y363070D02*
D03*
X374396Y387962D02*
D03*
D58*
X355300Y304118D02*
D03*
Y294118D02*
D03*
Y299118D02*
D03*
Y324118D02*
D03*
Y309118D02*
D03*
Y319118D02*
D03*
Y314118D02*
D03*
X402798Y294118D02*
D03*
Y299118D02*
D03*
Y304118D02*
D03*
Y314118D02*
D03*
Y309118D02*
D03*
Y319118D02*
D03*
Y324118D02*
D03*
D59*
X379049Y309118D02*
D03*
D60*
X314877Y282702D02*
D03*
X332823D02*
D03*
D61*
X369049Y285369D02*
D03*
X374049D02*
D03*
X364049D02*
D03*
Y332867D02*
D03*
X369049D02*
D03*
X379049Y285369D02*
D03*
X389049D02*
D03*
X394049D02*
D03*
X384049D02*
D03*
X374049Y332867D02*
D03*
X379049D02*
D03*
X389049D02*
D03*
X394049D02*
D03*
X384049D02*
D03*
M02*
