G04*
G04 #@! TF.GenerationSoftware,Altium Limited,Altium Designer,26.6.0 (10)*
G04*
G04 Layer_Color=32896*
G04 Board_Origin=0|0*
%FSLAX44Y44*%
%MOMM*%
G71*
G04*
G04 #@! TF.SameCoordinates,D5F9FF62-7CA0-4EDD-8908-80C126BDDD69*
G04*
G04*
G04 #@! TF.FilePolarity,Positive*
G04*
G01*
G75*
%ADD10C,0.5080*%
%ADD11C,0.1524*%
%ADD16C,0.1016*%
G36*
X410672Y297213D02*
X413212D01*
Y301023D01*
X410672D01*
Y297213D01*
D02*
G37*
G36*
X375954Y340741D02*
X372144D01*
Y343281D01*
X375954D01*
Y340741D01*
D02*
G37*
D10*
X789178Y270764D02*
G03*
X789178Y270764I-3810J0D01*
G01*
Y339852D02*
G03*
X789178Y339852I-3810J0D01*
G01*
D11*
X301713Y282702D02*
G03*
X301713Y282702I-762J0D01*
G01*
X701802Y394334D02*
G03*
X701802Y394334I-762J0D01*
G01*
X678942Y291045D02*
G03*
X678942Y291045I-762J0D01*
G01*
X375158Y419226D02*
G03*
X375158Y419226I-762J0D01*
G01*
X695770Y370532D02*
Y374196D01*
X706310Y370532D02*
Y374196D01*
X369126Y395424D02*
Y399087D01*
X379666Y395424D02*
Y399087D01*
X352760Y282829D02*
X359451D01*
X352760D02*
Y289521D01*
Y328715D02*
Y335407D01*
X359451D01*
X398646Y282829D02*
X405338D01*
Y289521D01*
X398646Y335407D02*
X405338D01*
Y328715D02*
Y335407D01*
D16*
X413511Y282280D02*
X409279D01*
X408433Y283127D01*
Y284819D01*
X409279Y285666D01*
X413511D01*
X408433Y290744D02*
Y287358D01*
X411818Y290744D01*
X412665D01*
X413511Y289898D01*
Y288205D01*
X412665Y287358D01*
X481416Y413257D02*
Y408179D01*
X483955D01*
X484802Y409025D01*
Y410718D01*
X483955Y411564D01*
X481416D01*
X483109D02*
X484802Y413257D01*
X489880Y408179D02*
X486494D01*
Y410718D01*
X488187Y409872D01*
X489034D01*
X489880Y410718D01*
Y412411D01*
X489034Y413257D01*
X487341D01*
X486494Y412411D01*
X412243Y346796D02*
X417321D01*
Y349335D01*
X416475Y350182D01*
X414782D01*
X413936Y349335D01*
Y346796D01*
Y348489D02*
X412243Y350182D01*
Y354414D02*
X417321D01*
X414782Y351874D01*
Y355260D01*
X388706Y416559D02*
Y411481D01*
X391245D01*
X392092Y412327D01*
Y414020D01*
X391245Y414866D01*
X388706D01*
X390399D02*
X392092Y416559D01*
X393784Y412327D02*
X394631Y411481D01*
X396324D01*
X397170Y412327D01*
Y413174D01*
X396324Y414020D01*
X395477D01*
X396324D01*
X397170Y414866D01*
Y415713D01*
X396324Y416559D01*
X394631D01*
X393784Y415713D01*
X349418Y355855D02*
Y360933D01*
X346879D01*
X346032Y360087D01*
Y358394D01*
X346879Y357548D01*
X349418D01*
X347725D02*
X346032Y355855D01*
X340954D02*
X344340D01*
X340954Y359240D01*
Y360087D01*
X341800Y360933D01*
X343493D01*
X344340Y360087D01*
X670305Y383878D02*
X665227D01*
Y381338D01*
X666073Y380492D01*
X667766D01*
X668612Y381338D01*
Y383878D01*
Y382185D02*
X670305Y380492D01*
Y378799D02*
Y377106D01*
Y377953D01*
X665227D01*
X666073Y378799D01*
X365083Y408262D02*
X364237Y409109D01*
Y410802D01*
X365083Y411648D01*
X368469D01*
X369315Y410802D01*
Y409109D01*
X368469Y408262D01*
X364237Y403184D02*
Y406570D01*
X366776D01*
X365930Y404877D01*
Y404030D01*
X366776Y403184D01*
X368469D01*
X369315Y404030D01*
Y405723D01*
X368469Y406570D01*
X345016Y284141D02*
X345863Y284987D01*
X347556D01*
X348402Y284141D01*
Y280755D01*
X347556Y279909D01*
X345863D01*
X345016Y280755D01*
X340784Y279909D02*
Y284987D01*
X343324Y282448D01*
X339938D01*
X689187Y382100D02*
X688341Y382947D01*
Y384640D01*
X689187Y385486D01*
X692573D01*
X693419Y384640D01*
Y382947D01*
X692573Y382100D01*
X689187Y380408D02*
X688341Y379561D01*
Y377868D01*
X689187Y377022D01*
X690034D01*
X690880Y377868D01*
Y378715D01*
Y377868D01*
X691726Y377022D01*
X692573D01*
X693419Y377868D01*
Y379561D01*
X692573Y380408D01*
X690457Y306662D02*
X689611Y307509D01*
Y309202D01*
X690457Y310048D01*
X693843D01*
X694689Y309202D01*
Y307509D01*
X693843Y306662D01*
X694689Y301584D02*
Y304970D01*
X691304Y301584D01*
X690457D01*
X689611Y302430D01*
Y304123D01*
X690457Y304970D01*
X666327Y303784D02*
X665481Y304630D01*
Y306323D01*
X666327Y307170D01*
X669713D01*
X670559Y306323D01*
Y304630D01*
X669713Y303784D01*
X670559Y302091D02*
Y300398D01*
Y301245D01*
X665481D01*
X666327Y302091D01*
M02*
