G04*
G04 #@! TF.GenerationSoftware,Altium Limited,Altium Designer,26.6.0 (10)*
G04*
G04 Layer_Physical_Order=2*
G04 Layer_Color=16711680*
G04 Board_Origin=0|0*
%FSLAX44Y44*%
%MOMM*%
G71*
G04*
G04 #@! TF.SameCoordinates,D5F9FF62-7CA0-4EDD-8908-80C126BDDD69*
G04*
G04*
G04 #@! TF.FilePolarity,Positive*
G04*
G01*
G75*
%ADD15C,0.2540*%
%ADD19R,0.9644X1.1596*%
%ADD25R,0.9898X1.0580*%
%ADD31R,1.0406X1.1088*%
%ADD43R,0.9906X1.0668*%
%ADD45R,1.0580X0.9898*%
%ADD47R,1.0668X0.9906*%
%ADD52C,1.9500*%
%ADD53C,2.6250*%
%ADD54R,2.6250X2.6250*%
%ADD55C,0.4000*%
%ADD57R,0.8508X0.8588*%
%ADD58R,1.0668X0.2540*%
%ADD59R,3.3528X3.3528*%
%ADD60R,1.1088X1.0406*%
%ADD61R,0.2540X1.0668*%
G36*
X797560Y256540D02*
X256540D01*
Y645160D01*
X797560D01*
Y256540D01*
D02*
G37*
%LPC*%
G36*
X551204Y621958D02*
Y618363D01*
X554799D01*
X554225Y619749D01*
X552590Y621384D01*
X551204Y621958D01*
D02*
G37*
G36*
X547394D02*
X546008Y621384D01*
X544374Y619749D01*
X543799Y618363D01*
X547394D01*
Y621958D01*
D02*
G37*
G36*
X554799Y614553D02*
X551204D01*
Y610958D01*
X552590Y611533D01*
X554225Y613167D01*
X554799Y614553D01*
D02*
G37*
G36*
X547394D02*
X543799D01*
X544374Y613167D01*
X546008Y611533D01*
X547394Y610958D01*
Y614553D01*
D02*
G37*
G36*
X599059Y624543D02*
X588137D01*
X587359Y624221D01*
X587037Y623443D01*
Y609473D01*
X587359Y608695D01*
X588137Y608373D01*
X599059D01*
X599837Y608695D01*
X600159Y609473D01*
Y623443D01*
X599837Y624221D01*
X599059Y624543D01*
D02*
G37*
G36*
X750680Y630605D02*
X746956D01*
X743360Y629641D01*
X740135Y627780D01*
X737502Y625147D01*
X735641Y621922D01*
X734677Y618326D01*
Y614602D01*
X735641Y611006D01*
X737502Y607781D01*
X740135Y605148D01*
X743360Y603287D01*
X746956Y602323D01*
X750680D01*
X754276Y603287D01*
X757501Y605148D01*
X760134Y607781D01*
X761995Y611006D01*
X762959Y614602D01*
Y618326D01*
X761995Y621922D01*
X760134Y625147D01*
X757501Y627780D01*
X754276Y629641D01*
X750680Y630605D01*
D02*
G37*
G36*
X704680D02*
X700956D01*
X697360Y629641D01*
X694135Y627780D01*
X691502Y625147D01*
X689641Y621922D01*
X688677Y618326D01*
Y614602D01*
X689641Y611006D01*
X691502Y607781D01*
X694135Y605148D01*
X697360Y603287D01*
X700956Y602323D01*
X704680D01*
X708276Y603287D01*
X711501Y605148D01*
X714134Y607781D01*
X715995Y611006D01*
X716959Y614602D01*
Y618326D01*
X715995Y621922D01*
X714134Y625147D01*
X711501Y627780D01*
X708276Y629641D01*
X704680Y630605D01*
D02*
G37*
G36*
X658680D02*
X654956D01*
X651360Y629641D01*
X648135Y627780D01*
X645502Y625147D01*
X643641Y621922D01*
X642677Y618326D01*
Y614602D01*
X643641Y611006D01*
X645502Y607781D01*
X648135Y605148D01*
X651360Y603287D01*
X654956Y602323D01*
X658680D01*
X662276Y603287D01*
X665501Y605148D01*
X668134Y607781D01*
X669995Y611006D01*
X670959Y614602D01*
Y618326D01*
X669995Y621922D01*
X668134Y625147D01*
X665501Y627780D01*
X662276Y629641D01*
X658680Y630605D01*
D02*
G37*
G36*
X290704Y598510D02*
X281306D01*
X280528Y598188D01*
X280206Y597410D01*
Y592076D01*
X280528Y591298D01*
X281306Y590976D01*
X290704D01*
X291481Y591298D01*
X291803Y592076D01*
Y597410D01*
X291481Y598188D01*
X290704Y598510D01*
D02*
G37*
G36*
X513589Y609444D02*
X510755D01*
X508017Y608710D01*
X505561Y607293D01*
X503557Y605289D01*
X502140Y602834D01*
X501406Y600095D01*
Y597261D01*
X502140Y594523D01*
X503557Y592067D01*
X505561Y590063D01*
X508017Y588646D01*
X510755Y587912D01*
X513589D01*
X516328Y588646D01*
X518783Y590063D01*
X520787Y592067D01*
X522204Y594523D01*
X522938Y597261D01*
Y600095D01*
X522204Y602834D01*
X520787Y605289D01*
X518783Y607293D01*
X516328Y608710D01*
X513589Y609444D01*
D02*
G37*
G36*
X463589D02*
X460755D01*
X458017Y608710D01*
X455561Y607293D01*
X453557Y605289D01*
X452140Y602834D01*
X451406Y600095D01*
Y597261D01*
X452140Y594523D01*
X453557Y592067D01*
X455561Y590063D01*
X458017Y588646D01*
X460755Y587912D01*
X463589D01*
X466328Y588646D01*
X468783Y590063D01*
X470787Y592067D01*
X472204Y594523D01*
X472938Y597261D01*
Y600095D01*
X472204Y602834D01*
X470787Y605289D01*
X468783Y607293D01*
X466328Y608710D01*
X463589Y609444D01*
D02*
G37*
G36*
X379095Y598381D02*
X362077D01*
X361299Y598059D01*
X360977Y597281D01*
Y552323D01*
X361299Y551545D01*
X362077Y551223D01*
X379095D01*
X379873Y551545D01*
X380195Y552323D01*
Y597281D01*
X379873Y598059D01*
X379095Y598381D01*
D02*
G37*
G36*
X540385Y547917D02*
Y544322D01*
X543980D01*
X543405Y545708D01*
X541771Y547342D01*
X540385Y547917D01*
D02*
G37*
G36*
X536575D02*
X535189Y547342D01*
X533554Y545708D01*
X532980Y544322D01*
X536575D01*
Y547917D01*
D02*
G37*
G36*
X600837Y545841D02*
Y542246D01*
X604432D01*
X603857Y543632D01*
X602223Y545266D01*
X600837Y545841D01*
D02*
G37*
G36*
X597027D02*
X595641Y545266D01*
X594007Y543632D01*
X593432Y542246D01*
X597027D01*
Y545841D01*
D02*
G37*
G36*
X543980Y540512D02*
X540385D01*
Y536917D01*
X541771Y537491D01*
X543405Y539126D01*
X543980Y540512D01*
D02*
G37*
G36*
X536575D02*
X532980D01*
X533554Y539126D01*
X535189Y537491D01*
X536575Y536917D01*
Y540512D01*
D02*
G37*
G36*
X372491Y537249D02*
Y533654D01*
X376086D01*
X375512Y535040D01*
X373877Y536674D01*
X372491Y537249D01*
D02*
G37*
G36*
X368681D02*
X367295Y536674D01*
X365661Y535040D01*
X365086Y533654D01*
X368681D01*
Y537249D01*
D02*
G37*
G36*
X762959Y561505D02*
X734677D01*
Y533223D01*
X762959D01*
Y561505D01*
D02*
G37*
G36*
X704680D02*
X700956D01*
X697360Y560541D01*
X694135Y558680D01*
X691502Y556047D01*
X689641Y552822D01*
X688677Y549226D01*
Y545502D01*
X689641Y541906D01*
X691502Y538681D01*
X694135Y536048D01*
X697360Y534187D01*
X700956Y533223D01*
X704680D01*
X708276Y534187D01*
X711501Y536048D01*
X714134Y538681D01*
X715995Y541906D01*
X716959Y545502D01*
Y549226D01*
X715995Y552822D01*
X714134Y556047D01*
X711501Y558680D01*
X708276Y560541D01*
X704680Y561505D01*
D02*
G37*
G36*
X658680D02*
X654956D01*
X651360Y560541D01*
X648135Y558680D01*
X645502Y556047D01*
X643641Y552822D01*
X642677Y549226D01*
Y545502D01*
X643641Y541906D01*
X645502Y538681D01*
X648135Y536048D01*
X651360Y534187D01*
X654956Y533223D01*
X658680D01*
X662276Y534187D01*
X665501Y536048D01*
X668134Y538681D01*
X669995Y541906D01*
X670959Y545502D01*
Y549226D01*
X669995Y552822D01*
X668134Y556047D01*
X665501Y558680D01*
X662276Y560541D01*
X658680Y561505D01*
D02*
G37*
G36*
X604432Y538436D02*
X593432D01*
X593617Y537989D01*
X593455Y535321D01*
X593133Y534543D01*
Y529209D01*
X593455Y528431D01*
X594233Y528109D01*
X603631D01*
X604409Y528431D01*
X604731Y529209D01*
Y534543D01*
X604409Y535321D01*
X604247Y537989D01*
X604432Y538436D01*
D02*
G37*
G36*
X376086Y529844D02*
X372491D01*
Y526249D01*
X373877Y526824D01*
X375512Y528458D01*
X376086Y529844D01*
D02*
G37*
G36*
X368681D02*
X365086D01*
X365661Y528458D01*
X367295Y526824D01*
X368681Y526249D01*
Y529844D01*
D02*
G37*
G36*
X470281Y540850D02*
X454279D01*
X453501Y540528D01*
X453179Y539750D01*
Y524002D01*
X453501Y523224D01*
X454279Y522902D01*
X455521D01*
X455932Y522520D01*
X457009Y520362D01*
X456780Y519811D01*
X467780D01*
X467551Y520362D01*
X468628Y522520D01*
X469039Y522902D01*
X470281D01*
X471059Y523224D01*
X471381Y524002D01*
Y539750D01*
X471059Y540528D01*
X470281Y540850D01*
D02*
G37*
G36*
X570865Y529039D02*
X565531D01*
X564753Y528717D01*
X564431Y527939D01*
Y518541D01*
X564753Y517763D01*
X565531Y517441D01*
X570865D01*
X571643Y517763D01*
X571965Y518541D01*
Y527939D01*
X571643Y528717D01*
X570865Y529039D01*
D02*
G37*
G36*
X467780Y516001D02*
X464185D01*
Y512406D01*
X465571Y512980D01*
X467206Y514615D01*
X467780Y516001D01*
D02*
G37*
G36*
X460375D02*
X456780D01*
X457355Y514615D01*
X458989Y512980D01*
X460375Y512406D01*
Y516001D01*
D02*
G37*
G36*
X539115Y502496D02*
X535305D01*
X534527Y502174D01*
X531859Y501928D01*
X530904Y502324D01*
Y496824D01*
Y491324D01*
X531859Y491720D01*
X534527Y491474D01*
X535305Y491152D01*
X539115D01*
X539893Y491474D01*
X540215Y492252D01*
Y501396D01*
X539893Y502174D01*
X539115Y502496D01*
D02*
G37*
G36*
X527094Y502324D02*
X525708Y501749D01*
X524073Y500115D01*
X523499Y498729D01*
X527094D01*
Y502324D01*
D02*
G37*
G36*
X508635Y499105D02*
Y495510D01*
X512230D01*
X511656Y496896D01*
X510021Y498531D01*
X508635Y499105D01*
D02*
G37*
G36*
X504825D02*
X503439Y498531D01*
X501805Y496896D01*
X501230Y495510D01*
X504825D01*
Y499105D01*
D02*
G37*
G36*
X527094Y494919D02*
X523499D01*
X524073Y493533D01*
X525708Y491898D01*
X527094Y491324D01*
Y494919D01*
D02*
G37*
G36*
X628115Y494490D02*
Y490895D01*
X631710D01*
X631135Y492281D01*
X629501Y493915D01*
X628115Y494490D01*
D02*
G37*
G36*
X619904Y494662D02*
X616094D01*
X615316Y494340D01*
X614994Y493562D01*
Y490939D01*
X612454Y490434D01*
X612345Y490698D01*
X611496Y491547D01*
X610388Y492006D01*
X609188D01*
X608080Y491547D01*
X607231Y490698D01*
X606772Y489590D01*
Y488390D01*
X607231Y487282D01*
X608080Y486433D01*
X609188Y485974D01*
X610388D01*
X611496Y486433D01*
X612345Y487282D01*
X612454Y487546D01*
X614994Y487041D01*
Y484418D01*
X615316Y483640D01*
X616186Y482473D01*
X628054D01*
X627703Y483320D01*
X629501Y484064D01*
X631135Y485699D01*
X631710Y487085D01*
X626210D01*
Y488990D01*
X624305D01*
Y494490D01*
X623350Y494094D01*
X620682Y494340D01*
X619904Y494662D01*
D02*
G37*
G36*
X393315Y487478D02*
Y483883D01*
X396910D01*
X396335Y485269D01*
X394701Y486903D01*
X393315Y487478D01*
D02*
G37*
G36*
X389505D02*
X388119Y486903D01*
X386484Y485269D01*
X385910Y483883D01*
X389505D01*
Y487478D01*
D02*
G37*
G36*
X512230Y491700D02*
X501230D01*
X501626Y490745D01*
X501380Y488077D01*
X501058Y487299D01*
Y483489D01*
X501380Y482711D01*
X502158Y482389D01*
X511302D01*
X512080Y482711D01*
X512402Y483489D01*
Y487299D01*
X512080Y488077D01*
X511834Y490745D01*
X512230Y491700D01*
D02*
G37*
G36*
X363748Y482465D02*
X359938D01*
X359161Y482143D01*
X356492Y481897D01*
X355537Y482293D01*
Y476793D01*
Y471293D01*
X356492Y471689D01*
X359161Y471443D01*
X359938Y471121D01*
X363748D01*
X364526Y471443D01*
X364848Y472221D01*
Y474843D01*
X367388Y475349D01*
X367497Y475084D01*
X368346Y474236D01*
X369454Y473777D01*
X370654D01*
X371763Y474236D01*
X372611Y475084D01*
X373070Y476193D01*
Y477393D01*
X372611Y478501D01*
X371763Y479350D01*
X370654Y479809D01*
X369454D01*
X368346Y479350D01*
X367497Y478501D01*
X367388Y478237D01*
X364848Y478742D01*
Y481365D01*
X364526Y482143D01*
X363748Y482465D01*
D02*
G37*
G36*
X534115Y483947D02*
Y480352D01*
X537710D01*
X537136Y481738D01*
X535501Y483372D01*
X534115Y483947D01*
D02*
G37*
G36*
X530305D02*
X528919Y483372D01*
X527285Y481738D01*
X526710Y480352D01*
X530305D01*
Y483947D01*
D02*
G37*
G36*
X351727Y482293D02*
X350341Y481718D01*
X348707Y480084D01*
X348133Y478698D01*
X351727D01*
Y482293D01*
D02*
G37*
G36*
X396910Y480073D02*
X393315D01*
Y476478D01*
X394701Y477052D01*
X396335Y478687D01*
X396910Y480073D01*
D02*
G37*
G36*
X389505D02*
X385910D01*
X386484Y478687D01*
X388119Y477052D01*
X389505Y476478D01*
Y480073D01*
D02*
G37*
G36*
X628054Y478663D02*
X624459D01*
Y475068D01*
X625845Y475643D01*
X627480Y477277D01*
X628054Y478663D01*
D02*
G37*
G36*
X620649D02*
X617054D01*
X617629Y477277D01*
X619263Y475643D01*
X620649Y475068D01*
Y478663D01*
D02*
G37*
G36*
X297307Y485314D02*
Y473691D01*
X308930D01*
X308038Y477020D01*
X306253Y480112D01*
X303728Y482637D01*
X300636Y484422D01*
X297307Y485314D01*
D02*
G37*
G36*
X293497D02*
X290168Y484422D01*
X287076Y482637D01*
X284551Y480112D01*
X282766Y477020D01*
X281874Y473691D01*
X293497D01*
Y485314D01*
D02*
G37*
G36*
X537710Y476542D02*
X534115D01*
Y472947D01*
X535501Y473521D01*
X537136Y475156D01*
X537710Y476542D01*
D02*
G37*
G36*
X530305D02*
X526710D01*
X527285Y475156D01*
X528919Y473521D01*
X530305Y472947D01*
Y476542D01*
D02*
G37*
G36*
X351727Y474888D02*
X348133D01*
X348707Y473502D01*
X350341Y471867D01*
X351727Y471293D01*
Y474888D01*
D02*
G37*
G36*
X479933Y474721D02*
Y471126D01*
X483528D01*
X482953Y472512D01*
X481319Y474146D01*
X479933Y474721D01*
D02*
G37*
G36*
X476123D02*
X474737Y474146D01*
X473102Y472512D01*
X472528Y471126D01*
X476123D01*
Y474721D01*
D02*
G37*
G36*
X551218Y471884D02*
Y468289D01*
X554813D01*
X554239Y469675D01*
X552604Y471310D01*
X551218Y471884D01*
D02*
G37*
G36*
X547408D02*
X546022Y471310D01*
X544388Y469675D01*
X543813Y468289D01*
X547408D01*
Y471884D01*
D02*
G37*
G36*
X589389Y481211D02*
X588189D01*
X587081Y480752D01*
X586232Y479903D01*
X585773Y478795D01*
Y477595D01*
X586232Y476487D01*
X586726Y475993D01*
X586395Y474316D01*
X585947Y473453D01*
X584090D01*
X583312Y473131D01*
X582990Y472353D01*
Y467019D01*
X583312Y466241D01*
X584090Y465919D01*
X593488D01*
X594266Y466241D01*
X594588Y467019D01*
Y472353D01*
X594266Y473131D01*
X593488Y473453D01*
X591631D01*
X591183Y474316D01*
X590852Y475993D01*
X591346Y476487D01*
X591805Y477595D01*
Y478795D01*
X591346Y479903D01*
X590497Y480752D01*
X589389Y481211D01*
D02*
G37*
G36*
X759460Y468542D02*
Y464947D01*
X763055D01*
X762480Y466333D01*
X760846Y467967D01*
X759460Y468542D01*
D02*
G37*
G36*
X755650D02*
X754264Y467967D01*
X752629Y466333D01*
X752055Y464947D01*
X755650D01*
Y468542D01*
D02*
G37*
G36*
X554813Y464479D02*
X551218D01*
Y460884D01*
X552604Y461459D01*
X554239Y463093D01*
X554813Y464479D01*
D02*
G37*
G36*
X547408D02*
X543813D01*
X544388Y463093D01*
X546022Y461459D01*
X547408Y460884D01*
Y464479D01*
D02*
G37*
G36*
X308930Y469881D02*
X297307D01*
Y458258D01*
X300636Y459150D01*
X303728Y460935D01*
X306253Y463460D01*
X308038Y466552D01*
X308930Y469881D01*
D02*
G37*
G36*
X293497D02*
X281874D01*
X282766Y466552D01*
X284551Y463460D01*
X287076Y460935D01*
X290168Y459150D01*
X293497Y458258D01*
Y469881D01*
D02*
G37*
G36*
X763055Y461137D02*
X759460D01*
Y457542D01*
X760846Y458116D01*
X762480Y459751D01*
X763055Y461137D01*
D02*
G37*
G36*
X755650D02*
X752055D01*
X752629Y459751D01*
X754264Y458116D01*
X755650Y457542D01*
Y461137D01*
D02*
G37*
G36*
X638411Y473801D02*
X637211D01*
X636103Y473342D01*
X635254Y472493D01*
X634795Y471385D01*
Y470185D01*
X635254Y469077D01*
X636103Y468228D01*
X636367Y468119D01*
X635862Y465579D01*
X633239D01*
X632461Y465257D01*
X632139Y464479D01*
Y460669D01*
X632461Y459891D01*
X632707Y457223D01*
X632311Y456268D01*
X643311D01*
X642915Y457223D01*
X643161Y459891D01*
X643483Y460669D01*
Y464479D01*
X643161Y465257D01*
X642383Y465579D01*
X639760D01*
X639255Y468119D01*
X639519Y468228D01*
X640368Y469077D01*
X640827Y470185D01*
Y471385D01*
X640368Y472493D01*
X639519Y473342D01*
X638411Y473801D01*
D02*
G37*
G36*
X455010Y461994D02*
X453810D01*
X452702Y461535D01*
X451853Y460686D01*
X451394Y459578D01*
Y458378D01*
X451853Y457270D01*
X452702Y456421D01*
X453810Y455962D01*
X455010D01*
X456118Y456421D01*
X456967Y457270D01*
X457426Y458378D01*
Y459578D01*
X456967Y460686D01*
X456118Y461535D01*
X455010Y461994D01*
D02*
G37*
G36*
X372745Y459481D02*
Y455886D01*
X376340D01*
X375765Y457272D01*
X374131Y458907D01*
X372745Y459481D01*
D02*
G37*
G36*
X368935D02*
X367549Y458907D01*
X365914Y457272D01*
X365340Y455886D01*
X368935D01*
Y459481D01*
D02*
G37*
G36*
X780126Y470713D02*
X778926D01*
X777818Y470254D01*
X776969Y469405D01*
X776510Y468297D01*
Y467097D01*
X776969Y465989D01*
X777419Y465539D01*
X777001Y463655D01*
X776640Y462999D01*
X774827D01*
X774049Y462677D01*
X773727Y461899D01*
Y456565D01*
X774049Y455787D01*
X774827Y455465D01*
X784225D01*
X785003Y455787D01*
X785325Y456565D01*
Y461899D01*
X785003Y462677D01*
X784225Y462999D01*
X782412D01*
X782051Y463655D01*
X781633Y465539D01*
X782083Y465989D01*
X782542Y467097D01*
Y468297D01*
X782083Y469405D01*
X781234Y470254D01*
X780126Y470713D01*
D02*
G37*
G36*
X350901Y457957D02*
Y454362D01*
X354496D01*
X353922Y455748D01*
X352287Y457383D01*
X350901Y457957D01*
D02*
G37*
G36*
X347091D02*
X345705Y457383D01*
X344071Y455748D01*
X343496Y454362D01*
X347091D01*
Y457957D01*
D02*
G37*
G36*
X609727Y454826D02*
Y451231D01*
X613322D01*
X612747Y452617D01*
X611113Y454252D01*
X609727Y454826D01*
D02*
G37*
G36*
X605917D02*
X604531Y454252D01*
X602896Y452617D01*
X602322Y451231D01*
X605917D01*
Y454826D01*
D02*
G37*
G36*
X643311Y452458D02*
X639716D01*
Y448863D01*
X641102Y449437D01*
X642737Y451072D01*
X643311Y452458D01*
D02*
G37*
G36*
X635906D02*
X632311D01*
X632886Y451072D01*
X634520Y449437D01*
X635906Y448863D01*
Y452458D01*
D02*
G37*
G36*
X483528Y467316D02*
X472528D01*
X472788Y466690D01*
X472805Y466545D01*
X472297Y463947D01*
X471975Y463169D01*
Y457327D01*
X472297Y456549D01*
X473075Y456227D01*
X475465D01*
X476118Y454398D01*
X476175Y453687D01*
X475471Y452983D01*
X475012Y451875D01*
Y450675D01*
X475471Y449567D01*
X476320Y448718D01*
X477428Y448259D01*
X478628D01*
X479736Y448718D01*
X480585Y449567D01*
X481044Y450675D01*
Y451875D01*
X480585Y452983D01*
X479881Y453687D01*
X479938Y454398D01*
X480591Y456227D01*
X482981D01*
X483759Y456549D01*
X484081Y457327D01*
Y463169D01*
X483759Y463947D01*
X483251Y466545D01*
X483268Y466690D01*
X483528Y467316D01*
D02*
G37*
G36*
X613322Y447421D02*
X602322D01*
X602324Y447417D01*
X602340Y447291D01*
X601854Y444683D01*
X601854D01*
X601854Y444683D01*
X601532Y443905D01*
Y442048D01*
X600669Y441600D01*
X598992Y441269D01*
X598498Y441763D01*
X597390Y442222D01*
X596190D01*
X595082Y441763D01*
X594855Y441537D01*
X565966D01*
X565372Y441419D01*
X565369Y441420D01*
X564169D01*
X563061Y440961D01*
X562567Y440467D01*
X560890Y440798D01*
X560027Y441246D01*
Y443103D01*
X559705Y443881D01*
X558927Y444203D01*
X553593D01*
X552815Y443881D01*
X552493Y443103D01*
Y433705D01*
X552815Y432927D01*
X552976Y432861D01*
X552471Y430321D01*
X531525D01*
X531298Y430547D01*
X530190Y431006D01*
X528990D01*
X527882Y430547D01*
X527033Y429698D01*
X526574Y428590D01*
Y427390D01*
X527033Y426282D01*
X527882Y425433D01*
X528990Y424974D01*
X530190D01*
X531298Y425433D01*
X531525Y425659D01*
X547850D01*
X548902Y423119D01*
X548877Y423094D01*
X548418Y421986D01*
Y420786D01*
X548877Y419678D01*
X549726Y418829D01*
X550834Y418370D01*
X552034D01*
X553142Y418829D01*
X553368Y419055D01*
X556821D01*
X568104Y407772D01*
Y407452D01*
X568563Y406344D01*
X569412Y405495D01*
X570520Y405036D01*
X571720D01*
X572828Y405495D01*
X573677Y406344D01*
X574136Y407452D01*
Y407470D01*
X576098Y408098D01*
X576676Y408135D01*
X577412Y407399D01*
X578520Y406940D01*
X579720D01*
X580828Y407399D01*
X581677Y408248D01*
X582136Y409356D01*
Y410556D01*
X581677Y411664D01*
X580828Y412513D01*
X579720Y412972D01*
X579400D01*
X562734Y429638D01*
X561978Y430143D01*
X561086Y430321D01*
X560049D01*
X559544Y432861D01*
X559705Y432927D01*
X560027Y433705D01*
Y435562D01*
X560890Y436010D01*
X562567Y436341D01*
X563061Y435847D01*
X564169Y435388D01*
X565369D01*
X566477Y435847D01*
X567326Y436696D01*
X567400Y436875D01*
X594855D01*
X595082Y436649D01*
X596190Y436190D01*
X597390D01*
X598498Y436649D01*
X598992Y437143D01*
X600669Y436812D01*
X601532Y436364D01*
Y434507D01*
X601854Y433729D01*
X602632Y433407D01*
X607966D01*
X608744Y433729D01*
X609066Y434507D01*
Y443553D01*
X611113Y444400D01*
X612747Y446035D01*
X613322Y447421D01*
D02*
G37*
G36*
X354496Y450552D02*
X343496D01*
X343892Y449597D01*
X343646Y446929D01*
X343324Y446151D01*
Y442341D01*
X343646Y441563D01*
X344424Y441241D01*
X353568D01*
X354346Y441563D01*
X354668Y442341D01*
Y446151D01*
X354346Y446929D01*
X354100Y449597D01*
X354496Y450552D01*
D02*
G37*
G36*
X376340Y452076D02*
X365340D01*
X365600Y451450D01*
X365617Y451305D01*
X365109Y448707D01*
X364787Y447929D01*
Y442087D01*
X365109Y441309D01*
X365887Y440987D01*
X375793D01*
X376571Y441309D01*
X376893Y442087D01*
Y447929D01*
X376571Y448707D01*
X376063Y451305D01*
X376080Y451450D01*
X376340Y452076D01*
D02*
G37*
G36*
X520827Y444203D02*
X515493D01*
X514715Y443881D01*
X514393Y443103D01*
Y441246D01*
X513530Y440798D01*
X511853Y440467D01*
X511359Y440961D01*
X510251Y441420D01*
X509051D01*
X507943Y440961D01*
X507094Y440112D01*
X506635Y439004D01*
Y437804D01*
X507094Y436696D01*
X507943Y435847D01*
X509051Y435388D01*
X510251D01*
X511359Y435847D01*
X511853Y436341D01*
X513530Y436010D01*
X514393Y435562D01*
Y433705D01*
X514715Y432927D01*
X515493Y432605D01*
X520827D01*
X521605Y432927D01*
X521927Y433705D01*
Y443103D01*
X521605Y443881D01*
X520827Y444203D01*
D02*
G37*
G36*
X439449Y491579D02*
X406449D01*
X405672Y491256D01*
X405350Y490479D01*
Y427479D01*
X405672Y426701D01*
X406449Y426379D01*
X439449D01*
X440227Y426701D01*
X440549Y427479D01*
Y490479D01*
X440227Y491256D01*
X439449Y491579D01*
D02*
G37*
G36*
X666334Y466312D02*
X665134D01*
X664026Y465853D01*
X663177Y465004D01*
X662718Y463896D01*
Y463830D01*
X622097Y423209D01*
X589969D01*
X589743Y423435D01*
X588634Y423894D01*
X587435D01*
X586326Y423435D01*
X585478Y422586D01*
X585019Y421478D01*
Y420278D01*
X585478Y419170D01*
X586326Y418321D01*
X587435Y417862D01*
X588634D01*
X589743Y418321D01*
X589969Y418547D01*
X592884D01*
X594448Y416144D01*
Y414944D01*
X594907Y413836D01*
X595576Y413167D01*
X595925Y412630D01*
X596632Y411138D01*
X596467Y410153D01*
X596424Y410048D01*
Y408848D01*
X596883Y407740D01*
X597732Y406891D01*
X598840Y406432D01*
X600040D01*
X601148Y406891D01*
X601375Y407117D01*
X631287D01*
X631514Y406891D01*
X632622Y406432D01*
X633822D01*
X634930Y406891D01*
X635779Y407740D01*
X636238Y408848D01*
Y410048D01*
X635779Y411156D01*
X634930Y412005D01*
X633822Y412464D01*
X632622D01*
X631605Y412043D01*
X630608Y412468D01*
X630014Y415390D01*
X646716Y432092D01*
X648093Y431746D01*
X649377Y431161D01*
X649715Y430346D01*
X649941Y430120D01*
Y359313D01*
X649715Y359086D01*
X649256Y357978D01*
Y356778D01*
X649715Y355670D01*
X650564Y354821D01*
X651672Y354362D01*
X652872D01*
X655021Y352543D01*
Y301193D01*
X642925Y289097D01*
X513343D01*
X511778Y291500D01*
Y292700D01*
X511319Y293808D01*
X511093Y294035D01*
Y336296D01*
X510915Y337188D01*
X510410Y337944D01*
X487979Y360375D01*
Y403911D01*
X491516Y407448D01*
X491836D01*
X492944Y407907D01*
X493793Y408756D01*
X494252Y409864D01*
Y411064D01*
X494167Y411269D01*
X495326Y413520D01*
X495655Y413809D01*
X497205D01*
X497983Y414131D01*
X498017Y414215D01*
X508737D01*
Y417281D01*
X516734D01*
X516960Y417055D01*
X518068Y416596D01*
X519268D01*
X520376Y417055D01*
X521225Y417904D01*
X521684Y419012D01*
Y420212D01*
X521225Y421320D01*
X520376Y422169D01*
X519268Y422628D01*
X518068D01*
X516960Y422169D01*
X516734Y421943D01*
X508737D01*
Y425001D01*
X498017D01*
X497983Y425085D01*
X497205Y425407D01*
X491871D01*
X491093Y425085D01*
X491059Y425001D01*
X480339D01*
Y414215D01*
X487129D01*
X487744Y413405D01*
X488473Y411674D01*
X488220Y411064D01*
Y410744D01*
X484000Y406524D01*
X483495Y405768D01*
X483317Y404876D01*
Y359410D01*
Y351485D01*
X474777Y342945D01*
X443641D01*
X443414Y343171D01*
X442306Y343630D01*
X441106D01*
X439998Y343171D01*
X439149Y342322D01*
X438690Y341214D01*
Y340014D01*
X439149Y338906D01*
X439998Y338057D01*
X441106Y337598D01*
X442306D01*
X443414Y338057D01*
X443641Y338283D01*
X475742D01*
X476634Y338461D01*
X477390Y338966D01*
X487296Y348872D01*
X487801Y349628D01*
X487924Y350246D01*
X489211Y351030D01*
X490286Y351476D01*
X504736Y337026D01*
X503684Y334486D01*
X503590D01*
X502482Y334027D01*
X501633Y333178D01*
X501174Y332070D01*
Y330870D01*
X501633Y329762D01*
X501859Y329535D01*
Y317148D01*
X501633Y316922D01*
X501174Y315814D01*
Y314614D01*
X501633Y313506D01*
X502482Y312657D01*
X503590Y312198D01*
X504790D01*
X506431Y310129D01*
Y294035D01*
X506205Y293808D01*
X505746Y292700D01*
Y291500D01*
X504181Y289097D01*
X490931D01*
X487140Y292888D01*
Y293208D01*
X486681Y294316D01*
X485832Y295165D01*
X484724Y295624D01*
X483524D01*
X482416Y295165D01*
X481567Y294316D01*
X481108Y293208D01*
Y292008D01*
X481567Y290900D01*
X482416Y290051D01*
X482689Y289244D01*
X482762Y286734D01*
X481654Y286275D01*
X480805Y285426D01*
X480346Y284318D01*
Y283998D01*
X468173Y271825D01*
X419765D01*
X419538Y272051D01*
X418430Y272510D01*
X417230D01*
X416122Y272051D01*
X415273Y271202D01*
X414814Y270094D01*
Y268894D01*
X415273Y267786D01*
X416122Y266937D01*
X417230Y266478D01*
X418430D01*
X419538Y266937D01*
X419765Y267163D01*
X469138D01*
X470030Y267341D01*
X470786Y267846D01*
X483642Y280702D01*
X483962D01*
X485070Y281161D01*
X485919Y282010D01*
X486378Y283118D01*
Y283466D01*
X487233Y284194D01*
X488558Y284809D01*
X488725Y284846D01*
X489074Y284613D01*
X489966Y284435D01*
X643890D01*
X644782Y284613D01*
X645538Y285118D01*
X659000Y298580D01*
X659505Y299336D01*
X659683Y300228D01*
Y317749D01*
X661324Y319818D01*
X662524D01*
X663632Y320277D01*
X663858Y320503D01*
X672533D01*
Y317677D01*
X672449Y317643D01*
X672127Y316865D01*
Y314325D01*
X669167D01*
Y306876D01*
X678180D01*
X687193D01*
Y314325D01*
X684233D01*
Y316865D01*
X683911Y317643D01*
X683828Y317677D01*
Y320586D01*
X697044D01*
Y317423D01*
X696960Y317389D01*
X696638Y316611D01*
Y316103D01*
X693678D01*
Y308400D01*
X702310D01*
X710942D01*
Y316103D01*
X707982D01*
Y316611D01*
X707660Y317389D01*
X707577Y317423D01*
Y329160D01*
X697044D01*
Y325248D01*
X683828D01*
Y328905D01*
X672533D01*
Y325165D01*
X663858D01*
X663632Y325391D01*
X662524Y325850D01*
X661324D01*
X659683Y327919D01*
Y334259D01*
X661324Y336328D01*
X662524D01*
X663565Y336759D01*
X694944D01*
X695836Y336937D01*
X696592Y337442D01*
X720722Y361572D01*
X721227Y362328D01*
X721405Y363220D01*
Y410261D01*
X739928Y428784D01*
X740248D01*
X741356Y429243D01*
X742205Y430092D01*
X742664Y431200D01*
Y432400D01*
X742205Y433508D01*
X741356Y434357D01*
X740248Y434816D01*
X739048D01*
X737940Y434357D01*
X737091Y433508D01*
X736632Y432400D01*
Y432080D01*
X717426Y412874D01*
X716921Y412118D01*
X716743Y411226D01*
Y371376D01*
X716213Y370850D01*
X714203Y369892D01*
X713832Y370046D01*
X712632D01*
X711524Y369587D01*
X710675Y368738D01*
X710216Y367630D01*
X707810Y366986D01*
X706504Y367181D01*
X706140Y367872D01*
Y373554D01*
X709104D01*
Y379753D01*
X701040D01*
X692976D01*
Y373554D01*
X695940D01*
Y367872D01*
X694637Y365401D01*
X683319D01*
Y368123D01*
X683403Y368157D01*
X683725Y368935D01*
Y374269D01*
X683403Y375047D01*
X683319Y375081D01*
Y385802D01*
X672533D01*
Y375081D01*
X672449Y375047D01*
X672127Y374269D01*
Y368935D01*
X672449Y368157D01*
X672533Y368123D01*
Y365445D01*
X662467D01*
X662210Y365394D01*
X662016Y365474D01*
X660816D01*
X659708Y365015D01*
X658859Y364166D01*
X658542Y363400D01*
X657070Y362358D01*
X656321Y362557D01*
X654603Y363593D01*
Y424963D01*
X657143Y425468D01*
X657209Y425307D01*
X657987Y424985D01*
X667385D01*
X668163Y425307D01*
X668485Y426085D01*
Y431419D01*
X668163Y432197D01*
X667385Y432519D01*
X657987D01*
X657828Y432453D01*
X656502Y432558D01*
X655013Y433319D01*
X654829Y433762D01*
X653980Y434611D01*
X653165Y434949D01*
X652580Y436233D01*
X652234Y437610D01*
X661950Y447326D01*
X662270D01*
X663378Y447785D01*
X664227Y448634D01*
X664686Y449742D01*
Y450942D01*
X664227Y452050D01*
X663378Y452899D01*
X662270Y453358D01*
X661378Y455898D01*
X665760Y460280D01*
X666334D01*
X667442Y460739D01*
X668291Y461588D01*
X668750Y462696D01*
Y463896D01*
X668291Y465004D01*
X667442Y465853D01*
X666334Y466312D01*
D02*
G37*
G36*
X296819Y432552D02*
X293985D01*
X291246Y431818D01*
X288792Y430401D01*
X286787Y428396D01*
X285370Y425942D01*
X284636Y423203D01*
Y420369D01*
X285370Y417631D01*
X286787Y415176D01*
X288792Y413171D01*
X291246Y411754D01*
X293985Y411020D01*
X296819D01*
X299557Y411754D01*
X302013Y413171D01*
X304017Y415176D01*
X305434Y417631D01*
X306168Y420369D01*
Y423203D01*
X305434Y425942D01*
X304017Y428396D01*
X302013Y430401D01*
X299557Y431818D01*
X296819Y432552D01*
D02*
G37*
G36*
X467106Y410376D02*
Y406781D01*
X470701D01*
X470126Y408167D01*
X468492Y409801D01*
X467106Y410376D01*
D02*
G37*
G36*
X463296D02*
X461910Y409801D01*
X460275Y408167D01*
X459701Y406781D01*
X463296D01*
Y410376D01*
D02*
G37*
G36*
X703282Y408852D02*
Y405257D01*
X706877D01*
X706302Y406643D01*
X704668Y408278D01*
X703282Y408852D01*
D02*
G37*
G36*
X757384Y406312D02*
Y402717D01*
X760979D01*
X760405Y404103D01*
X758770Y405737D01*
X757384Y406312D01*
D02*
G37*
G36*
X470701Y402971D02*
X467106D01*
Y399376D01*
X468492Y399950D01*
X470126Y401585D01*
X470701Y402971D01*
D02*
G37*
G36*
X463296D02*
X459701D01*
X460275Y401585D01*
X461910Y399950D01*
X463296Y399376D01*
Y402971D01*
D02*
G37*
G36*
X521525Y402114D02*
Y398519D01*
X525120D01*
X524546Y399905D01*
X522911Y401539D01*
X521525Y402114D01*
D02*
G37*
G36*
X517715D02*
X516329Y401539D01*
X514695Y399905D01*
X514120Y398519D01*
X517715D01*
Y402114D01*
D02*
G37*
G36*
X640525Y402113D02*
Y398518D01*
X644120D01*
X643546Y399905D01*
X641911Y401539D01*
X640525Y402113D01*
D02*
G37*
G36*
X636715D02*
X635329Y401539D01*
X633694Y399905D01*
X633120Y398518D01*
X636715D01*
Y402113D01*
D02*
G37*
G36*
X613025Y401614D02*
Y398019D01*
X616620D01*
X616045Y399405D01*
X614411Y401040D01*
X613025Y401614D01*
D02*
G37*
G36*
X609215D02*
X607829Y401040D01*
X606194Y399405D01*
X605620Y398019D01*
X609215D01*
Y401614D01*
D02*
G37*
G36*
X706877Y401447D02*
X703282D01*
Y397852D01*
X704668Y398427D01*
X706302Y400061D01*
X706877Y401447D01*
D02*
G37*
G36*
X695071Y409024D02*
X691261D01*
X690483Y408702D01*
X690161Y407924D01*
Y398780D01*
X690483Y398002D01*
X691261Y397680D01*
X695071D01*
X695849Y398002D01*
X698517Y398248D01*
X699472Y397852D01*
Y403352D01*
Y408852D01*
X698517Y408456D01*
X695849Y408702D01*
X695071Y409024D01*
D02*
G37*
G36*
X398653Y422701D02*
X366522D01*
X365630Y422523D01*
X364874Y422018D01*
X337188Y394332D01*
X311280Y368424D01*
X310775Y367668D01*
X310597Y366776D01*
Y354838D01*
X310775Y353946D01*
X311280Y353190D01*
X322924Y341546D01*
X323680Y341041D01*
X324572Y340863D01*
X339055D01*
X340107Y338323D01*
X337250Y335466D01*
X337220Y335436D01*
X334785Y334883D01*
X334178Y334947D01*
X333999Y335126D01*
X332613Y335700D01*
Y330200D01*
Y324700D01*
X333999Y325275D01*
X336537Y324221D01*
Y313658D01*
X336715Y312766D01*
X337220Y312010D01*
X340392Y308838D01*
Y308518D01*
X340851Y307410D01*
X341700Y306561D01*
X342808Y306102D01*
X344008D01*
X346156Y304282D01*
Y299038D01*
X347658D01*
X349521Y297404D01*
Y295833D01*
X349521D01*
Y292404D01*
X358475D01*
Y288544D01*
X360544D01*
X361743Y286518D01*
X361844Y286004D01*
X361718Y285369D01*
Y277809D01*
X361895Y276917D01*
X362401Y276161D01*
X370208Y268354D01*
X370964Y267849D01*
X371856Y267671D01*
X405638D01*
X406530Y267849D01*
X407286Y268354D01*
X417192Y278260D01*
X417697Y279016D01*
X417875Y279908D01*
Y334061D01*
X433096Y349282D01*
X433416D01*
X434524Y349741D01*
X435373Y350590D01*
X435832Y351698D01*
Y352898D01*
X435373Y354006D01*
X434524Y354855D01*
X433416Y355314D01*
X432216D01*
X431108Y354855D01*
X430259Y354006D01*
X429800Y352898D01*
Y352578D01*
X413896Y336674D01*
X413391Y335918D01*
X413213Y335026D01*
Y280873D01*
X404673Y272333D01*
X387134D01*
X386327Y274873D01*
X386605Y275151D01*
X387065Y276259D01*
Y277162D01*
X387103Y277503D01*
X388443Y279059D01*
X390763Y279590D01*
X392334D01*
Y279590D01*
X395763D01*
Y288544D01*
X399623D01*
Y292404D01*
X408576D01*
Y295833D01*
X408576D01*
Y297404D01*
X408576D01*
Y300832D01*
X408576D01*
Y302404D01*
X408576D01*
Y305833D01*
X408576D01*
Y307404D01*
X408576D01*
Y310832D01*
X408576D01*
Y312404D01*
X408576D01*
Y315832D01*
X408576D01*
Y317404D01*
X408576D01*
Y320832D01*
X408576D01*
Y322403D01*
X408576D01*
Y325832D01*
X399623D01*
Y329692D01*
X395763D01*
Y338646D01*
X392334D01*
Y338646D01*
X390763D01*
Y338646D01*
X387334D01*
Y338646D01*
X385763D01*
X383284Y338684D01*
X382661Y339233D01*
X382542Y342484D01*
X384115Y344058D01*
X384318Y344362D01*
X385845Y345888D01*
X393269D01*
X393303Y345805D01*
X394081Y345483D01*
X396113D01*
Y342523D01*
X403308D01*
Y351282D01*
Y360041D01*
X396113D01*
X394176Y361497D01*
Y362090D01*
X393292Y364225D01*
X391657Y365859D01*
X390271Y366434D01*
Y360934D01*
X388366D01*
Y359029D01*
X382771D01*
X382548Y356675D01*
X382548D01*
Y350911D01*
X381825Y350429D01*
X379286Y351786D01*
Y358712D01*
X376727D01*
Y383223D01*
X379095D01*
Y385631D01*
X387794D01*
Y382206D01*
X398590D01*
Y393017D01*
X398669Y393049D01*
X398991Y393827D01*
Y395859D01*
X401955D01*
Y403098D01*
X393192D01*
Y406908D01*
X401955D01*
Y410453D01*
X404302Y411425D01*
X411131Y404596D01*
Y404276D01*
X411590Y403168D01*
X412439Y402319D01*
X413547Y401860D01*
X414747D01*
X415855Y402319D01*
X416349Y402813D01*
X418026Y402482D01*
X418889Y402034D01*
Y397891D01*
X419211Y397113D01*
X419989Y396791D01*
X430911D01*
X431689Y397113D01*
X432011Y397891D01*
Y411861D01*
X431689Y412639D01*
X430911Y412961D01*
X419989D01*
X419211Y412639D01*
X418889Y411861D01*
Y407718D01*
X418026Y407270D01*
X416349Y406939D01*
X415855Y407433D01*
X414747Y407892D01*
X414427D01*
X400301Y422018D01*
X399545Y422523D01*
X398653Y422701D01*
D02*
G37*
G36*
X760979Y398907D02*
X757384D01*
Y395312D01*
X758770Y395886D01*
X760405Y397521D01*
X760979Y398907D01*
D02*
G37*
G36*
X749173Y406484D02*
X745363D01*
X744585Y406162D01*
X744263Y405384D01*
Y396240D01*
X744585Y395462D01*
X745363Y395140D01*
X749173D01*
X749951Y395462D01*
X752619Y395708D01*
X753574Y395312D01*
Y400812D01*
Y406312D01*
X752619Y405916D01*
X749951Y406162D01*
X749173Y406484D01*
D02*
G37*
G36*
X525120Y394709D02*
X521525D01*
Y391114D01*
X522911Y391688D01*
X524546Y393323D01*
X525120Y394709D01*
D02*
G37*
G36*
X517715D02*
X514120D01*
X514695Y393323D01*
X516329Y391688D01*
X517715Y391114D01*
Y394709D01*
D02*
G37*
G36*
X644120Y394709D02*
X640525D01*
Y391114D01*
X641911Y391688D01*
X643546Y393322D01*
X644120Y394709D01*
D02*
G37*
G36*
X636715D02*
X633120D01*
X633694Y393322D01*
X635329Y391688D01*
X636715Y391114D01*
Y394709D01*
D02*
G37*
G36*
X616620Y394209D02*
X613025D01*
Y390614D01*
X614411Y391189D01*
X616045Y392823D01*
X616620Y394209D01*
D02*
G37*
G36*
X609215D02*
X605620D01*
X606194Y392823D01*
X607829Y391189D01*
X609215Y390614D01*
Y394209D01*
D02*
G37*
G36*
X709104Y389762D02*
X702945D01*
Y383563D01*
X709104D01*
Y389762D01*
D02*
G37*
G36*
X699135D02*
X692976D01*
Y383563D01*
X699135D01*
Y389762D01*
D02*
G37*
G36*
X280463Y385384D02*
Y381789D01*
X284058D01*
X283484Y383175D01*
X281849Y384809D01*
X280463Y385384D01*
D02*
G37*
G36*
X276653D02*
X275267Y384809D01*
X273633Y383175D01*
X273058Y381789D01*
X276653D01*
Y385384D01*
D02*
G37*
G36*
X467741Y382690D02*
Y379095D01*
X471336D01*
X470761Y380481D01*
X469127Y382116D01*
X467741Y382690D01*
D02*
G37*
G36*
X463931D02*
X462545Y382116D01*
X460910Y380481D01*
X460336Y379095D01*
X463931D01*
Y382690D01*
D02*
G37*
G36*
X305963Y378384D02*
Y374789D01*
X309558D01*
X308983Y376175D01*
X307349Y377809D01*
X305963Y378384D01*
D02*
G37*
G36*
X302153D02*
X300767Y377809D01*
X299132Y376175D01*
X298558Y374789D01*
X302153D01*
Y378384D01*
D02*
G37*
G36*
X284058Y377979D02*
X280463D01*
Y374384D01*
X281849Y374958D01*
X283484Y376593D01*
X284058Y377979D01*
D02*
G37*
G36*
X276653D02*
X273058D01*
X273633Y376593D01*
X275267Y374958D01*
X276653Y374384D01*
Y377979D01*
D02*
G37*
G36*
X471336Y375285D02*
X467741D01*
Y371690D01*
X469127Y372265D01*
X470761Y373899D01*
X471336Y375285D01*
D02*
G37*
G36*
X463931D02*
X460336D01*
X460910Y373899D01*
X462545Y372265D01*
X463931Y371690D01*
Y375285D01*
D02*
G37*
G36*
X431038Y385275D02*
X420116D01*
X419338Y384953D01*
X419016Y384175D01*
Y370205D01*
X419338Y369427D01*
X420116Y369105D01*
X431038D01*
X431816Y369427D01*
X432138Y370205D01*
Y384175D01*
X431816Y384953D01*
X431038Y385275D01*
D02*
G37*
G36*
X600775Y372364D02*
Y368769D01*
X604370D01*
X603796Y370155D01*
X602161Y371790D01*
X600775Y372364D01*
D02*
G37*
G36*
X596965D02*
X595579Y371790D01*
X593945Y370155D01*
X593370Y368769D01*
X596965D01*
Y372364D01*
D02*
G37*
G36*
X581025D02*
Y368769D01*
X584620D01*
X584045Y370155D01*
X582411Y371790D01*
X581025Y372364D01*
D02*
G37*
G36*
X577215D02*
X575829Y371790D01*
X574194Y370155D01*
X573620Y368769D01*
X577215D01*
Y372364D01*
D02*
G37*
G36*
X561275D02*
Y368769D01*
X564870D01*
X564296Y370155D01*
X562661Y371790D01*
X561275Y372364D01*
D02*
G37*
G36*
X557465D02*
X556079Y371790D01*
X554445Y370155D01*
X553870Y368769D01*
X557465D01*
Y372364D01*
D02*
G37*
G36*
X309558Y370979D02*
X305963D01*
Y367384D01*
X307349Y367958D01*
X308983Y369593D01*
X309558Y370979D01*
D02*
G37*
G36*
X302153D02*
X298558D01*
X299132Y369593D01*
X300767Y367958D01*
X302153Y367384D01*
Y370979D01*
D02*
G37*
G36*
X386461Y366434D02*
X385075Y365859D01*
X383441Y364225D01*
X382866Y362839D01*
X386461D01*
Y366434D01*
D02*
G37*
G36*
X604370Y364959D02*
X600775D01*
Y361364D01*
X602161Y361939D01*
X603796Y363573D01*
X604370Y364959D01*
D02*
G37*
G36*
X596965D02*
X593370D01*
X593945Y363573D01*
X595579Y361939D01*
X596965Y361364D01*
Y364959D01*
D02*
G37*
G36*
X584620D02*
X581025D01*
Y361364D01*
X582411Y361939D01*
X584045Y363573D01*
X584620Y364959D01*
D02*
G37*
G36*
X577215D02*
X573620D01*
X574194Y363573D01*
X575829Y361939D01*
X577215Y361364D01*
Y364959D01*
D02*
G37*
G36*
X564870D02*
X561275D01*
Y361364D01*
X562661Y361939D01*
X564296Y363573D01*
X564870Y364959D01*
D02*
G37*
G36*
X557465D02*
X553870D01*
X554445Y363573D01*
X556079Y361939D01*
X557465Y361364D01*
Y364959D01*
D02*
G37*
G36*
X785643Y361272D02*
Y357677D01*
X789238D01*
X788663Y359063D01*
X787029Y360698D01*
X785643Y361272D01*
D02*
G37*
G36*
X781833D02*
X780447Y360698D01*
X778812Y359063D01*
X778238Y357677D01*
X781833D01*
Y361272D01*
D02*
G37*
G36*
X280463Y359384D02*
Y355789D01*
X284058D01*
X283484Y357175D01*
X281849Y358810D01*
X280463Y359384D01*
D02*
G37*
G36*
X276653D02*
X275267Y358810D01*
X273633Y357175D01*
X273058Y355789D01*
X276653D01*
Y359384D01*
D02*
G37*
G36*
X414313Y360041D02*
X407118D01*
Y353187D01*
X414313D01*
Y360041D01*
D02*
G37*
G36*
X789238Y353867D02*
X785643D01*
Y350272D01*
X787029Y350846D01*
X788663Y352481D01*
X789238Y353867D01*
D02*
G37*
G36*
X781833D02*
X778238D01*
X778812Y352481D01*
X780447Y350846D01*
X781833Y350272D01*
Y353867D01*
D02*
G37*
G36*
X600775Y352614D02*
Y349019D01*
X604370D01*
X603796Y350405D01*
X602161Y352039D01*
X600775Y352614D01*
D02*
G37*
G36*
X596965D02*
X595579Y352039D01*
X593945Y350405D01*
X593370Y349019D01*
X596965D01*
Y352614D01*
D02*
G37*
G36*
X581025D02*
Y349019D01*
X584620D01*
X584045Y350405D01*
X582411Y352039D01*
X581025Y352614D01*
D02*
G37*
G36*
X577215D02*
X575829Y352039D01*
X574194Y350405D01*
X573620Y349019D01*
X577215D01*
Y352614D01*
D02*
G37*
G36*
X561275D02*
Y349019D01*
X564870D01*
X564296Y350405D01*
X562661Y352039D01*
X561275Y352614D01*
D02*
G37*
G36*
X557465D02*
X556079Y352039D01*
X554445Y350405D01*
X553870Y349019D01*
X557465D01*
Y352614D01*
D02*
G37*
G36*
X284058Y351979D02*
X280463D01*
Y348384D01*
X281849Y348959D01*
X283484Y350593D01*
X284058Y351979D01*
D02*
G37*
G36*
X276653D02*
X273058D01*
X273633Y350593D01*
X275267Y348959D01*
X276653Y348384D01*
Y351979D01*
D02*
G37*
G36*
X460502Y358351D02*
X455168D01*
X454390Y358029D01*
X454068Y357251D01*
Y347853D01*
X454390Y347075D01*
X455168Y346753D01*
X460502D01*
X461280Y347075D01*
X461602Y347853D01*
Y357251D01*
X461280Y358029D01*
X460502Y358351D01*
D02*
G37*
G36*
X414313Y349377D02*
X407118D01*
Y342523D01*
X414313D01*
Y349377D01*
D02*
G37*
G36*
X604370Y345209D02*
X600775D01*
Y341614D01*
X602161Y342188D01*
X603796Y343823D01*
X604370Y345209D01*
D02*
G37*
G36*
X596965D02*
X593370D01*
X593945Y343823D01*
X595579Y342188D01*
X596965Y341614D01*
Y345209D01*
D02*
G37*
G36*
X584620D02*
X581025D01*
Y341614D01*
X582411Y342188D01*
X584045Y343823D01*
X584620Y345209D01*
D02*
G37*
G36*
X577215D02*
X573620D01*
X574194Y343823D01*
X575829Y342188D01*
X577215Y341614D01*
Y345209D01*
D02*
G37*
G36*
X564870D02*
X561275D01*
Y341614D01*
X562661Y342188D01*
X564296Y343823D01*
X564870Y345209D01*
D02*
G37*
G36*
X557465D02*
X553870D01*
X554445Y343823D01*
X556079Y342188D01*
X557465Y341614D01*
Y345209D01*
D02*
G37*
G36*
X328803Y335700D02*
X327417Y335126D01*
X325783Y333491D01*
X325208Y332105D01*
X328803D01*
Y335700D01*
D02*
G37*
G36*
X280463Y335384D02*
Y331789D01*
X284058D01*
X283484Y333175D01*
X281849Y334809D01*
X280463Y335384D01*
D02*
G37*
G36*
X276653D02*
X275267Y334809D01*
X273633Y333175D01*
X273058Y331789D01*
X276653D01*
Y335384D01*
D02*
G37*
G36*
X307213Y334384D02*
Y330789D01*
X310808D01*
X310233Y332175D01*
X308599Y333810D01*
X307213Y334384D01*
D02*
G37*
G36*
X303403D02*
X302017Y333810D01*
X300382Y332175D01*
X299808Y330789D01*
X303403D01*
Y334384D01*
D02*
G37*
G36*
X600775Y332864D02*
Y329269D01*
X604370D01*
X603796Y330655D01*
X602161Y332290D01*
X600775Y332864D01*
D02*
G37*
G36*
X596965D02*
X595579Y332290D01*
X593945Y330655D01*
X593370Y329269D01*
X596965D01*
Y332864D01*
D02*
G37*
G36*
X581025D02*
Y329269D01*
X584620D01*
X584045Y330655D01*
X582411Y332290D01*
X581025Y332864D01*
D02*
G37*
G36*
X577215D02*
X575829Y332290D01*
X574194Y330655D01*
X573620Y329269D01*
X577215D01*
Y332864D01*
D02*
G37*
G36*
X561275D02*
Y329269D01*
X564870D01*
X564296Y330655D01*
X562661Y332290D01*
X561275Y332864D01*
D02*
G37*
G36*
X557465D02*
X556079Y332290D01*
X554445Y330655D01*
X553870Y329269D01*
X557465D01*
Y332864D01*
D02*
G37*
G36*
X757384Y331890D02*
Y328295D01*
X760979D01*
X760405Y329681D01*
X758770Y331315D01*
X757384Y331890D01*
D02*
G37*
G36*
X328803Y328295D02*
X325208D01*
X325783Y326909D01*
X327417Y325275D01*
X328803Y324700D01*
Y328295D01*
D02*
G37*
G36*
X284058Y327979D02*
X280463D01*
Y324384D01*
X281849Y324958D01*
X283484Y326593D01*
X284058Y327979D01*
D02*
G37*
G36*
X276653D02*
X273058D01*
X273633Y326593D01*
X275267Y324958D01*
X276653Y324384D01*
Y327979D01*
D02*
G37*
G36*
X310808Y326979D02*
X307213D01*
Y323384D01*
X308599Y323959D01*
X310233Y325593D01*
X310808Y326979D01*
D02*
G37*
G36*
X303403D02*
X299808D01*
X300382Y325593D01*
X302017Y323959D01*
X303403Y323384D01*
Y326979D01*
D02*
G37*
G36*
X604370Y325459D02*
X600775D01*
Y321864D01*
X602161Y322439D01*
X603796Y324073D01*
X604370Y325459D01*
D02*
G37*
G36*
X596965D02*
X593370D01*
X593945Y324073D01*
X595579Y322439D01*
X596965Y321864D01*
Y325459D01*
D02*
G37*
G36*
X584620D02*
X581025D01*
Y321864D01*
X582411Y322439D01*
X584045Y324073D01*
X584620Y325459D01*
D02*
G37*
G36*
X577215D02*
X573620D01*
X574194Y324073D01*
X575829Y322439D01*
X577215Y321864D01*
Y325459D01*
D02*
G37*
G36*
X564870D02*
X561275D01*
Y321864D01*
X562661Y322439D01*
X564296Y324073D01*
X564870Y325459D01*
D02*
G37*
G36*
X557465D02*
X553870D01*
X554445Y324073D01*
X556079Y322439D01*
X557465Y321864D01*
Y325459D01*
D02*
G37*
G36*
X760979Y324485D02*
X757384D01*
Y320890D01*
X758770Y321465D01*
X760405Y323099D01*
X760979Y324485D01*
D02*
G37*
G36*
X749173Y332062D02*
X745363D01*
X744585Y331740D01*
X744263Y330962D01*
Y321818D01*
X744585Y321040D01*
X745363Y320718D01*
X749173D01*
X749951Y321040D01*
X752619Y321286D01*
X753574Y320890D01*
Y326390D01*
Y331890D01*
X752619Y331494D01*
X749951Y331740D01*
X749173Y332062D01*
D02*
G37*
G36*
X305963Y316384D02*
Y312789D01*
X309558D01*
X308983Y314175D01*
X307349Y315809D01*
X305963Y316384D01*
D02*
G37*
G36*
X302153D02*
X300767Y315809D01*
X299132Y314175D01*
X298558Y312789D01*
X302153D01*
Y316384D01*
D02*
G37*
G36*
X280463Y309384D02*
Y305789D01*
X284058D01*
X283484Y307175D01*
X281849Y308810D01*
X280463Y309384D01*
D02*
G37*
G36*
X276653D02*
X275267Y308810D01*
X273633Y307175D01*
X273058Y305789D01*
X276653D01*
Y309384D01*
D02*
G37*
G36*
X309558Y308979D02*
X305963D01*
Y305384D01*
X307349Y305958D01*
X308983Y307593D01*
X309558Y308979D01*
D02*
G37*
G36*
X302153D02*
X298558D01*
X299132Y307593D01*
X300767Y305958D01*
X302153Y305384D01*
Y308979D01*
D02*
G37*
G36*
X332613Y305220D02*
Y301625D01*
X336208D01*
X335634Y303011D01*
X333999Y304646D01*
X332613Y305220D01*
D02*
G37*
G36*
X328803D02*
X327417Y304646D01*
X325783Y303011D01*
X325208Y301625D01*
X328803D01*
Y305220D01*
D02*
G37*
G36*
X621025Y303614D02*
Y300019D01*
X624620D01*
X624045Y301405D01*
X622411Y303039D01*
X621025Y303614D01*
D02*
G37*
G36*
X617215D02*
X615829Y303039D01*
X614194Y301405D01*
X613620Y300019D01*
X617215D01*
Y303614D01*
D02*
G37*
G36*
X597025D02*
Y300019D01*
X600620D01*
X600046Y301405D01*
X598411Y303039D01*
X597025Y303614D01*
D02*
G37*
G36*
X593215D02*
X591829Y303039D01*
X590195Y301405D01*
X589620Y300019D01*
X593215D01*
Y303614D01*
D02*
G37*
G36*
X573025D02*
Y300019D01*
X576620D01*
X576045Y301405D01*
X574411Y303039D01*
X573025Y303614D01*
D02*
G37*
G36*
X569215D02*
X567829Y303039D01*
X566194Y301405D01*
X565620Y300019D01*
X569215D01*
Y303614D01*
D02*
G37*
G36*
X541025D02*
Y300019D01*
X544620D01*
X544045Y301405D01*
X542411Y303039D01*
X541025Y303614D01*
D02*
G37*
G36*
X537215D02*
X535829Y303039D01*
X534194Y301405D01*
X533620Y300019D01*
X537215D01*
Y303614D01*
D02*
G37*
G36*
X640525Y303114D02*
Y299519D01*
X644120D01*
X643546Y300905D01*
X641911Y302540D01*
X640525Y303114D01*
D02*
G37*
G36*
X636715D02*
X635329Y302540D01*
X633694Y300905D01*
X633120Y299519D01*
X636715D01*
Y303114D01*
D02*
G37*
G36*
X521525D02*
Y299519D01*
X525120D01*
X524546Y300905D01*
X522911Y302540D01*
X521525Y303114D01*
D02*
G37*
G36*
X517715D02*
X516329Y302540D01*
X514695Y300905D01*
X514120Y299519D01*
X517715D01*
Y303114D01*
D02*
G37*
G36*
X284058Y301979D02*
X280463D01*
Y298384D01*
X281849Y298958D01*
X283484Y300593D01*
X284058Y301979D01*
D02*
G37*
G36*
X276653D02*
X273058D01*
X273633Y300593D01*
X275267Y298958D01*
X276653Y298384D01*
Y301979D01*
D02*
G37*
G36*
X710942Y304590D02*
X704215D01*
Y296887D01*
X710942D01*
Y304590D01*
D02*
G37*
G36*
X700405D02*
X693678D01*
Y296887D01*
X700405D01*
Y304590D01*
D02*
G37*
G36*
X687193Y303066D02*
X680085D01*
Y295617D01*
X687193D01*
Y303066D01*
D02*
G37*
G36*
X676275D02*
X669167D01*
Y295617D01*
X676275D01*
Y303066D01*
D02*
G37*
G36*
X336208Y297815D02*
X332613D01*
Y294220D01*
X333999Y294795D01*
X335634Y296429D01*
X336208Y297815D01*
D02*
G37*
G36*
X328803D02*
X325208D01*
X325783Y296429D01*
X327417Y294795D01*
X328803Y294220D01*
Y297815D01*
D02*
G37*
G36*
X624620Y296209D02*
X621025D01*
Y292614D01*
X622411Y293188D01*
X624045Y294823D01*
X624620Y296209D01*
D02*
G37*
G36*
X617215D02*
X613620D01*
X614194Y294823D01*
X615829Y293188D01*
X617215Y292614D01*
Y296209D01*
D02*
G37*
G36*
X600620D02*
X597025D01*
Y292614D01*
X598411Y293188D01*
X600046Y294823D01*
X600620Y296209D01*
D02*
G37*
G36*
X593215D02*
X589620D01*
X590195Y294823D01*
X591829Y293188D01*
X593215Y292614D01*
Y296209D01*
D02*
G37*
G36*
X576620D02*
X573025D01*
Y292614D01*
X574411Y293188D01*
X576045Y294823D01*
X576620Y296209D01*
D02*
G37*
G36*
X569215D02*
X565620D01*
X566194Y294823D01*
X567829Y293188D01*
X569215Y292614D01*
Y296209D01*
D02*
G37*
G36*
X544620D02*
X541025D01*
Y292614D01*
X542411Y293188D01*
X544045Y294823D01*
X544620Y296209D01*
D02*
G37*
G36*
X537215D02*
X533620D01*
X534194Y294823D01*
X535829Y293188D01*
X537215Y292614D01*
Y296209D01*
D02*
G37*
G36*
X644120Y295709D02*
X640525D01*
Y292114D01*
X641911Y292689D01*
X643546Y294323D01*
X644120Y295709D01*
D02*
G37*
G36*
X636715D02*
X633120D01*
X633694Y294323D01*
X635329Y292689D01*
X636715Y292114D01*
Y295709D01*
D02*
G37*
G36*
X525120D02*
X521525D01*
Y292114D01*
X522911Y292689D01*
X524546Y294323D01*
X525120Y295709D01*
D02*
G37*
G36*
X517715D02*
X514120D01*
X514695Y294323D01*
X516329Y292689D01*
X517715Y292114D01*
Y295709D01*
D02*
G37*
G36*
X785643Y292184D02*
Y288589D01*
X789238D01*
X788663Y289975D01*
X787029Y291609D01*
X785643Y292184D01*
D02*
G37*
G36*
X781833D02*
X780447Y291609D01*
X778812Y289975D01*
X778238Y288589D01*
X781833D01*
Y292184D01*
D02*
G37*
G36*
X312972Y291715D02*
X305523D01*
Y284607D01*
X312972D01*
Y291715D01*
D02*
G37*
G36*
X789238Y284779D02*
X785643D01*
Y281184D01*
X787029Y281758D01*
X788663Y283393D01*
X789238Y284779D01*
D02*
G37*
G36*
X781833D02*
X778238D01*
X778812Y283393D01*
X780447Y281758D01*
X781833Y281184D01*
Y284779D01*
D02*
G37*
G36*
X465582Y289771D02*
X460248D01*
X459470Y289449D01*
X459148Y288671D01*
Y279273D01*
X459470Y278495D01*
X460248Y278173D01*
X465582D01*
X466360Y278495D01*
X466682Y279273D01*
Y288671D01*
X466360Y289449D01*
X465582Y289771D01*
D02*
G37*
G36*
X324231Y291715D02*
X316782D01*
Y282702D01*
Y273689D01*
X324231D01*
Y276649D01*
X326771D01*
X327549Y276971D01*
X327583Y277055D01*
X338811D01*
Y288349D01*
X327583D01*
X327549Y288433D01*
X326771Y288755D01*
X324231D01*
Y291715D01*
D02*
G37*
G36*
X312972Y280797D02*
X305523D01*
Y273689D01*
X312972D01*
Y280797D01*
D02*
G37*
%LPD*%
G36*
X672533Y357402D02*
X683319D01*
Y360739D01*
X696341D01*
Y358331D01*
X705739D01*
Y360739D01*
X709272D01*
X710183Y358331D01*
X710248Y357691D01*
X693979Y341421D01*
X664112D01*
X663632Y341901D01*
X662524Y342360D01*
X661324D01*
X659683Y344429D01*
Y357429D01*
X661696Y359442D01*
X662016D01*
X663124Y359901D01*
X663973Y360750D01*
X663987Y360783D01*
X672533D01*
Y357402D01*
D02*
G37*
G36*
X366332Y413292D02*
Y408455D01*
X374396D01*
Y404645D01*
X366332D01*
Y398446D01*
X369296D01*
Y392764D01*
X369618Y391986D01*
X369697Y391954D01*
Y383223D01*
X372065D01*
Y358712D01*
X368475D01*
X368443Y358791D01*
X367665Y359113D01*
X362331D01*
X361553Y358791D01*
X361521Y358712D01*
X350710D01*
Y355645D01*
X332435D01*
X329406Y358674D01*
Y358994D01*
X328947Y360102D01*
X328098Y360951D01*
X326990Y361410D01*
X325790D01*
X324682Y360951D01*
X323833Y360102D01*
X323374Y358994D01*
Y357794D01*
X323833Y356686D01*
X324682Y355837D01*
X325790Y355378D01*
X326110D01*
X329822Y351666D01*
X330578Y351161D01*
X331470Y350983D01*
X350710D01*
Y347916D01*
X361521D01*
X361553Y347837D01*
X362331Y347515D01*
X363506D01*
X364478Y345169D01*
X362334Y343024D01*
X361829Y342268D01*
X361651Y341376D01*
X361718Y341041D01*
Y332867D01*
X361844Y332232D01*
X361743Y331718D01*
X360544Y329692D01*
X358475D01*
Y329692D01*
X355935Y328697D01*
X355613Y328880D01*
Y340103D01*
X355435Y340995D01*
X354930Y341751D01*
X352118Y344563D01*
X351362Y345068D01*
X350470Y345246D01*
X349993D01*
X349488Y345751D01*
X348379Y346210D01*
X347179D01*
X346071Y345751D01*
X345845Y345525D01*
X325537D01*
X315259Y355803D01*
Y365811D01*
X340484Y391036D01*
X363792Y414344D01*
X366332Y413292D01*
D02*
G37*
%LPC*%
G36*
X357376Y383778D02*
X337928D01*
X337150Y383456D01*
X336828Y382678D01*
Y365660D01*
X337150Y364883D01*
X337928Y364561D01*
X357376D01*
X358154Y364883D01*
X358476Y365660D01*
Y382678D01*
X358154Y383456D01*
X357376Y383778D01*
D02*
G37*
%LPD*%
D15*
X374396Y406550D02*
X391645D01*
X393192Y405003D01*
X347779Y342614D02*
X348080Y342915D01*
X350470D01*
X353282Y340103D01*
Y324118D02*
Y340103D01*
Y324118D02*
X355300D01*
X312928Y354838D02*
X324572Y343194D01*
X347779D01*
X338868Y333788D02*
X343186Y338106D01*
X348774D02*
X348996Y338328D01*
X343186Y338106D02*
X348774D01*
X312928Y366776D02*
X338836Y392684D01*
X312928Y354838D02*
Y366776D01*
X338868Y313658D02*
Y333788D01*
X338836Y392684D02*
X366522Y420370D01*
X398653D01*
X414147Y404876D01*
X330708Y299720D02*
X340868D01*
X345266Y304118D02*
X355300D01*
X340868Y299720D02*
X345266Y304118D01*
X355300D02*
X374049D01*
X379049Y309118D01*
X508762Y292100D02*
Y336296D01*
X485648Y359410D02*
X508762Y336296D01*
X485648Y359410D02*
Y404876D01*
Y350520D02*
Y359410D01*
Y404876D02*
X491236Y410464D01*
X475742Y340614D02*
X485648Y350520D01*
X441706Y340614D02*
X475742D01*
X564769Y438404D02*
X565164D01*
X565966Y439206D01*
X596790D01*
X469138Y269494D02*
X483362Y283718D01*
X417830Y269494D02*
X469138D01*
X338868Y313658D02*
X343408Y309118D01*
X343154Y319532D02*
Y326644D01*
X355300Y319118D02*
Y324118D01*
X504190Y315214D02*
Y331470D01*
X379049Y274747D02*
Y285369D01*
Y274747D02*
X379222Y274574D01*
X373888D02*
X374049Y274735D01*
Y285369D01*
X371856Y270002D02*
X405638D01*
X384049Y276859D02*
Y285369D01*
X364049Y277809D02*
X371856Y270002D01*
X405638D02*
X415544Y279908D01*
Y335026D01*
X432816Y352298D01*
X652272Y357378D02*
Y432054D01*
X643890Y286766D02*
X657352Y300228D01*
Y358394D01*
X661416Y362458D01*
X661811D01*
X662467Y363114D01*
X677903D01*
X677926Y363137D01*
X661924Y322834D02*
X678097D01*
X661924Y339344D02*
X662178Y339090D01*
X694944D01*
X678180Y322917D02*
X702310D01*
X678097Y322834D02*
X678180Y322917D01*
X709272Y363070D02*
X713232Y367030D01*
X701040Y363070D02*
X709272D01*
X719074Y363220D02*
Y411226D01*
X739648Y431800D01*
X694944Y339090D02*
X719074Y363220D01*
X489966Y286766D02*
X643890D01*
X484124Y292608D02*
X489966Y286766D01*
X677993Y363070D02*
X701040D01*
X677926Y363137D02*
X677993Y363070D01*
X599440Y409448D02*
X633222D01*
X623062Y420878D02*
X665480Y463296D01*
X665734D01*
X588035Y420878D02*
X623062D01*
X626872Y415544D02*
X661670Y450342D01*
X597464Y415544D02*
X626872D01*
X551434Y421386D02*
X557786D01*
X571120Y408052D01*
X561086Y427990D02*
X579120Y409956D01*
X529590Y427990D02*
X561086D01*
X364049Y277809D02*
Y285369D01*
X343154Y319532D02*
X348568Y314118D01*
X355300D01*
X343408Y309118D02*
X355300D01*
X379188Y342427D02*
X382467Y345706D01*
X373772Y342427D02*
X379188D01*
X382467Y345706D02*
Y345807D01*
X387942Y351282D01*
X388283D01*
X369049Y337704D02*
X373772Y342427D01*
X369049Y332867D02*
Y337704D01*
X369951Y347345D02*
Y349758D01*
X363982Y341376D02*
X369951Y347345D01*
X364049Y332867D02*
Y341309D01*
X363982Y341376D02*
X364049Y341309D01*
X393169Y387962D02*
X393192Y387985D01*
X374396Y387962D02*
X393169D01*
X373507Y353314D02*
X374396Y354203D01*
Y387962D01*
X369951Y349758D02*
X373507Y353314D01*
X326390Y358394D02*
X331470Y353314D01*
X356489D01*
X503007Y419612D02*
X518668D01*
X503003Y419608D02*
X503007Y419612D01*
D19*
X702310Y306495D02*
D03*
Y322917D02*
D03*
D25*
X677926Y363137D02*
D03*
Y380067D02*
D03*
D31*
X678180Y304971D02*
D03*
Y322917D02*
D03*
D43*
X393192Y405003D02*
D03*
Y387985D02*
D03*
D45*
X405213Y351282D02*
D03*
X486073Y419608D02*
D03*
X503003D02*
D03*
X388283Y351282D02*
D03*
D47*
X356489Y353314D02*
D03*
X373507D02*
D03*
D52*
X295402Y471786D02*
D03*
Y421786D02*
D03*
X512172Y598678D02*
D03*
X462172D02*
D03*
D53*
X656818Y616464D02*
D03*
Y547364D02*
D03*
X702818D02*
D03*
Y616464D02*
D03*
X748818D02*
D03*
D54*
Y547364D02*
D03*
D55*
X465201Y404876D02*
D03*
X598870Y347114D02*
D03*
X347779Y343194D02*
D03*
X348996Y338328D02*
D03*
X305308Y328884D02*
D03*
X755479Y326390D02*
D03*
X701377Y403352D02*
D03*
X607822Y449326D02*
D03*
X757555Y463042D02*
D03*
X637811Y454363D02*
D03*
X626210Y488990D02*
D03*
X622554Y480568D02*
D03*
X755479Y400812D02*
D03*
X783738Y355772D02*
D03*
X638620Y396614D02*
D03*
X611120Y396114D02*
D03*
X598932Y540341D02*
D03*
X598870Y366864D02*
D03*
X579120Y347114D02*
D03*
Y366864D02*
D03*
X559370D02*
D03*
Y347114D02*
D03*
X702310Y306495D02*
D03*
X678180Y304971D02*
D03*
X638620Y297614D02*
D03*
X783738Y286684D02*
D03*
X619120Y298114D02*
D03*
X598870Y327364D02*
D03*
X579120D02*
D03*
X559370D02*
D03*
X595120Y298114D02*
D03*
X571120D02*
D03*
X549299Y616458D02*
D03*
X538480Y542417D02*
D03*
X532210Y478447D02*
D03*
X528999Y496824D02*
D03*
X506730Y493605D02*
D03*
X549313Y466384D02*
D03*
X519620Y396614D02*
D03*
X462280Y517906D02*
D03*
X391410Y481978D02*
D03*
X478028Y469221D02*
D03*
X370586Y531749D02*
D03*
X353632Y476793D02*
D03*
X393192Y405003D02*
D03*
X374396Y406550D02*
D03*
X370840Y453981D02*
D03*
X348996Y452457D02*
D03*
X278558Y379884D02*
D03*
X465836Y377190D02*
D03*
X388366Y360934D02*
D03*
X379049Y309118D02*
D03*
X539120Y298114D02*
D03*
X519620Y297614D02*
D03*
X330708Y330200D02*
D03*
X304058Y372884D02*
D03*
X278558Y353884D02*
D03*
Y329884D02*
D03*
X330708Y299720D02*
D03*
X314877Y282702D02*
D03*
X304058Y310884D02*
D03*
X278558Y303884D02*
D03*
X508762Y292100D02*
D03*
X491236Y410464D02*
D03*
X441706Y340614D02*
D03*
X677926Y380067D02*
D03*
X454410Y458978D02*
D03*
X417830Y269494D02*
D03*
X343154Y326644D02*
D03*
X504190Y331470D02*
D03*
Y315214D02*
D03*
X379222Y274574D02*
D03*
X373888D02*
D03*
X384049Y276859D02*
D03*
X483362Y283718D02*
D03*
X652272Y432054D02*
D03*
Y357378D02*
D03*
X661416Y362458D02*
D03*
X661924Y322834D02*
D03*
Y339344D02*
D03*
X370054Y476793D02*
D03*
X564769Y438404D02*
D03*
X509651D02*
D03*
X478028Y451275D02*
D03*
X779526Y467697D02*
D03*
X588789Y478195D02*
D03*
X596790Y439206D02*
D03*
X637811Y470785D02*
D03*
X609788Y488990D02*
D03*
X486073Y419608D02*
D03*
X414147Y404876D02*
D03*
X332823Y282702D02*
D03*
X713232Y367030D02*
D03*
X484124Y292608D02*
D03*
X739648Y431800D02*
D03*
X599440Y409448D02*
D03*
X633222D02*
D03*
X665734Y463296D02*
D03*
X661670Y450342D02*
D03*
X597464Y415544D02*
D03*
X588035Y420878D02*
D03*
X571120Y408052D02*
D03*
X551434Y421386D02*
D03*
X529590Y427990D02*
D03*
X579120Y409956D02*
D03*
X432816Y352298D02*
D03*
X343408Y309118D02*
D03*
X326390Y358394D02*
D03*
X518668Y419612D02*
D03*
D57*
X701040Y381658D02*
D03*
X374396Y406550D02*
D03*
X701040Y363070D02*
D03*
X374396Y387962D02*
D03*
D58*
X355300Y304118D02*
D03*
Y294118D02*
D03*
Y299118D02*
D03*
Y324118D02*
D03*
Y309118D02*
D03*
Y319118D02*
D03*
Y314118D02*
D03*
X402798Y294118D02*
D03*
Y299118D02*
D03*
Y304118D02*
D03*
Y314118D02*
D03*
Y309118D02*
D03*
Y319118D02*
D03*
Y324118D02*
D03*
D59*
X379049Y309118D02*
D03*
D60*
X314877Y282702D02*
D03*
X332823D02*
D03*
D61*
X369049Y285369D02*
D03*
X374049D02*
D03*
X364049D02*
D03*
Y332867D02*
D03*
X369049D02*
D03*
X379049Y285369D02*
D03*
X389049D02*
D03*
X394049D02*
D03*
X384049D02*
D03*
X374049Y332867D02*
D03*
X379049D02*
D03*
X389049D02*
D03*
X394049D02*
D03*
X384049D02*
D03*
M02*
