M48
;Layer_Color=9474304
;FILE_FORMAT=2:5
INCH,LZ
;TYPE=PLATED
T01F00S00C0.00787
T02F00S00C0.05118
T03F00S00C0.06890
%
T01
X0109669Y0119639
Y0129876
Y0139324
Y0149561
X0119708Y0146805
X01285Y01411
X01302Y013
X01351Y01286
X01374Y01332
X0136921Y0135116
X01352Y01217
X01302Y0118
X0131033Y01113
X0123967
X0119708Y0122395
X01202Y0129482
X0149232Y01217
X01493Y01081
X01472
X01512Y0109
X01529Y01421
X01704Y01387
X01739Y01341
X01834Y01485
X0204575Y0156147
X0220224Y0144435
X0228
X0235776
Y0136659
X0228
X0220224
Y0128884
X0228
X0235776
X0234299Y0117368
X0243748
X0251425Y0117171
X0267Y0120067
X02765Y0120667
X02606Y01271
Y01336
X02604Y01427
X02568Y01407
X02669Y0149633
X02808Y01445
X0308558Y0140068
X0297433Y01285
X0308558Y0112868
X022485Y0117368
X0212252
X0204575Y0117171
X02003Y0115
X01906Y01152
X01903Y01117
X01985Y01241
Y01305
X01645Y01061
X0240598Y015595
X0251425Y0156147
X02493Y01612
X0236
X0235222Y01636
X023151Y01657
X0228Y01614
X022485Y016065
X02171Y01659
X02085Y01685
X02042Y0165202
X020065Y01726
X0191367Y01652
X01934Y01616
X018315Y01594
X016305
X0178902Y01807
X01882Y0177667
Y0184733
X01995Y0194333
X0208267Y01956
X0209531Y0188365
X0216265Y0183616
X022235Y01726
X0234957Y0172916
X02393Y01769
X0251107Y0178883
Y0185348
X02451Y01892
X0246539Y0192516
X0240074
X0231807Y0188266
X02358Y0212733
X0212Y021355
X021626Y02427
X0182Y02039
X02621Y01824
X02605Y01773
X02568Y01701
X0276133Y01588
X0297433Y01578
X02912Y017
X029825Y01823
X03069Y0184133
X0154098Y0189755
X0145691Y0187714
X0139225
X01374Y0178133
X0146Y0178733
X01474Y0160059
X01548Y015945
X01459Y020935
T02
X0181957Y02357
X0201642
X01163Y0185742
Y0166058
T03
X025859Y0215498
X02767
X029481
Y0242702
X02767
X025859
M30
